<svg width="72" height="72" viewBox="0 0 72 72" fill="none" xmlns="http://www.w3.org/2000/svg">
  <rect width="72" height="72" fill="#D0DEFF" />
  <path
    d="M46.2147 51.818L45.3415 52.8488C45.5959 53.0701 45.9227 53.1865 46.2575 53.1751L46.2147 51.818ZM43.3593 47.1619C43.1391 46.8788 42.8171 46.6961 42.4643 46.654C42.1114 46.6119 41.7565 46.7139 41.4776 46.9375C41.1988 47.1611 41.0189 47.488 40.9774 47.8463C40.936 48.2046 41.0364 48.565 41.2567 48.8481L43.3593 47.1619ZM44.4254 46.0468L43.9593 44.774C43.9414 44.78 43.9235 44.7864 43.9058 44.793L44.4254 46.0468ZM39.7701 47.4502L39.5451 46.1066L39.5236 46.1094L39.7701 47.4474V47.4502ZM31.4558 47.4175L31.2013 48.7502L31.2093 48.7529L31.4558 47.4175ZM24.3924 44.9072L23.6478 46.0359C23.6764 46.0562 23.7059 46.0753 23.7361 46.093L24.3924 44.9072ZM24.1031 44.7441L24.8451 43.6127C24.7987 43.5815 24.7503 43.5533 24.7004 43.5284L24.1031 44.7441ZM23.9745 44.6462L24.9201 43.6834C24.8325 43.5947 24.7334 43.5188 24.6254 43.4576L23.9745 44.6462ZM29.7442 48.7801C29.9644 48.497 30.0648 48.1366 30.0234 47.7783C29.982 47.42 29.802 47.0931 29.5232 46.8695C29.2444 46.6459 28.8895 46.5439 28.5366 46.586C28.1837 46.6281 27.8617 46.8108 27.6415 47.0939L29.7442 48.7801ZM24.7861 51.818L24.7433 53.1779C25.0845 53.1889 25.4169 53.0673 25.6727 52.8379L24.7861 51.818ZM16.7504 45.6905H15.4112C15.4108 45.7634 15.4161 45.8361 15.4272 45.9081L16.7504 45.6905ZM21.3736 22.6057L20.5701 21.5178C20.3656 21.6739 20.2094 21.8863 20.1201 22.1297L21.3736 22.6057ZM30.3951 19.1816L31.729 19.0538C31.6982 18.7217 31.5483 18.4127 31.3078 18.1856C31.0673 17.9584 30.7529 17.8289 30.4245 17.8217L30.3951 19.1816ZM29.3826 22.7335C29.4163 23.0927 29.5892 23.4236 29.8632 23.6534C30.1373 23.8832 30.4899 23.993 30.8437 23.9587C31.1975 23.9245 31.5234 23.7489 31.7497 23.4707C31.976 23.1925 32.0842 22.8343 32.0504 22.4751L29.3826 22.7335ZM38.8272 22.5622C38.7821 22.9199 38.8788 23.2812 39.0961 23.5666C39.3133 23.852 39.6333 24.038 39.9857 24.0838C40.338 24.1296 40.6939 24.0314 40.9749 23.8109C41.256 23.5903 41.4392 23.2653 41.4843 22.9076L38.8272 22.5622ZM40.6058 19.1816L40.5763 17.8217C40.2558 17.8288 39.9485 17.9524 39.7101 18.17C39.4718 18.3875 39.3181 18.6847 39.2772 19.0075L40.6058 19.1816ZM49.6272 22.6057L50.8808 22.1297C50.7914 21.8863 50.6352 21.6739 50.4308 21.5178L49.6272 22.6057ZM54.2504 45.6905L55.5736 45.9081C55.5847 45.8361 55.5901 45.7634 55.5897 45.6905H54.2504ZM32.771 39.0354L31.4317 39.0136V39.0354H32.771ZM46.2147 51.818L47.0879 50.7872L47.0825 50.7818C47.042 50.7488 47.0027 50.7144 46.9647 50.6785C46.4789 50.2515 46.0003 49.8163 45.529 49.373C44.6584 48.5625 43.7611 47.6813 43.3593 47.1619L41.2567 48.8481C41.8138 49.5661 42.8718 50.5887 43.7156 51.3774C44.2386 51.8652 44.7681 52.3457 45.304 52.8189L45.3308 52.8406L45.3388 52.8461L46.2147 51.818ZM47.3825 42.9899C46.1504 43.8139 44.9879 44.3851 43.9593 44.774L44.8915 47.3223C46.2854 46.7896 47.6154 46.098 48.8558 45.2608L47.3825 42.9899ZM43.9084 44.793C42.5087 45.4008 41.0445 45.8425 39.5451 46.1094L39.9951 48.791C41.696 48.4889 43.3569 47.9888 44.945 47.3006L43.9084 44.793ZM39.5236 46.1121C36.9372 46.5951 34.2847 46.584 31.7022 46.0794L31.2093 48.7529C34.1176 49.3193 37.1043 49.3304 40.0165 48.7855L39.5236 46.1121ZM31.7102 46.0822C30.1779 45.7776 28.6761 45.3315 27.2236 44.7495L26.2486 47.2815C27.6201 47.8255 29.2754 48.3749 31.2013 48.7502L31.7102 46.0822ZM27.2236 44.7495C26.4754 44.4578 25.7478 44.1143 25.046 43.7215L23.7361 46.093C24.6094 46.5907 25.4719 46.9742 26.2486 47.2815L27.2236 44.7495ZM25.1344 43.7758C25.0423 43.713 24.9456 43.6603 24.8451 43.6127C24.8156 43.5909 24.7915 43.5855 24.8451 43.6127L23.3585 45.8755C23.4509 45.9377 23.5476 45.9931 23.6478 46.0414C23.704 46.0686 23.6799 46.0604 23.6478 46.0359L25.137 43.7786L25.1344 43.7758ZM24.7004 43.5284C24.7811 43.5693 24.8552 43.6225 24.9201 43.6861L23.0263 45.6089C23.0879 45.6715 23.2433 45.8265 23.5031 45.9625L24.7004 43.5284ZM24.6254 43.4576C24.3703 43.3142 24.1201 43.1618 23.8754 43.0007L23.846 42.979C23.8469 42.979 23.8451 42.979 23.846 42.979L23.0745 44.0941L22.3085 45.2064L22.3111 45.2091L22.3165 45.2146L22.3353 45.2254L22.3915 45.2635L22.5924 45.3968C22.7638 45.5056 23.0103 45.6579 23.3236 45.8347L24.6254 43.4576ZM27.6415 47.0966C27.2344 47.6215 26.3317 48.5244 25.4638 49.3512C24.9887 49.8022 24.5083 50.2473 24.0227 50.6866L23.9317 50.7709L23.9049 50.7927L23.9022 50.7981H23.8995L24.7861 51.818L25.6727 52.8379L25.6754 52.8352L25.6835 52.8297L25.7102 52.8053L25.8067 52.7182C26.3067 52.2627 26.8022 51.8021 27.2933 51.3366C28.137 50.5316 29.1897 49.4954 29.7442 48.7801L27.6415 47.0939V47.0966ZM24.829 50.4582C21.7058 50.3575 20.0665 49.0412 19.1772 47.8472C18.6826 47.1805 18.3188 46.4233 18.1058 45.6171C18.0929 45.5666 18.0813 45.5158 18.071 45.4648V45.4702L16.7504 45.6905C15.4272 45.9081 15.4272 45.9054 15.4299 45.9081V45.9244C15.4495 46.0407 15.4745 46.156 15.5049 46.2698C15.8051 47.4336 16.3265 48.5266 17.0397 49.4872C18.3924 51.3013 20.771 53.05 24.7433 53.1779L24.829 50.4582ZM18.0897 45.6905C18.0897 40.6128 19.2147 34.9749 20.3585 30.5581C20.9653 28.2189 21.6587 25.9037 22.437 23.6174C22.4959 23.4484 22.5557 23.2798 22.6165 23.1115L22.6272 23.0843L21.3736 22.6057L20.1174 22.1297L20.1147 22.1406L20.104 22.1705C20.0377 22.3511 19.9734 22.5324 19.9111 22.7145C19.1086 25.0696 18.3938 27.4547 17.7683 29.8646C16.5978 34.3657 15.4112 40.2674 15.4112 45.6905H18.0897ZM22.1772 23.6936C24.3201 22.0617 26.4013 21.273 27.9361 20.8923C28.6919 20.7052 29.463 20.5887 30.2397 20.5441C30.2834 20.5425 30.3272 20.5416 30.371 20.5414L30.3951 19.1816L30.4245 17.8217H30.4111C30.3861 17.8213 30.3611 17.8213 30.3361 17.8217H30.154C29.9393 17.8296 29.7249 17.8442 29.5111 17.8652C28.7664 17.9385 28.0278 18.0667 27.3013 18.2487C24.8634 18.8635 22.5735 19.9737 20.5701 21.5124L22.1772 23.6881V23.6936ZM29.0611 19.3094L29.3826 22.7335L32.0504 22.4751L31.729 19.0538L29.0611 19.3094ZM41.4843 22.9076L41.9343 19.3556L39.2772 19.0075L38.8272 22.5622L41.4843 22.9076ZM40.6058 19.1816L40.6326 20.5414H40.6299C40.6736 20.5392 40.7174 20.5392 40.7611 20.5414C40.8629 20.5469 41.029 20.555 41.2406 20.5768C41.6692 20.6149 42.2959 20.7046 43.0647 20.895C45.1508 21.4232 47.1099 22.3752 48.8236 23.6936L50.4308 21.5178C48.4273 19.9791 46.1375 18.8689 43.6995 18.2542C42.9731 18.0712 42.2346 17.9421 41.4897 17.868C41.1896 17.8396 40.8884 17.8242 40.587 17.8217H40.5763L40.6058 19.1816ZM49.6272 22.6057L48.3709 23.0789L48.3736 23.0871L48.3843 23.1115L48.4192 23.2122L48.5611 23.6174C49.3403 25.9037 50.0345 28.2189 50.6424 30.5581C51.7888 34.9749 52.9111 40.6128 52.9111 45.6905H55.5897C55.5897 40.2674 54.4004 34.3657 53.2325 29.8646C52.6069 27.4547 51.8921 25.0697 51.0897 22.7145C51.0396 22.5709 50.9887 22.4277 50.937 22.2848L50.8968 22.1705L50.8861 22.1433L50.8834 22.1325L49.6245 22.6057H49.6272ZM54.2504 45.6905L52.9299 45.4729V45.4648L52.9245 45.4865L52.8977 45.6144C52.8656 45.7368 52.8174 45.9217 52.7343 46.1501C52.5683 46.6125 52.287 47.2271 51.8236 47.8472C50.9343 49.0412 49.295 50.3575 46.1718 50.4582L46.2575 53.1779C50.2299 53.05 52.6058 51.3013 53.9611 49.4899C54.6746 48.5284 55.196 47.4345 55.4959 46.2698C55.5222 46.1636 55.5455 46.0565 55.5656 45.9489L55.5709 45.9217V45.9108C55.5709 45.9081 55.5709 45.9054 54.2504 45.6905ZM29.4977 34.0583C26.8138 34.0583 24.8826 36.4163 24.8826 39.0354H27.5611C27.5611 37.681 28.5174 36.7781 29.4977 36.7781V34.0583ZM24.8826 39.0354C24.8826 41.6654 26.854 44.0125 29.4977 44.0125V41.2928C28.5415 41.2928 27.5611 40.3844 27.5611 39.0354H24.8826ZM29.4977 44.0125C32.1763 44.0125 34.1102 41.6572 34.1102 39.0354H31.4317C31.4317 40.3953 30.4754 41.2928 29.4977 41.2928V44.0125ZM34.1076 39.0626C34.1504 36.4027 32.1602 34.0583 29.4977 34.0583L29.4951 36.7808C30.4915 36.7808 31.4504 37.7 31.429 39.0164L34.1076 39.0626ZM41.2138 34.0583C38.5299 34.0611 36.5986 36.419 36.5986 39.0381H39.2772C39.2772 37.6837 40.2334 36.7808 41.2138 36.7808V34.0611V34.0583ZM36.5986 39.0408C36.5986 41.6708 38.5701 44.0179 41.2138 44.0179V41.2982C40.2576 41.2982 39.2772 40.3898 39.2772 39.0408H36.5986ZM41.2138 44.0179C43.8924 44.0179 45.8263 41.6626 45.8263 39.0408H43.1477C43.1477 40.4007 42.1915 41.2982 41.2138 41.2982V44.0179ZM45.8263 39.0408C45.8263 36.4218 43.8951 34.0611 41.2138 34.0611V36.7808C42.1915 36.7808 43.1477 37.6864 43.1477 39.0408H45.8263ZM25.429 27.1775C29.2942 25.0371 32.4442 24.039 35.5085 24.0362C38.5754 24.0362 41.7174 25.0289 45.5745 27.1748L46.8602 24.7923C42.7834 22.5214 39.1861 21.3138 35.5085 21.3165C31.8308 21.3165 28.2308 22.5268 24.1486 24.7896L25.429 27.1775Z"
    fill="#145AFF" />
</svg>