<svg width="72" height="72" viewBox="0 0 72 72" fill="none" xmlns="http://www.w3.org/2000/svg">
  <rect y="6.10352e-05" width="72" height="72" fill="#FFF5D8" />
  <path
    d="M56.2419 31.3549L46.3982 20.1049C46.2666 19.9546 46.1044 19.834 45.9226 19.7513C45.7407 19.6685 45.5433 19.6255 45.3435 19.625H25.656C25.4562 19.6255 25.2588 19.6685 25.0769 19.7513C24.8951 19.834 24.7329 19.9546 24.6013 20.1049L14.7576 31.3549C14.5279 31.6171 14.4038 31.9552 14.4094 32.3037C14.4149 32.6522 14.5496 32.9862 14.7875 33.241L34.475 54.3348C34.6065 54.4758 34.7657 54.5883 34.9426 54.6652C35.1195 54.7421 35.3104 54.7818 35.5033 54.7818C35.6962 54.7818 35.887 54.7421 36.0639 54.6652C36.2408 54.5883 36.4 54.4758 36.5316 54.3348L56.2191 33.241C56.456 32.9854 56.5894 32.6508 56.5937 32.3023C56.5979 31.9539 56.4725 31.6162 56.2419 31.3549ZM52.0882 30.875H44.6404L38.3123 22.4375H44.7054L52.0882 30.875ZM26.1095 33.6875L31.4058 46.9291L19.0484 33.6875H26.1095ZM41.8595 33.6875L35.4998 49.5887L29.14 33.6875H41.8595ZM29.8748 30.875L35.4998 23.3744L41.1248 30.875H29.8748ZM44.89 33.6875H51.9511L39.5937 46.9291L44.89 33.6875ZM26.2941 22.4375H32.6873L26.3591 30.875H18.9113L26.2941 22.4375Z"
    fill="#FFCB3D" />
</svg>