<svg width="288" height="299" viewBox="0 0 288 299" fill="none" xmlns="http://www.w3.org/2000/svg">
  <path
    d="M32.1048 141.983C27.2391 133.096 21.033 125.258 14.8853 117.275C9.08715 109.729 3.2308 101.571 1.01641 92.1596C0.0257797 87.964 -0.527809 83.0691 0.72503 78.9026C1.30776 76.9505 2.41494 75.1732 4.16314 74.066C6.17352 72.8131 8.62097 72.58 10.9228 72.4343C32.4545 71.2106 51.6262 83.2731 72.4586 86.4781C81.8696 87.9349 92.0965 87.7892 100.808 83.4479C108.384 79.6893 113.716 73.1628 117.212 65.5873C124.234 50.4073 124.817 33.0712 132.042 17.9495C135.714 10.2866 142.036 2.65291 150.602 0.555099C157.944 -1.25135 165.141 1.4875 170.298 6.79031C175.718 12.3553 179.068 19.7851 181.516 27.0691C182.943 31.3522 183.992 35.7518 185.07 40.1222C186.498 45.9786 187.955 51.835 189.383 57.6622C190.81 63.4021 192.209 69.1711 193.636 74.911C194.86 79.9224 195.88 85.0796 197.919 89.8579C199.755 94.1992 202.727 97.8995 207.01 99.9682C211.002 101.891 215.547 102.299 219.917 101.92C238.419 100.347 254.91 82.2241 274.111 89.5956C274.694 89.8287 279.996 92.1596 280.987 93.6164C284.483 96.5883 286.639 106.378 286.261 106.553C288.533 117.304 286.785 129.104 283.434 139.448C277.199 158.794 264.554 175.752 261.203 196.089C257.532 218.407 268.458 239.065 273.557 260.189C276.908 274.116 275.946 295.385 258.319 298.532C253.22 299.435 248.005 298.707 242.935 297.862C237.72 296.988 232.562 295.735 227.493 294.191C217.47 291.073 207.913 286.673 199.027 281.108C183.293 271.26 168.754 257.595 150.282 253.079C141.861 251.011 133.179 251.389 124.875 253.866C117.066 256.197 109.84 260.159 102.993 264.53C88.6584 273.65 75.5179 284.896 59.8425 291.743C51.7427 295.298 42.0403 298.328 33.1829 295.939C24.2089 293.52 19.0809 285.158 17.391 276.476C13.9529 258.644 22.1694 241.716 29.7448 226.128C33.7947 217.766 37.9321 209.346 40.5835 200.401C43.3806 190.961 44.0798 181.2 42.5939 171.469C40.9914 161.154 37.1454 151.161 32.1048 141.983Z"
    fill="currentColor" />
  <path
    d="M120.359 57.4876C120.679 56.4678 121 55.4481 121.291 54.4283C134.519 55.4481 147.922 54.6031 161.033 52.4762C169.657 51.0776 178.252 49.2129 186.731 47.0859C186.964 48.0766 187.226 49.0381 187.459 50.0287C180.816 51.6895 174.144 53.2046 167.414 54.4574C151.942 57.371 136.063 58.7405 120.359 57.4876Z"
    fill="white" />
  <path
    d="M89.9684 97.4625C64.2411 96.5884 38.8051 90.7903 14.7385 81.7581C10.3972 80.1264 6.05591 78.3782 1.77287 76.5427C2.38473 75.5812 3.14227 74.7071 4.16205 74.0952C4.42427 73.9204 4.68651 73.8039 4.94875 73.6582C5.76456 74.0078 6.60951 74.3866 7.42532 74.7071C31.1131 84.5843 56.2577 91.2273 81.8685 93.2086C94.5137 94.1993 107.217 94.0535 119.804 92.6259C133.906 91.0525 147.862 88.3428 161.673 85.0796C172.512 82.5156 183.234 79.6311 193.985 76.7466C194.218 77.7664 194.48 78.8153 194.713 79.8351C187.021 81.962 179.329 84.1181 171.608 86.0994C144.978 92.9464 117.648 98.424 89.9684 97.4625Z"
    fill="white" />
  <path
    d="M188.654 127.328C156.458 129.571 124.029 128.085 92.096 123.686C63.1637 119.694 34.3771 113.488 6.37707 105.038C5.50299 103.523 4.65805 101.979 3.92966 100.406C27.8214 107.777 52.3542 113.371 76.9452 117.509C108.15 122.753 139.821 125.259 171.463 124.414C189.353 123.948 207.243 122.375 224.899 119.548C239.7 117.188 254.443 113.896 268.575 108.855C274.285 106.816 279.821 104.427 285.182 101.804C285.532 102.941 285.823 104.019 285.998 104.864C283.318 106.204 280.579 107.486 277.811 108.68C249.811 120.626 218.868 125.201 188.654 127.328Z"
    fill="white" />
  <path
    d="M193.753 166.486C163.947 167.127 133.878 165.671 104.334 161.708C80.879 158.561 57.6574 153.725 34.8728 147.344C34.2318 146.033 33.5908 144.751 32.9207 143.469C51.801 148.888 70.9727 153.229 90.3483 156.405C118.814 161.096 147.601 163.048 176.417 163.427C208.321 163.835 241.012 162.203 271.314 151.423C274.315 150.345 277.287 149.209 280.229 148.043C279.734 149.238 279.21 150.432 278.685 151.627C265.661 156.755 252.288 160.513 238.448 162.757C223.647 165.175 208.7 166.166 193.753 166.486Z"
    fill="white" />
  <path
    d="M82.1892 206.199C68.6699 202.324 55.4712 197.662 42.4182 192.592C42.6221 191.369 42.7969 190.145 42.9426 188.921C52.6158 192.68 62.4056 196.147 72.312 199.294C104.682 209.521 138.306 215.756 172.337 215.727C202.347 215.727 232.707 211.356 260.649 200.255C260.532 201.479 260.474 202.703 260.445 203.927C236.291 213.367 210.535 217.97 184.487 219.165C149.873 220.738 115.405 215.698 82.1892 206.199Z"
    fill="white" />
  <path
    d="M23.422 239.764C23.9756 238.482 24.5292 237.171 25.1119 235.918C41.3408 242.27 58.0359 247.573 74.7602 252.002C86.6769 255.148 98.7393 257.829 110.889 259.898C108.966 260.947 107.072 262.054 105.208 263.19C98.3314 261.937 91.4553 260.48 84.6665 258.849C63.9797 253.925 43.3512 247.602 23.422 239.764Z"
    fill="white" />
  <path
    d="M247.801 253.167C255.056 250.836 262.165 248.126 269.1 245.067C269.449 246.174 269.799 247.31 270.148 248.418C266.244 250.166 262.311 251.797 258.348 253.312C233.582 262.723 207.36 267.589 180.933 268.784C179.039 267.473 177.145 266.162 175.222 264.909C199.813 264.326 224.375 260.713 247.801 253.167Z"
    fill="white" />
  <path d="M205.989 188.513C205.931 188.368 205.931 188.28 205.844 188.076C206.164 188.397 206.135 188.484 205.989 188.513Z" fill="white" />
  <path
    d="M204.388 186.59C204.883 186.532 205.233 186.211 205.087 185.6C205.757 185.891 206.398 186.212 207.068 186.736C207.272 187.086 207.534 187.406 207.651 187.348C208.03 187.231 208.088 186.911 207.826 186.765C207.622 186.649 207.36 186.59 207.126 186.532C207.243 185.337 207.971 185.483 209.079 185.745C208.321 186.882 209.603 187.173 209.953 187.989C209.02 188.484 208.088 188.95 207.156 189.446C207.156 188.863 206.835 188.542 206.136 188.222C206.019 187.872 205.757 187.756 205.844 188.047C205.437 187.727 205.233 187.901 205.262 187.93C205.378 188.134 205.524 188.397 205.728 188.484C206.136 188.921 206.165 189.213 206.194 189.475C205.553 189.504 204.883 189.504 204.242 189.533C204.067 188.805 204.679 187.668 203.222 187.61C203.106 186.707 203.717 186.678 204.388 186.59Z"
    fill="white" />
  <path
    d="M212.05 175.722C212.341 175.344 212.72 175.023 213.098 174.703C214.089 175.344 213.215 176.509 213.827 177.296C214.468 178.112 215.779 178.49 215.633 180.297C213.302 179.801 212.137 178.986 211.7 177.616C211.467 176.859 211.642 176.305 211.991 175.839C210.913 175.664 210.127 176.159 209.748 175.198C210.36 174.499 210.972 174.615 212.05 175.722Z"
    fill="white" />
  <path
    d="M218.955 193C218.985 193.641 218.985 194.311 219.014 194.952C218.227 194.836 218.081 195.651 217.673 195.884C216.187 195.185 215.896 193.67 215.226 192.446C216.683 191.368 217.761 192.534 218.955 193Z"
    fill="white" />
  <path d="M217.499 201.566C216.508 199.701 218.198 198.449 218.81 196.904C218.839 198.536 220.121 200.692 217.499 201.566Z" fill="white" />
  <path
    d="M193.549 259.402C193.549 259.781 193.578 260.218 193.578 260.626C192.645 261.208 191.771 261.208 190.81 260.713C190.81 260.334 190.781 259.897 190.781 259.489C191.713 258.907 192.587 258.877 193.549 259.402Z"
    fill="white" />
  <path
    d="M248.908 254.565C248.937 255.731 248.966 256.459 248.995 257.333C246.14 255.09 246.14 255.09 246.548 254.653C247.247 254.595 247.975 254.565 248.908 254.565Z"
    fill="white" />
  <path
    d="M233.64 191.077C232.766 191.63 232.562 192.592 232.562 192.592C231.193 191.922 230.435 191.543 229.066 190.873C231.018 190.756 232.242 190.29 233.64 191.077Z"
    fill="white" />
  <path
    d="M225.249 175.256C224.783 175.227 224.346 175.343 224.491 175.926C224.52 176.072 224.987 176.13 225.278 176.218C225.278 176.538 225.307 176.859 225.307 177.179C222.743 177.849 223.472 175.431 221.578 174.207C223.617 174.586 224.899 173.45 225.249 175.256Z"
    fill="white" />
  <path
    d="M189.761 140.409C190.314 140.701 190.139 141.225 190.139 141.662C190.139 142.099 190.081 142.536 189.994 143.498C187.604 140.904 187.575 140.904 189.761 140.409Z"
    fill="white" />
  <path
    d="M260.912 248.271C261.727 248.271 262.601 248.009 263.359 248.534C263.65 249.145 263.68 249.699 263.039 250.107C262.485 248.417 261.319 250.544 260.62 249.728C260.62 249.262 260.591 248.825 260.591 248.359C259.717 248.301 259.047 248.592 258.697 247.747C259.28 247.135 259.892 247.252 260.912 248.271Z"
    fill="white" />
  <path
    d="M256.832 270.794C257.414 271.231 257.502 271.756 257.152 272.571C256.366 272.601 255.521 272.63 254.384 272.659C255.084 271.581 255.579 270.707 256.832 270.794Z"
    fill="white" />
  <path d="M158.293 217.708C157.332 218.495 156.37 218.495 155.351 217.824C156.05 215.814 156.05 215.814 158.293 217.708Z" fill="white" />
  <path
    d="M238.856 245.999C239.497 245.999 240.051 246.057 240.08 246.96C240.109 247.572 239.818 247.864 239.322 247.922C238.652 248.009 238.099 247.893 238.07 246.99C238.07 246.378 238.361 246.145 238.856 245.999Z"
    fill="white" />
  <path
    d="M197.947 208.239C198.734 208.355 199.958 207.685 199.929 209.288C199.929 209.812 199.637 210.103 199.113 210.133C197.54 210.249 198.122 209.025 197.947 208.239Z"
    fill="white" />
  <path d="M217.47 204.247C216.334 204.946 215.46 204.975 214.294 204.334C215.518 203.606 216.392 203.664 217.47 204.247Z" fill="white" />
  <path d="M259.076 249.583C258.785 249.874 258.319 250.399 258.056 250.661C257.736 249.554 257.736 249.554 259.076 249.583Z"
    fill="white" />
  <path d="M260.824 240.609C260.125 239.473 260.096 238.599 260.737 237.433C261.494 238.657 261.436 239.531 260.824 240.609Z"
    fill="white" />
  <path d="M187.633 197.953C187.284 198.652 186.963 199.293 186.497 200.226C185.71 198.303 185.856 197.574 187.633 197.953Z" fill="white" />
  <path
    d="M221.927 193.874C221.869 194.428 222.015 195.214 221.694 195.535C221.082 196.118 220.937 194.981 220.441 194.923C220.296 194.894 220.15 194.923 220.004 194.923C220.033 193.437 221.17 194.049 221.927 193.874Z"
    fill="white" />
  <path d="M150.979 185.396C150.222 184.172 150.28 183.298 150.892 182.22C151.562 183.356 151.591 184.201 150.979 185.396Z" fill="white" />
  <path
    d="M251.121 272.95C251.325 272.834 251.471 272.834 251.558 272.921C251.558 272.601 251.529 272.28 251.529 271.96C251.442 272.047 251.296 272.047 251.092 271.96C250.888 271.872 250.743 271.61 250.626 271.406C250.597 271.377 250.801 271.202 250.917 271.085C251.121 271.231 251.384 271.348 251.471 271.552C251.588 271.756 251.588 271.901 251.5 271.989C252.316 272.367 252.374 270.678 253.278 271.231C253.919 273.154 252.578 272.892 251.529 272.95C251.617 273.038 251.617 273.183 251.529 273.387C251.442 273.591 251.18 273.737 250.976 273.853C250.947 273.883 250.772 273.679 250.655 273.562C250.83 273.3 250.917 273.038 251.121 272.95Z"
    fill="white" />
  <path d="M263.738 253.545C262.864 254.215 262.252 254.507 261.815 253.458C262.368 252.904 262.922 252.933 263.738 253.545Z"
    fill="white" />
  <path d="M203.427 178.84C202.698 178.199 202.669 177.558 203.369 176.858C204.097 177.529 204.126 178.17 203.427 178.84Z" fill="white" />
  <path
    d="M226.269 177.208C226.561 177.237 227.027 177.354 227.056 177.499C227.202 178.082 226.765 178.17 226.298 178.17C225.978 178.17 225.657 178.199 225.337 178.199C225.337 177.878 225.308 177.558 225.308 177.237C225.628 177.208 225.978 177.15 226.269 177.208Z"
    fill="white" />
  <path
    d="M225.336 178.199C225.336 178.49 225.365 178.782 225.365 179.073C226.239 179.131 226.909 178.84 227.259 179.685C226.618 180.355 225.977 180.297 224.84 179.015C224.433 178.286 224.87 178.17 225.336 178.199Z"
    fill="white" />
  <path d="M146.493 181.987C145.852 182.715 145.211 182.744 144.512 182.045C145.153 181.317 145.823 181.287 146.493 181.987Z"
    fill="white" />
  <path
    d="M208.467 181.754C209.108 181.928 209.108 182.802 208.525 183.473C208.321 183.298 207.942 183.036 207.971 182.977C208.205 182.569 207.505 181.666 208.234 181.695C207.068 181.404 207.068 182.336 206.252 182.628C206.311 181.841 204.941 181.958 205.174 180.938C206.165 180.734 207.068 180.297 208.467 181.754Z"
    fill="white" />
  <path d="M173.444 186.562C172.716 185.921 172.687 185.28 173.386 184.609C174.115 185.221 174.115 185.862 173.444 186.562Z" fill="white" />
  <path d="M182.448 261.383C181.836 260.597 181.719 260.072 182.273 259.548C183.118 260.072 183.118 260.597 182.448 261.383Z"
    fill="white" />
  <path
    d="M203.193 187.61C203.222 188.251 203.222 188.921 203.251 189.562C202.669 189.679 202.348 189.329 202.261 188.863C202.203 188.193 202.29 187.581 203.193 187.61Z"
    fill="white" />
  <path
    d="M219.072 196.875C219.043 196.234 219.043 195.564 219.014 194.923C219.335 194.923 219.655 194.894 219.976 194.894C219.859 195.652 220.529 196.759 219.072 196.875Z"
    fill="white" />
  <path d="M220.703 197.924C221.256 198.478 221.227 199.032 220.615 199.847C219.974 198.973 219.654 198.361 220.703 197.924Z"
    fill="white" />
  <path d="M264.029 266.22C263.388 266.948 262.747 266.977 262.048 266.278C262.718 265.549 263.359 265.52 264.029 266.22Z" fill="white" />
  <path d="M252.345 204.334C251.792 204.888 251.238 204.859 250.422 204.247C251.296 203.577 251.908 203.285 252.345 204.334Z"
    fill="white" />
  <path
    d="M197.89 206.869C197.628 207.306 198.531 208.355 197.511 208.18C196.725 208.035 196.725 207.073 197.336 206.374C197.54 206.549 197.919 206.811 197.89 206.869Z"
    fill="white" />
  <path d="M219.916 208.559C219.188 207.918 219.159 207.277 219.858 206.606C220.586 207.247 220.586 207.888 219.916 208.559Z"
    fill="white" />
  <path d="M222.189 219.223C221.461 218.582 221.432 217.941 222.131 217.271C222.83 217.883 222.86 218.553 222.189 219.223Z" fill="white" />
  <path d="M234.398 220.301C233.757 221.029 233.116 221.058 232.446 220.359C233.087 219.631 233.728 219.631 234.398 220.301Z"
    fill="white" />
  <path
    d="M201.152 228.43C201.094 228.489 200.89 228.489 200.832 228.43C200.307 227.906 200.307 227.381 200.978 226.595C201.589 227.352 201.706 227.906 201.152 228.43Z"
    fill="white" />
  <path d="M262.047 281.371C261.319 280.73 261.29 280.089 261.989 279.418C262.718 280.059 262.718 280.7 262.047 281.371Z" fill="white" />
  <path d="M244.682 235.627C243.895 236.239 243.371 236.355 242.817 235.802C243.342 234.957 243.895 234.957 244.682 235.627Z"
    fill="white" />
  <path d="M218.867 238.802C218.139 238.161 218.11 237.52 218.809 236.85C219.537 237.491 219.537 238.132 218.867 238.802Z" fill="white" />
  <path d="M257.385 244.804C256.861 245.649 256.307 245.649 255.521 244.979C256.307 244.367 256.861 244.28 257.385 244.804Z" fill="white" />
  <path d="M210.331 148.422C209.602 147.781 209.573 147.14 210.272 146.47C211.001 147.111 211.03 147.752 210.331 148.422Z" fill="white" />
  <path d="M181.719 164.971C182.272 165.525 182.243 166.078 181.631 166.894C180.961 166.02 180.67 165.408 181.719 164.971Z" fill="white" />
  <path d="M174.26 167.768C173.648 168.06 173.124 168.264 172.337 167.564C173.182 166.923 173.794 166.603 174.26 167.768Z" fill="white" />
  <path
    d="M161.266 125.87C161.149 126.074 161.062 126.307 160.945 126.511C160.829 126.395 160.625 126.278 160.625 126.191C160.683 125.958 160.799 125.754 160.916 125.521C161.003 125.637 161.12 125.724 161.266 125.87Z"
    fill="white" />
  <path
    d="M189.818 136.68C189.789 136.913 189.644 137.117 189.527 137.35C189.41 137.233 189.294 137.146 189.177 137C189.294 136.796 189.381 136.563 189.498 136.359C189.614 136.476 189.818 136.592 189.818 136.68Z"
    fill="white" />
  <path
    d="M183.439 166.894C183.643 167.011 183.846 167.098 184.08 167.214C183.963 167.331 183.846 167.535 183.759 167.535C183.526 167.477 183.322 167.36 183.089 167.244C183.206 167.156 183.322 167.04 183.439 166.894Z"
    fill="white" />
  <path
    d="M243.925 168.03C244.129 168.147 244.333 168.234 244.566 168.351C244.449 168.467 244.333 168.671 244.245 168.671C244.012 168.642 243.808 168.496 243.575 168.38C243.692 168.263 243.779 168.176 243.925 168.03Z"
    fill="white" />
  <path
    d="M211.059 172.75C211.176 172.954 211.321 173.158 211.38 173.391C211.409 173.479 211.205 173.595 211.088 173.712C210.972 173.508 210.855 173.304 210.709 173.1C210.855 172.984 210.942 172.867 211.059 172.75Z"
    fill="white" />
  <path
    d="M205.552 174.207C205.494 174.44 205.377 174.644 205.261 174.877C205.144 174.761 204.94 174.644 204.94 174.557C204.97 174.324 205.115 174.12 205.232 173.887C205.348 174.003 205.552 174.149 205.552 174.207Z"
    fill="white" />
  <path
    d="M226.035 175.577C226.181 176.159 225.744 176.276 225.277 176.247C225.277 175.926 225.248 175.606 225.248 175.285C225.54 175.373 226.006 175.402 226.035 175.577Z"
    fill="white" />
  <path
    d="M208.234 176.742C208.35 176.946 208.467 177.15 208.612 177.354C208.496 177.5 208.379 177.587 208.263 177.704C208.146 177.5 208 177.296 207.942 177.063C207.942 177.004 208.146 176.859 208.234 176.742Z"
    fill="white" />
  <path
    d="M205.699 179.102C205.64 179.335 205.524 179.539 205.407 179.772C205.291 179.656 205.174 179.569 205.058 179.452C205.174 179.248 205.262 179.015 205.378 178.811C205.495 178.869 205.699 179.015 205.699 179.102Z"
    fill="white" />
  <path
    d="M225.015 183.065C225.132 183.269 225.248 183.473 225.394 183.677C225.277 183.822 225.161 183.91 225.044 184.026C224.928 183.822 224.782 183.618 224.724 183.385C224.695 183.327 224.899 183.181 225.015 183.065Z"
    fill="white" />
  <path
    d="M203.483 183.793C203.687 183.939 203.949 184.055 204.037 184.259C204.153 184.463 204.153 184.609 204.066 184.696C204.736 184.667 205.057 184.958 205.057 185.629C204.387 185.658 204.066 185.366 204.066 184.696C203.979 184.784 203.833 184.784 203.629 184.696C203.425 184.609 203.279 184.347 203.163 184.143C203.192 184.055 203.396 183.91 203.483 183.793Z"
    fill="white" />
  <path
    d="M201.968 185.046C201.91 185.279 201.793 185.483 201.677 185.716C201.56 185.6 201.356 185.483 201.356 185.396C201.415 185.163 201.531 184.959 201.648 184.726C201.764 184.842 201.997 184.959 201.968 185.046Z"
    fill="white" />
  <path
    d="M201.094 187.989C201.036 188.222 200.919 188.426 200.803 188.659C200.686 188.542 200.57 188.455 200.453 188.309C200.57 188.105 200.657 187.901 200.774 187.668C200.89 187.785 201.094 187.901 201.094 187.989Z"
    fill="white" />
  <path
    d="M232.3 189.009C232.271 189.242 232.125 189.446 232.009 189.679C231.892 189.562 231.688 189.446 231.688 189.358C231.718 189.125 231.863 188.921 231.98 188.688C232.096 188.805 232.329 188.95 232.3 189.009Z"
    fill="white" />
  <path
    d="M215.808 189.592C215.866 189.737 215.546 189.97 215.4 190.174C215.254 190.174 215.109 190.174 214.963 190.174C215.05 189.912 215.08 189.65 215.225 189.417C215.4 189.155 215.691 189.213 215.808 189.592Z"
    fill="white" />
  <path
    d="M207.155 189.446C207.068 189.708 207.01 190.174 206.835 190.232C206.252 190.378 206.136 189.941 206.165 189.475C206.514 189.475 206.835 189.446 207.155 189.446Z"
    fill="white" />
  <path
    d="M204.242 189.533C204.154 189.795 204.096 190.261 203.921 190.319C203.338 190.465 203.222 190.028 203.251 189.562C203.572 189.562 203.921 189.533 204.242 189.533Z"
    fill="white" />
  <path
    d="M222.219 190.058C222.423 190.203 222.685 190.32 222.772 190.524C222.889 190.728 222.889 190.873 222.801 190.961C223.734 191.077 224.812 190.553 225.832 191.864C224.025 190.728 224.054 193 222.86 192.913C222.831 192.272 222.831 191.631 222.801 190.961C222.714 191.048 222.568 191.048 222.364 190.961C222.16 190.873 222.015 190.611 221.898 190.407C221.898 190.32 222.102 190.174 222.219 190.058Z"
    fill="white" />
  <path
    d="M219.8 192.388C219.858 192.534 219.538 192.767 219.392 192.971C219.247 192.971 219.101 192.971 218.955 192.971C219.043 192.709 219.072 192.447 219.217 192.214C219.363 191.98 219.684 192.039 219.8 192.388Z"
    fill="white" />
  <path
    d="M226.618 193.116C226.501 193.32 226.414 193.524 226.297 193.757C226.181 193.641 225.977 193.524 225.977 193.437C226.035 193.204 226.151 193 226.268 192.767C226.385 192.883 226.501 193 226.618 193.116Z"
    fill="white" />
  <path d="M222.859 192.884C222.918 193.554 222.597 193.904 221.927 193.874C221.869 193.204 222.189 192.884 222.859 192.884Z"
    fill="white" />
  <path
    d="M228.192 208.297C228.279 208.035 228.308 207.772 228.454 207.539C228.599 207.277 228.891 207.335 229.036 207.714C229.095 207.86 228.774 208.093 228.629 208.297C228.483 208.297 228.337 208.297 228.192 208.297C228.075 209.084 228.745 210.307 227.143 210.278C226.618 210.278 226.327 209.987 226.269 209.462C226.181 207.889 227.405 208.472 228.192 208.297Z"
    fill="white" />
  <path
    d="M214.643 212.114C214.439 212.23 214.235 212.347 214.031 212.463C213.886 212.347 213.798 212.23 213.682 212.143C213.886 212.026 214.089 211.881 214.323 211.822C214.41 211.793 214.556 212.026 214.643 212.114Z"
    fill="white" />
  <path
    d="M196.958 221.932C197.162 221.816 197.308 221.816 197.395 221.903C197.483 221.641 197.512 221.379 197.657 221.146C197.803 220.884 198.094 220.942 198.24 221.321C198.298 221.437 197.978 221.699 197.832 221.903C197.686 221.903 197.541 221.903 197.395 221.903C197.483 221.991 197.483 222.136 197.395 222.34C197.308 222.544 197.045 222.69 196.842 222.806C196.812 222.836 196.638 222.632 196.521 222.515C196.667 222.282 196.783 222.02 196.958 221.932Z"
    fill="white" />
  <path
    d="M197.308 225.458C197.337 225.545 197.133 225.662 197.017 225.778C196.9 225.574 196.784 225.371 196.638 225.167C196.755 225.021 196.871 224.933 196.988 224.817C197.104 225.05 197.25 225.254 197.308 225.458Z"
    fill="white" />
  <path
    d="M198.967 225.749C199.084 225.953 199.201 226.157 199.346 226.361C199.23 226.507 199.113 226.594 198.997 226.711C198.88 226.507 198.734 226.303 198.676 226.07C198.647 225.982 198.851 225.866 198.967 225.749Z"
    fill="white" />
  <path
    d="M197.57 228.226C197.366 228.342 197.162 228.459 196.958 228.605C196.812 228.488 196.725 228.372 196.608 228.255C196.812 228.138 197.016 227.993 197.249 227.934C197.337 227.905 197.482 228.109 197.57 228.226Z"
    fill="white" />
  <path
    d="M247.218 231.46C247.16 231.693 247.043 231.897 246.927 232.13C246.81 232.014 246.606 231.897 246.606 231.81C246.635 231.577 246.781 231.373 246.898 231.14C247.014 231.256 247.247 231.373 247.218 231.46Z"
    fill="white" />
  <path
    d="M259.659 233.704C259.776 233.908 259.922 234.112 259.98 234.345C260.009 234.432 259.776 234.549 259.689 234.665C259.572 234.461 259.455 234.257 259.31 234.053C259.455 233.908 259.543 233.791 259.659 233.704Z"
    fill="white" />
  <path
    d="M262.193 243.668C262.164 243.901 262.018 244.105 261.901 244.338C261.785 244.222 261.668 244.134 261.552 243.989C261.668 243.785 261.756 243.581 261.872 243.348C261.989 243.464 262.222 243.61 262.193 243.668Z"
    fill="white" />
  <path
    d="M237.865 244.396C237.807 244.629 237.69 244.833 237.574 245.066C237.457 244.95 237.341 244.862 237.224 244.717C237.341 244.513 237.428 244.309 237.545 244.076C237.661 244.192 237.865 244.309 237.865 244.396Z"
    fill="white" />
  <path
    d="M267.118 244.513C267.089 244.63 267.06 244.746 267.002 244.834C267.002 244.688 267.031 244.513 267.031 244.368C267.06 244.426 267.118 244.484 267.118 244.513Z"
    fill="white" />
  <path
    d="M266.476 244.834C266.593 244.63 266.68 244.426 266.797 244.193C266.855 244.251 266.942 244.309 267.03 244.368C267.03 244.513 267.03 244.688 267.001 244.834C266.942 244.95 266.884 245.067 266.826 245.154C266.709 245.067 266.593 244.95 266.476 244.834Z"
    fill="white" />
  <path
    d="M257.415 246.756C257.386 246.99 257.241 247.194 257.124 247.427C257.008 247.31 256.804 247.194 256.804 247.106C256.862 246.873 256.978 246.669 257.095 246.436C257.212 246.553 257.445 246.669 257.415 246.756Z"
    fill="white" />
  <path
    d="M267.059 247.31C267.147 247.281 267.263 247.514 267.38 247.602C267.176 247.718 266.972 247.835 266.768 247.951C266.797 247.776 266.797 247.572 266.797 247.398C266.885 247.339 266.972 247.31 267.059 247.31Z"
    fill="white" />
  <path
    d="M266.419 247.631C266.564 247.543 266.681 247.456 266.827 247.397C266.827 247.572 266.798 247.776 266.798 247.951C266.798 247.951 266.798 247.951 266.768 247.951C266.623 247.835 266.506 247.718 266.419 247.631Z"
    fill="white" />
  <path
    d="M265.486 249.612C265.282 249.728 265.078 249.845 264.874 249.961C264.729 249.845 264.641 249.728 264.525 249.641C264.729 249.524 264.933 249.378 265.166 249.32C265.224 249.291 265.37 249.495 265.486 249.612Z"
    fill="white" />
  <path
    d="M185.652 259.577C185.594 259.81 185.477 260.014 185.361 260.247C185.244 260.131 185.128 260.043 185.011 259.927C185.128 259.723 185.215 259.49 185.332 259.286C185.448 259.373 185.681 259.519 185.652 259.577Z"
    fill="white" />
  <path
    d="M247.655 272.542C247.451 272.659 247.247 272.775 247.043 272.892C246.897 272.775 246.81 272.659 246.693 272.571C246.897 272.455 247.101 272.309 247.334 272.251C247.393 272.222 247.538 272.426 247.655 272.542Z"
    fill="white" />
  <path
    d="M243.314 280.147C243.547 280.205 243.751 280.322 243.984 280.438C243.867 280.555 243.78 280.671 243.634 280.788C243.43 280.671 243.197 280.584 242.993 280.467C243.11 280.351 243.226 280.147 243.314 280.147Z"
    fill="white" />
  <path d="M29.0165 105.941C28.9582 105.796 28.9582 105.708 28.8708 105.504C29.2204 105.854 29.1622 105.941 29.0165 105.941Z"
    fill="white" />
  <path
    d="M16.225 93.4999C16.7203 93.4417 17.07 93.1211 16.9243 92.5092C17.5944 92.8006 18.2354 93.1211 18.9056 93.6456C19.1095 93.9952 19.3717 94.3157 19.4883 94.2574C19.867 94.1409 19.9253 93.8204 19.6631 93.6747C19.4591 93.5582 19.1969 93.4999 18.9638 93.4416C19.0804 92.247 19.8088 92.3927 20.9159 92.655C20.1584 93.7913 21.4404 94.0826 21.79 94.8984C20.8577 95.3937 19.9253 95.8599 18.993 96.3552C18.993 95.7725 18.6725 95.4521 17.9732 95.1316C17.8566 94.7819 17.5944 94.6654 17.6818 94.9567C17.2739 94.6362 17.07 94.811 17.0991 94.8402C17.2156 95.0441 17.3613 95.3064 17.5653 95.3938C17.9732 95.8308 18.0023 96.1222 18.0315 96.3844C17.3905 96.4135 16.7203 96.4135 16.0793 96.4426C15.9045 95.7142 16.5164 94.5779 15.0596 94.5196C14.943 93.6164 15.5549 93.6165 16.225 93.4999Z"
    fill="white" />
  <path d="M40.5533 119.023C39.5627 117.158 41.2526 115.906 41.8645 114.361C41.8936 115.993 43.1465 118.149 40.5533 119.023Z"
    fill="white" />
  <path
    d="M45.4474 274.32C45.4474 274.699 45.4766 275.136 45.4766 275.544C44.5442 276.126 43.6701 276.126 42.7086 275.631C42.7086 275.252 42.6795 274.815 42.6795 274.407C43.6118 273.825 44.4859 273.795 45.4474 274.32Z"
    fill="white" />
  <path
    d="M71.9624 171.993C71.9915 173.158 72.0207 173.886 72.0498 174.761C69.1944 172.517 69.1945 172.517 69.6024 172.08C70.2725 172.051 71.0009 172.022 71.9624 171.993Z"
    fill="white" />
  <path
    d="M56.666 108.535C55.7919 109.088 55.588 110.05 55.588 110.05C54.2186 109.38 53.461 109.001 52.0916 108.331C54.0438 108.214 55.2966 107.748 56.666 108.535Z"
    fill="white" />
  <path
    d="M81.9559 105.329C82.5095 105.62 82.3346 106.145 82.3346 106.582C82.3346 107.019 82.2764 107.456 82.189 108.418C79.7998 105.824 79.7707 105.795 81.9559 105.329Z"
    fill="white" />
  <path
    d="M83.9374 165.729C84.7533 165.729 85.6273 165.467 86.3849 165.991C86.6762 166.603 86.7054 167.157 86.0644 167.565C85.5108 165.875 84.3454 168.002 83.6461 167.186C83.6461 166.72 83.6169 166.282 83.6169 165.816C82.7429 165.758 82.0727 166.049 81.7231 165.204C82.3349 164.593 82.9468 164.709 83.9374 165.729Z"
    fill="white" />
  <path
    d="M79.8864 188.251C80.4691 188.688 80.5565 189.213 80.2069 190.029C79.4202 190.058 78.5752 190.087 77.4389 190.116C78.1091 189.009 78.6335 188.164 79.8864 188.251Z"
    fill="white" />
  <path d="M58.4712 249.816C57.5097 250.603 56.5482 250.603 55.5284 249.933C56.2277 247.922 56.2277 247.893 58.4712 249.816Z"
    fill="white" />
  <path
    d="M61.8812 163.456C62.5222 163.456 63.0758 163.514 63.1049 164.418C63.1341 165.029 62.8427 165.321 62.3474 165.379C61.6773 165.466 61.1237 165.35 61.0945 164.447C61.0945 163.835 61.3859 163.602 61.8812 163.456Z"
    fill="white" />
  <path
    d="M49.8771 223.156C50.6638 223.273 51.8875 222.603 51.8584 224.205C51.8584 224.729 51.567 225.021 51.0426 225.05C49.4401 225.167 50.0228 223.943 49.8771 223.156Z"
    fill="white" />
  <path d="M40.4941 121.704C39.3578 122.403 38.4837 122.432 37.3183 121.791C38.542 121.034 39.4161 121.121 40.4941 121.704Z" fill="white" />
  <path d="M82.1021 167.04C81.8107 167.331 81.3445 167.856 81.0823 168.118C80.7618 167.011 80.7618 167.011 82.1021 167.04Z" fill="white" />
  <path d="M83.85 158.066C83.1507 156.93 83.1215 156.056 83.7625 154.89C84.5201 156.114 84.4618 156.959 83.85 158.066Z" fill="white" />
  <path d="M12.0581 91.1403C11.7085 91.8396 11.388 92.4805 10.9218 93.4129C10.1351 91.4899 10.2808 90.7324 12.0581 91.1403Z" fill="white" />
  <path
    d="M44.9531 111.332C44.8949 111.885 45.0406 112.672 44.7201 112.992C44.1082 113.575 43.9625 112.439 43.4672 112.38C43.3215 112.351 43.1758 112.38 43.0301 112.38C43.0593 110.894 44.2247 111.506 44.9531 111.332Z"
    fill="white" />
  <path d="M51.1591 217.504C50.4016 216.28 50.4599 215.406 51.0717 214.328C51.7419 215.464 51.771 216.309 51.1591 217.504Z" fill="white" />
  <path
    d="M74.1468 190.378C74.3508 190.262 74.4965 190.262 74.5839 190.349C74.5839 190.029 74.5547 189.708 74.5547 189.388C74.4673 189.475 74.3216 189.475 74.1177 189.388C73.9137 189.3 73.7681 189.038 73.6515 188.834C73.6224 188.805 73.8263 188.63 73.9429 188.514C74.1468 188.659 74.4091 188.776 74.4965 188.98C74.613 189.184 74.613 189.329 74.5256 189.417C75.3414 189.796 75.3997 188.106 76.3029 188.659C76.9439 190.582 75.6036 190.32 74.5547 190.378C74.6421 190.466 74.6421 190.612 74.5547 190.815C74.4673 191.019 74.2051 191.165 74.0011 191.282C73.972 191.311 73.7972 191.107 73.6806 190.99C73.8555 190.757 73.972 190.495 74.1468 190.378Z"
    fill="white" />
  <path d="M86.7642 171.002C85.8901 171.672 85.2782 171.964 84.8412 170.915C85.3947 170.361 85.9483 170.39 86.7642 171.002Z" fill="white" />
  <path d="M26.4508 96.2972C25.7224 95.6562 25.6932 95.0152 26.3925 94.3159C27.1209 94.9569 27.15 95.627 26.4508 96.2972Z" fill="white" />
  <path
    d="M49.2947 94.6361C49.5861 94.6652 50.0522 94.7818 50.0814 94.9275C50.227 95.5102 49.79 95.5976 49.3238 95.5976C49.0033 95.5976 48.6828 95.6267 48.3623 95.6267C48.3623 95.3062 48.3332 94.9857 48.3332 94.6652C48.6828 94.6652 49.0033 94.6069 49.2947 94.6361Z"
    fill="white" />
  <path
    d="M48.3905 95.627C48.3905 95.9183 48.4196 96.2097 48.4196 96.5011C49.2937 96.5594 49.9638 96.268 50.3135 97.1129C49.6725 97.7831 49.0315 97.7248 47.8952 96.4428C47.4873 95.7144 47.8952 95.627 48.3905 95.627Z"
    fill="white" />
  <path d="M46.6719 214.095C46.0309 214.824 45.3899 214.853 44.6906 214.153C45.3316 213.425 45.9726 213.396 46.6719 214.095Z"
    fill="white" />
  <path
    d="M31.4917 99.2104C32.1327 99.3852 32.1327 100.259 31.55 100.929C31.346 100.755 30.9672 100.492 30.9964 100.434C31.2295 100.026 30.5302 99.123 31.2586 99.1521C30.0931 98.8608 30.0931 99.7931 29.2773 100.084C29.3356 99.2977 27.9662 99.4143 28.1993 98.3946C29.1899 98.1906 30.1223 97.7244 31.4917 99.2104Z"
    fill="white" />
  <path d="M73.5943 218.669C72.8659 218.028 72.8368 217.387 73.5361 216.717C74.2645 217.329 74.2936 217.97 73.5943 218.669Z" fill="white" />
  <path d="M34.3465 276.301C33.7346 275.514 33.6181 274.99 34.1716 274.465C35.0166 274.99 35.0166 275.514 34.3465 276.301Z" fill="white" />
  <path
    d="M26.2484 105.067C26.2775 105.708 26.2775 106.378 26.3066 107.019C25.7239 107.136 25.4034 106.786 25.316 106.32C25.2286 105.65 25.316 105.009 26.2484 105.067Z"
    fill="white" />
  <path
    d="M42.0976 114.332C42.0685 113.079 42.0102 111.856 41.9811 110.603C42.3016 110.603 42.6221 110.574 42.9426 110.574C42.8552 112.001 43.5545 114.128 42.0976 114.332Z"
    fill="white" />
  <path d="M43.7579 115.381C44.3115 115.935 44.2824 116.489 43.6705 117.304C43.0004 116.43 42.709 115.818 43.7579 115.381Z" fill="white" />
  <path d="M87.0845 183.647C86.4435 184.376 85.8025 184.405 85.1032 183.706C85.7442 182.977 86.3852 182.977 87.0845 183.647Z"
    fill="white" />
  <path d="M75.3716 121.791C74.818 122.345 74.2644 122.316 73.4486 121.704C74.3227 121.034 74.9345 120.742 75.3716 121.791Z" fill="white" />
  <path
    d="M19.6337 104.688C19.3715 105.125 20.2747 106.174 19.2549 105.999C18.4682 105.854 18.4682 104.892 19.0801 104.193C19.2841 104.368 19.6628 104.63 19.6337 104.688Z"
    fill="white" />
  <path d="M42.943 126.016C42.2146 125.375 42.1854 124.734 42.8847 124.064C43.6131 124.676 43.6422 125.346 42.943 126.016Z" fill="white" />
  <path d="M45.2149 136.68C44.4865 136.039 44.4574 135.398 45.1566 134.728C45.885 135.34 45.885 135.981 45.2149 136.68Z" fill="white" />
  <path d="M57.4233 137.758C56.7823 138.487 56.1413 138.516 55.4712 137.816C56.1122 137.088 56.7532 137.059 57.4233 137.758Z"
    fill="white" />
  <path
    d="M53.0533 243.348C52.995 243.406 52.791 243.406 52.7328 243.348C52.2083 242.823 52.2083 242.299 52.8784 241.512C53.4903 242.27 53.6068 242.823 53.0533 243.348Z"
    fill="white" />
  <path d="M85.0743 198.828C84.3459 198.187 84.3168 197.546 85.016 196.875C85.7444 197.516 85.7736 198.158 85.0743 198.828Z" fill="white" />
  <path d="M67.7095 153.055C66.9228 153.666 66.3983 153.783 65.8448 153.229C66.3692 152.414 66.9228 152.414 67.7095 153.055Z"
    fill="white" />
  <path d="M41.8941 156.26C41.1657 155.619 41.1366 154.978 41.8358 154.308C42.5642 154.919 42.5642 155.59 41.8941 156.26Z" fill="white" />
  <path d="M80.4126 162.262C79.8881 163.107 79.3346 163.107 78.5479 162.437C79.3346 161.825 79.8881 161.708 80.4126 162.262Z"
    fill="white" />
  <path d="M102.556 113.342C101.828 112.701 101.799 112.06 102.498 111.39C103.197 112.031 103.226 112.672 102.556 113.342Z" fill="white" />
  <path d="M4.74619 82.4282C5.29978 82.9818 5.27065 83.5354 4.65879 84.3512C4.01779 83.4771 3.69728 82.8653 4.74619 82.4282Z"
    fill="white" />
  <path d="M74.4399 199.877C73.8281 200.168 73.3036 200.372 72.517 199.673C73.3328 199.032 73.9446 198.711 74.4399 199.877Z" fill="white" />
  <path
    d="M53.4609 90.7612C53.3444 90.9652 53.257 91.1983 53.1404 91.4022C53.0239 91.2857 52.8199 91.1691 52.8199 91.0817C52.8782 90.8486 52.9947 90.6447 53.1113 90.4116C53.2278 90.5573 53.3444 90.6447 53.4609 90.7612Z"
    fill="white" />
  <path
    d="M82.0146 101.6C81.9855 101.833 81.8398 102.037 81.7232 102.27C81.6067 102.153 81.4901 102.066 81.3736 101.92C81.4901 101.716 81.5775 101.483 81.6941 101.279C81.8106 101.396 82.0437 101.512 82.0146 101.6Z"
    fill="white" />
  <path
    d="M6.46398 84.3511C6.66793 84.4676 6.87189 84.5551 7.10498 84.6716C6.98844 84.7882 6.87189 84.9921 6.78448 84.9921C6.55139 84.9338 6.34745 84.8172 6.11436 84.7007C6.2309 84.5842 6.34743 84.4968 6.46398 84.3511Z"
    fill="white" />
  <path
    d="M73.6236 97.5791C73.8276 97.6956 74.0316 97.783 74.2646 97.8996C74.1481 98.0161 74.0316 98.2201 73.9441 98.2201C73.7111 98.191 73.5071 98.0453 73.274 97.9287C73.3905 97.8122 73.5071 97.7248 73.6236 97.5791Z"
    fill="white" />
  <path
    d="M34.0849 90.2075C34.2014 90.4115 34.3471 90.6154 34.4054 90.8485C34.4345 90.9359 34.2306 91.0524 34.114 91.169C33.9975 90.965 33.8809 90.7611 33.7352 90.5571C33.8809 90.4406 33.9683 90.3241 34.0849 90.2075Z"
    fill="white" />
  <path
    d="M28.5786 91.6648C28.5203 91.8979 28.4037 92.1018 28.2872 92.3349C28.1707 92.2183 27.9667 92.1018 27.9667 92.0144C27.9958 91.7813 28.1415 91.5773 28.2581 91.3442C28.3746 91.4608 28.6077 91.5774 28.5786 91.6648Z"
    fill="white" />
  <path
    d="M49.0901 93.0341C49.2358 93.6168 48.7988 93.7333 48.3326 93.7041C48.3326 93.3836 48.3035 93.0632 48.3035 92.7427C48.5657 92.8009 49.0319 92.8592 49.0901 93.0341Z"
    fill="white" />
  <path
    d="M31.2882 94.1992C31.4048 94.4032 31.5213 94.6071 31.667 94.8111C31.5504 94.9567 31.4339 95.0441 31.3173 95.1607C31.2008 94.9567 31.0551 94.7528 30.9969 94.5197C30.9677 94.4323 31.1717 94.3158 31.2882 94.1992Z"
    fill="white" />
  <path
    d="M28.7241 96.5301C28.6658 96.7632 28.5493 96.9671 28.4327 97.2002C28.3162 97.0837 28.1996 96.9962 28.0831 96.8797C28.1996 96.6757 28.287 96.4427 28.4036 96.2388C28.5201 96.3262 28.7532 96.4718 28.7241 96.5301Z"
    fill="white" />
  <path
    d="M48.0421 100.521C48.1587 100.725 48.2752 100.929 48.4209 101.133C48.3044 101.279 48.1878 101.366 48.0713 101.483C47.9547 101.279 47.809 101.075 47.7508 100.842C47.7216 100.784 47.9256 100.638 48.0421 100.521Z"
    fill="white" />
  <path
    d="M26.5385 101.25C26.7424 101.396 27.0046 101.512 27.0921 101.716C27.2086 101.92 27.2086 102.066 27.1212 102.153C27.7913 102.124 28.1118 102.415 28.1118 103.086C27.4417 103.115 27.1212 102.823 27.1212 102.153C27.0338 102.241 26.8881 102.241 26.6841 102.153C26.4802 102.066 26.3345 101.804 26.218 101.6C26.218 101.512 26.4219 101.367 26.5385 101.25Z"
    fill="white" />
  <path
    d="M24.9955 102.504C24.9373 102.737 24.8207 102.941 24.7042 103.174C24.5876 103.057 24.3837 102.941 24.3837 102.853C24.442 102.62 24.5585 102.416 24.675 102.183C24.7916 102.3 25.0247 102.416 24.9955 102.504Z"
    fill="white" />
  <path
    d="M24.1216 105.446C24.0633 105.679 23.9467 105.883 23.8302 106.116C23.7137 106 23.5971 105.912 23.4806 105.766C23.5971 105.563 23.6845 105.359 23.8011 105.125C23.9176 105.242 24.1216 105.359 24.1216 105.446Z"
    fill="white" />
  <path
    d="M55.3545 106.465C55.3254 106.699 55.1797 106.903 55.0631 107.136C54.9466 107.019 54.7426 106.903 54.7426 106.815C54.7718 106.582 54.9175 106.378 55.034 106.145C55.1506 106.262 55.3545 106.378 55.3545 106.465Z"
    fill="white" />
  <path
    d="M38.8631 107.048C38.9214 107.194 38.6009 107.427 38.4552 107.631C38.3095 107.631 38.1638 107.631 38.0182 107.631C38.1056 107.369 38.1347 107.106 38.2804 106.873C38.4261 106.611 38.7174 106.669 38.8631 107.048Z"
    fill="white" />
  <path
    d="M19.604 81.6123C19.5166 81.8745 19.4583 82.3408 19.2835 82.399C18.7008 82.5447 18.5842 82.1076 18.6134 81.6415C18.963 81.6123 19.2835 81.6123 19.604 81.6123Z"
    fill="white" />
  <path
    d="M27.2671 106.99C27.1797 107.252 27.1214 107.719 26.9466 107.777C26.3639 107.923 26.2473 107.486 26.2765 107.019C26.6261 106.99 26.9466 106.99 27.2671 106.99Z"
    fill="white" />
  <path
    d="M45.244 107.515C45.448 107.66 45.7102 107.777 45.7976 107.981C45.9142 108.185 45.9142 108.33 45.8268 108.418C46.7591 108.534 47.8372 108.01 48.8569 109.321C47.0505 108.185 47.0796 110.457 45.885 110.37C45.8559 109.729 45.8559 109.088 45.8268 108.418C45.7393 108.505 45.5937 108.505 45.3897 108.418C45.1858 108.33 45.0401 108.068 44.9235 107.864C44.9235 107.777 45.1275 107.631 45.244 107.515Z"
    fill="white" />
  <path
    d="M42.826 109.845C42.8843 109.991 42.5638 110.224 42.4181 110.428C42.2724 110.428 42.1267 110.428 41.9811 110.428C42.0685 110.166 42.0976 109.904 42.2433 109.67C42.4181 109.437 42.7095 109.466 42.826 109.845Z"
    fill="white" />
  <path
    d="M49.644 110.574C49.5275 110.778 49.4401 110.982 49.3235 111.215C49.207 111.099 49.0031 110.982 49.0031 110.895C49.0613 110.662 49.1779 110.458 49.2944 110.225C49.411 110.341 49.5275 110.429 49.644 110.574Z"
    fill="white" />
  <path d="M45.8854 110.341C45.9436 111.011 45.6231 111.36 44.953 111.331C44.8947 110.661 45.2152 110.311 45.8854 110.341Z" fill="white" />
  <path
    d="M51.2174 125.754C51.3048 125.492 51.3339 125.229 51.4796 124.996C51.6253 124.734 51.9167 124.792 52.0623 125.171C52.1206 125.317 51.8001 125.55 51.6544 125.754C51.5087 125.754 51.3631 125.754 51.2174 125.754C51.1008 126.541 51.771 127.764 50.1685 127.735C49.644 127.735 49.3527 127.444 49.2944 126.919C49.207 125.317 50.4307 125.929 51.2174 125.754Z"
    fill="white" />
  <path
    d="M37.6982 129.571C37.4943 129.687 37.2903 129.804 37.0864 129.92C36.9407 129.804 36.8533 129.687 36.7367 129.6C36.9407 129.483 37.1447 129.338 37.3777 129.279C37.436 129.25 37.5817 129.483 37.6982 129.571Z"
    fill="white" />
  <path
    d="M48.857 236.851C49.0609 236.734 49.2066 236.734 49.294 236.822C49.3815 236.56 49.4106 236.297 49.5563 236.064C49.7019 235.802 49.9933 235.86 50.139 236.239C50.1973 236.356 49.8768 236.618 49.7311 236.822C49.5854 236.822 49.4397 236.822 49.294 236.822C49.3815 236.909 49.3815 237.055 49.294 237.259C49.2066 237.463 48.9444 237.608 48.7404 237.725C48.7113 237.754 48.5365 237.55 48.4199 237.434C48.5656 237.201 48.6822 236.938 48.857 236.851Z"
    fill="white" />
  <path
    d="M49.2071 240.405C49.2363 240.493 49.0323 240.609 48.9158 240.726C48.7992 240.522 48.6827 240.318 48.537 240.114C48.6535 239.968 48.7701 239.881 48.8866 239.764C49.0032 239.968 49.1489 240.172 49.2071 240.405Z"
    fill="white" />
  <path
    d="M50.8673 240.667C50.9839 240.871 51.1004 241.075 51.2461 241.279C51.1295 241.425 51.013 241.512 50.8965 241.629C50.7799 241.425 50.6342 241.221 50.5759 240.988C50.5468 240.901 50.7799 240.784 50.8673 240.667Z"
    fill="white" />
  <path
    d="M49.4687 243.144C49.2648 243.26 49.0608 243.377 48.8569 243.523C48.7112 243.406 48.6238 243.29 48.5072 243.173C48.7112 243.056 48.9152 242.911 49.1482 242.852C49.2357 242.823 49.3813 243.027 49.4687 243.144Z"
    fill="white" />
  <path
    d="M70.2431 148.917C70.1848 149.15 70.0683 149.354 69.9517 149.587C69.8352 149.47 69.6312 149.354 69.6312 149.266C69.6895 149.033 69.8061 148.829 69.9226 148.596C70.0392 148.713 70.2722 148.829 70.2431 148.917Z"
    fill="white" />
  <path
    d="M82.6843 151.132C82.8009 151.336 82.9465 151.54 83.0048 151.773C83.034 151.86 82.8009 151.977 82.7135 152.093C82.5969 151.889 82.4804 151.685 82.3347 151.481C82.4804 151.365 82.5678 151.248 82.6843 151.132Z"
    fill="white" />
  <path
    d="M85.2495 161.125C85.1912 161.358 85.0747 161.562 84.9582 161.795C84.8416 161.679 84.7251 161.591 84.6085 161.446C84.7251 161.242 84.8125 161.038 84.929 160.805C85.0456 160.921 85.2495 161.038 85.2495 161.125Z"
    fill="white" />
  <path
    d="M60.8901 161.854C60.861 162.087 60.7153 162.291 60.5988 162.524C60.4822 162.407 60.3657 162.32 60.2491 162.174C60.3657 161.97 60.4531 161.766 60.5696 161.533C60.6862 161.65 60.8901 161.766 60.8901 161.854Z"
    fill="white" />
  <path
    d="M90.1431 161.97C90.1139 162.087 90.0848 162.203 90.0265 162.291C90.0265 162.145 90.0557 161.97 90.0557 161.825C90.1139 161.883 90.1431 161.912 90.1431 161.97Z"
    fill="white" />
  <path
    d="M89.503 162.29C89.6196 162.086 89.707 161.883 89.8235 161.649C89.8818 161.708 89.9692 161.766 90.0566 161.824C90.0566 161.97 90.0566 162.145 90.0275 162.29C89.9692 162.407 89.911 162.524 89.8527 162.611C89.7361 162.524 89.6196 162.407 89.503 162.29Z"
    fill="white" />
  <path
    d="M80.4409 164.185C80.4117 164.418 80.266 164.622 80.1495 164.855C80.033 164.738 79.829 164.622 79.829 164.534C79.8873 164.301 80.0038 164.097 80.1204 163.864C80.2369 163.981 80.47 164.126 80.4409 164.185Z"
    fill="white" />
  <path
    d="M90.0853 164.738C90.1727 164.709 90.2892 164.942 90.4058 165.029C90.2018 165.146 89.9979 165.262 89.7939 165.379C89.823 165.204 89.823 165 89.823 164.825C89.9104 164.796 89.9979 164.767 90.0853 164.738Z"
    fill="white" />
  <path
    d="M89.4437 165.059C89.5893 164.971 89.7059 164.884 89.8516 164.826C89.8516 165.001 89.8224 165.204 89.8224 165.379C89.8224 165.379 89.8224 165.379 89.7933 165.379C89.6476 165.292 89.5602 165.175 89.4437 165.059Z"
    fill="white" />
  <path
    d="M88.5112 167.04C88.3073 167.157 88.1033 167.273 87.8994 167.39C87.7537 167.273 87.6663 167.157 87.5497 167.069C87.7537 166.953 87.9576 166.807 88.1907 166.749C88.2781 166.719 88.3947 166.953 88.5112 167.04Z"
    fill="white" />
  <path
    d="M37.5532 274.524C37.4949 274.757 37.3783 274.961 37.2618 275.194C37.1452 275.077 37.0287 274.99 36.9122 274.873C37.0287 274.669 37.1161 274.436 37.2327 274.232C37.3492 274.291 37.5823 274.436 37.5532 274.524Z"
    fill="white" />
  <path
    d="M70.6807 189.999C70.4767 190.116 70.2728 190.232 70.0688 190.349C69.9231 190.232 69.8357 190.116 69.7192 190.028C69.9231 189.912 70.1271 189.766 70.3602 189.708C70.4184 189.679 70.5641 189.883 70.6807 189.999Z"
    fill="white" />
  <path
    d="M66.3387 197.604C66.5718 197.662 66.7757 197.779 67.0088 197.895C66.8922 198.012 66.8048 198.128 66.6592 198.245C66.4552 198.128 66.2221 198.041 66.0182 197.925C66.1347 197.808 66.2513 197.604 66.3387 197.604Z"
    fill="white" />
  <path
    d="M158.09 34.0907C158.003 34.4695 157.828 34.4986 157.624 34.3529C157.712 34.2072 157.799 34.1198 157.857 33.8867C157.945 34.0324 158.032 33.9741 158.09 34.0907Z"
    fill="white" />
  <path d="M156.808 35.7517C156.662 35.2855 156.72 35.1981 156.837 35.1689C157.158 35.2855 157.216 35.5478 156.808 35.7517Z" fill="white" />
  <path
    d="M146.667 8.15984C146.93 8.21812 147.046 8.33468 147.075 8.45122C148.241 7.69368 150.543 7.86851 149.406 5.18797C150.018 5.4502 150.484 5.65407 150.95 5.82889C151.475 6.03284 151.97 6.06199 152.291 5.47927C152.174 5.47927 152.028 5.3919 151.941 5.15881C151.825 4.92572 151.912 4.60522 151.941 4.343C151.941 4.28472 152.262 4.3138 152.436 4.28467C152.495 4.54689 152.64 4.83825 152.582 5.10048C152.524 5.36271 152.407 5.47929 152.291 5.50843C154.738 7.46056 154.738 7.46055 156.282 5.85805C156.166 5.85805 156.02 5.77069 155.904 5.5376C155.787 5.30451 155.874 4.98401 155.904 4.72178C155.904 4.66351 156.224 4.69259 156.399 4.66345C156.457 4.92568 156.603 5.21704 156.545 5.47927C156.486 5.74149 156.37 5.85808 156.253 5.88722C157.069 6.38253 156.486 8.59685 158.438 7.66449C158.235 8.82994 158.147 9.99546 157.768 11.1026C157.564 11.7145 156.982 11.8893 156.37 11.0735C156.428 10.8404 156.253 10.549 156.137 10.8695C156.02 10.2868 155.729 10.2868 155.7 10.3159C155.641 10.5781 155.583 10.9278 155.7 11.1317C155.729 11.6853 155.467 11.9476 155.088 12.0933C154.738 11.9767 154.447 12.1224 154.796 12.2389C154.214 12.3555 154.214 12.6468 154.243 12.6759C154.447 12.7051 154.68 12.7342 154.884 12.6759C155.35 14.3076 155.146 14.5698 154.068 13.9579C153.34 13.55 151.912 14.8612 151.737 12.8217C151.65 11.8893 149.843 12.472 149.173 11.1026C149.261 10.7821 149.115 10.4907 148.998 10.8403C148.882 10.2576 148.59 10.2577 148.561 10.2868C148.532 10.5199 148.503 10.7821 148.561 11.0152C147.046 11.6854 146.726 11.4522 147.134 10.1993C147.338 9.5292 147.775 9.03389 147.017 8.4803C147.017 8.59684 146.93 8.74254 146.697 8.85909C146.463 8.97563 146.143 8.88822 145.881 8.85909C145.822 8.85909 145.852 8.53864 145.822 8.36382C146.114 8.27641 146.405 8.10157 146.667 8.15984Z"
    fill="white" />
  <path
    d="M143.027 25.6416C143.085 25.9038 143.231 26.1952 143.172 26.4574C143.114 26.7196 142.998 26.8361 142.881 26.8653C145.649 27.652 148.417 26.0204 151.593 26.6614C150.194 27.6812 150.282 29.9538 148.213 28.934C147.892 28.293 147.601 28.293 147.572 28.3221C147.514 28.5843 147.455 28.9339 147.572 29.1379C147.659 29.3419 147.805 29.4293 147.892 29.4293C147.572 31.2066 147.601 32.7508 145.503 33.3627C146.232 31.0318 143.405 30.857 143.085 28.8174C142.91 27.7103 142.269 27.8268 142.852 26.8653C142.735 26.8653 142.59 26.7779 142.473 26.5448C142.357 26.3117 142.444 25.9912 142.473 25.729C142.561 25.6416 142.852 25.6707 143.027 25.6416Z"
    fill="white" />
  <path
    d="M160.42 43.7057C160.449 43.5018 160.478 43.327 160.536 43.123C160.624 43.1813 160.653 43.1522 160.74 43.1813C160.682 43.6183 160.536 43.7349 160.42 43.7057Z"
    fill="white" />
  <path
    d="M154.651 86.8277C153.34 86.3324 152.932 88.1097 151.476 87.9057C150.485 86.041 149.378 84.5551 149.611 83.2148C151.534 82.8361 153.311 82.4864 155.03 82.1367C155.671 83.8266 154.506 85.2543 154.651 86.8277ZM152.175 84.7007C152.291 84.963 152.379 85.2252 152.554 85.4291C152.612 85.4874 152.874 85.4 153.049 85.3709C152.932 85.1087 152.845 84.8464 152.67 84.6425C152.641 84.5842 152.35 84.7007 152.175 84.7007Z"
    fill="white" />
  <path
    d="M155.379 92.335C155 92.7429 154.796 93.18 155.408 93.5005C155.583 93.5879 155.962 93.2091 156.253 93.0343C157.011 94.1706 157.39 95.3069 156.894 95.8896C154.243 98.1331 152.903 95.6566 152.291 94.9282C151.271 93.7336 151.999 91.8397 154.039 91.2861C154.505 91.6358 154.942 91.9854 155.379 92.335Z"
    fill="white" />
  <path
    d="M138.684 42.8613C138.655 42.366 138.655 41.8706 138.626 41.3462C139.034 41.4336 139.588 41.4337 139.675 41.6085C140.141 42.7739 139.704 44.9882 138.801 46.0954C138.743 46.1828 138.393 45.9498 138.102 45.4836C138.189 45.1922 138.043 44.8717 137.927 45.2214C137.81 44.6386 137.519 44.6386 137.49 44.6678C137.431 44.93 137.373 45.2796 137.49 45.4836C137.519 46.1537 137.344 46.4451 137.169 46.6782C135.275 46.3868 135.275 46.3868 134.547 44.5804C135.363 42.6865 137.315 43.4149 138.684 42.8613Z"
    fill="white" />
  <path
    d="M141.54 111.011C141.744 111.215 141.773 111.623 141.89 111.943C140.724 111.739 140.025 112.73 139.063 113.08C138.218 112.526 137.053 112.264 136.995 110.807C138.539 109.379 140.083 109.554 141.54 111.011Z"
    fill="white" />
  <path
    d="M144.162 119.023C143.084 120.713 142.355 121.733 141.743 122.228C141.86 121.442 141.86 120.684 142.151 119.985C142.88 119.898 143.608 119.723 144.162 119.023Z"
    fill="white" />
  <path
    d="M130.614 86.449C131.488 85.4001 132.741 85.5457 133.906 85.4292C133.644 86.1285 133.615 86.8861 133.498 87.6728C132.595 88.3429 131.925 87.8475 130.614 86.449Z"
    fill="white" />
  <path
    d="M147.775 89.3042C148.503 89.8869 149.231 90.4696 149.931 91.0232C148.124 91.7225 148.124 91.7225 147.833 93.6455C147.104 92.8879 145.939 92.5383 145.589 91.3729C146.172 90.4988 146.405 89.3333 147.775 89.3042Z"
    fill="white" />
  <path
    d="M143.434 51.3394C143.667 51.9804 144.571 52.2426 144.367 53.4372C142.968 52.5631 141.57 51.9513 140.783 50.1448C142.094 49.533 143.347 48.9211 144.979 48.1636C144.745 49.7078 143.318 50.174 143.434 51.3394Z"
    fill="white" />
  <path d="M158.935 49.5039C160.072 48.0762 161.15 46.7068 162.344 45.25C162.752 49.1834 162.752 49.1834 158.935 49.5039Z" fill="white" />
  <path
    d="M164.266 136.505C162.663 136.593 161.643 138.603 159.924 138.05C159.487 137.904 159.079 137.496 158.817 137.117C158.701 136.943 158.963 136.506 159.079 136.185C159.108 136.127 164.149 136.185 164.266 136.505Z"
    fill="white" />
  <path
    d="M182.389 55.2735C181.602 56.8759 180.903 57.4005 180 56.439C178.747 55.0987 178.572 58.2745 177.407 56.9634C177.349 56.2933 177.319 55.5939 177.29 55.2735C179.038 53.904 180.437 55.6522 182.389 55.2735Z"
    fill="white" />
  <path
    d="M178.019 87.4396C177.523 86.449 177.057 85.4293 176.562 84.3804C177.698 84.6426 178.805 84.8756 179.883 85.1379C179.679 86.245 179.038 87.0026 178.019 87.4396Z"
    fill="white" />
  <path
    d="M156.458 67.9771C156.516 68.6472 156.575 69.3173 156.633 69.9875C155.817 70.0749 155.089 70.1623 154.36 70.2497C153.952 68.0353 153.952 68.0353 156.458 67.9771Z"
    fill="white" />
  <path
    d="M143.696 99.9101C144.337 99.2109 144.57 98.4824 145.532 98.8029C145.619 99.8518 145.095 100.347 143.23 100.405C142.414 101.338 141.424 101.687 140.083 101.425C140.812 99.2983 142.24 99.7936 143.696 99.9101Z"
    fill="white" />
  <path
    d="M249.111 150.607C249.898 151.248 249.636 151.86 249.111 152.385C248.704 152.792 248.237 152.822 247.713 152.414C246.897 151.773 247.218 151.219 247.684 150.636C248.179 150.287 248.587 150.17 249.111 150.607Z"
    fill="white" />
  <path
    d="M267.117 121.937C266.651 122.17 265.923 122.549 264.961 123.044C265.34 121.296 265.923 120.509 267.496 119.897C267.321 120.859 267.176 121.675 267.117 121.937Z"
    fill="white" />
  <path d="M184.749 81.2918C183.292 80.6508 182.185 79.8349 181.661 78.4072C182.884 79.0774 184.691 79.1648 184.749 81.2918Z"
    fill="white" />
  <path
    d="M157.245 126.686C158.032 127.327 157.799 127.939 157.245 128.464C156.837 128.872 156.371 128.901 155.847 128.493C155.031 127.852 155.351 127.298 155.817 126.715C156.284 126.366 156.692 126.249 157.245 126.686Z"
    fill="white" />
  <path
    d="M177.319 119.023C178.223 118.003 178.689 117.071 180.087 116.692C180.087 117.566 180.087 118.353 180.087 119.14C179.272 119.227 178.514 119.315 176.882 119.519C177.028 119.373 177.115 119.256 177.261 119.111C176.474 119.752 175.571 119.723 174.522 119.548C175.134 117.333 176.212 118.062 177.319 119.023Z"
    fill="white" />
  <path d="M147.484 127.735C146.027 127.706 145.153 127.007 144.774 125.579C146.231 125.608 147.105 126.308 147.484 127.735Z"
    fill="white" />
  <path d="M177.174 72.0558C174.785 71.2692 174.377 70.5408 175.863 69.4336C176.212 70.162 176.591 70.9195 177.174 72.0558Z" fill="white" />
  <path
    d="M165.84 46.736C166.422 47.4352 165.723 48.2802 164.703 48.455C164.645 48.1636 164.528 47.6392 164.558 47.6101C165.082 47.4062 165.082 45.8327 165.84 46.736Z"
    fill="white" />
  <path
    d="M174.58 57.6043C174.493 57.6043 174.318 57.4586 174.318 57.3711C174.26 56.5262 174.668 56.0601 176.095 55.7979C175.629 56.905 175.542 57.6043 174.58 57.6043Z"
    fill="white" />
  <path d="M168.928 53.2339C169.132 52.4764 169.336 51.8644 170.531 51.7188C170.472 52.9133 170.298 53.6709 168.928 53.2339Z"
    fill="white" />
  <path d="M136.937 30.7112C136.587 29.6332 136.995 29.167 138.452 28.9048C137.985 29.9828 137.869 30.6821 136.937 30.7112Z" fill="white" />
  <path d="M149.349 47.057C148.212 47.0279 147.659 46.7365 147.6 45.8624C148.679 45.4836 149.145 45.9207 149.349 47.057Z" fill="white" />
  <path
    d="M155.467 55.0108C154.622 55.0691 154.156 54.6612 153.952 53.5249C155.088 53.554 155.642 53.8454 155.7 54.7486C155.729 54.836 155.584 55.0108 155.467 55.0108Z"
    fill="white" />
  <path d="M170.296 73.2212C170.646 74.2992 170.238 74.7654 168.781 75.0276C169.247 73.9496 169.364 73.2212 170.296 73.2212Z"
    fill="white" />
  <path d="M147.309 58.8569C147.513 58.1284 147.717 57.4875 148.911 57.3418C148.882 58.5364 148.678 59.2939 147.309 58.8569Z"
    fill="white" />
  <path d="M158.148 70.3368C158.351 69.5793 158.555 68.9675 159.75 68.8218C159.721 70.0164 159.517 70.7739 158.148 70.3368Z" fill="white" />
  <path d="M147.746 66.2283C147.397 65.1503 147.804 64.6841 149.261 64.4219C148.795 65.4999 148.708 66.1992 147.746 66.2283Z"
    fill="white" />
  <path
    d="M146.144 78.7277C145.823 78.786 145.328 78.9026 145.299 78.8443C145.095 78.2907 143.55 78.2907 144.425 77.5623C145.124 76.9796 145.969 77.6788 146.144 78.7277Z"
    fill="white" />
  <path d="M127.67 68.5301C126.796 68.5883 126.33 68.1804 126.447 67.0732C126.738 67.5977 128.282 67.1024 127.67 68.5301Z" fill="white" />
  <path d="M127.933 84.7879C127.642 84.2635 126.097 84.7588 126.709 83.3311C127.583 83.2728 128.05 83.6807 127.933 84.7879Z" fill="white" />
  <path d="M131.139 98.1034C131.343 97.3459 131.547 96.7341 132.741 96.5884C132.683 97.7538 132.508 98.5113 131.139 98.1034Z"
    fill="white" />
  <path d="M182.302 43.8227C182.244 42.9486 182.652 42.4824 183.788 42.2202C183.701 43.4731 183.526 44.2306 182.302 43.8227Z"
    fill="white" />
  <path d="M143.405 17.0756C142.327 17.4252 141.861 17.0174 141.599 15.5605C142.677 16.0267 143.405 16.1432 143.405 17.0756Z"
    fill="white" />
  <path d="M181.98 48.0474C181.805 46.9402 182.272 46.3574 183.379 46.27C183.554 47.4063 183.087 47.9891 181.98 48.0474Z" fill="white" />
  <path
    d="M170.356 36.6549C170.182 36.6841 170.007 36.684 169.803 36.7132C169.715 36.4801 169.599 36.2179 169.482 35.9557C169.657 35.9265 169.919 35.8391 169.978 35.9265C170.182 36.1305 170.269 36.3927 170.356 36.6549Z"
    fill="white" />
  <path
    d="M162.284 29.6328C162.342 29.895 162.488 30.1864 162.429 30.4486C162.371 30.7109 162.255 30.8274 162.138 30.8566C162.313 31.1188 162.517 31.3519 162.604 31.6432C162.721 31.9637 162.458 32.1968 162.021 32.022C161.876 31.9637 161.876 31.5266 161.817 31.2353C161.905 31.1187 162.021 30.9731 162.109 30.8566C161.992 30.8566 161.847 30.7691 161.73 30.536C161.614 30.3029 161.701 29.9824 161.73 29.7202C161.817 29.6328 162.109 29.6328 162.284 29.6328Z"
    fill="white" />
  <path
    d="M167.238 37.0049C166.976 36.9466 166.685 36.9175 166.422 36.8593C166.393 36.6553 166.393 36.4805 166.364 36.3057C166.626 36.3639 166.918 36.3931 167.18 36.5096C167.238 36.5388 167.209 36.8301 167.238 37.0049Z"
    fill="white" />
  <path
    d="M162.313 35.7518C162.08 35.8684 161.818 35.9558 161.556 36.0723C161.527 35.8975 161.439 35.6353 161.498 35.577C161.702 35.4022 161.993 35.3148 162.226 35.1982C162.284 35.3731 162.284 35.5479 162.313 35.7518Z"
    fill="white" />
  <path
    d="M164.237 38.6947C164.004 38.8113 163.742 38.8986 163.479 39.0152C163.45 38.8403 163.363 38.5781 163.421 38.5198C163.625 38.345 163.916 38.2577 164.149 38.1411C164.208 38.3159 164.237 38.4908 164.237 38.6947Z"
    fill="white" />
  <path
    d="M165.811 45.9493C165.694 46.4447 165.373 46.5029 165.14 46.0367C165.024 45.8036 165.111 45.4832 165.14 45.2209C165.14 45.1627 165.461 45.1917 165.636 45.1626C165.694 45.3957 165.869 45.6871 165.811 45.9493Z"
    fill="white" />
  <path
    d="M157.479 49.0087C157.245 49.0961 156.983 49.2127 156.721 49.3292C156.692 49.1544 156.604 48.8921 156.663 48.8339C156.867 48.659 157.158 48.5716 157.391 48.4551C157.42 48.6299 157.449 48.8047 157.479 49.0087Z"
    fill="white" />
  <path
    d="M172.511 62.6446C172.249 62.5863 171.957 62.5572 171.695 62.4989C171.666 62.295 171.666 62.1201 171.637 61.9453C171.899 62.0036 172.19 62.0327 172.453 62.1493C172.54 62.1784 172.511 62.4697 172.511 62.6446Z"
    fill="white" />
  <path
    d="M146.667 44.9008C146.492 44.9299 146.23 45.0174 146.172 44.9591C145.997 44.7551 145.909 44.4638 145.793 44.2307C145.968 44.2016 146.143 44.2015 146.346 44.1724C146.463 44.3763 146.55 44.6385 146.667 44.9008Z"
    fill="white" />
  <path
    d="M146.114 47.0569C145.91 47.2317 145.618 47.3191 145.385 47.4357C145.356 47.2608 145.269 46.9986 145.327 46.9403C145.531 46.7655 145.822 46.6781 146.055 46.5615C146.085 46.7363 146.172 46.9986 146.114 47.0569Z"
    fill="white" />
  <path
    d="M151.214 52.3306C151.389 52.5346 151.476 52.826 151.593 53.059C151.418 53.0882 151.156 53.1756 151.097 53.1173C150.923 52.9133 150.835 52.622 150.719 52.3889C150.864 52.3597 151.156 52.2724 151.214 52.3306Z"
    fill="white" />
  <path
    d="M149.436 55.4192C149.232 55.594 148.941 55.6814 148.708 55.798C148.679 55.6232 148.679 55.4483 148.65 55.2444C148.883 55.1278 149.145 55.0404 149.407 54.9238C149.407 55.0986 149.524 55.3609 149.436 55.4192Z"
    fill="white" />
  <path
    d="M134.168 34.7906C134.285 35.1111 134.022 35.3442 133.585 35.1693C133.44 35.1111 133.44 34.6741 133.381 34.3827C133.498 34.2661 133.585 34.1205 133.702 34.0039C133.848 34.2661 134.052 34.4992 134.168 34.7906Z"
    fill="white" />
  <path
    d="M150.251 112.264C150.31 112.526 150.455 112.817 150.397 113.079C150.339 113.342 150.222 113.458 150.106 113.487C150.281 113.75 150.485 113.983 150.572 114.274C150.688 114.594 150.426 114.828 149.989 114.653C149.844 114.595 149.844 114.157 149.785 113.866C149.902 113.75 149.989 113.604 150.106 113.487C149.989 113.487 149.844 113.4 149.727 113.167C149.61 112.934 149.698 112.613 149.727 112.351C149.785 112.264 150.077 112.293 150.251 112.264Z"
    fill="white" />
  <path
    d="M174.026 75.96C173.968 76.2222 173.939 76.5135 173.822 76.7758C173.793 76.8632 173.502 76.8341 173.327 76.8341C173.385 76.5719 173.415 76.2805 173.473 76.0183C173.677 76.0183 173.852 75.9891 174.026 75.96Z"
    fill="white" />
  <path
    d="M160.158 65.6166C159.983 65.6457 159.721 65.7331 159.663 65.6748C159.488 65.4709 159.401 65.1795 159.284 64.9464C159.459 64.9173 159.634 64.9173 159.838 64.8882C159.925 65.1213 160.042 65.3544 160.158 65.6166Z"
    fill="white" />
  <path
    d="M145.882 54.5155C145.853 54.6029 145.561 54.5738 145.387 54.5738C145.445 54.3115 145.474 54.0202 145.532 53.7579C145.736 53.7288 145.911 53.7288 146.086 53.6997C146.028 53.9619 145.999 54.2533 145.882 54.5155Z"
    fill="white" />
  <path
    d="M171.404 76.2514C171.375 76.3388 171.084 76.3096 170.909 76.3096C170.967 76.0474 170.997 75.756 171.055 75.4938C171.259 75.4647 171.434 75.4647 171.608 75.4355C171.55 75.7269 171.521 76.0183 171.404 76.2514Z"
    fill="white" />
  <path
    d="M177.989 82.6612C177.727 82.603 177.435 82.5738 177.173 82.5155C177.144 82.3116 177.144 82.1367 177.115 81.9619C177.377 82.0202 177.668 82.0493 177.93 82.1659C177.989 82.2242 177.96 82.4864 177.989 82.6612Z"
    fill="white" />
  <path
    d="M174.289 80.7091C174.464 80.913 174.551 81.2044 174.668 81.4375C174.493 81.4666 174.231 81.554 174.173 81.4957C173.998 81.2918 173.91 81.0004 173.794 80.7673C173.969 80.7382 174.231 80.6508 174.289 80.7091Z"
    fill="white" />
  <path
    d="M136.557 103.843C136.295 103.785 136.004 103.756 135.742 103.698C135.712 103.494 135.712 103.319 135.683 103.144C135.945 103.202 136.237 103.231 136.499 103.348C136.586 103.377 136.557 103.668 136.557 103.843Z"
    fill="white" />
  <path
    d="M153.312 68.0347C153.807 68.1512 153.866 68.4718 153.399 68.7048C153.166 68.8214 152.846 68.734 152.584 68.7048C152.525 68.7048 152.554 68.3843 152.525 68.2095C152.758 68.1512 153.05 67.9764 153.312 68.0347Z"
    fill="white" />
  <path
    d="M159.254 94.8982C159.866 95.1895 159.662 95.6557 159.283 96.0636C158.992 95.8305 158.701 95.5974 158.409 95.3644C158.701 95.1895 159.079 94.8108 159.254 94.8982Z"
    fill="white" />
  <path
    d="M145.386 64.1015C145.357 64.1889 145.066 64.1598 144.891 64.1598C144.949 63.8976 144.978 63.6062 145.037 63.344C145.241 63.3148 145.416 63.3148 145.59 63.2856C145.532 63.577 145.503 63.8684 145.386 64.1015Z"
    fill="white" />
  <path
    d="M161.702 79.0197C162.197 79.1363 162.256 79.4567 161.789 79.6898C161.556 79.8064 161.236 79.7189 160.974 79.6898C160.915 79.6898 160.945 79.3694 160.915 79.1945C161.178 79.1071 161.469 78.9615 161.702 79.0197Z"
    fill="white" />
  <path
    d="M138.159 60.9551C137.897 60.8968 137.606 60.8677 137.343 60.8095C137.314 60.6055 137.314 60.4307 137.285 60.2559C137.547 60.3141 137.839 60.3432 138.101 60.4597C138.188 60.4889 138.13 60.7803 138.159 60.9551Z"
    fill="white" />
  <path
    d="M133.004 59.935C132.974 60.0224 132.683 59.9933 132.508 59.9933C132.567 59.7311 132.596 59.4397 132.654 59.1775C132.858 59.1483 133.033 59.1483 133.208 59.1191C133.12 59.4105 133.12 59.7019 133.004 59.935Z"
    fill="white" />
  <path
    d="M136.587 63.5191C136.762 63.723 136.849 64.0144 136.966 64.2475C136.791 64.2766 136.616 64.2766 136.412 64.3057C136.296 64.0726 136.208 63.8104 136.092 63.5482C136.267 63.5482 136.529 63.4608 136.587 63.5191Z"
    fill="white" />
  <path
    d="M133.586 62.7609C133.382 62.9357 133.091 63.0231 132.858 63.1397C132.829 62.9649 132.741 62.7026 132.829 62.6443C133.033 62.4695 133.324 62.3822 133.557 62.2656C133.557 62.4404 133.674 62.7026 133.586 62.7609Z"
    fill="white" />
  <path
    d="M131.197 62.5284C130.935 62.4702 130.643 62.441 130.381 62.3827C130.352 62.1787 130.323 62.0039 130.323 61.8291C130.585 61.8874 130.876 61.9165 131.138 62.0331C131.197 62.0622 131.168 62.3536 131.197 62.5284Z"
    fill="white" />
  <path
    d="M156.953 85.0214C156.807 84.9631 156.807 84.526 156.749 84.2347C156.865 84.1181 156.953 83.9725 157.069 83.856C157.244 84.1182 157.448 84.3512 157.535 84.6426C157.652 84.9631 157.39 85.1962 156.953 85.0214Z"
    fill="white" />
  <path
    d="M173.472 101.484C173.647 101.688 173.735 101.979 173.851 102.212C173.676 102.241 173.414 102.329 173.356 102.27C173.181 102.066 173.094 101.775 172.977 101.542C173.152 101.484 173.414 101.396 173.472 101.484Z"
    fill="white" />
  <path
    d="M131.72 69.6372C131.895 69.8412 131.983 70.1325 132.099 70.3656C131.924 70.3948 131.749 70.3947 131.546 70.4239C131.429 70.1908 131.342 69.9285 131.225 69.6663C131.371 69.6663 131.662 69.579 131.72 69.6372Z"
    fill="white" />
  <path
    d="M133.091 72.3762C132.887 72.551 132.595 72.6384 132.362 72.7549C132.333 72.5801 132.333 72.4054 132.304 72.2014C132.537 72.0849 132.799 71.9974 133.062 71.8809C133.062 72.0265 133.149 72.3179 133.091 72.3762Z"
    fill="white" />
  <path
    d="M124.816 71.9975C124.787 72.0849 124.496 72.0557 124.321 72.0557C124.379 71.7935 124.408 71.5021 124.466 71.2399C124.67 71.2107 124.845 71.2108 125.02 71.1816C124.962 71.4439 124.962 71.7352 124.816 71.9975Z"
    fill="white" />
</svg>