<svg width="226" height="233" viewBox="0 0 226 233" fill="none" xmlns="http://www.w3.org/2000/svg">
  <path
    d="M0.411616 112.937C14.8206 88.8342 10.2869 56.4853 26.1943 33.3536C34.5462 21.2258 47.5475 13.1921 60.7211 6.64113C67.0357 3.50325 73.7185 0.563107 80.7459 0.588467C87.7734 0.613827 95.2665 4.35537 97.5979 10.9988C100.101 18.1095 96.1424 25.7672 91.9862 32.0346C87.8238 38.3251 83.0783 45.128 83.8692 52.6219C84.66 60.1158 94.8118 66.2292 99.8964 60.6565C101.31 59.0785 101.989 57.0065 102.609 54.9683C105.034 47.1223 107.475 39.3056 109.899 31.4596C111.347 26.7948 113.033 21.7974 117.043 19.0329C121.853 15.6898 128.538 16.7134 133.775 19.355C139.018 21.9734 143.471 25.9656 148.666 28.6703C157.02 32.9893 169.078 36.5175 168.694 45.9009C168.353 54.4784 156.488 60.117 157.966 68.5626C158.183 69.7849 158.726 70.9954 159.682 71.7717C162.567 74.13 166.955 71.3427 168.658 68.0344C170.362 64.7261 170.947 60.6968 173.699 58.1896C177.801 54.4342 184.719 56.1639 188.658 60.043C192.62 63.9283 194.56 69.3523 197.182 74.2654C200.878 81.1756 206.074 87.2985 212.337 92.0234C216.864 95.4655 222.199 98.4801 224.526 103.661C228.006 111.38 223.401 120.153 218.922 127.349C214.782 134.017 210.507 140.822 204.241 145.534C197.958 150.216 189.136 152.36 182.175 148.761C177.802 146.499 174.756 142.339 170.883 139.32C167.011 136.301 161.232 134.48 157.311 137.467C154.513 139.59 153.67 143.476 153.994 146.981C154.849 156.176 163.248 164.024 172.472 164.266C173.915 168.864 170.474 173.663 166.374 176.206C162.275 178.748 157.45 179.932 153.458 182.628C146.038 187.674 141.643 197.79 132.771 199.104C124.928 200.272 117.98 193.481 114.77 186.231C111.561 178.981 110.625 170.828 106.936 163.797C103.247 156.765 95.1635 150.883 87.7012 153.59C81.8332 155.708 78.7553 162.388 78.4242 168.615C77.8803 178.872 83.5207 189.251 92.4361 194.34C96.2354 196.522 100.532 197.772 104.159 200.23C107.785 202.688 110.767 206.905 109.94 211.191C108.358 219.312 96.8492 219.374 89.7673 223.619C85.8747 225.945 83.0636 229.873 78.919 231.66C72.611 234.403 65.365 231.496 59.3927 228.088C18.1035 204.516 -5.75398 153.788 2.3868 106.952"
    fill="currentColor" />
  <path
    d="M24.5561 119.332C23.4927 118.032 20.7983 118.474 20.5843 120.844C20.5063 121.69 20.4851 122.6 20.5564 123.536C19.8869 125.388 20.0848 127.422 21.0355 128.866C21.6524 129.799 22.552 130.139 23.523 130.028C24.421 130.466 25.4956 130.061 26.2162 129.313C29.2949 128.453 31.3789 124.281 29.8534 121.47C29.1553 120.193 27.971 119.529 26.6673 119.402C26.1515 119.016 25.27 118.978 24.5561 119.332Z"
    fill="#FFF8EA" />
  <path
    d="M34.2483 141.396C32.6206 142.942 32.5932 145.263 32.7172 147.203C32.8367 149.068 33.4325 150.912 34.9663 151.843C35.9889 152.464 37.3973 152.569 38.6416 152.085C38.8434 152.164 39.0621 152.272 39.2639 152.35C41.1324 153.049 42.7041 150.696 42.2222 148.982C41.7359 147.192 42.1883 145.134 41.5447 143.376C41.0348 141.952 39.8988 140.83 38.4784 140.4C37.1166 139.936 35.4749 140.239 34.2483 141.396Z"
    fill="#FFF8EA" />
  <path
    d="M39.0053 94.2493C38.331 93.6228 37.0377 93.9203 36.3187 94.5697C36.1829 94.7067 36.024 94.8375 35.8883 94.9745C34.3176 95.1977 32.7167 96.1805 31.8719 97.7622C30.8586 99.6951 31.3095 101.525 32.4562 102.699C32.4405 102.943 32.4479 103.192 32.4784 103.448C31.8148 104.261 31.5575 105.406 32.2499 106.334C34.2025 108.938 37.5645 109.517 40.7687 108.097C41.5289 107.756 42.0431 106.853 42.1782 106.072C42.5815 103.827 42.8186 101.463 41.7066 99.6049C41.4467 99.1884 41.145 98.8352 40.7617 98.5095C40.8485 96.799 40.1937 95.3604 39.0053 94.2493Z"
    fill="#FFF8EA" />
  <path
    d="M42.8829 116.936C41.9729 117.559 41.3505 118.68 41.7944 119.889C42.2429 121.173 42.6047 122.781 43.1856 124.125C43.7277 125.707 44.6751 127.348 46.5928 126.846C46.616 126.853 46.6222 126.83 46.6453 126.836C47.6101 126.747 48.5878 126.242 49.2609 125.208C50.3093 123.607 50.2269 121.603 49.7541 120.04C49.2537 118.395 48.7541 116.007 47.2772 115.141C45.6741 114.191 43.7881 115.222 42.8829 116.936ZM46.7425 118.985C46.7318 118.933 46.7211 118.881 46.7103 118.828C46.7318 118.933 46.7565 118.841 46.7615 118.545C46.9509 118.67 46.96 118.821 46.7425 118.985Z"
    fill="#FFF8EA" />
  <path
    d="M25.8601 144.599C24.5698 142.297 21.5528 141.909 19.2858 143.16C18.6045 143.299 17.9582 143.77 17.6011 144.64C17.1319 145.282 16.7765 146.054 16.6105 146.951C16.4693 147.755 16.4961 148.579 16.6924 149.326C16.7017 151.879 17.656 154.141 20.5473 154.074C24.8148 153.954 27.8208 148.097 25.8601 144.599Z"
    fill="#FFF8EA" />
  <path
    d="M36.6466 168.863C36.3441 169.252 36.0754 169.7 35.9054 170.15C35.5859 170.511 35.3866 170.977 35.3073 171.55C35.2044 172.489 35.3699 173.351 35.7466 174.071C36.1307 175.041 36.8557 175.755 37.8585 176.172C38.2389 176.324 38.6859 176.32 39.1006 176.158C39.4658 176.182 39.8434 176.159 40.2103 176.084C43.1684 175.49 44.7584 172.052 43.6642 169.48C42.4808 166.686 38.8291 166.079 36.6466 168.863ZM39.6458 171.351L39.6396 171.374C39.6165 171.368 39.5995 171.338 39.5995 171.338C39.5595 171.303 39.5595 171.303 39.5657 171.28C39.5888 171.286 39.5888 171.286 39.6057 171.315C39.6227 171.344 39.6458 171.351 39.6458 171.351ZM39.7027 171.415L39.7089 171.392C39.7489 171.428 39.7658 171.457 39.7027 171.415ZM39.9057 171.767C39.9119 171.744 39.895 171.715 39.8719 171.708C39.895 171.715 39.9119 171.744 39.9057 171.767ZM39.9569 171.484C39.9693 171.437 39.9817 171.391 40.0172 171.351C39.9817 171.391 39.9693 171.437 39.9569 171.484Z"
    fill="#FFF8EA" />
  <path
    d="M58.5829 143.385C58.0052 143.23 57.401 143.266 56.8352 143.437C55.5139 142.637 53.0621 143.838 53.2105 146.057C53.2575 146.714 53.3862 147.342 53.6028 147.921C53.5866 148.536 53.6691 149.152 53.8626 149.724C54.9361 152.835 58.9771 152.729 60.8624 149.668C61.8414 148.048 62.038 146.02 61.0519 144.616C60.638 144.035 60.045 143.752 59.407 143.73C59.1252 143.58 58.8833 143.465 58.5829 143.385Z"
    fill="#FFF8EA" />
  <path
    d="M55.3201 169.335C55.7421 170.81 56.1811 172.315 56.6031 173.79C56.9377 174.945 58.4059 175.289 59.4715 174.732C60.4261 174.22 60.8834 173.253 60.8645 172.307C60.8876 172.313 60.9339 172.325 60.957 172.331C62.561 172.538 63.9862 170.27 63.3714 168.867C62.3263 166.481 59.8173 165.215 57.1411 165.959C55.6488 166.352 54.9257 167.941 55.3201 169.335Z"
    fill="#FFF8EA" />
  <path
    d="M28.192 167.787C28.5731 166.18 27.4776 164.723 26.0848 164.374C25.7382 164.281 25.396 164.264 25.0416 164.293C24.572 163.919 23.9187 163.769 23.3236 163.956C22.0579 164.335 21.3245 165.501 21.3491 166.796C21.3692 168.015 22.0645 169.118 23.0008 169.69C23.064 169.732 23.1502 169.78 23.2195 169.799C23.529 170.03 23.8092 170.279 24.1187 170.51C24.9716 171.209 26.5749 170.772 27.2543 169.716C27.35 169.543 27.4396 169.394 27.506 169.238C27.861 168.838 28.0789 168.302 28.192 167.787Z"
    fill="#FFF8EA" />
  <path
    d="M197.027 111.351C198.267 111.807 199.875 110.43 199.085 108.757C198.799 108.16 198.443 107.545 198.036 106.94C197.742 105.449 196.794 104.18 195.591 103.585C194.802 103.2 194.069 103.351 193.475 103.811C192.713 103.879 192.156 104.572 191.969 105.364C190.25 107.157 190.52 110.771 192.657 112.038C193.64 112.623 194.691 112.583 195.598 112.157C196.114 112.171 196.694 111.856 197.027 111.351Z"
    fill="#FFF8EA" />
  <path
    d="M181.808 100.486C182.283 98.8055 181.387 97.2525 180.531 96.0078C179.716 94.7986 178.589 93.8279 177.179 93.8216C176.239 93.8174 175.267 94.3001 174.627 95.1192C174.447 95.1452 174.272 95.1481 174.092 95.1741C172.578 95.462 172.46 97.6595 173.472 98.5992C174.517 99.5976 175.019 101.144 176.158 102.068C177.074 102.809 178.282 103.108 179.372 102.831C180.473 102.605 181.468 101.757 181.808 100.486Z"
    fill="#FFF8EA" />
  <path
    d="M197.404 133.793C198.104 133.956 198.841 133.237 199.086 132.51C199.123 132.371 199.166 132.209 199.203 132.071C200.151 131.309 200.846 130.009 200.77 128.627C200.677 126.942 199.644 125.898 198.419 125.569C198.318 125.394 198.21 125.241 198.102 125.088C198.22 124.278 197.956 123.414 197.109 123.064C194.769 122.09 192.304 123.064 190.746 125.272C190.377 125.817 190.393 126.589 190.604 127.191C191.226 128.843 192.016 130.516 193.488 131.307C193.81 131.493 194.18 131.592 194.533 131.661C195.163 132.821 196.19 133.517 197.404 133.793Z"
    fill="#FFF8EA" />
  <path
    d="M185.782 120.227C186.138 119.455 186.108 118.456 185.341 117.805C184.534 117.118 183.662 116.216 182.733 115.521C181.743 114.686 180.45 113.968 179.387 115.07C179.38 115.093 179.38 115.093 179.351 115.11C178.74 115.541 178.292 116.288 178.259 117.245C178.205 118.741 179.048 120.032 179.985 120.878C180.98 121.788 182.268 123.174 183.586 123.155C185.019 123.168 185.856 121.708 185.782 120.227ZM182.419 120.391C182.436 120.42 182.476 120.455 182.493 120.485C182.436 120.42 182.464 120.502 182.582 120.707C182.391 120.68 182.34 120.592 182.419 120.391Z"
    fill="#FFF8EA" />
  <path
    d="M186.119 95.0289C187.901 96.0512 190.058 95.1183 191.074 93.3596C191.469 92.9948 191.716 92.4419 191.618 91.6974C191.681 91.0949 191.611 90.4321 191.366 89.7722C191.156 89.1709 190.799 88.6542 190.371 88.2176C189.344 86.5057 187.807 85.4004 185.924 86.6049C183.097 88.3738 183.434 93.4922 186.119 95.0289Z"
    fill="#FFF8EA" />
  <path
    d="M169.286 83.1615C169.339 82.7794 169.322 82.3787 169.276 81.9949C169.346 81.6421 169.306 81.2351 169.116 80.8373C168.825 80.165 168.364 79.6698 167.835 79.3301C167.2 78.8377 166.431 78.6565 165.588 78.7526C165.256 78.7876 164.98 78.9861 164.761 79.2494C164.503 79.3785 164.263 79.537 164.056 79.754C162.324 81.3208 162.628 84.2508 164.388 85.5398C166.268 86.9352 168.926 85.8889 169.286 83.1615ZM166.287 82.7048C166.293 82.6817 166.293 82.6817 166.287 82.7048C166.293 82.6817 166.316 82.6879 166.316 82.6879C166.34 82.6941 166.363 82.7003 166.363 82.7003C166.34 82.6941 166.34 82.6941 166.316 82.6879C166.316 82.6879 166.293 82.6817 166.287 82.7048ZM166.247 82.6693C166.241 82.6925 166.241 82.6925 166.247 82.6693C166.195 82.6801 166.195 82.6801 166.247 82.6693ZM165.965 82.5195C165.982 82.5488 165.982 82.5488 166.005 82.555C165.982 82.5488 165.959 82.5426 165.965 82.5195ZM166.054 82.7415C166.071 82.7708 166.059 82.8171 166.076 82.8464C166.065 82.794 166.048 82.7647 166.054 82.7415Z"
    fill="#FFF8EA" />
  <path
    d="M164.802 108.86C165.234 108.728 165.627 108.462 165.941 108.124C167.13 108.121 168.297 106.353 167.311 104.95C167.028 104.527 166.68 104.162 166.314 103.865C166.083 103.432 165.782 103.079 165.438 102.788C163.482 101.125 160.847 102.821 160.795 105.606C160.776 107.063 161.477 108.514 162.675 109.033C163.182 109.268 163.694 109.207 164.127 108.976C164.383 108.946 164.586 108.926 164.802 108.86Z"
    fill="#FFF8EA" />
  <path
    d="M156.677 90.2856C155.809 89.4585 154.934 88.6546 154.043 87.8213C153.369 87.1948 152.237 87.5356 151.771 88.3518C151.329 89.0756 151.431 89.8956 151.81 90.5171C151.781 90.534 151.757 90.5279 151.728 90.5448C150.576 91.0535 150.518 93.1185 151.499 93.8024C153.145 94.9618 155.312 94.8241 156.795 93.2647C157.622 92.3965 157.488 91.0479 156.677 90.2856Z"
    fill="#FFF8EA" />
  <path
    d="M175.348 80.5019C175.74 81.7214 177.054 82.2716 178.11 81.9353C178.378 81.8586 178.613 81.7233 178.824 81.5817C179.282 81.63 179.789 81.4935 180.108 81.1333C180.806 80.3789 180.824 79.294 180.304 78.4612C179.801 77.6577 178.903 77.2189 178.045 77.1871C177.969 77.1916 177.917 77.2023 177.847 77.1837C177.564 77.1325 177.251 77.0983 176.968 77.0471C176.111 76.9166 175.242 77.8479 175.202 78.828C175.188 78.9729 175.197 79.1239 175.236 79.258C175.148 79.6802 175.227 80.1226 175.348 80.5019Z"
    fill="#FFF8EA" />
</svg>