<svg width="233" height="226" data-aos="fade-down-sm" viewBox="0 0 233 226" fill="none" xmlns="http://www.w3.org/2000/svg">
  <path
    d="M119.812 0C143.914 14.409 176.263 9.87527 199.395 25.7826C211.523 34.1346 219.556 47.1359 226.107 60.3095C229.245 66.6241 232.185 73.3068 232.16 80.3343C232.135 87.3618 228.393 94.8549 221.75 97.1863C214.639 99.6898 206.981 95.7308 200.714 91.5746C194.423 87.4122 187.62 82.6667 180.127 83.4575C172.633 84.2484 166.519 94.4001 172.092 99.4848C173.67 100.898 175.742 101.577 177.78 102.198C185.626 104.622 193.443 107.063 201.289 109.488C205.954 110.936 210.951 112.622 213.716 116.632C217.059 121.441 216.035 128.127 213.394 133.363C210.775 138.606 206.783 143.06 204.078 148.255C199.759 156.609 196.231 168.667 186.848 168.283C178.27 167.941 172.632 156.077 164.186 157.554C162.964 157.771 161.753 158.314 160.977 159.27C158.619 162.155 161.406 166.543 164.714 168.247C168.022 169.951 172.052 170.535 174.559 173.287C178.314 177.39 176.585 184.307 172.706 188.246C168.82 192.208 163.396 194.148 158.483 196.77C151.573 200.467 145.45 205.662 140.725 211.926C137.283 216.453 134.268 221.787 129.087 224.114C121.368 227.594 112.596 222.99 105.399 218.51C98.7314 214.371 91.9263 210.095 87.2149 203.829C82.5328 197.547 80.3888 188.724 83.988 181.763C86.2494 177.39 90.4095 174.344 93.4285 170.472C96.4476 166.599 98.2684 160.821 95.2818 156.9C93.1584 154.102 89.2727 153.259 85.7678 153.583C76.5725 154.438 68.7243 162.837 68.4821 172.06C63.8847 173.503 59.0852 170.062 56.5426 165.963C54.0001 161.864 52.8161 157.038 50.1208 153.047C45.0748 145.626 34.958 141.231 33.6448 132.359C32.4768 124.516 39.2676 117.568 46.5178 114.359C53.768 111.15 61.9201 110.213 68.952 106.524C75.9839 102.836 81.8652 94.7519 79.1587 87.2896C77.0405 81.4216 70.3604 78.3437 64.1331 78.0126C53.8761 77.4687 43.4976 83.109 38.4089 92.0245C36.2268 95.8238 34.9764 100.12 32.5186 103.747C30.0608 107.373 25.8438 110.355 21.5574 109.528C13.4361 107.947 13.3743 96.4376 9.12933 89.3557C6.80382 85.4631 2.87579 82.652 1.08843 78.5073C-1.65491 72.1993 1.25261 64.9534 4.66101 58.981C28.2325 17.6919 78.9608 -6.1656 125.796 1.97518"
    fill="currentColor" />
  <path
    d="M113.416 24.1445C114.717 23.0811 114.274 20.3867 111.904 20.1727C111.058 20.0946 110.148 20.0735 109.212 20.1448C107.36 19.4753 105.326 19.6732 103.882 20.6239C102.949 21.2408 102.609 22.1404 102.72 23.1114C102.282 24.0094 102.687 25.084 103.435 25.8046C104.295 28.8833 108.467 30.9672 111.278 29.4418C112.555 28.7437 113.219 27.5593 113.346 26.2557C113.732 25.7399 113.77 24.8584 113.416 24.1445Z"
    fill="#FFF8EA" />
  <path
    d="M91.3519 33.837C89.8066 32.2092 87.4857 32.1818 85.5453 32.3058C83.6804 32.4254 81.8365 33.0211 80.9054 34.555C80.2846 35.5775 80.1797 36.986 80.6636 38.2302C80.5848 38.432 80.4766 38.6507 80.3978 38.8525C79.699 40.7211 82.0519 42.2927 83.7662 41.8109C85.5561 41.3245 87.6145 41.777 89.3721 41.1333C90.7967 40.6234 91.9185 39.4874 92.3486 38.067C92.8126 36.7052 92.5094 35.0635 91.3519 33.837Z"
    fill="#FFF8EA" />
  <path
    d="M138.499 38.5941C139.126 37.9199 138.828 36.6265 138.179 35.9076C138.042 35.7718 137.911 35.6129 137.774 35.4771C137.551 33.9065 136.568 32.3056 134.986 31.4607C133.053 30.4474 131.224 30.8983 130.049 32.0451C129.806 32.0294 129.556 32.0368 129.3 32.0673C128.487 31.4036 127.343 31.1464 126.414 31.8388C123.81 33.7914 123.232 37.1534 124.652 40.3576C124.993 41.1177 125.895 41.632 126.677 41.767C128.921 42.1704 131.285 42.4075 133.144 41.2955C133.56 41.0355 133.913 40.7339 134.239 40.3505C135.95 40.4373 137.388 39.7826 138.499 38.5941Z"
    fill="#FFF8EA" />
  <path
    d="M115.813 42.4713C115.19 41.5613 114.069 40.9389 112.86 41.3828C111.576 41.8313 109.968 42.1931 108.623 42.774C107.041 43.3161 105.4 44.2635 105.902 46.1812C105.896 46.2043 105.919 46.2105 105.913 46.2336C106.001 47.1985 106.507 48.1762 107.54 48.8493C109.142 49.8977 111.145 49.8153 112.709 49.3425C114.353 48.8421 116.741 48.3425 117.608 46.8656C118.557 45.2625 117.527 43.3764 115.813 42.4713ZM113.763 46.3309C113.816 46.3202 113.868 46.3094 113.92 46.2987C113.816 46.3202 113.908 46.3449 114.204 46.3499C114.079 46.5393 113.928 46.5484 113.763 46.3309Z"
    fill="#FFF8EA" />
  <path
    d="M88.1489 25.4487C90.4514 24.1584 90.8387 21.1414 89.5885 18.8744C89.4491 18.1931 88.9783 17.5468 88.108 17.1898C87.4659 16.7205 86.6942 16.3651 85.7975 16.1991C84.9932 16.0579 84.1687 16.0847 83.4225 16.2811C80.8689 16.2903 78.6069 17.2447 78.6744 20.1359C78.7941 24.4034 84.6513 27.4094 88.1489 25.4487Z"
    fill="#FFF8EA" />
  <path
    d="M63.8855 36.2353C63.496 35.9327 63.0478 35.6641 62.598 35.494C62.2378 35.1746 61.771 34.9752 61.1978 34.8959C60.2594 34.7931 59.3978 34.9585 58.6776 35.3352C57.7078 35.7193 56.9934 36.4443 56.5761 37.4471C56.4246 37.8276 56.4287 38.2745 56.59 38.6892C56.5664 39.0545 56.5891 39.4321 56.6642 39.7989C57.2586 42.7571 60.6965 44.347 63.2684 43.2528C66.0623 42.0695 66.6692 38.4177 63.8855 36.2353ZM61.3976 39.2344L61.3745 39.2282C61.3807 39.2051 61.41 39.1882 61.41 39.1882C61.4455 39.1481 61.4455 39.1481 61.4686 39.1543C61.4624 39.1774 61.4624 39.1774 61.4331 39.1944C61.4038 39.2113 61.3976 39.2344 61.3976 39.2344ZM61.3328 39.2913L61.3559 39.2975C61.3204 39.3375 61.2912 39.3545 61.3328 39.2913ZM60.9812 39.4943C61.0043 39.5005 61.0336 39.4836 61.0398 39.4605C61.0336 39.4836 61.0043 39.5005 60.9812 39.4943ZM61.2647 39.5455C61.3109 39.5579 61.3572 39.5703 61.3972 39.6058C61.3572 39.5703 61.3109 39.5579 61.2647 39.5455Z"
    fill="#FFF8EA" />
  <path
    d="M89.3634 58.1713C89.5182 57.5936 89.4819 56.9894 89.3115 56.4236C90.1114 55.1023 88.9107 52.6505 86.6913 52.7988C86.0348 52.8458 85.4058 52.9745 84.8277 53.1911C84.2128 53.175 83.5962 53.2575 83.0242 53.451C79.913 54.5245 80.0191 58.5654 83.0806 60.4508C84.7007 61.4298 86.7285 61.6264 88.1321 60.6402C88.7136 60.2264 88.9964 59.6334 89.0187 58.9954C89.1685 58.7135 89.2829 58.4717 89.3634 58.1713Z"
    fill="#FFF8EA" />
  <path
    d="M63.4135 54.9089C61.9381 55.331 60.4334 55.7699 58.9581 56.192C57.8034 56.5266 57.4595 57.9948 58.0161 59.0604C58.5282 60.015 59.4954 60.4723 60.4417 60.4534C60.4355 60.4765 60.4231 60.5227 60.417 60.5458C60.2101 62.1499 62.4784 63.5751 63.8816 62.9603C66.2669 61.9152 67.5337 59.4062 66.7894 56.7299C66.3967 55.2377 64.8071 54.5145 63.4135 54.9089Z"
    fill="#FFF8EA" />
  <path
    d="M64.9613 27.7807C66.5683 28.1617 68.026 27.0662 68.3744 25.6734C68.4673 25.3268 68.4846 24.9847 68.4558 24.6302C68.8293 24.1606 68.9795 23.5073 68.7922 22.9122C68.4131 21.6465 67.2474 20.9131 65.9528 20.9377C64.7337 20.9579 63.631 21.6531 63.0581 22.5894C63.0164 22.6526 62.9686 22.7388 62.95 22.8082C62.7184 23.1176 62.47 23.3978 62.2385 23.7073C61.5393 24.5603 61.9766 26.1636 63.033 26.8429C63.2055 26.9387 63.3549 27.0282 63.5104 27.0947C63.9107 27.4496 64.4467 27.6676 64.9613 27.7807Z"
    fill="#FFF8EA" />
  <path
    d="M121.398 196.616C120.942 197.856 122.319 199.463 123.992 198.673C124.589 198.387 125.204 198.032 125.809 197.624C127.299 197.33 128.569 196.382 129.164 195.179C129.548 194.391 129.398 193.657 128.938 193.063C128.87 192.302 128.177 191.745 127.385 191.557C125.592 189.838 121.977 190.108 120.711 192.246C120.126 193.228 120.166 194.279 120.592 195.186C120.577 195.702 120.893 196.282 121.398 196.616Z"
    fill="#FFF8EA" />
  <path
    d="M132.262 181.397C133.943 181.872 135.496 180.975 136.74 180.12C137.95 179.305 138.92 178.178 138.927 176.768C138.931 175.828 138.448 174.856 137.629 174.216C137.603 174.035 137.6 173.861 137.574 173.681C137.286 172.167 135.089 172.049 134.149 173.06C133.151 174.105 131.604 174.607 130.68 175.747C129.939 176.663 129.64 177.871 129.918 178.961C130.143 180.061 130.991 181.056 132.262 181.397Z"
    fill="#FFF8EA" />
  <path
    d="M98.9554 196.993C98.7927 197.693 99.5115 198.43 100.239 198.674C100.377 198.712 100.539 198.755 100.678 198.792C101.439 199.739 102.739 200.434 104.122 200.359C105.806 200.265 106.851 199.232 107.179 198.008C107.355 197.906 107.508 197.798 107.66 197.691C108.471 197.809 109.334 197.545 109.685 196.698C110.659 194.358 109.685 191.892 107.476 190.335C106.931 189.966 106.159 189.982 105.558 190.192C103.905 190.814 102.232 191.605 101.441 193.077C101.256 193.399 101.157 193.769 101.087 194.121C99.9274 194.752 99.2311 195.779 98.9554 196.993Z"
    fill="#FFF8EA" />
  <path
    d="M112.522 185.371C113.294 185.726 114.292 185.697 114.944 184.93C115.63 184.123 116.533 183.25 117.228 182.322C118.063 181.332 118.781 180.038 117.679 178.975C117.655 178.969 117.655 178.969 117.638 178.94C117.208 178.329 116.461 177.881 115.504 177.848C114.007 177.793 112.717 178.636 111.871 179.574C110.96 180.568 109.575 181.857 109.593 183.174C109.581 184.607 111.041 185.445 112.522 185.371ZM112.358 182.008C112.329 182.025 112.293 182.065 112.264 182.082C112.329 182.025 112.247 182.052 112.042 182.171C112.068 181.98 112.156 181.929 112.358 182.008Z"
    fill="#FFF8EA" />
  <path
    d="M137.72 185.707C136.698 187.489 137.63 189.646 139.389 190.662C139.754 191.057 140.307 191.304 141.051 191.207C141.654 191.269 142.317 191.199 142.977 190.955C143.578 190.744 144.095 190.387 144.531 189.96C146.243 188.932 147.348 187.395 146.144 185.512C144.375 182.685 139.257 183.023 137.72 185.707Z"
    fill="#FFF8EA" />
  <path
    d="M149.587 168.874C149.969 168.927 150.37 168.91 150.753 168.865C151.106 168.934 151.513 168.895 151.911 168.704C152.583 168.414 153.079 167.952 153.418 167.424C153.911 166.788 154.092 166.019 153.996 165.176C153.961 164.845 153.762 164.569 153.499 164.349C153.37 164.092 153.211 163.851 152.994 163.644C151.427 161.912 148.497 162.217 147.209 163.977C145.813 165.857 146.859 168.515 149.587 168.874ZM150.043 165.876C150.067 165.882 150.067 165.882 150.043 165.876C150.067 165.882 150.06 165.905 150.06 165.905C150.054 165.928 150.048 165.951 150.048 165.951C150.054 165.928 150.054 165.928 150.06 165.905C150.06 165.905 150.067 165.882 150.043 165.876ZM150.079 165.836C150.056 165.829 150.056 165.829 150.079 165.836C150.068 165.783 150.068 165.783 150.079 165.836ZM150.229 165.554C150.199 165.571 150.199 165.571 150.193 165.594C150.199 165.571 150.206 165.548 150.229 165.554ZM150.007 165.643C149.977 165.66 149.931 165.647 149.902 165.664C149.954 165.654 149.984 165.637 150.007 165.643Z"
    fill="#FFF8EA" />
  <path
    d="M123.889 164.391C124.021 164.823 124.287 165.216 124.624 165.529C124.627 166.719 126.395 167.886 127.799 166.9C128.221 166.617 128.587 166.269 128.883 165.903C129.317 165.672 129.67 165.37 129.96 165.027C131.624 163.07 129.927 160.436 127.142 160.383C125.686 160.365 124.235 161.066 123.716 162.264C123.481 162.771 123.542 163.282 123.773 163.716C123.803 163.972 123.823 164.175 123.889 164.391Z"
    fill="#FFF8EA" />
  <path
    d="M142.463 156.266C143.29 155.397 144.094 154.523 144.927 153.632C145.554 152.957 145.213 151.826 144.397 151.359C143.673 150.918 142.853 151.02 142.231 151.398C142.214 151.369 142.221 151.346 142.204 151.317C141.695 150.165 139.63 150.107 138.946 151.088C137.787 152.734 137.924 154.901 139.484 156.384C140.352 157.211 141.701 157.077 142.463 156.266Z"
    fill="#FFF8EA" />
  <path
    d="M152.247 174.937C151.027 175.329 150.477 176.642 150.813 177.699C150.89 177.967 151.026 178.201 151.167 178.413C151.119 178.87 151.255 179.377 151.616 179.697C152.37 180.394 153.455 180.413 154.288 179.893C155.091 179.39 155.53 178.492 155.562 177.633C155.557 177.558 155.546 177.505 155.565 177.436C155.616 177.153 155.651 176.84 155.702 176.556C155.832 175.7 154.901 174.831 153.921 174.791C153.776 174.777 153.625 174.786 153.491 174.824C153.069 174.736 152.626 174.816 152.247 174.937Z"
    fill="#FFF8EA" />
</svg>