<svg width="207" height="207" viewBox="0 0 207 207" fill="none" xmlns="http://www.w3.org/2000/svg">
  <path
    d="M78.2117 111.852C76.8111 111.602 75.0413 112.525 75.1933 114.176C75.7362 120.451 79.1237 126.575 83.8793 131.352C84.6393 132.177 85.4862 132.937 86.3765 133.632C90.2526 136.835 94.7692 139.202 99.3185 140.19C100.393 140.418 101.229 139.973 101.74 139.289C103.184 139.148 104.422 137.997 103.976 136.336C102.294 130.049 101.012 123.491 95.9853 118.942C91.1212 114.534 84.4873 113.003 78.2117 111.852Z"
    fill="currentColor" />
  <path
    d="M131.24 93.1771C129.557 86.8906 128.275 80.3328 123.248 75.7835C118.373 71.3646 111.75 69.8228 105.475 68.6719C104.074 68.4222 102.304 69.3451 102.456 70.9954C102.999 77.271 106.387 83.3946 111.142 88.1718C111.902 88.997 112.749 89.757 113.64 90.4519C117.516 93.6548 122.032 96.0218 126.582 97.0098C127.657 97.2378 128.493 96.7926 129.003 96.1086C130.458 95.9783 131.685 94.8383 131.24 93.1771Z"
    fill="currentColor" />
  <path
    d="M38.4514 28.9229C37.0617 28.6623 35.281 29.596 35.433 31.2464C35.9759 37.522 39.3635 43.6455 44.119 48.4228C44.879 49.248 45.7259 50.008 46.6162 50.7029C50.4923 53.9059 55.009 56.2728 59.5583 57.2608C60.6331 57.4888 61.4692 57.0436 61.9795 56.3596C63.4235 56.2184 64.6613 55.0676 64.2161 53.4064C62.5332 47.12 61.252 40.5621 56.225 36.0128C51.3609 31.6047 44.727 30.0738 38.4514 28.9229Z"
    fill="currentColor" />
  <path
    d="M92.0552 50.7138C95.9313 53.9168 100.448 56.2837 104.997 57.2717C106.072 57.4997 106.908 57.0545 107.418 56.3705C108.863 56.2294 110.1 55.0785 109.655 53.4173C107.972 47.1308 106.691 40.573 101.664 36.0237C96.789 31.6047 90.1661 30.063 83.8905 28.9121C82.4898 28.6623 80.7201 29.5852 80.8721 31.2356C81.4149 37.5112 84.8025 43.6347 89.558 48.412C90.3398 49.2589 91.1649 50.0189 92.0552 50.7138Z"
    fill="currentColor" />
  <path
    d="M49.3415 94.7517C50.4164 94.9797 51.2524 94.5346 51.7627 93.8506C53.2067 93.7094 54.4445 92.5585 53.9993 90.8973C52.3164 84.6109 51.0353 78.053 46.0083 73.5037C41.1333 69.0847 34.5102 67.543 28.2346 66.3921C26.834 66.1424 25.0643 67.0652 25.2163 68.7156C25.7592 74.9912 29.1467 81.1148 33.9022 85.8921C34.6622 86.7172 35.5091 87.4772 36.3994 88.1721C40.2756 91.4184 44.7814 93.7745 49.3415 94.7517Z"
    fill="currentColor" />
  <path
    d="M104.334 156.15C102.934 155.901 101.164 156.824 101.316 158.474C101.859 164.75 105.246 170.873 110.002 175.65C110.762 176.475 111.609 177.236 112.499 177.93C116.375 181.133 120.892 183.5 125.441 184.488C126.516 184.716 127.352 184.271 127.862 183.587C129.306 183.446 130.544 182.295 130.099 180.634C128.416 174.348 127.135 167.79 122.108 163.24C117.244 158.832 110.61 157.301 104.334 156.15Z"
    fill="currentColor" />
  <path
    d="M155.452 105.033C154.051 104.783 152.282 105.706 152.434 107.357C152.976 113.632 156.364 119.756 161.119 124.533C161.879 125.358 162.726 126.118 163.617 126.813C167.493 130.016 172.009 132.383 176.559 133.371C177.634 133.599 178.47 133.154 178.98 132.47C180.424 132.329 181.662 131.178 181.217 129.517C179.534 123.23 178.253 116.672 173.226 112.123C168.361 107.715 161.727 106.184 155.452 105.033Z"
    fill="currentColor" />
  <path
    d="M145.234 149.343C143.834 149.093 142.064 150.016 142.216 151.666C142.759 157.942 146.146 164.065 150.902 168.843C151.662 169.668 152.509 170.428 153.399 171.123C157.275 174.326 161.792 176.693 166.341 177.681C167.416 177.909 168.252 177.464 168.762 176.78C170.206 176.638 171.444 175.487 170.999 173.826C169.316 167.54 168.035 160.982 163.008 156.433C158.133 152.014 151.51 150.494 145.234 149.343Z"
    fill="currentColor" />
  <path
    d="M109.361 104.436C106.343 117.335 121.261 127.15 131.652 130.657C132.835 131.059 133.725 130.538 134.203 129.713C135.256 129.506 136.179 128.605 136.212 127.378C136.375 121.591 134.713 116.173 130.696 111.874C125.691 106.521 118.894 106.434 112.89 102.949C111.554 102.178 109.709 102.916 109.361 104.436ZM114.801 109.029C114.453 109.311 114.171 109.681 114.008 110.104C113.9 109.626 113.834 109.149 113.791 108.671C114.128 108.79 114.475 108.92 114.801 109.029ZM127.157 115.261C126.125 114.317 125.029 113.524 123.867 112.818C123.693 112.623 123.487 112.46 123.302 112.275C124.801 113.122 126.082 114.121 127.157 115.261Z"
    fill="currentColor" />
  <path
    d="M95.345 97.7809C98.0268 97.7918 98.385 94.198 96.4307 93.2208C97.1907 85.7292 94.7153 81.8857 89.9706 76.1638C84.6287 69.7362 77.2891 69.6928 69.7757 67.2173C68.1688 66.6961 66.9094 68.1075 66.7574 69.5407C65.9648 77.2169 69.0374 82.7 74.8244 87.4881C81.7732 93.2425 86.1379 97.7375 95.345 97.7809Z"
    fill="currentColor" />
</svg>