<svg width="235" height="223" viewBox="0 0 265 253" fill="none" xmlns="http://www.w3.org/2000/svg">
  <path
    d="M151.289 253C119.854 244.062 84.8551 258.903 54.0608 247.988C37.9118 242.253 24.9648 230.057 13.6327 217.222C8.20332 211.068 2.88531 204.442 0.797084 196.534C-1.29114 188.627 0.657866 179.077 7.42372 174.455C14.6629 169.499 24.4636 171.643 32.7608 174.427C41.0859 177.211 50.1627 180.497 58.3486 177.351C66.5344 174.204 70.3489 160.951 62.5529 156.914C60.3533 155.8 57.8196 155.661 55.3415 155.577C45.7914 155.215 36.2691 154.826 26.7189 154.464C21.0389 154.241 14.9135 153.851 10.5978 150.176C5.39118 145.777 4.52805 137.953 5.9202 131.27C7.2845 124.588 10.4308 118.379 11.9064 111.725C14.2453 101.033 14.5794 86.4153 25.2432 84.0208C34.9883 81.8212 44.9004 93.4596 53.9494 89.2553C55.258 88.6427 56.4552 87.6682 57.04 86.3596C58.8219 82.4059 54.367 78.313 50.1349 77.3942C45.9028 76.4753 41.1973 77.0322 37.5499 74.6934C32.0926 71.213 31.9534 62.9158 35.1275 57.3194C38.3016 51.6951 43.8145 47.8806 48.5478 43.4535C55.2023 37.2167 60.5203 29.532 63.945 21.0678C66.4509 14.9423 68.2328 8.03724 73.3559 3.86079C80.9849 -2.37604 92.2335 0.157674 101.672 3.0255C110.415 5.67059 119.353 8.42704 126.536 14.0513C133.692 19.7035 138.759 28.9752 136.81 37.8849C135.585 43.4814 131.826 48.159 129.599 53.4213C127.371 58.6837 127.065 65.7279 131.604 69.2362C134.833 71.742 139.455 71.5193 143.298 70.0993C153.377 66.3683 159.669 54.5629 157.163 44.1218C161.897 41.1147 168.328 43.5371 172.421 47.3794C176.514 51.2217 179.299 56.2892 183.531 59.9644C191.438 66.786 204.135 68.6793 208.283 78.2573C211.958 86.7216 206.418 96.578 199.234 102.369C192.051 108.161 183.169 111.669 176.375 117.934C169.581 124.198 165.405 135.057 170.695 142.63C174.844 148.589 183.28 150.037 190.38 148.533C202.074 146.055 212.042 136.588 215.077 125.034C216.385 120.105 216.497 114.899 218.167 110.082C219.838 105.265 223.68 100.643 228.748 100.281C238.354 99.6129 241.89 112.532 248.795 119.214C252.581 122.89 257.844 124.866 261.101 128.987C266.085 135.252 264.999 144.273 262.967 152.013C248.906 205.528 199.067 247.626 143.966 252.582"
    fill="currentColor" />
  <path
    d="M151.206 223.932C150.064 225.519 151.373 228.415 154.101 227.942C155.076 227.774 156.106 227.524 157.136 227.162C159.419 227.357 161.647 226.522 162.983 225.018C163.846 224.044 163.958 222.93 163.54 221.872C163.763 220.73 162.983 219.644 161.925 219.06C160.032 215.858 154.714 214.772 152.013 217.333C150.788 218.503 150.398 220.034 150.649 221.538C150.37 222.234 150.593 223.236 151.206 223.932Z"
    fill="#FFF8EA" />
  <path
    d="M173.089 206.39C175.317 207.755 177.934 207.087 180.078 206.363C182.138 205.667 184.032 204.441 184.616 202.437C185.006 201.1 184.7 199.485 183.781 198.232C183.809 197.982 183.865 197.703 183.893 197.453C184.115 195.142 180.997 194.084 179.215 195.142C177.349 196.228 174.899 196.339 173.117 197.592C171.669 198.594 170.751 200.209 170.695 201.936C170.584 203.606 171.419 205.36 173.089 206.39Z"
    fill="#FFF8EA" />
  <path
    d="M118.657 215.245C118.156 216.191 118.88 217.556 119.826 218.168C120.021 218.28 120.216 218.419 120.411 218.53C121.135 220.229 122.722 221.732 124.754 222.205C127.232 222.762 129.154 221.704 130.128 220.062C130.407 220.006 130.685 219.922 130.963 219.811C132.077 220.312 133.441 220.256 134.277 219.198C136.616 216.219 136.254 212.265 133.692 209.091C133.079 208.34 131.91 208.033 130.991 208.117C128.346 208.34 125.618 208.785 123.863 210.595C123.474 211.013 123.167 211.458 122.917 211.987C120.968 212.405 119.548 213.574 118.657 215.245Z"
    fill="#FFF8EA" />
  <path
    d="M142.992 204.052C143.966 204.887 145.414 205.249 146.639 204.386C147.948 203.495 149.646 202.604 150.983 201.546C152.598 200.46 154.157 198.901 153.015 196.896C153.015 196.868 152.987 196.868 152.987 196.84C152.598 195.782 151.734 194.835 150.37 194.39C148.254 193.694 146.027 194.39 144.412 195.392C142.713 196.45 140.18 197.731 139.651 199.652C139.066 201.741 140.792 203.55 142.992 204.052ZM144.133 199.095C144.078 199.123 144.022 199.151 143.966 199.179C144.078 199.123 143.966 199.123 143.632 199.207C143.716 198.956 143.883 198.901 144.133 199.095Z"
    fill="#FFF8EA" />
  <path
    d="M179.216 214.855C177.016 216.999 177.49 220.507 179.578 222.679C179.94 223.403 180.664 223.987 181.75 224.127C182.613 224.461 183.587 224.628 184.645 224.544C185.592 224.461 186.511 224.182 187.29 223.737C190.158 222.957 192.414 221.203 191.467 217.973C190.047 213.212 182.557 211.597 179.216 214.855Z"
    fill="#FFF8EA" />
  <path
    d="M203.243 195.421C203.772 195.644 204.357 195.811 204.914 195.866C205.415 196.117 206 196.2 206.668 196.117C207.754 195.95 208.673 195.504 209.369 194.864C210.343 194.14 210.928 193.11 211.095 191.857C211.151 191.384 211.012 190.882 210.705 190.465C210.622 190.047 210.483 189.63 210.288 189.24C208.728 186.093 204.385 185.342 201.823 187.346C199.039 189.518 199.457 193.806 203.243 195.421ZM205.137 191.3H205.165C205.165 191.328 205.137 191.356 205.137 191.356C205.109 191.411 205.109 191.411 205.081 191.411C205.081 191.384 205.081 191.384 205.109 191.356C205.137 191.328 205.137 191.3 205.137 191.3ZM205.192 191.217H205.165C205.192 191.161 205.22 191.133 205.192 191.217ZM205.526 190.882C205.499 190.882 205.471 190.91 205.471 190.938C205.471 190.91 205.499 190.882 205.526 190.882ZM205.192 190.91C205.137 190.91 205.081 190.91 205.025 190.882C205.081 190.91 205.137 190.91 205.192 190.91Z"
    fill="#FFF8EA" />
  <path
    d="M167.995 178.436C167.995 179.132 168.217 179.801 168.579 180.385C168.078 182.112 170.166 184.506 172.617 183.671C173.34 183.42 174.009 183.086 174.593 182.669C175.289 182.501 175.958 182.223 176.542 181.833C179.717 179.689 178.38 175.179 174.371 173.981C172.255 173.369 169.916 173.759 168.635 175.29C168.106 175.931 167.967 176.682 168.134 177.406C168.05 177.768 167.995 178.074 167.995 178.436Z"
    fill="#FFF8EA" />
  <path
    d="M198.149 174.288C199.68 173.369 201.239 172.422 202.771 171.503C203.968 170.779 203.912 169.025 202.966 167.995C202.103 167.076 200.877 166.854 199.819 167.16C199.819 167.132 199.819 167.076 199.819 167.049C199.569 165.183 196.59 164.264 195.198 165.378C192.831 167.271 192.163 170.473 193.805 173.258C194.696 174.817 196.701 175.151 198.149 174.288Z"
    fill="#FFF8EA" />
  <path
    d="M204.58 205.249C202.659 205.305 201.351 206.975 201.378 208.646C201.378 209.064 201.462 209.454 201.601 209.843C201.323 210.484 201.351 211.263 201.74 211.876C202.548 213.184 204.079 213.658 205.527 213.24C206.891 212.85 207.921 211.737 208.283 210.512C208.311 210.428 208.339 210.317 208.339 210.233C208.506 209.815 208.701 209.426 208.868 209.008C209.397 207.839 208.423 206.168 207.03 205.723C206.808 205.667 206.613 205.611 206.418 205.583C205.861 205.305 205.193 205.221 204.58 205.249Z"
    fill="#FFF8EA" />
  <path
    d="M90.2843 32.4561C90.4235 30.9248 88.391 29.5326 86.7483 30.9248C86.1636 31.4259 85.5789 32.0106 85.022 32.651C83.4349 33.4306 82.2934 34.8785 81.9871 36.4098C81.7922 37.4122 82.182 38.1918 82.8781 38.7208C83.1844 39.5561 84.131 39.9737 85.0777 39.9459C87.6114 41.338 91.5929 39.9459 92.3725 37.1616C92.7345 35.8808 92.3725 34.7114 91.6208 33.8204C91.4816 33.2357 90.9526 32.6789 90.2843 32.4561Z"
    fill="#FFF8EA" />
  <path
    d="M82.655 52.8368C80.6225 52.809 79.1468 54.2846 78.0052 55.6211C76.8915 56.9019 76.1397 58.4611 76.5574 60.0482C76.8358 61.1062 77.6711 62.0528 78.7848 62.5262C78.8684 62.7211 78.924 62.916 79.0076 63.1109C79.7872 64.7258 82.293 64.1968 83.0448 62.7768C83.8523 61.3011 85.4393 60.2709 86.1354 58.7117C86.6922 57.4588 86.6644 56.0109 86.024 54.8694C85.4393 53.6999 84.1864 52.8368 82.655 52.8368Z"
    fill="#FFF8EA" />
  <path
    d="M115.398 25.2723C115.371 24.437 114.34 23.8244 113.449 23.7688C113.282 23.7688 113.087 23.7688 112.92 23.7688C111.779 22.9335 110.108 22.5437 108.577 23.0448C106.711 23.6574 105.848 25.1331 105.848 26.6087C105.681 26.7758 105.542 26.9429 105.403 27.1099C104.456 27.2213 103.565 27.7781 103.426 28.8362C103.036 31.7597 104.874 34.2377 107.825 35.3236C108.549 35.5742 109.412 35.3236 110.025 34.906C111.695 33.7087 113.338 32.3166 113.784 30.4232C113.895 30.0056 113.895 29.5601 113.867 29.1425C114.981 28.0844 115.454 26.7201 115.398 25.2723Z"
    fill="#FFF8EA" />
  <path
    d="M103.649 42.4235C102.674 42.2565 101.56 42.5906 101.059 43.6486C100.53 44.7624 99.7784 46.0153 99.2772 47.2682C98.6368 48.6325 98.2192 50.3031 99.7784 51.1662C99.8062 51.1662 99.8062 51.1662 99.8341 51.1941C100.502 51.7509 101.477 52.0294 102.563 51.7788C104.261 51.389 105.458 50.0525 106.127 48.7439C106.85 47.3518 108.02 45.4863 107.602 44.0106C107.185 42.3957 105.291 41.8945 103.649 42.4235ZM104.846 46.1545C104.874 46.1267 104.901 46.071 104.929 46.0431C104.874 46.1267 104.957 46.071 105.152 45.8761C105.18 46.0988 105.096 46.1823 104.846 46.1545Z"
    fill="#FFF8EA" />
  <path
    d="M75.2214 49.6349C75.8339 47.324 74.1355 45.1801 71.8524 44.5675C71.3233 44.2334 70.6273 44.122 69.8198 44.4561C69.1238 44.5675 68.3998 44.8459 67.7316 45.3193C67.1191 45.7369 66.6457 46.2938 66.2838 46.9063C64.6689 48.5769 63.8893 50.6373 65.8104 52.3914C68.6504 55.0365 74.3025 53.1153 75.2214 49.6349Z"
    fill="#FFF8EA" />
  <path
    d="M66.9519 72.1322C66.5064 72.1879 66.0609 72.3272 65.6432 72.4942C65.2256 72.5221 64.7801 72.6891 64.3903 73.0232C63.7221 73.5522 63.3044 74.2205 63.0817 74.9165C62.7197 75.7797 62.7476 76.6985 63.1095 77.6173C63.2487 77.9793 63.555 78.2299 63.917 78.3969C64.1397 78.6475 64.3903 78.8703 64.6966 79.0373C66.9797 80.513 70.1816 79.2879 71.1005 76.9212C72.1028 74.3875 70.126 71.7146 66.9519 72.1322ZM67.3417 75.6405C67.3138 75.6405 67.3138 75.6405 67.3417 75.6405C67.3138 75.6405 67.3138 75.6126 67.3138 75.6126C67.3138 75.5848 67.3138 75.5569 67.3138 75.5569C67.3138 75.5848 67.3138 75.5848 67.3138 75.6126C67.3138 75.6126 67.3138 75.6405 67.3417 75.6405ZM67.3138 75.6962C67.3417 75.6962 67.3417 75.6962 67.3138 75.6962C67.3417 75.7518 67.3417 75.7518 67.3138 75.6962ZM67.2303 76.0581C67.2581 76.0303 67.2581 76.0303 67.2581 76.0024C67.2581 76.0303 67.2581 76.0581 67.2303 76.0581ZM67.453 75.8911C67.4809 75.8632 67.5366 75.8632 67.5644 75.8354C67.5087 75.8632 67.4809 75.8911 67.453 75.8911Z"
    fill="#FFF8EA" />
  <path
    d="M97.1901 69.4318C96.9117 68.9863 96.4941 68.6243 96.0207 68.3737C95.6588 67.0373 93.32 66.2576 92.0392 67.789C91.6494 68.2345 91.3431 68.7357 91.1204 69.2369C90.7027 69.6267 90.3964 70.0721 90.1737 70.5455C88.8929 73.2462 91.5937 75.6964 94.74 74.9168C96.3827 74.4992 97.8027 73.2741 98.0254 71.7706C98.1368 71.1302 97.9141 70.5733 97.5243 70.1557C97.4129 69.8772 97.3294 69.6545 97.1901 69.4318Z"
    fill="#FFF8EA" />
  <path
    d="M78.7579 84.16C78.0897 85.3851 77.4493 86.6102 76.7811 87.8631C76.2799 88.8097 77.0038 89.9792 78.0618 90.2576C79.0085 90.536 79.8995 90.1741 80.4842 89.5615C80.512 89.5894 80.512 89.6172 80.5399 89.645C81.4587 90.7866 83.7975 90.2298 84.2708 88.9211C85.0783 86.7215 84.2708 84.327 82.0712 83.1298C80.8461 82.4616 79.3704 83.0184 78.7579 84.16Z"
    fill="#FFF8EA" />
  <path
    d="M62.1353 66.118C63.3883 65.3106 63.611 63.6678 62.9149 62.582C62.7479 62.3035 62.5251 62.0808 62.3024 61.8859C62.2189 61.3569 61.9126 60.8279 61.4114 60.5773C60.3534 60.0204 59.1283 60.3267 58.3487 61.162C57.5969 61.9694 57.3742 63.111 57.5969 64.0855C57.6248 64.169 57.6526 64.2247 57.6526 64.3082C57.6804 64.6423 57.7361 65.0043 57.764 65.3384C57.8753 66.3408 59.184 67.0369 60.2977 66.7863C60.4647 66.7584 60.6318 66.7027 60.771 66.6192C61.2722 66.5914 61.7455 66.3686 62.1353 66.118Z"
    fill="#FFF8EA" />
</svg>