<svg width="166" height="354" viewBox="0 0 166 354" fill="none" xmlns="http://www.w3.org/2000/svg">
  <path
    d="M287.103 141.03C270.252 128.496 241.695 127.777 236.25 107.476C232.774 94.5219 241.641 79.0283 233.901 68.0565C231.334 64.4038 227.315 62.0682 223.336 60.045C209.173 52.8617 192.933 48.2992 177.399 51.5853C165.694 54.0566 154.749 61.9324 149.603 72.4289C131.23 77.9827 111.106 77.4395 92.8563 83.7402C70.4374 91.4666 51.6305 110.627 47.0137 133.874C42.4104 157.134 53.7896 183.396 75.1765 193.648C96.346 203.792 123.911 198.414 142.039 213.311C152.794 222.137 157.573 236.123 165.558 247.53C186.252 277.077 230.316 285.917 262.254 269.106C294.178 252.309 311.817 213.433 306.426 177.761C304.294 163.734 298.482 149.503 287.103 141.03Z"
    fill="currentColor" />
  <path
    d="M269.073 162.231C258.183 154.41 244.821 151.694 233.143 145.393C227.372 142.284 222.117 138.088 219.646 131.841C217.351 126.016 218.003 119.743 218.777 113.673C220.039 103.611 221.343 92.9377 212.598 85.7681C203.079 77.9602 188.401 73.384 176.356 71.9583C163.524 70.451 150.475 73.1261 140.25 81.3142C137.873 83.2288 135.701 85.3743 133.813 87.7777C131.464 90.7515 130.622 93.5759 126.725 94.5672C119.447 96.4411 111.992 97.4867 104.564 98.5322C90.4149 100.515 76.1163 102.592 63.3113 109.368C51.9729 115.357 42.1417 124.292 35.3386 135.195C22.3572 155.971 23.0633 183.048 38.1495 202.588C45.4685 212.052 55.4762 218.095 66.9776 221.123C79.1579 224.341 91.8814 224.708 104.062 227.872C110.661 229.583 117.125 232.217 122.42 236.562C128.803 241.804 133.08 248.987 137.099 256.075C143.481 267.373 149.918 277.72 160.414 285.637C179.289 299.867 204.885 304.498 227.725 298.822C276.46 286.696 304.935 224.056 282.706 178.988C279.515 172.51 275.075 166.875 269.358 162.435C268.041 161.416 266.181 163.25 267.511 164.282C289.401 181.282 290.867 214.985 283.372 239.563C276.297 262.77 259.785 283.681 237.013 293.037C215.015 302.081 188.672 299.908 168.277 287.768C157.142 281.142 149.09 271.813 142.694 260.665C136.339 249.584 130.486 237.839 119.107 231.076C99.119 219.208 73.6177 224.803 53.6159 212.948C31.9167 200.076 23.5657 171.193 31.9847 148.028C36.6694 135.141 45.8216 124.061 57.0242 116.28C68.3898 108.391 81.3577 104.738 94.8688 102.579C101.522 101.52 108.203 100.732 114.857 99.6457C118.034 99.1297 121.198 98.5459 124.321 97.8397C126.453 97.3645 130.16 97.1065 131.885 95.6807C132.713 94.9881 133.284 93.1685 133.895 92.2044C134.886 90.6429 136.027 89.1764 137.235 87.7777C139.639 85.0484 142.463 82.6856 145.518 80.7438C151.493 76.9145 158.282 74.8506 165.33 74.2938C178.732 73.2211 192.216 77.4985 204.043 83.514C210.901 87.0038 216.346 91.5799 217.12 99.6322C217.582 104.439 216.713 109.328 216.129 114.094C214.947 123.721 215.192 133.172 222.266 140.627C229.939 148.734 241.616 151.993 251.651 156.053C257.314 158.348 262.813 160.914 267.797 164.485C269.141 165.476 270.431 163.209 269.073 162.231Z"
    fill="#4C4C4C" />
</svg>