<svg width="161" height="189" viewBox="0 0 161 189" fill="none" xmlns="http://www.w3.org/2000/svg">
  <path
    d="M0.570555 46.4233C0.570555 46.4233 78.464 -13.0678 113.249 2.64144C148.034 18.3507 117.145 32.8155 143.851 48.1371C170.577 63.4587 161.641 94.4896 145.177 100.284C128.713 106.078 133.304 123.99 136.527 128.846C139.75 133.681 148.686 153.797 126.734 163.447C104.782 173.117 98.2332 158.163 88.6648 169.078C79.0965 180.013 88.0323 188.765 71.3438 188.765C54.6553 188.765 -6.52923 157.204 0.570555 46.4233Z"
    fill="currentColor" />
  <path
    d="M16.7701 79.9225C15.6072 79.086 13.4854 80.0449 13.8322 82.0442C13.9547 82.7583 14.1383 83.5132 14.4035 84.268C14.2607 85.941 14.8728 87.5731 15.9745 88.5524C16.6885 89.1848 17.5046 89.2664 18.2798 88.9604C19.1163 89.1236 19.9119 88.5523 20.3404 87.7771C22.6866 86.3898 23.4822 82.4931 21.6053 80.5141C20.7484 79.6164 19.6263 79.3308 18.5247 79.5144C18.0146 79.3308 17.2801 79.494 16.7701 79.9225Z"
    fill="white" />
  <path
    d="M29.6225 95.9581C28.6228 97.5902 29.1124 99.508 29.6428 101.079C30.1529 102.589 31.0506 103.976 32.5195 104.404C33.4987 104.69 34.6821 104.466 35.6001 103.792C35.7837 103.813 35.9878 103.854 36.1714 103.874C37.8647 104.037 38.6399 101.752 37.8647 100.446C37.069 99.0795 36.9875 97.2842 36.0694 95.9785C35.3349 94.9176 34.1516 94.2443 32.8867 94.2035C31.6626 94.1423 30.3773 94.734 29.6225 95.9581Z"
    fill="white" />
  <path
    d="M23.1352 56.073C22.4415 55.7058 21.4419 56.2362 20.9931 56.9299C20.9114 57.0727 20.8094 57.2155 20.7278 57.3583C19.4833 57.8888 18.3816 59.0517 18.0348 60.541C17.6268 62.3567 18.4021 63.7644 19.6058 64.4785C19.6466 64.6825 19.7078 64.8865 19.7894 65.0906C19.4221 65.9066 19.4629 66.9063 20.2382 67.5184C22.4212 69.2321 25.3182 68.9669 27.644 67.0899C28.1948 66.6411 28.4192 65.7842 28.358 65.111C28.1948 63.1728 27.8684 61.1734 26.5423 59.8881C26.2363 59.6025 25.9098 59.3781 25.5222 59.1945C25.2162 57.7664 24.3593 56.7259 23.1352 56.073Z"
    fill="white" />
  <path
    d="M31.3361 73.9046C30.7241 74.6186 30.4589 75.6795 31.0913 76.5772C31.7442 77.5361 32.397 78.7806 33.1723 79.7598C33.9679 80.9431 35.1104 82.0856 36.5794 81.2492C36.5998 81.2492 36.5997 81.2287 36.6201 81.2287C37.3954 80.9431 38.0891 80.3107 38.4155 79.311C38.9255 77.7605 38.4155 76.1284 37.681 74.9451C36.9057 73.7006 35.9673 71.844 34.5595 71.4564C33.0294 71.0279 31.7033 72.3132 31.3361 73.9046ZM34.9676 74.741C34.9472 74.7002 34.9268 74.6594 34.9064 74.6186C34.9472 74.7002 34.9472 74.6186 34.886 74.3738C35.0696 74.4554 35.1104 74.5778 34.9676 74.741Z"
    fill="white" />
  <path
    d="M23.4211 100.467C21.8502 98.8551 19.2796 99.2019 17.6883 100.732C17.1578 100.997 16.7293 101.528 16.6273 102.323C16.3825 102.956 16.2601 103.67 16.3213 104.445C16.3825 105.139 16.5866 105.812 16.913 106.383C17.4842 108.485 18.7695 110.137 21.1361 109.444C24.6248 108.403 25.8081 102.895 23.4211 100.467Z"
    fill="white" />
  <path
    d="M37.6613 118.053C37.4981 118.441 37.3757 118.869 37.3349 119.277C37.1512 119.645 37.09 120.073 37.1512 120.563C37.2737 121.358 37.6 122.032 38.0693 122.542C38.5997 123.256 39.3546 123.684 40.2727 123.807C40.6195 123.847 40.9867 123.745 41.2928 123.521C41.5988 123.46 41.9048 123.358 42.1905 123.215C44.4958 122.072 45.0467 118.89 43.5777 117.013C41.9864 114.993 38.865 115.279 37.6613 118.053ZM40.6807 119.461L40.6807 119.481C40.6603 119.481 40.6399 119.461 40.6399 119.461C40.5991 119.441 40.5991 119.441 40.5991 119.42C40.6195 119.42 40.6195 119.42 40.6399 119.441C40.6603 119.461 40.6807 119.461 40.6807 119.461ZM40.7419 119.502L40.7419 119.481C40.7827 119.502 40.8031 119.502 40.7419 119.502ZM40.9867 119.747C40.9867 119.726 40.9663 119.706 40.9459 119.706C40.9663 119.685 40.9867 119.706 40.9867 119.747ZM40.9663 119.481C40.9663 119.481 40.9663 119.502 40.9663 119.481C40.9663 119.441 40.9663 119.4 40.9867 119.359C40.9663 119.42 40.9663 119.461 40.9663 119.481Z"
    fill="white" />
  <path
    d="M50.1058 92.2446C49.5958 92.2446 49.1062 92.4078 48.6778 92.6731C47.4129 92.3058 45.6583 93.836 46.2704 95.6313C46.454 96.1617 46.6988 96.6514 47.0048 97.0798C47.1272 97.5899 47.3312 98.0795 47.6168 98.5079C49.1878 100.834 52.4928 99.8544 53.3701 96.9166C53.8189 95.3661 53.5333 93.6523 52.4112 92.7139C51.942 92.3262 51.3912 92.2242 50.8607 92.3466C50.5955 92.265 50.3711 92.2446 50.1058 92.2446Z"
    fill="white" />
  <path
    d="M53.1459 114.32C53.8191 115.442 54.5128 116.584 55.186 117.706C55.7165 118.584 57.0017 118.543 57.7566 117.849C58.4298 117.217 58.5931 116.319 58.3687 115.544C58.3891 115.544 58.4298 115.544 58.4502 115.544C59.8172 115.36 60.4904 113.177 59.6744 112.157C58.287 110.423 55.9409 109.933 53.9007 111.137C52.7582 111.81 52.5134 113.279 53.1459 114.32Z"
    fill="white" />
  <path
    d="M30.4591 119.053C30.4183 117.645 29.1942 116.686 27.9701 116.707C27.664 116.707 27.3784 116.768 27.0927 116.87C26.6235 116.666 26.0523 116.686 25.6035 116.972C24.6446 117.564 24.2977 118.686 24.6037 119.747C24.8894 120.746 25.7054 121.501 26.6031 121.766C26.6643 121.787 26.7459 121.807 26.8071 121.807C27.1132 121.93 27.3988 122.072 27.7048 122.195C28.5617 122.583 29.7858 121.868 30.1122 120.848C30.153 120.685 30.1938 120.542 30.2142 120.4C30.4182 119.992 30.4795 119.481 30.4591 119.053Z"
    fill="white" />
</svg>