<svg width="196" height="317" viewBox="0 0 196 317" fill="none" xmlns="http://www.w3.org/2000/svg">
  <path
    d="M238.053 209.393C216.554 221.373 205.82 247.913 183.609 258.5C171.955 264.045 158.566 264.445 145.697 263.645C139.529 263.259 133.168 262.562 127.845 259.463C122.522 256.365 118.474 250.241 119.616 244.177C120.832 237.683 127.193 233.605 133.094 230.67C139.01 227.719 145.593 224.635 148.277 218.601C150.96 212.566 145.934 203.477 139.632 205.479C137.868 206.057 136.445 207.332 135.081 208.607C129.802 213.5 124.524 218.363 119.245 223.256C116.102 226.162 112.633 229.217 108.377 229.558C103.262 229.988 98.6361 226.281 95.819 221.981C92.9871 217.696 91.3561 212.714 88.5983 208.385C84.1503 201.446 76.5441 193.484 80.9477 186.53C84.9658 180.169 96.4418 181.089 99.0216 174.031C99.3923 173.008 99.5109 171.851 99.1254 170.843C97.9689 167.789 93.4171 167.982 90.6741 169.746C87.9311 171.51 85.7219 174.313 82.5342 175.01C77.7747 176.062 73.2822 171.718 71.9922 167.048C70.6875 162.362 71.5919 157.395 71.755 152.517C71.9774 145.652 70.7171 138.728 68.0335 132.397C66.106 127.801 63.3778 123.175 63.8819 118.223C64.6233 110.839 71.9626 106.198 78.5161 102.699C84.5803 99.4518 90.8075 96.1602 97.6279 95.3299C104.448 94.5293 112.084 96.7681 115.791 102.551C118.119 106.183 118.608 110.676 120.224 114.664C121.84 118.653 125.428 122.567 129.713 122.018C132.768 121.633 135.11 119.053 136.4 116.251C139.781 108.897 136.845 99.259 129.95 95.0334C130.87 90.9115 135.585 88.7764 139.81 88.643C144.036 88.5096 148.217 89.7254 152.428 89.4288C160.271 88.8506 168.041 83.0978 175.35 85.989C181.815 88.5392 184.113 96.7385 183.372 103.648C182.63 110.557 179.769 117.155 179.487 124.109C179.205 131.063 182.764 139.069 189.614 140.285C194.996 141.249 200.26 137.527 203.24 132.946C208.147 125.399 208.414 115.05 203.877 107.28C201.95 103.959 199.236 101.127 197.561 97.6726C195.886 94.2179 195.47 89.7105 197.976 86.8193C202.736 81.3482 211.498 86.3448 218.734 86.2262C222.707 86.1669 226.562 84.4173 230.492 84.877C236.482 85.559 240.707 90.9412 243.747 96.1454C264.756 132.13 260.635 181.089 233.931 213.07"
    fill="currentColor" />
  <mask id="path-2-inside-1_3_1355" fill="white">
    <path
      d="M247.071 224.393C222.446 238.116 210.15 268.516 184.709 280.642C171.36 286.994 156.024 287.452 141.282 286.535C134.217 286.094 126.931 285.295 120.834 281.746C114.737 278.196 110.101 271.182 111.409 264.236C112.801 256.797 120.087 252.127 126.846 248.764C133.623 245.385 141.163 241.852 144.237 234.94C147.311 228.028 141.554 217.617 134.336 219.91C132.315 220.572 130.685 222.032 129.122 223.493C123.076 229.098 117.03 234.668 110.984 240.273C107.384 243.601 103.41 247.1 98.5353 247.49C92.6761 247.983 87.3773 243.737 84.1505 238.812C80.9066 233.904 79.0385 228.197 75.8796 223.238C70.7846 215.29 62.0721 206.17 67.1162 198.205C71.7187 190.919 84.8637 191.972 87.8188 183.888C88.2434 182.716 88.3793 181.391 87.9377 180.237C86.613 176.738 81.3992 176.959 78.2572 178.98C75.1153 181.001 72.5848 184.211 68.9334 185.009C63.4818 186.215 58.3358 181.239 56.8583 175.889C55.3637 170.522 56.3997 164.833 56.5865 159.245C56.8413 151.382 55.3977 143.451 52.3237 136.199C50.1159 130.934 46.991 125.635 47.5684 119.963C48.4176 111.505 56.8243 106.189 64.3309 102.181C71.2771 98.4619 78.4101 94.6916 86.2224 93.7406C94.0347 92.8235 102.781 95.388 107.027 102.011C109.693 106.172 110.254 111.318 112.105 115.887C113.956 120.455 118.066 124.939 122.974 124.311C126.473 123.869 129.156 120.914 130.634 117.704C134.506 109.28 131.143 98.2412 123.246 93.4009C124.299 88.6796 129.7 86.234 134.54 86.0811C139.38 85.9283 144.169 87.3209 148.993 86.9812C157.977 86.3189 166.876 79.7294 175.249 83.0411C182.654 85.9622 185.286 95.354 184.437 103.268C183.588 111.182 180.31 118.74 179.987 126.705C179.665 134.67 183.741 143.841 191.587 145.234C197.752 146.338 203.781 142.075 207.195 136.827C212.816 128.183 213.122 116.328 207.925 107.429C205.717 103.625 202.609 100.381 200.69 96.4239C198.771 92.4668 198.295 87.3039 201.165 83.9921C206.617 77.7253 216.654 83.4487 224.942 83.3128C229.494 83.2449 233.909 81.2409 238.41 81.7673C245.271 82.5486 250.111 88.7135 253.593 94.6747C277.658 135.893 272.937 191.972 242.35 228.605" />
  </mask>
  <path
    d="M184.709 280.642L185.998 283.351L185.999 283.35L184.709 280.642ZM141.282 286.535L141.095 289.529L141.096 289.529L141.282 286.535ZM111.409 264.236L114.357 264.791L114.357 264.788L111.409 264.236ZM126.846 248.764L128.183 251.45L128.185 251.449L126.846 248.764ZM134.336 219.91L133.428 217.05L133.415 217.055L133.402 217.059L134.336 219.91ZM129.122 223.493L131.162 225.693L131.171 225.685L129.122 223.493ZM110.984 240.273L113.021 242.475L113.024 242.473L110.984 240.273ZM98.5353 247.49L98.2957 244.5L98.284 244.501L98.5353 247.49ZM84.1505 238.812L86.6599 237.168L86.6533 237.158L84.1505 238.812ZM75.8796 223.238L78.4099 221.627L78.4052 221.619L75.8796 223.238ZM67.1162 198.205L69.6507 199.81L69.6525 199.807L67.1162 198.205ZM87.8188 183.888L90.6365 184.918L90.6394 184.91L87.8188 183.888ZM87.9377 180.237L85.1321 181.299L85.1356 181.308L87.9377 180.237ZM68.9334 185.009L68.2927 182.078L68.2855 182.08L68.9334 185.009ZM56.8583 175.889L59.75 175.09L59.7483 175.084L56.8583 175.889ZM56.5865 159.245L59.5849 159.345L59.585 159.342L56.5865 159.245ZM52.3237 136.199L49.5571 137.359L49.5616 137.37L52.3237 136.199ZM47.5684 119.963L50.553 120.267L50.5534 120.263L47.5684 119.963ZM64.3309 102.181L65.7439 104.828L65.7471 104.826L64.3309 102.181ZM86.2224 93.7406L85.8726 90.761L85.8599 90.7626L86.2224 93.7406ZM107.027 102.011L109.553 100.393L109.553 100.392L107.027 102.011ZM122.974 124.311L122.599 121.334L122.593 121.335L122.974 124.311ZM130.634 117.704L133.359 118.958L133.36 118.957L130.634 117.704ZM123.246 93.4009L120.318 92.7479L119.852 94.8391L121.678 95.9587L123.246 93.4009ZM148.993 86.9812L149.203 89.9738L149.213 89.9731L148.993 86.9812ZM175.249 83.0411L174.145 85.8308L174.148 85.8318L175.249 83.0411ZM191.587 145.234L192.116 142.281L192.111 142.28L191.587 145.234ZM207.195 136.827L209.709 138.463L209.71 138.463L207.195 136.827ZM207.925 107.429L205.33 108.935L205.334 108.942L207.925 107.429ZM201.165 83.9921L198.902 82.0231L198.898 82.0274L201.165 83.9921ZM224.942 83.3128L224.897 80.3132L224.893 80.3132L224.942 83.3128ZM238.41 81.7673L238.061 84.747L238.07 84.7481L238.41 81.7673ZM253.593 94.6747L256.184 93.1621L256.183 93.1617L253.593 94.6747ZM245.611 221.773C232.741 228.944 223.158 240.44 213.923 251.158C204.539 262.049 195.485 272.182 183.418 277.934L185.999 283.35C199.373 276.976 209.187 265.846 218.468 255.074C227.898 244.13 236.776 233.565 248.532 227.014L245.611 221.773ZM183.42 277.933C170.791 283.942 156.101 284.451 141.469 283.541L141.096 289.529C155.947 290.453 171.929 290.045 185.998 283.351L183.42 277.933ZM141.469 283.541C134.397 283.099 127.766 282.31 122.344 279.153L119.325 284.338C126.097 288.281 134.037 289.088 141.095 289.529L141.469 283.541ZM122.344 279.153C116.931 276.002 113.362 270.076 114.357 264.791L108.46 263.681C106.84 272.288 112.544 280.391 119.325 284.338L122.344 279.153ZM114.357 264.788C114.892 261.932 116.577 259.457 119.105 257.217C121.649 254.961 124.882 253.092 128.183 251.45L125.51 246.078C122.052 247.799 118.262 249.946 115.125 252.727C111.972 255.521 109.318 259.101 108.46 263.684L114.357 264.788ZM128.185 251.449C131.499 249.796 135.308 247.962 138.644 245.639C142.016 243.292 145.139 240.295 146.979 236.159L141.496 233.721C140.262 236.497 138.078 238.722 135.216 240.715C132.32 242.731 128.97 244.353 125.508 246.08L128.185 251.449ZM146.979 236.159C149.002 231.609 148.058 226.23 145.701 222.4C143.341 218.566 138.853 215.327 133.428 217.05L135.244 222.769C137.037 222.199 139.037 223.019 140.591 225.545C142.149 228.076 142.547 231.358 141.496 233.721L146.979 236.159ZM133.402 217.059C130.663 217.956 128.585 219.889 127.074 221.301L131.171 225.685C132.785 224.176 133.967 223.188 135.27 222.76L133.402 217.059ZM127.083 221.293C124.062 224.093 121.04 226.886 118.017 229.68C114.994 232.473 111.97 235.268 108.945 238.072L113.024 242.473C116.045 239.672 119.066 236.88 122.089 234.086C125.112 231.293 128.137 228.497 131.162 225.693L127.083 221.293ZM108.948 238.07C105.208 241.527 101.972 244.205 98.2957 244.5L98.775 250.481C104.847 249.994 109.559 245.676 113.021 242.475L108.948 238.07ZM98.284 244.501C94.0491 244.857 89.6425 241.72 86.6598 237.168L81.6411 240.456C85.1121 245.754 91.3031 251.109 98.7866 250.48L98.284 244.501ZM86.6533 237.158C85.1637 234.904 83.9688 232.435 82.6915 229.754C81.4431 227.134 80.1069 224.291 78.4098 221.627L73.3493 224.85C74.8112 227.145 75.9885 229.635 77.2749 232.335C78.5323 234.974 79.8934 237.812 81.6477 240.466L86.6533 237.158ZM78.4052 221.619C77.0928 219.572 75.5151 217.4 74.1167 215.384C72.6756 213.306 71.3627 211.308 70.3664 209.361C68.3505 205.422 67.9883 202.435 69.6507 199.81L64.5817 196.6C61.2 201.94 62.6721 207.496 65.0251 212.095C66.2133 214.417 67.7185 216.687 69.1864 218.803C70.6969 220.981 72.1188 222.931 73.3539 224.857L78.4052 221.619ZM69.6525 199.807C70.4317 198.574 71.6403 197.579 73.3155 196.664C75.0314 195.726 76.9736 195.004 79.1799 194.139C83.1798 192.572 88.6257 190.419 90.6365 184.918L85.0012 182.858C84.0568 185.441 81.4527 186.804 76.9907 188.553C74.966 189.346 72.5743 190.231 70.4387 191.398C68.2624 192.587 66.1019 194.193 64.5799 196.603L69.6525 199.807ZM90.6394 184.91C91.2153 183.321 91.5227 181.213 90.7399 179.165L85.1356 181.308C85.2359 181.57 85.2716 182.112 84.9983 182.866L90.6394 184.91ZM90.7433 179.174C89.5207 175.945 86.5428 174.723 83.9871 174.546C81.4547 174.369 78.7271 175.111 76.6343 176.457L79.8802 181.503C80.9293 180.828 82.3796 180.448 83.5708 180.531C84.7387 180.612 85.03 181.029 85.1321 181.299L90.7433 179.174ZM76.6343 176.457C74.9258 177.556 73.1421 179.151 71.9422 180.087C70.5579 181.166 69.4462 181.826 68.2927 182.078L69.5741 187.94C72.0721 187.394 74.0513 186.05 75.6306 184.819C77.3942 183.445 78.4467 182.425 79.8802 181.503L76.6343 176.457ZM68.2855 182.08C66.6883 182.433 64.9527 181.934 63.3058 180.586C61.6444 179.226 60.3276 177.181 59.75 175.09L53.9665 176.688C54.8665 179.946 56.8615 183.065 59.5053 185.229C62.1637 187.405 65.7269 188.791 69.5813 187.938L68.2855 182.08ZM59.7483 175.084C59.12 172.828 58.999 170.414 59.0901 167.752C59.1357 166.422 59.2317 165.075 59.3324 163.662C59.4318 162.268 59.536 160.808 59.5849 159.345L53.5882 159.145C53.5437 160.476 53.4483 161.823 53.3476 163.235C53.2483 164.628 53.1436 166.086 53.0937 167.547C52.9937 170.468 53.102 173.583 53.9682 176.694L59.7483 175.084ZM59.585 159.342C59.8535 151.053 58.3329 142.688 55.0858 135.028L49.5616 137.37C52.4625 144.213 53.8291 151.711 53.5881 159.148L59.585 159.342ZM55.0903 135.039C53.8552 132.093 52.6898 129.856 51.7189 127.203C50.8078 124.713 50.3295 122.462 50.553 120.267L44.5838 119.659C44.2298 123.136 45.0253 126.371 46.0843 129.265C47.0834 131.995 48.5844 135.039 49.5571 137.359L55.0903 135.039ZM50.5534 120.263C50.8788 117.021 52.6537 114.209 55.4815 111.614C58.3318 108.998 62.0249 106.813 65.7439 104.828L62.9179 99.5349C59.1303 101.557 54.8667 104.034 51.4247 107.193C47.9602 110.372 45.1071 114.447 44.5834 119.663L50.5534 120.263ZM65.7471 104.826C72.7755 101.063 79.4211 97.5907 86.5849 96.7186L85.8599 90.7626C77.3991 91.7926 69.7787 95.8613 62.9148 99.5365L65.7471 104.826ZM86.5722 96.7201C93.6988 95.8835 101.088 98.3061 104.501 103.63L109.553 100.392C104.474 92.4698 94.3706 89.7634 85.8726 90.761L86.5722 96.7201ZM104.501 103.63C105.595 105.338 106.307 107.325 106.995 109.649C107.648 111.851 108.326 114.55 109.325 117.013L114.885 114.76C114.033 112.655 113.505 110.496 112.748 107.944C112.027 105.512 111.125 102.846 109.553 100.393L104.501 103.63ZM109.325 117.013C110.395 119.656 112.139 122.342 114.435 124.32C116.746 126.312 119.821 127.739 123.355 127.286L122.593 121.335C121.22 121.511 119.785 121.01 118.352 119.775C116.903 118.527 115.666 116.686 114.885 114.76L109.325 117.013ZM123.35 127.287C128.339 126.657 131.687 122.59 133.359 118.958L127.909 116.45C126.625 119.238 124.607 121.081 122.599 121.334L123.35 127.287ZM133.36 118.957C137.867 109.152 134.005 96.4765 124.814 90.8431L121.678 95.9587C128.282 100.006 131.145 109.409 127.908 116.451L133.36 118.957ZM126.174 94.0539C126.471 92.7205 127.407 91.5418 128.987 90.6173C130.584 89.6835 132.642 89.1425 134.635 89.0796L134.445 83.0826C131.598 83.1725 128.535 83.9308 125.958 85.4383C123.365 86.9552 121.074 89.3599 120.318 92.7479L126.174 94.0539ZM134.635 89.0796C136.783 89.0118 138.945 89.2856 141.418 89.5801C143.803 89.8643 146.471 90.1662 149.203 89.9738L148.782 83.9886C146.691 84.1359 144.553 83.9113 142.128 83.6223C139.79 83.3437 137.138 82.9976 134.445 83.0826L134.635 89.0796ZM149.213 89.9731C154.141 89.6098 159.209 87.5935 163.211 86.3947C167.519 85.1043 170.971 84.5751 174.145 85.8308L176.352 80.2514C171.154 78.1954 165.97 79.305 161.489 80.647C156.703 82.0807 152.829 83.6903 148.772 83.9893L149.213 89.9731ZM174.148 85.8318C176.876 86.908 178.888 89.2276 180.152 92.3942C181.422 95.5768 181.834 99.4019 181.454 102.948L187.42 103.588C187.888 99.2203 187.409 94.3924 185.724 90.1703C184.033 85.9322 181.026 82.0953 176.35 80.2504L174.148 85.8318ZM181.454 102.948C181.057 106.651 180.091 110.283 179.104 114.242C178.139 118.112 177.165 122.261 176.99 126.584L182.985 126.827C183.132 123.184 183.959 119.572 184.926 115.693C185.87 111.903 186.968 107.8 187.42 103.588L181.454 102.948ZM176.99 126.584C176.808 131.075 177.855 135.921 180.113 139.912C182.381 143.919 186.025 147.294 191.063 148.188L192.111 142.28C189.303 141.782 186.986 139.874 185.335 136.957C183.674 134.022 182.844 130.3 182.985 126.827L176.99 126.584ZM191.058 148.187C198.929 149.596 205.984 144.19 209.709 138.463L204.68 135.191C201.578 139.96 196.574 143.079 192.116 142.281L191.058 148.187ZM209.71 138.463C215.946 128.872 216.287 115.799 210.515 105.916L205.334 108.942C209.957 116.857 209.686 127.494 204.68 135.192L209.71 138.463ZM210.52 105.923C209.318 103.854 207.87 101.934 206.627 100.222C205.339 98.4473 204.223 96.8334 203.389 95.1148L197.991 97.733C199.076 99.9716 200.473 101.958 201.771 103.746C203.114 105.596 204.324 107.2 205.33 108.935L210.52 105.923ZM203.389 95.1148C201.693 91.6168 201.718 87.9354 203.433 85.9569L198.898 82.0274C194.873 86.6724 195.849 93.3169 197.991 97.733L203.389 95.1148ZM203.429 85.9611C205.061 84.0849 207.471 83.7124 211.548 84.3205C213.587 84.6248 215.582 85.0915 217.933 85.5415C220.166 85.969 222.597 86.3517 224.991 86.3124L224.893 80.3132C223.143 80.3419 221.211 80.0601 219.061 79.6485C217.029 79.2594 214.62 78.7124 212.433 78.3862C208.056 77.7333 202.722 77.6325 198.902 82.0232L203.429 85.9611ZM224.987 86.3125C227.607 86.2734 230.189 85.6747 232.279 85.2598C234.506 84.8178 236.324 84.5438 238.061 84.747L238.758 78.7877C235.995 78.4645 233.355 78.9292 231.111 79.3746C228.73 79.8471 226.829 80.2843 224.897 80.3132L224.987 86.3125ZM238.07 84.7481C240.657 85.0426 243.005 86.3603 245.2 88.4508C247.409 90.5552 249.323 93.3129 251.002 96.1877L256.183 93.1617C254.381 90.0753 252.134 86.77 249.338 84.1063C246.527 81.4287 243.024 79.2733 238.749 78.7866L238.07 84.7481ZM251.002 96.1873C274.43 136.313 269.825 191.019 240.047 226.682L244.653 230.528C276.049 192.925 280.887 135.473 256.184 93.1621L251.002 96.1873Z"
    fill="black" mask="url(#path-2-inside-1_3_1355)" />
  <path
    d="M88.122 124.434C87.3806 123.544 85.5569 123.885 85.4235 125.501C85.379 126.08 85.379 126.702 85.4235 127.34C84.9935 128.6 85.1566 129.979 85.809 130.958C86.2389 131.595 86.8617 131.803 87.5141 131.714C88.122 131.996 88.8485 131.714 89.3378 131.195C91.4284 130.587 92.8072 127.725 91.7397 125.828C91.2504 124.953 90.435 124.523 89.5602 124.449C89.1747 124.211 88.5964 124.197 88.122 124.434Z"
    fill="white" />
  <path
    d="M94.9131 139.35C93.8159 140.417 93.8159 141.989 93.9197 143.309C94.0086 144.584 94.4386 145.814 95.5062 146.437C96.2179 146.852 97.1668 146.911 98.0119 146.57C98.1602 146.63 98.2936 146.704 98.4419 146.763C99.717 147.208 100.77 145.592 100.414 144.435C100.058 143.22 100.355 141.826 99.8949 140.625C99.5242 139.661 98.7384 138.905 97.7895 138.638C96.8554 138.327 95.7286 138.534 94.9131 139.35Z"
    fill="white" />
  <path
    d="M97.6713 107.235C97.2116 106.805 96.3368 107.027 95.8327 107.472C95.7438 107.561 95.64 107.665 95.551 107.754C94.4983 107.917 93.4011 108.599 92.8525 109.681C92.1853 111.001 92.5115 112.246 93.2973 113.032C93.2973 113.21 93.3122 113.373 93.327 113.536C92.8822 114.1 92.7043 114.871 93.1935 115.508C94.5428 117.273 96.841 117.614 98.9909 116.62C99.5098 116.368 99.836 115.775 99.9398 115.226C100.192 113.699 100.325 112.083 99.5543 110.838C99.3912 110.556 99.154 110.319 98.9167 110.111C98.9464 108.955 98.4719 107.976 97.6713 107.235Z"
    fill="white" />
  <path
    d="M100.548 122.625C99.9398 123.055 99.5246 123.826 99.8212 124.657C100.133 125.531 100.399 126.599 100.8 127.533C101.185 128.601 101.852 129.713 103.142 129.342C103.157 129.327 103.157 129.327 103.187 129.327C103.839 129.268 104.506 128.897 104.951 128.185C105.648 127.073 105.574 125.724 105.233 124.672C104.877 123.545 104.506 121.929 103.498 121.365C102.416 120.728 101.141 121.469 100.548 122.625ZM103.172 123.975C103.172 123.945 103.157 123.901 103.157 123.871C103.172 123.945 103.187 123.871 103.187 123.663C103.32 123.767 103.32 123.856 103.172 123.975Z"
    fill="white" />
  <path
    d="M89.2493 141.604C88.3449 140.047 86.2988 139.81 84.7568 140.699C84.2972 140.803 83.8672 141.115 83.6151 141.723C83.3038 142.153 83.0665 142.686 82.9627 143.294C82.8589 143.843 82.9034 144.391 83.0369 144.91C83.0665 146.66 83.7486 148.172 85.7057 148.083C88.6266 147.979 90.6134 143.947 89.2493 141.604Z"
    fill="white" />
  <path
    d="M96.8264 157.988C96.6188 158.255 96.4557 158.566 96.3223 158.878C96.1147 159.115 95.9664 159.441 95.9368 159.827C95.8626 160.464 95.9961 161.042 96.2481 161.532C96.515 162.184 97.0191 162.659 97.7012 162.955C97.9681 163.074 98.2646 163.044 98.5463 162.94C98.7984 162.955 99.0504 162.94 99.3025 162.866C101.304 162.436 102.357 160.079 101.586 158.329C100.77 156.446 98.2942 156.075 96.8264 157.988ZM98.9021 159.649C98.8873 159.664 98.8873 159.664 98.9021 159.649C98.8873 159.664 98.8725 159.649 98.8725 159.649C98.8577 159.634 98.8428 159.619 98.8428 159.619C98.8577 159.634 98.8577 159.634 98.8725 159.649C98.8725 159.649 98.8873 159.664 98.9021 159.649ZM98.917 159.693C98.9318 159.678 98.9318 159.678 98.917 159.693C98.9614 159.708 98.9614 159.708 98.917 159.693ZM99.0652 159.93C99.0652 159.901 99.0652 159.901 99.0504 159.886C99.0652 159.901 99.0801 159.916 99.0652 159.93ZM99.0949 159.723C99.0949 159.693 99.1245 159.664 99.1245 159.634C99.1097 159.678 99.1097 159.708 99.0949 159.723Z"
    fill="white" />
  <path
    d="M111.49 140.447C111.105 140.358 110.69 140.388 110.304 140.506C109.4 139.987 107.739 140.818 107.873 142.315C107.902 142.76 108.006 143.19 108.154 143.576C108.139 144.006 108.214 144.406 108.347 144.777C109.103 146.897 111.846 146.763 113.106 144.673C113.759 143.576 113.863 142.167 113.181 141.248C112.899 140.847 112.484 140.669 112.054 140.655C111.846 140.566 111.683 140.492 111.49 140.447Z"
    fill="white" />
  <path
    d="M109.517 158.106C109.814 159.114 110.125 160.108 110.437 161.131C110.674 161.902 111.682 162.139 112.394 161.724C113.046 161.368 113.328 160.701 113.313 160.063C113.343 160.063 113.358 160.078 113.387 160.078C114.484 160.197 115.433 158.655 114.989 157.706C114.247 156.105 112.542 155.259 110.733 155.793C109.725 156.09 109.236 157.172 109.517 158.106Z"
    fill="white" />
  <path
    d="M91.0583 157.35C91.2955 156.253 90.5394 155.259 89.5904 155.052C89.3532 154.992 89.116 154.992 88.8936 155.007C88.5674 154.77 88.1226 154.651 87.7223 154.785C86.8623 155.052 86.373 155.867 86.4027 156.727C86.4323 157.557 86.9216 158.284 87.5592 158.684C87.6185 158.714 87.6629 158.729 87.7074 158.773C87.9002 158.936 88.1226 159.099 88.3153 159.263C88.9084 159.737 89.9759 159.411 90.4356 158.684C90.5097 158.581 90.569 158.462 90.5987 158.343C90.8507 158.062 90.9842 157.691 91.0583 157.35Z"
    fill="white" />
</svg>