<svg width="134" height="75" viewBox="0 0 134 75" fill="none" xmlns="http://www.w3.org/2000/svg">
  <g clip-path="url(#clip0_1455_59)">
    <path
      d="M131.117 -43.8029C128.478 -80.5975 116.924 -115.52 89.7958 -122.225C89.7958 -122.225 89.7958 -122.225 89.7804 -122.225C67.9768 -127.596 44.0404 -103.659 26.7786 -93.1027C-8.35888 -71.652 -46.3503 -43.2198 -56.6153 -1.10091C-57.8275 3.85515 -58.119 8.76518 -56.7381 13.7366C-54.0069 23.5106 -46.4423 31.3053 -38.8164 37.5963C-4.89117 65.5375 66.6266 92.3279 106.597 61.1031C113.333 55.8402 118.151 48.5672 121.466 40.7725C128.646 23.8482 133.48 -10.7215 131.117 -43.8029Z"
      fill="currentColor" />
    <path
      d="M40.23 38.6689C26.3258 33.5928 11.8143 30.6353 -2.71811 28.0762C-17.5437 25.4543 -32.474 23.2309 -47.1111 19.7069C-57.5183 17.1899 -68.9097 14.1274 -77.0554 6.74399C-82.1439 2.12934 -84.887 -4.01652 -84.4473 -10.8965C-83.9657 -18.3009 -80.4477 -25.3278 -76.5738 -31.5156C-71.7576 -39.2137 -65.8525 -46.1776 -59.6752 -52.8269C-53.3722 -59.623 -46.6923 -66.0625 -39.9496 -72.3972C-34.2539 -77.746 -28.5373 -82.906 -22.2133 -87.5206C-14.298 -93.289 -5.98477 -98.5119 2.64254 -103.148C11.8981 -108.119 21.5515 -112.482 31.6236 -115.565C40.6488 -118.334 50.1975 -120.18 59.6624 -119.32C66.6564 -118.669 74.5717 -116.383 78.9063 -110.594C83.6179 -104.301 85.67 -96.0577 87.2405 -88.4855C89.3345 -78.3752 90.3187 -68.0342 90.905 -57.7352C91.4913 -47.3103 91.6379 -36.8854 91.4495 -26.4395C91.3448 -19.6644 90.905 -12.9102 91.0725 -6.13507C91.2191 -0.26188 91.4704 5.63229 91.2401 11.5055C90.9888 17.3787 90.3396 23.2309 88.2247 28.7684C86.3191 33.7816 82.9687 38.1446 78.1106 40.6616C71.5354 44.0807 63.4735 43.8709 56.312 42.7382C50.8466 41.8782 45.5069 40.4099 40.2509 38.6689C38.7014 38.1655 38.0522 40.5987 39.5809 41.1021C49.0458 44.2275 59.4111 46.8914 69.4624 45.7168C75.7863 44.9826 81.838 42.4865 86.005 37.5153C89.7952 32.9846 91.7426 27.2582 92.7268 21.5109C93.7948 15.344 93.8994 9.05132 93.7947 2.80057C93.711 -2.61115 93.3341 -8.04385 93.5435 -13.4556C93.8995 -22.9995 94.1088 -32.5224 93.9413 -42.0664C93.7529 -52.9737 93.2084 -63.902 91.9101 -74.7465C90.7794 -84.1855 89.2298 -93.7924 85.8166 -102.707C84.4764 -106.168 82.864 -109.545 80.5606 -112.482C78.4247 -115.209 75.7444 -117.054 72.6243 -118.481C64.332 -122.277 54.9928 -122.571 46.0723 -121.375C35.7279 -119.97 25.7185 -116.593 16.1489 -112.482C6.41176 -108.287 -2.94845 -103.21 -11.9108 -97.547C-19.3445 -92.8485 -26.6108 -87.7304 -33.2907 -81.9621C-39.7821 -76.3616 -45.9385 -70.2996 -52.0111 -64.3006C-58.8376 -57.5674 -65.4756 -50.5825 -71.4226 -43.0313C-76.7413 -36.2981 -81.6832 -29.0615 -84.6986 -20.9858C-87.1276 -14.4624 -88.0699 -7.12092 -85.3477 -0.513587C-82.102 7.39424 -74.7101 12.5333 -67.1717 15.9313C-61.3085 18.5743 -55.1521 20.3572 -48.912 21.8884C-41.4573 23.7133 -33.9189 25.2026 -26.3595 26.566C-11.3454 29.2719 3.79425 31.4533 18.6408 34.9772C25.7185 36.6553 32.7335 38.648 39.5599 41.1441C41.0886 41.6475 41.7377 39.2143 40.23 38.6689Z"
      fill="#165368" />
    <path d="M83.2135 36.8291C83.0907 36.6297 82.9833 36.5069 82.8452 36.2307C82.9219 36.9058 83.0754 36.9519 83.2135 36.8291Z"
      fill="white" />
    <path
      d="M72.4729 47.5696C71.1686 46.7103 70.0639 45.8664 68.9131 48.567C70.6316 48.3061 71.9512 48.9352 72.9178 50.132C73.6543 49.0426 75.0967 48.4595 75.2194 46.8945C73.8538 45.7744 73.5162 48.2754 72.4729 47.5696Z"
      fill="white" />
    <path
      d="M44.7929 64.6782C43.6881 63.8343 43.2124 62.8062 42.0156 63.374C42.123 64.6015 42.9363 65.0771 44.8389 65.0464C45.7902 66.366 44.3632 66.903 43.8569 67.747C46.8182 68.6062 46.941 65.8443 48.9971 64.6935C47.0024 64.1258 45.8209 63.957 44.7929 64.6782Z"
      fill="white" />
    <path
      d="M117.308 6.49446C117.369 7.46112 117.446 8.3971 117.507 9.36376C117.952 9.39445 118.458 9.57858 118.811 9.42514C119.364 9.19498 121.082 10.7754 120.392 8.78069C120.023 7.66059 119.072 6.21827 117.308 6.49446Z"
      fill="white" />
    <path d="M97.4683 28.2214C100.967 28.5283 100.967 28.5283 100.384 25.3214C99.1561 25.6283 98.6958 26.7177 97.4683 28.2214Z"
      fill="white" />
    <path
      d="M104.388 47.5848C105.293 47.5848 105.984 47.5848 106.214 47.5848C106.659 46.5568 107.089 45.5441 107.61 44.3319C105.447 45.007 104.71 45.9891 104.388 47.5848Z"
      fill="white" />
    <path d="M120.975 1.92191C121.543 0.249428 121.297 -1.00878 119.793 -2.0675C120.116 -0.839996 119.318 0.709743 120.975 1.92191Z"
      fill="white" />
    <path d="M96.3174 55.2568C95.1052 54.1214 94.1079 53.1854 93.2793 52.4182C93.6629 54.5357 93.6629 54.5357 96.3174 55.2568Z"
      fill="white" />
    <path d="M18.7847 50.9764C18.9074 52.1118 19.5365 52.6335 21.0402 52.8023C20.6566 51.2372 20.2423 50.3012 18.7847 50.9764Z"
      fill="white" />
    <path
      d="M116.356 20.4723C117.615 19.7205 118.489 19.4903 118.274 18.2935C118.259 18.1708 118.013 17.9866 117.906 17.9866C116.817 18.002 116.326 18.6004 116.356 20.4723Z"
      fill="white" />
    <path d="M35.525 40.6191C35.2181 39.1767 34.7118 38.5169 33.5917 38.563C33.4229 39.99 34.052 40.527 35.525 40.6191Z" fill="white" />
    <path d="M47.0943 54.8271C46.7874 53.3848 46.2811 52.725 45.161 52.771C44.9922 54.2134 45.606 54.7504 47.0943 54.8271Z" fill="white" />
    <path d="M72.043 66.6577C73.4546 66.7037 74.0837 66.0286 73.9303 64.6169C72.5033 64.5556 71.8896 65.2307 72.043 66.6577Z"
      fill="white" />
    <path d="M60.0753 46.6184C60.0293 45.2067 59.3081 44.5316 57.8965 44.5776C57.9425 45.9893 58.6637 46.6644 60.0753 46.6184Z"
      fill="white" />
    <path d="M12.8927 58.7091C12.8467 57.2975 12.1255 56.6224 10.7139 56.6684C10.7599 58.0954 11.4811 58.7705 12.8927 58.7091Z"
      fill="white" />
    <path
      d="M90.8856 24.3856C90.3026 25.3676 91.4073 26.3189 92.7423 26.3956C92.7423 25.9967 92.7883 25.3216 92.7269 25.3062C91.9751 25.1221 91.6068 23.1427 90.8856 24.3856Z"
      fill="white" />
    <path
      d="M60.0444 60.1209C60.1518 61.1949 60.7809 61.732 62.2539 61.824C61.947 60.3817 61.4407 59.7219 60.3205 59.7679C60.2131 59.7679 60.029 59.9981 60.0444 60.1209Z"
      fill="white" />
    <path
      d="M93.7239 24.1707C94.1229 24.186 94.8133 24.2934 94.8133 24.232C94.9361 23.5109 96.9001 23.2807 95.5959 22.4675C94.5832 21.8077 93.6932 22.8511 93.7239 24.1707Z"
      fill="white" />
    <path d="M99.5392 34.4662C99.4931 33.0545 98.772 32.3794 97.3604 32.4254C97.4064 33.8371 98.1275 34.5122 99.5392 34.4662Z"
      fill="white" />
    <path d="M95.0126 43.0129C96.2708 42.2611 97.1454 42.0309 96.9305 40.8341C95.4882 40.5579 94.9972 41.1563 95.0126 43.0129Z"
      fill="white" />
    <path d="M109.329 30.124C109.206 28.9885 108.577 28.4668 107.073 28.298C107.441 29.8785 107.856 30.8144 109.329 30.124Z" fill="white" />
    <path d="M112.275 29.3872C112.229 27.9756 111.508 27.3005 110.096 27.3465C110.142 28.7735 110.863 29.4486 112.275 29.3872Z"
      fill="white" />
    <path d="M115.083 26.0887C114.96 24.9533 114.331 24.4316 112.827 24.2628C113.211 25.8279 113.625 26.7639 115.083 26.0887Z"
      fill="white" />
    <path d="M82.6458 59.2315C81.3415 60.8273 83.1981 61.349 83.8733 62.2542C85.1775 60.6585 83.3209 60.1521 82.6458 59.2315Z"
      fill="white" />
    <path d="M92.8958 52.8634C93.6323 51.3137 95.1513 51.0528 94.3842 49.5952C93.0186 49.6258 92.5122 50.347 92.8958 52.8634Z"
      fill="white" />
    <path d="M97.5904 49.6257C97.5444 48.2141 96.8233 47.5389 95.4116 47.585C95.4577 48.9966 96.1788 49.6717 97.5904 49.6257Z"
      fill="white" />
    <path d="M101.35 58.7552C101.043 57.3129 100.537 56.6531 99.4169 56.6991C99.2481 58.1415 99.8772 58.6785 101.35 58.7552Z"
      fill="white" />
    <path
      d="M31.8428 58.7555C31.8428 58.8782 32.1803 59.0317 32.3798 59.1698C32.4872 58.8322 32.5946 58.51 32.702 58.1878C32.4719 58.019 32.2877 57.8809 32.1036 57.7428C32.0116 58.0804 31.8581 58.4179 31.8428 58.7555Z"
      fill="white" />
    <path
      d="M31.1671 37.2433C31.5047 37.3354 31.8423 37.4428 32.1952 37.5349C32.1798 37.3047 32.2412 36.9518 32.1338 36.8904C31.8269 36.7063 31.4587 36.6449 31.1211 36.5222C31.1364 36.7523 31.1518 36.9671 31.1671 37.2433Z"
      fill="white" />
    <path
      d="M36.0928 58.249C36.3229 58.249 36.6758 58.3411 36.7372 58.2337C36.906 57.9421 36.9367 57.5739 37.0287 57.2363C36.8139 57.2363 36.5838 57.2363 36.3076 57.2363C36.2462 57.5739 36.1695 57.9115 36.0928 58.249Z"
      fill="white" />
    <path
      d="M48.3978 38.1638C48.7047 38.3479 49.073 38.4093 49.4105 38.532C49.3952 38.3019 49.3798 38.0871 49.3645 37.8109C49.0269 37.7188 48.674 37.6114 48.3365 37.5193C48.3365 37.7495 48.2904 38.1024 48.3978 38.1638Z"
      fill="white" />
    <path
      d="M81.2955 5.14417C81.6178 5.03676 81.986 4.96004 82.2622 4.77591C82.3543 4.71453 82.2469 4.34628 82.2315 4.13147C81.894 4.22353 81.5717 4.33094 81.2495 4.42301C81.2649 4.6992 81.2802 4.92936 81.2955 5.14417Z"
      fill="white" />
    <path
      d="M56.3156 36.507C56.6532 36.4149 56.9754 36.3075 57.2976 36.2154C57.2823 35.9392 57.2669 35.7244 57.2516 35.4943C56.9294 35.6017 56.5611 35.6784 56.2849 35.8625C56.1929 35.9239 56.3003 36.2768 56.3156 36.507Z"
      fill="white" />
    <path
      d="M55.6714 41.5551C55.9015 41.5551 56.2545 41.6318 56.3158 41.5398C56.4846 41.2482 56.5153 40.88 56.6074 40.5424C56.3772 40.5424 56.1624 40.5424 55.8862 40.5424C55.8248 40.88 55.7481 41.2175 55.6714 41.5551Z"
      fill="white" />
    <path
      d="M89.7959 6.17194C89.6271 6.46347 89.5965 6.83173 89.5044 7.16929C89.7346 7.16929 90.0875 7.24601 90.1488 7.15395C90.3176 6.86241 90.3483 6.49416 90.4404 6.15659C90.2102 6.15659 89.8573 6.06453 89.7959 6.17194Z"
      fill="white" />
    <path
      d="M53.278 65.0774C53.6002 64.97 53.9684 64.8933 54.2446 64.7091C54.3367 64.6478 54.2293 64.2795 54.2139 64.0647C53.8764 64.1568 53.5542 64.2642 53.2319 64.3562C53.2473 64.6324 53.2626 64.8626 53.278 65.0774Z"
      fill="white" />
    <path
      d="M97.3609 16.4216C97.3455 16.7745 97.2228 17.1734 97.3455 17.4803C97.4836 17.7872 97.6524 17.9406 97.8058 17.9406C97.6677 18.2935 97.4529 18.6311 97.4069 18.9993C97.3455 19.429 97.7291 19.6744 98.2201 19.4136C98.3889 19.3215 98.2815 18.7385 98.2968 18.3856C98.1434 18.2321 97.9746 18.094 97.8212 17.9406C97.9746 17.9406 98.128 17.7872 98.2048 17.4803C98.2815 17.1734 98.1127 16.7745 97.9899 16.4369C97.9746 16.3602 97.6064 16.4216 97.3609 16.4216Z"
      fill="white" />
    <path
      d="M89.2437 15.2558C89.2283 15.6087 89.1056 16.0076 89.2283 16.3145C89.3511 16.6214 89.5199 16.7748 89.6733 16.7748C89.5352 17.1277 89.3204 17.4653 89.2743 17.8336C89.213 18.2632 89.5966 18.5087 90.0876 18.2478C90.2564 18.1558 90.149 17.5727 90.1643 17.2198C90.0109 17.0664 89.8421 16.9283 89.6886 16.7748C89.8421 16.7748 89.9955 16.6214 90.0722 16.3145C90.149 16.0076 89.9955 15.6087 89.8574 15.2711C89.8574 15.1944 89.4738 15.2558 89.2437 15.2558Z"
      fill="white" />
    <path
      d="M53.9066 58.5253C54.014 58.7094 54.5818 58.6327 54.9347 58.6787C55.0728 58.5253 55.2109 58.3718 55.349 58.2337C54.9807 58.0649 54.6278 57.8348 54.2442 57.7427C53.8146 57.6507 53.5998 58.0189 53.9066 58.5253Z"
      fill="white" />
    <path
      d="M97.207 16.2527C97.4372 16.2527 97.7901 16.3448 97.8515 16.2374C98.0203 15.9459 98.0509 15.5776 98.143 15.2401C97.9128 15.2401 97.698 15.2401 97.4218 15.2401C97.3605 15.5776 97.2838 15.9152 97.207 16.2527Z"
      fill="white" />
    <path
      d="M95.4733 20.0122C95.8108 20.1042 96.1484 20.2116 96.5013 20.3037C96.486 20.0735 96.5473 19.7206 96.4399 19.6593C96.1331 19.4751 95.7648 19.4138 95.4272 19.291C95.4272 19.5212 95.4426 19.736 95.4733 20.0122Z"
      fill="white" />
    <path d="M64.3565 57.2209C65.0316 56.5458 64.9856 55.8706 64.2184 55.1955C63.5279 55.8706 63.5893 56.5458 64.3565 57.2209Z"
      fill="white" />
    <path d="M64.494 59.231C65.1691 58.5559 65.1231 57.8808 64.3559 57.2056C63.6807 57.8961 63.7268 58.5712 64.494 59.231Z" fill="white" />
    <path
      d="M64.1256 60.3823C64.6473 61.1188 65.169 60.7812 65.5833 60.2442C65.2304 59.9066 64.8621 59.5691 64.5092 59.2315C64.3558 59.6304 63.9875 60.1828 64.1256 60.3823Z"
      fill="white" />
    <path
      d="M72.5187 51.2064C72.4573 51.636 72.8409 51.8815 73.3319 51.6053C73.5007 51.5133 73.3933 50.9302 73.4086 50.5773C73.2398 50.4239 73.0864 50.2704 72.933 50.1323C72.7795 50.4852 72.5647 50.8382 72.5187 51.2064Z"
      fill="white" />
    <path
      d="M94.9053 26.3644C95.028 26.7019 95.1508 27.0548 95.2735 27.3771C95.5497 27.3771 95.7645 27.3771 95.9947 27.3771C95.8566 27.0395 95.7645 26.6712 95.5651 26.3797C95.4883 26.2723 95.1354 26.3644 94.9053 26.3644Z"
      fill="white" />
    <path
      d="M65.5835 60.2442C65.9517 60.5818 66.3047 60.9193 66.6576 61.2569C66.7957 60.8733 67.1793 60.3209 67.0412 60.1214C66.5195 59.3696 65.9978 59.7225 65.5835 60.2442Z"
      fill="white" />
    <path
      d="M67.9924 58.7248C68.3299 58.6327 68.6522 58.5253 68.9744 58.4333C68.959 58.1571 68.9437 57.9423 68.9283 57.7121C68.6061 57.8195 68.2379 57.8962 67.9617 58.0804C67.8696 58.1417 67.977 58.51 67.9924 58.7248Z"
      fill="white" />
    <path
      d="M87.7858 39.5143C88.108 39.4069 88.4763 39.3302 88.7524 39.146C88.8599 39.0847 88.7371 38.7164 88.7218 38.5016C88.3842 38.5937 88.0466 38.7011 87.7397 38.7931C87.7551 39.0693 87.7704 39.2841 87.7858 39.5143Z"
      fill="white" />
    <path
      d="M104.71 22.3141C104.848 22.6517 104.94 23.0199 105.14 23.3114C105.216 23.4188 105.569 23.3268 105.784 23.3268C105.661 22.9892 105.539 22.6517 105.416 22.3141C105.155 22.3141 104.925 22.3141 104.71 22.3141Z"
      fill="white" />
    <path
      d="M107.871 19.2914C107.702 19.5829 107.672 19.9512 107.58 20.2887C107.794 20.2887 108.025 20.2887 108.301 20.2887C108.377 19.9665 108.454 19.6136 108.516 19.2761C108.301 19.2761 107.933 19.1993 107.871 19.2914Z"
      fill="white" />
    <path
      d="M92.896 40.5115C93.1262 40.5115 93.4791 40.6035 93.5404 40.4961C93.7092 40.2046 93.7399 39.8363 93.832 39.4988C93.6018 39.4988 93.387 39.4988 93.1108 39.4988C93.0494 39.8363 92.9727 40.1739 92.896 40.5115Z"
      fill="white" />
    <path
      d="M102.547 34.4511C102.884 34.359 103.206 34.2516 103.529 34.1595C103.513 33.8833 103.498 33.6685 103.483 33.4384C103.16 33.5458 102.792 33.6225 102.516 33.8066C102.424 33.868 102.531 34.2209 102.547 34.4511Z"
      fill="white" />
    <path
      d="M109.529 33.0699C109.835 33.254 110.204 33.3154 110.541 33.4382C110.526 33.208 110.511 32.9932 110.495 32.717C110.158 32.625 109.82 32.5175 109.467 32.4255C109.483 32.6403 109.421 33.0085 109.529 33.0699Z"
      fill="white" />
    <path
      d="M90.0105 56.3315C90.3174 56.5156 90.6856 56.5769 91.0232 56.6997C91.0079 56.4695 90.9925 56.2547 90.9772 55.9785C90.6396 55.8865 90.3021 55.7791 89.9491 55.687C89.9645 55.9018 89.9031 56.2701 90.0105 56.3315Z"
      fill="white" />
    <path
      d="M87.2949 60.7352C87.4177 61.0727 87.5404 61.4103 87.6632 61.7479C87.9394 61.7479 88.1542 61.7479 88.3843 61.7479C88.2462 61.4103 88.1542 61.0421 87.9547 60.7505C87.8626 60.6585 87.5097 60.7352 87.2949 60.7352Z"
      fill="white" />
    <path
      d="M96.0718 51.6514C95.903 51.9429 95.8723 52.3111 95.7803 52.6487C96.0104 52.6487 96.3633 52.7254 96.4247 52.6334C96.5935 52.3418 96.6242 51.9736 96.7162 51.636C96.5014 51.636 96.1332 51.544 96.0718 51.6514Z"
      fill="white" />
    <path
      d="M101.549 48.5977C101.764 48.5977 102.132 48.6744 102.194 48.5824C102.363 48.2908 102.393 47.9226 102.485 47.585C102.255 47.585 102.04 47.585 101.764 47.585C101.687 47.9226 101.611 48.2601 101.549 48.5977Z"
      fill="white" />
    <path
      d="M96.5012 62.3918C96.8081 62.5759 97.1764 62.6373 97.5139 62.7601C97.4986 62.5299 97.4833 62.3151 97.4679 62.0389C97.1304 61.9468 96.7928 61.8394 96.4399 61.7474C96.4552 61.9622 96.3938 62.3304 96.5012 62.3918Z"
      fill="white" />
    <path
      d="M106.92 53.3548C107.258 53.4468 107.595 53.5542 107.948 53.6463C107.933 53.4161 107.994 53.0632 107.887 53.0019C107.58 52.8177 107.212 52.7563 106.874 52.6489C106.889 52.8637 106.905 53.0939 106.92 53.3548Z"
      fill="white" />
    <path
      d="M110.05 49.6259C109.881 49.9175 109.85 50.2857 109.758 50.6233C109.988 50.6233 110.203 50.6233 110.479 50.6233C110.556 50.3011 110.618 49.9481 110.694 49.6106C110.464 49.5952 110.096 49.5185 110.05 49.6259Z"
      fill="white" />
  </g>
  <defs>
    <clipPath id="clip0_1455_59">
      <rect width="134" height="75" fill="white" />
    </clipPath>
  </defs>
</svg>