<svg width="193" height="179" viewBox="0 0 193 179" fill="none" xmlns="http://www.w3.org/2000/svg">
  <path
    d="M57.3348 7.81094C72.1609 13.2194 87.6345 16.3706 103.13 19.0972C118.939 21.8908 134.859 24.2598 150.467 28.0145C161.564 30.6964 173.71 33.9593 182.396 41.8262C187.822 46.743 190.747 53.2913 190.278 60.6218C189.764 68.511 186.013 75.9979 181.883 82.5909C176.747 90.793 170.45 98.2129 163.864 105.298C157.143 112.539 150.02 119.4 142.83 126.149C136.757 131.848 130.661 137.346 123.918 142.263C115.478 148.409 106.614 153.974 97.4143 158.913C87.5452 164.21 77.2518 168.858 66.5118 172.144C56.8883 175.094 46.7066 177.06 36.6141 176.144C29.1564 175.451 20.7163 173.015 16.0944 166.847C11.0705 160.142 8.88228 151.359 7.20765 143.291C4.97481 132.519 3.92537 121.501 3.30018 110.527C2.67498 99.4198 2.51868 88.3123 2.71963 77.1825C2.83127 69.9637 3.30017 62.7673 3.12154 55.5486C2.96524 49.2908 2.6973 43.0107 2.94291 36.753C3.21085 30.4952 3.90303 24.2599 6.1582 18.3597C8.19008 13.0183 11.7626 8.36966 16.9428 5.68777C23.9539 2.04487 32.5503 2.26836 40.1866 3.47521C46.0144 4.39152 51.7081 5.95596 57.3125 7.81094C58.9648 8.34731 59.657 5.75481 58.027 5.21844C47.9346 1.88842 36.8821 -0.9499 26.1644 0.301649C19.4213 1.08387 12.9684 3.7434 8.525 9.04013C4.48357 13.8675 2.40703 19.9688 1.3576 26.0925C0.218849 32.6631 0.10722 39.3678 0.218863 46.0278C0.308177 51.7939 0.710077 57.5823 0.486794 63.3484C0.107212 73.5172 -0.116059 83.6637 0.0625689 93.8325C0.263525 105.454 0.84405 117.098 2.22841 128.652C3.43414 138.709 5.08645 148.945 8.72598 158.444C10.155 162.131 11.8743 165.729 14.3304 168.858C16.6079 171.764 19.4659 173.73 22.7929 175.25C31.6349 179.295 41.5933 179.608 51.1052 178.334C62.1355 176.837 72.8084 173.239 83.0125 168.858C93.3952 164.389 103.376 158.98 112.933 152.946C120.859 147.94 128.607 142.486 135.73 136.34C142.652 130.373 149.216 123.914 155.691 117.523C162.97 110.348 170.049 102.906 176.39 94.8605C182.061 87.6865 187.331 79.9761 190.546 71.3717C193.136 64.4211 194.141 56.5989 191.238 49.559C187.777 41.1334 179.895 35.6579 171.857 32.0373C165.605 29.2213 159.041 27.3217 152.387 25.6902C144.438 23.7458 136.4 22.159 128.339 20.7063C112.33 17.8233 96.1862 15.499 80.3554 11.7444C72.8084 9.95645 65.3284 7.83328 58.0493 5.17374C56.4194 4.63737 55.7272 7.22986 57.3348 7.81094Z"
    fill="currentColor" />
</svg>