<svg width="195" height="202" viewBox="0 0 195 202" fill="none" xmlns="http://www.w3.org/2000/svg">
  <path
    d="M31.5792 183.728C37.4821 189.745 44.2932 195.129 52.1097 198.421C59.0342 201.324 66.7373 202.086 73.8402 199.361C82.4027 196.069 88.4353 188.334 92.5706 180.453C95.5058 174.842 97.8248 168.922 100.565 163.214C103.501 157.117 106.712 151.1 110.766 145.651C114.642 140.446 119.426 135.759 125.329 132.937C131.085 130.164 137.653 129.548 143.897 130.667C149.021 131.575 153.935 133.473 159.124 133.943C163.697 134.348 168.271 133.424 172.438 131.559C173.8 131.186 175.146 130.667 176.444 129.97C181.195 127.375 184.812 122.996 187.487 118.358C193.325 108.223 195.677 96.3199 194.834 84.7249C192.839 57.3833 176.265 33.0744 153.805 18.0738C133.777 4.7112 108.885 -1.92147 84.9 1.43541C72.8347 3.12195 61.11 7.53292 51.0394 14.4251C41.1795 21.1875 32.4063 29.7661 24.9628 39.107C10.9839 56.6374 2.34034 78.1084 0.978128 100.536C-0.302998 121.456 4.35122 143.04 14.7624 161.268C19.4166 169.393 25.0276 177.047 31.5792 183.728Z"
    fill="currentColor" />
  <path
    d="M76.9217 161.155C72.5918 161.366 68.2619 161.69 63.9482 162.128C59.5535 162.582 55.1749 163.198 50.7964 163.701C46.5962 164.187 42.3961 164.609 38.1636 164.82C34.0445 165.031 29.974 164.917 25.855 164.787C23.017 164.706 20.0494 164.804 17.1304 165.225C17.4547 165.744 17.779 166.247 18.1033 166.75C20.1953 166.49 22.2873 166.393 24.2982 166.393C26.228 166.393 28.1578 166.539 30.1038 166.571C32.1796 166.62 34.2715 166.587 36.3472 166.523C40.4339 166.377 44.4881 166.02 48.5585 165.582C52.8884 165.112 57.2183 164.512 61.5481 164.009C65.8456 163.506 70.1755 163.149 74.5053 162.906C83.1651 162.403 91.8249 162.306 100.501 162.322C100.663 162.322 100.841 162.322 101.004 162.322C101.263 161.771 101.539 161.236 101.814 160.684C93.5115 160.684 85.2085 160.749 76.9217 161.155Z"
    fill="white" />
  <path
    d="M97.6628 137.397C94.2573 137.316 90.9977 136.699 87.7057 135.872C84.6083 135.078 81.5109 134.137 78.3324 133.699C75.4458 133.294 72.5754 133.359 69.7375 134.04C67.2401 134.624 64.8725 135.645 62.4886 136.602C60.1047 137.559 57.656 138.418 55.0775 138.645C52.0125 138.921 48.8827 138.856 45.8177 138.921C42.6068 138.986 39.4121 139.018 36.2012 139.035C34.693 139.035 33.1686 139.099 31.6605 138.889C30.2496 138.694 28.855 138.321 27.509 137.851C24.9305 136.959 22.4817 135.726 19.9357 134.721C17.3735 133.716 14.7626 133.067 12.0057 132.953C9.62186 132.856 7.23797 133.148 4.93518 133.748C4.61085 133.829 4.30275 133.926 3.99463 134.007C4.12436 134.543 4.2541 135.078 4.40005 135.613C5.21089 135.37 6.02173 135.143 6.83257 134.98C9.20022 134.51 11.6651 134.429 14.049 134.753C16.7248 135.126 19.2384 136.132 21.6872 137.218C24.1521 138.289 26.6332 139.424 29.2604 140.073C32.0983 140.77 34.9849 140.673 37.8715 140.656C41.0662 140.64 44.2447 140.591 47.4394 140.51C50.3746 140.445 53.4072 140.559 56.31 140.121C61.3372 139.343 65.6995 136.553 70.6457 135.499C76.7432 134.186 82.6299 136.326 88.4841 137.753C91.6302 138.516 94.7762 139.002 98.0034 139.051C101.555 139.116 105.106 138.856 108.658 138.645C111.544 138.483 114.382 138.402 117.236 138.467C117.853 137.916 118.485 137.381 119.134 136.862C118.712 136.829 118.291 136.813 117.869 136.797C111.123 136.472 104.409 137.543 97.6628 137.397Z"
    fill="white" />
  <path
    d="M15.0547 87.0438C18.2008 85.941 21.0711 84.2058 24.1199 82.8923C27.6227 81.3841 31.2877 80.6543 35.0986 80.5408C43.353 80.2976 51.4614 82.422 59.4725 84.0599C63.3807 84.8707 67.3214 85.5843 71.2945 85.9735C73.3378 86.1681 75.4136 86.2816 77.4731 86.2329C79.1597 86.2005 80.8949 86.1518 82.5003 85.5518C85.3707 84.4653 87.6086 81.9193 90.9006 82.3247C94.144 82.7139 96.5765 85.4221 98.9441 87.433C101.652 89.7357 104.474 91.0817 108.058 91.4061C111.934 91.7628 115.761 90.8709 119.556 90.1574C121.615 89.7682 123.707 89.4439 125.815 89.3952C128.053 89.3466 130.291 89.606 132.529 89.6547C136.827 89.7682 141.124 89.606 145.405 89.2006C153.968 88.4222 162.417 86.7681 170.866 85.2761C178.747 83.8815 186.515 81.7895 194.299 79.8111C194.218 79.2597 194.137 78.7245 194.056 78.1894C188.493 79.6165 182.947 81.0922 177.401 82.3247C168.887 84.2058 160.211 85.6978 151.568 86.8654C147.481 87.4168 143.362 87.8222 139.243 87.9843C137.054 88.0654 134.864 88.0816 132.691 88.033C130.453 87.9843 128.199 87.7249 125.961 87.7573C118.453 87.8546 109.663 92.3953 102.593 88.1303C99.8361 86.4762 97.7603 83.8815 95.0359 82.1787C92.4574 80.5571 89.4411 80.1354 86.6356 81.449C85.322 82.0652 84.1706 82.9409 82.8733 83.5896C81.2678 84.4004 79.5651 84.5302 77.7974 84.5788C73.6946 84.7085 69.6079 84.2383 65.5862 83.5571C57.5589 82.1949 49.6613 79.9732 41.5367 79.1624C37.6933 78.7732 33.7851 78.7408 29.9579 79.3894C26.4875 79.9895 23.309 81.3841 20.163 82.9247C17.098 84.4491 13.9843 85.9897 10.5464 86.4437C7.96792 86.7843 5.40569 86.5248 2.87587 85.9897C2.77857 86.4924 2.66507 87.0113 2.58398 87.5303C6.70305 88.3735 10.8546 88.5195 15.0547 87.0438Z"
    fill="white" />
  <path
    d="M45.234 40.8583C49.0936 39.1069 52.045 35.8149 56.3587 35.0527C61.4508 34.1445 66.6077 35.9446 71.716 35.3446C74.5539 35.0203 77.1486 33.9662 79.7758 32.9445C82.9542 31.6958 86.2625 30.8363 89.6356 30.3336C95.7818 29.4255 102.025 29.6525 108.204 29.3606C111.593 29.1984 114.95 28.8579 118.291 28.2741C121.907 27.6578 125.588 27.3335 129.253 27.1713C136.616 26.8632 143.994 27.2362 151.357 27.3497C156.043 27.4146 160.762 27.4957 165.449 27.1389C164.865 26.6037 164.281 26.0848 163.681 25.5659C161.638 25.6956 159.595 25.7443 157.535 25.7443C150.205 25.7443 142.892 25.4199 135.578 25.4037C131.88 25.4037 128.167 25.501 124.485 25.8253C120.934 26.1334 117.431 26.8632 113.896 27.2524C107.506 27.9822 101.085 27.7065 94.679 28.1281C91.5816 28.3389 88.4842 28.7281 85.4516 29.4417C82.0785 30.2363 78.9812 31.6472 75.6891 32.7337C73.435 33.4797 71.1485 33.8689 68.7646 33.7878C66.251 33.6905 63.7698 33.3499 61.2562 33.2202C58.5318 33.0904 55.7911 33.204 53.2451 34.2418C51.3315 35.0203 49.6774 36.2203 47.9747 37.3879C46.0286 38.7177 43.9691 39.8204 41.6501 40.3718C38.877 41.0367 35.9904 40.761 33.2498 40.1123C30.7686 39.5447 28.3685 38.7015 25.9522 37.8906C25.6279 38.2798 25.3198 38.6852 24.9954 39.0744C24.9468 39.1231 24.9144 39.188 24.8657 39.2366C26.3577 39.7231 27.8334 40.2421 29.3091 40.7123C34.5796 42.3827 40.0284 43.2259 45.234 40.8583Z"
    fill="white" />
  <path
    d="M11.4707 110.899C14.4545 109.78 17.3087 109.553 20.4385 110.12C24.6711 110.899 28.8064 112.228 32.9255 113.477C37.1581 114.758 41.4717 115.958 45.9151 116.202C50.3099 116.445 54.5425 115.585 58.6291 113.996C62.4401 112.52 66.0726 110.639 70.0133 109.504C74.2134 108.304 78.4785 108.304 82.6948 109.358C90.5437 111.337 97.4845 116.153 105.593 117.223C110.263 117.839 114.869 116.996 119.491 116.412C121.777 116.12 124.08 115.91 126.399 116.007C128.702 116.104 130.518 116.72 132.61 117.645C134.28 118.391 136.064 119.169 137.929 119.121C139.583 119.088 141.237 118.423 142.648 117.564C145.729 115.683 147.935 112.764 151.6 111.888C159.984 109.861 168.887 115.212 177.012 111.223C178.374 110.542 179.574 109.601 180.855 108.79C182.639 107.655 184.569 106.926 186.677 106.763C188.623 106.617 190.569 106.78 192.515 106.78C192.677 106.228 192.839 105.677 192.985 105.125C192.628 105.142 192.272 105.142 191.899 105.142C189.661 105.109 187.407 104.931 185.185 105.304C183.336 105.628 181.585 106.39 179.996 107.396C178.763 108.19 177.612 109.115 176.282 109.763C174.368 110.72 172.211 111.061 170.087 111.093C165.644 111.191 161.314 110.039 156.887 109.845C152.865 109.666 149.151 110.445 145.94 112.958C143.265 115.05 140.362 118.148 136.599 117.353C134.653 116.931 132.902 115.91 131.053 115.196C129.14 114.466 127.113 114.337 125.069 114.353C120.334 114.385 115.696 115.504 110.977 115.764C106.566 116.007 102.414 115.099 98.2954 113.574C94.4844 112.147 90.8194 110.347 86.9923 108.969C83.2462 107.623 79.2893 106.715 75.2837 106.926C71.116 107.153 67.1916 108.612 63.3968 110.234C59.6021 111.855 55.8074 113.623 51.7045 114.272C47.1314 115.001 42.5258 114.369 38.0824 113.218C33.6877 112.082 29.4064 110.574 24.9954 109.455C21.817 108.645 18.4763 107.785 15.1843 108.223C11.7626 108.677 8.34081 110.234 5.34071 111.872C3.83255 112.699 2.47033 113.672 1.07568 114.58C1.12433 115.229 1.17298 115.893 1.22163 116.542C2.69736 115.634 4.04337 114.515 5.55153 113.639C7.36781 112.553 9.42734 111.661 11.4707 110.899Z"
    fill="white" />
  <path
    d="M31.6446 60.6106C34.6123 60.3998 37.434 60.6917 40.3044 61.5187C43.6937 62.508 46.9209 64.0323 50.3751 64.7459C53.3752 65.3621 56.7645 65.3945 59.4402 63.7404C62.0998 62.1187 64.1107 59.4754 67.3216 58.8916C71.2298 58.1943 75.2516 59.7997 79.176 59.816C83.36 59.8322 87.5115 59.2484 91.6468 58.6321C95.6199 58.0483 99.6578 57.351 103.696 57.5132C107.734 57.6754 111.707 58.5511 115.729 58.8267C119.75 59.1024 123.626 58.4375 127.551 57.5943C131.573 56.7348 135.562 55.6807 139.567 54.7239C147.676 52.7617 156.06 51.0913 164.428 52.1941C171.871 53.1833 179.396 54.7239 186.92 55.6158C186.629 55.032 186.337 54.432 186.045 53.8482C180.077 53.1184 174.158 52.0157 168.222 51.1076C164.46 50.5238 160.73 50.1021 156.919 50.2481C152.881 50.394 148.876 51.0265 144.935 51.8373C140.832 52.6806 136.762 53.7509 132.691 54.7401C128.702 55.7131 124.615 56.7997 120.529 57.1889C116.41 57.5781 112.339 56.8321 108.269 56.3294C104.28 55.8266 100.436 55.8429 96.4469 56.3456C92.3441 56.8645 88.2899 57.6105 84.1708 57.9835C82.0951 58.1618 80.0031 58.2916 77.9274 58.1943C75.8516 58.097 73.8083 57.6105 71.7488 57.351C69.9487 57.124 68.1 57.0429 66.3161 57.4807C64.8404 57.8537 63.4944 58.6321 62.2944 59.5403C61.0781 60.4484 59.9592 61.5025 58.678 62.3134C57.2834 63.1891 55.7104 63.4972 54.0725 63.5134C50.5534 63.5783 47.2127 62.1998 43.9532 61.0322C40.9044 59.9457 37.807 59.0213 34.5475 58.924C28.677 58.7457 22.6768 60.2863 17.1306 62.1025C14.5684 62.9296 12.0223 63.8702 9.50872 64.9405C9.2006 65.6702 8.89249 66.3838 8.60059 67.1135C10.2547 66.3838 11.9413 65.7027 13.6278 65.0702C19.3848 62.8647 25.4823 61.0485 31.6446 60.6106Z"
    fill="white" />
  <path
    d="M54.899 17.49C57.737 16.7116 60.5101 15.6737 63.3156 14.7818C66.7535 13.679 70.2402 12.8358 73.8241 12.3979C81.1541 11.506 88.5489 11.9763 95.8951 11.4249C99.5763 11.1492 103.258 10.5978 106.809 9.55997C107.944 9.21942 109.096 8.92752 110.247 8.65183C116.117 7.28962 122.085 6.33283 128.053 5.55442C126.821 5.149 125.588 4.77602 124.356 4.41925C120.382 5.00305 116.409 5.68416 112.485 6.495C109.096 7.19232 105.804 8.27885 102.414 8.94374C95.1492 10.3546 87.7056 9.98161 80.3594 10.2735C76.6133 10.4195 72.8511 10.76 69.1699 11.506C65.8616 12.1871 62.6507 13.2574 59.456 14.3277C55.6612 15.6088 51.7043 16.971 47.7474 16.7764C47.115 17.2467 46.4826 17.7332 45.8501 18.2197C46.2717 18.3008 46.6934 18.3657 47.1312 18.3981C49.7584 18.6414 52.3854 18.1711 54.899 17.49Z"
    fill="white" />
  <path
    d="M78.0081 181.636C73.5647 181.231 69.105 180.696 64.6292 180.971C62.4886 181.101 60.3642 181.425 58.2884 181.993C56.31 182.544 54.4126 183.274 52.4666 183.89C50.5368 184.507 48.5746 185.026 46.5475 185.139C44.4717 185.253 42.4446 184.912 40.45 184.345C36.6877 183.258 33.0875 181.555 29.1631 181.166C29.7793 181.831 30.3956 182.496 31.028 183.161C33.6065 183.712 36.0877 184.669 38.6337 185.496C40.4986 186.096 42.396 186.599 44.3582 186.761C46.3529 186.923 48.38 186.68 50.326 186.209C54.2343 185.269 57.883 183.469 61.8886 182.885C66.2671 182.253 70.6781 182.577 75.0566 182.982C79.3865 183.388 83.7164 183.874 88.0787 183.566C89.0679 183.501 90.0409 183.388 91.014 183.226C91.3707 182.626 91.7112 182.025 92.0356 181.409C91.6139 181.49 91.1761 181.555 90.7545 181.62C86.5381 182.285 82.2406 182.025 78.0081 181.636Z"
    fill="white" />
</svg>