<svg width="168" height="115" viewBox="0 0 198 145" fill="none" xmlns="http://www.w3.org/2000/svg">
  <path
    d="M2.75812 112.601C3.83675 117.444 5.29609 122.267 7.87632 126.623C9.90667 130.071 12.9098 133.285 17.2032 134.491C22.2367 135.908 27.6721 134.047 31.479 130.959C36.9356 126.539 40.2561 120.152 42.9209 114.145C45.3742 108.646 47.5738 102.957 49.2657 97.2467C50.1752 94.1589 50.9789 91.0288 52.269 88.0467C52.7343 86.9469 53.2418 85.678 54.1513 84.7897C54.7646 84.1975 56.3932 83.2246 57.5775 83.3304C60.0097 83.563 60.6442 87.6448 60.9403 89.2945C61.2575 91.0288 61.4901 92.763 61.5113 94.5184C61.6593 103.295 60.8134 112.072 61.1518 120.849C61.3421 125.524 61.7439 130.261 62.9706 134.808C63.8377 138.002 65.2336 141.682 68.3214 143.67C71.7476 145.89 75.8718 145.023 79.3826 143.31C86.4677 139.842 91.3321 133.349 95.0544 127.131C99.3265 119.982 102.351 112.347 105.819 104.882C107.702 100.821 109.732 96.6122 110.62 92.2766C111.276 89.1042 111.509 85.8683 112.46 82.717C112.841 81.4269 113.349 80.0099 114.3 78.9524C114.681 78.5506 115.104 78.2333 115.612 77.9584C115.887 77.8103 115.823 77.8315 116.056 77.7469C116.14 77.7046 116.584 77.5777 116.606 77.5777C116.69 77.5566 116.796 77.5566 116.902 77.5566C116.965 77.5777 117.177 77.5989 117.24 77.62C117.113 77.5777 117.219 77.5989 117.367 77.6835C117.43 77.7469 117.6 77.8738 117.642 77.9161C117.642 77.9161 117.642 77.9161 117.663 77.9372C117.726 78.0007 117.79 78.0641 117.832 78.1487C117.938 78.2756 118.023 78.4237 118.128 78.5506C118.128 78.5717 118.276 78.8255 118.298 78.889C118.403 79.1216 118.509 79.3754 118.594 79.6292C119.334 81.6596 119.482 83.9014 119.588 86.0586C119.715 88.6177 119.672 91.198 119.609 93.757C119.545 95.7239 119.44 97.6908 119.44 99.6577C119.461 102.217 119.799 104.797 120.222 107.314C121.237 113.574 123.141 120.363 128.217 124.952C132.912 129.182 140.314 129.944 146.659 128.675C152.708 127.469 157.91 124.085 162.013 119.982C171.065 110.973 176.057 98.7906 179.441 87.2642C182.296 77.4931 183.755 67.4048 184.284 57.38C184.601 51.3524 184.538 45.2825 183.649 39.2972C182.846 33.8829 181.429 28.3841 178.299 23.6678C176.755 21.3202 174.724 19.3321 172.292 17.8305C170.156 14.3408 166.666 11.8875 162.246 10.7666C156.726 9.37074 150.656 10.0052 145.094 11.0204C138.728 12.2048 132.531 14.0448 126.419 16.0751C121.407 17.7459 116.479 19.6282 111.424 21.1933C102.182 24.0485 92.3472 25.2328 82.703 25.973C71.8745 26.819 61.0248 27.0094 50.1963 27.6439C45.4165 27.9188 40.5945 28.1515 35.9204 29.1455C32.177 29.9492 28.5816 31.2393 25.2612 32.9947C11.8524 40.0586 5.29602 53.8269 2.39855 66.8972C0.220159 76.6894 -0.075881 86.6085 0.600902 96.5065C0.939294 101.963 1.5949 107.335 2.75812 112.601Z"
    fill="currentColor" />
  <path
    d="M12.5294 104.733C14.2848 112.537 17.2034 121.737 24.4154 126.179C31.7331 130.684 40.637 127.554 46.2839 121.864C52.1212 115.964 55.4417 107.948 58.4872 100.355C60.2214 95.9986 61.6808 91.5783 62.992 87.0735C63.6477 84.8317 64.3033 82.5898 65.2127 80.4537C65.8472 78.9521 66.4605 77.5351 68.0679 76.9006C69.1465 76.4776 69.5272 77.1121 69.929 78.1696C70.4366 79.4597 70.6481 80.8979 70.8596 82.2514C71.6421 86.9043 71.2403 91.7898 71.0922 96.4638C70.775 105.939 70.2463 115.668 72.2766 125.016C73.0803 128.632 74.2646 132.46 76.8872 135.21C79.8269 138.276 84.0357 138.974 88.033 137.896C95.6679 135.823 101.526 129.415 105.798 123.091C110.726 115.773 114.089 107.588 117.727 99.594C119.63 95.3641 121.787 91.1976 123.099 86.7351C124.368 82.3783 124.22 77.5774 126.017 73.3898C126.313 72.713 126.715 71.9728 127.308 71.5075C127.392 71.444 128.28 70.9788 127.921 71.1057C127.963 71.0845 128.302 71.0211 128.302 70.9788C128.323 70.9788 128.365 70.9576 128.386 70.9576C127.963 70.9153 127.9 70.9153 128.175 70.9576C129.993 71.3383 131.199 68.885 129.486 67.8698C129.465 67.8698 129.465 67.8486 129.444 67.8486C128.873 68.8215 128.301 69.7944 127.73 70.7673C128.365 71.0845 128.703 72.8188 128.851 73.6013C129.211 75.2932 129.253 77.0275 129.317 78.7406C129.444 82.4206 129.211 86.0795 129.147 89.7595C129.063 93.376 129.528 96.9714 130.163 100.525C130.67 103.422 131.389 106.298 132.51 109.048C134.837 114.758 138.834 119.517 144.819 121.484C150.572 123.387 157.297 122.901 162.881 120.722C174.936 115.985 182.846 104.183 187.774 92.7204C193.294 79.7981 196.234 65.9029 197.206 51.9019C197.735 44.415 197.735 36.907 196.509 29.4835C195.43 22.8849 193.209 15.9056 188.345 11.0835C187.203 9.94146 185.913 8.94742 184.538 8.10145C184.749 8.31294 184.94 8.50329 185.151 8.71478C181.069 2.20075 173.582 -0.0622425 166.244 0.00120649C157.89 0.0646556 149.514 2.34879 141.583 4.82328C133.504 7.36121 125.637 10.6605 117.388 12.6697C109.14 14.6789 100.68 15.5672 92.2205 16.1594C83.4012 16.7939 74.5819 17.0265 65.7414 17.4707C57.3239 17.8937 48.6315 18.0417 40.637 21.0872C33.9961 23.6252 28.1377 27.7493 23.6118 33.2482C19.4665 38.3029 16.4632 44.1401 14.3271 50.2946C9.06091 65.5434 8.97629 82.5264 11.3239 98.3462C11.6834 100.482 12.0641 102.618 12.5294 104.733C12.9947 106.869 16.2517 105.96 15.7864 103.824C14.1368 96.3158 13.46 88.5963 13.3543 80.919C13.2485 73.3052 13.8407 65.6491 15.5961 58.2257C18.1975 47.1433 23.4214 36.0187 32.8117 29.124C38.5432 24.9153 45.3322 22.5888 52.375 21.764C60.1791 20.8546 68.1313 20.7277 75.9777 20.4104C91.3111 19.7548 107.11 19.2895 121.957 14.9539C129.338 12.7966 136.486 9.89916 143.846 7.65731C150.953 5.50007 158.397 3.51201 165.884 3.38511C169.268 3.32167 172.821 3.66007 175.951 5.03478C177.305 5.62697 178.595 6.4095 179.695 7.38237C180.794 8.35525 181.471 9.49731 182.402 10.5759C182.931 11.2104 183.798 11.5911 184.453 12.0987C185.13 12.6274 185.765 13.2196 186.357 13.8541C187.499 15.0596 188.429 16.4132 189.254 17.8513C190.988 20.8969 192.046 24.2596 192.765 27.6858C194.372 35.2362 194.415 43.0403 193.928 50.7176C193.463 58.3737 192.405 65.9875 190.608 73.4532C187.52 86.2275 182.592 99.5094 173.477 109.259C169.035 114.018 163.515 117.74 157.001 118.903C151.333 119.919 144.65 119.221 140.336 115.033C135.894 110.74 134.223 104.501 133.272 98.5999C132.658 94.793 132.51 91.0919 132.658 87.2427C132.806 83.4569 132.912 79.65 132.595 75.8643C132.447 74.0666 132.193 72.2266 131.516 70.5346C131.093 69.4983 130.522 68.3985 129.486 67.8909C127.561 66.9181 125.89 69.6886 127.773 70.8096C127.794 70.8096 127.794 70.8307 127.815 70.8307C128.259 69.7944 128.682 68.7792 129.126 67.7429C125.341 66.9815 123.078 71.2326 122.232 74.2358C120.941 78.6983 120.815 83.3512 119.271 87.7503C117.769 92.0436 115.654 96.1043 113.793 100.228C111.953 104.353 110.134 108.477 108.104 112.495C104.614 119.348 100.363 126.517 94.0606 131.149C91.1419 133.285 87.3773 135.421 83.6338 135.04C79.9115 134.66 77.7755 131.339 76.6757 128.082C75.2799 124.022 74.73 119.686 74.4762 115.435C74.1801 110.676 74.2435 105.896 74.3915 101.117C74.5396 96.3158 74.7722 91.5149 74.7088 86.6928C74.6665 83.3512 74.3069 79.4597 72.8688 76.3507C72.2554 75.0183 71.198 73.8339 69.7175 73.4744C67.9833 73.0726 66.0587 73.982 64.7474 75.0606C63.3304 76.245 62.6536 78.0427 61.9557 79.7135C61.0885 81.8284 60.4329 84.028 59.7773 86.2064C57.3451 94.6238 54.3207 103.02 50.1543 110.761C46.6435 117.275 41.1235 124.508 33.0655 124.973C24.4577 125.481 19.8472 117.254 17.5207 110.148C16.8439 108.075 16.3152 105.981 15.8287 103.866C15.3211 101.709 12.0641 102.597 12.5294 104.733Z"
    fill="#7D7D7D" />
</svg>