<svg width="202" height="227" viewBox="0 0 202 227" fill="none" xmlns="http://www.w3.org/2000/svg">
  <path
    d="M1.07633 126.126C3.87533 165.149 16.1291 202.187 44.9001 209.298C44.9001 209.298 44.9001 209.298 44.9164 209.298C68.0407 214.994 93.4269 189.608 111.734 178.412C149 155.662 189.292 125.508 200.179 80.8376C201.465 75.5814 201.774 70.3739 200.309 65.1014C197.413 54.7354 189.39 46.4686 181.302 39.7965C145.322 10.163 69.4727 -18.25 27.0809 14.866C19.937 20.4477 14.8272 28.1612 11.3122 36.428C3.69634 54.3774 -1.42974 91.0409 1.07633 126.126Z"
    fill="currentColor" />
  <path
    d="M65.3348 55.8109C80.1609 61.2194 95.6345 64.3706 111.13 67.0972C126.939 69.8908 142.859 72.2598 158.467 76.0145C169.564 78.6964 181.71 81.9593 190.396 89.8262C195.822 94.743 198.747 101.291 198.278 108.622C197.764 116.511 194.013 123.998 189.883 130.591C184.747 138.793 178.45 146.213 171.864 153.298C165.143 160.539 158.02 167.4 150.83 174.149C144.757 179.848 138.661 185.346 131.918 190.263C123.478 196.409 114.614 201.974 105.414 206.913C95.5452 212.21 85.2518 216.858 74.5118 220.144C64.8883 223.094 54.7066 225.06 44.6141 224.144C37.1564 223.451 28.7163 221.015 24.0944 214.847C19.0705 208.142 16.8823 199.359 15.2077 191.291C12.9748 180.519 11.9254 169.501 11.3002 158.527C10.675 147.42 10.5187 136.312 10.7196 125.182C10.8313 117.964 11.3002 110.767 11.1215 103.549C10.9652 97.2908 10.6973 91.0107 10.9429 84.753C11.2108 78.4952 11.903 72.2599 14.1582 66.3597C16.1901 61.0183 19.7626 56.3697 24.9428 53.6878C31.9539 50.0449 40.5503 50.2684 48.1866 51.4752C54.0144 52.3915 59.7081 53.956 65.3125 55.8109C66.9648 56.3473 67.657 53.7548 66.027 53.2184C55.9346 49.8884 44.882 47.0501 34.1644 48.3017C27.4212 49.0839 20.9684 51.7434 16.525 57.0401C12.4836 61.8675 10.407 67.9688 9.35759 74.0925C8.21884 80.6631 8.10723 87.3678 8.21886 94.0278C8.30817 99.7939 8.71007 105.582 8.48679 111.348C8.10721 121.517 7.88395 131.664 8.06257 141.833C8.26353 153.454 8.84405 165.098 10.2284 176.652C11.4341 186.709 13.0865 196.945 16.726 206.444C18.155 210.131 19.8743 213.729 22.3304 216.858C24.6079 219.764 27.4659 221.73 30.7929 223.25C39.6349 227.295 49.5933 227.608 59.1052 226.334C70.1355 224.837 80.8084 221.239 91.0125 216.858C101.395 212.389 111.376 206.98 120.933 200.946C128.859 195.94 136.607 190.486 143.73 184.34C150.652 178.373 157.216 171.914 163.691 165.523C170.97 158.348 178.049 150.906 184.39 142.861C190.061 135.686 195.331 127.976 198.546 119.372C201.136 112.421 202.141 104.599 199.238 97.559C195.777 89.1334 187.895 83.6579 179.857 80.0373C173.605 77.2213 167.041 75.3217 160.387 73.6902C152.438 71.7458 144.4 70.159 136.339 68.7063C120.33 65.8233 104.186 63.499 88.3554 59.7444C80.8084 57.9564 73.3284 55.8333 66.0493 53.1737C64.4194 52.6374 63.7272 55.2299 65.3348 55.8109Z"
    fill="#165368" />
  <path d="M51.8809 40.6102C52.0111 40.8218 52.125 40.952 52.2715 41.2449C52.1901 40.5289 52.0274 40.48 51.8809 40.6102Z"
    fill="currentColor" />
  <path
    d="M63.2725 29.2189C64.6557 30.1302 65.8274 31.0252 67.0479 28.1611C65.2252 28.4378 63.8258 27.7706 62.8005 26.5013C62.0194 27.6567 60.4897 28.2751 60.3596 29.9349C61.8079 31.1229 62.1659 28.4704 63.2725 29.2189Z"
    fill="currentColor" />
  <path
    d="M92.6293 11.0743C93.8009 11.9694 94.3054 13.0597 95.5747 12.4576C95.4608 11.1557 94.5983 10.6513 92.5804 10.6838C91.5715 9.28431 93.0849 8.71473 93.6219 7.8197C90.4812 6.9084 90.351 9.83759 88.1704 11.0581C90.2859 11.6602 91.539 11.8392 92.6293 11.0743Z"
    fill="currentColor" />
  <path
    d="M15.7222 72.7823C15.6571 71.7571 15.5757 70.7644 15.5106 69.7392C15.0387 69.7067 14.5017 69.5114 14.1274 69.6741C13.5416 69.9182 11.719 68.2421 12.4513 70.3576C12.8418 71.5456 13.8507 73.0752 15.7222 72.7823Z"
    fill="currentColor" />
  <path d="M36.7627 49.7393C33.0524 49.4138 33.0524 49.4138 33.6708 52.8149C34.9727 52.4895 35.4608 51.3341 36.7627 49.7393Z"
    fill="currentColor" />
  <path
    d="M29.4238 29.2026C28.4637 29.2026 27.7314 29.2026 27.4873 29.2026C27.0154 30.293 26.5597 31.367 26.0064 32.6526C28.301 31.9366 29.0821 30.8951 29.4238 29.2026Z"
    fill="currentColor" />
  <path d="M11.8324 77.6317C11.2303 79.4055 11.4907 80.7399 13.0854 81.8628C12.7437 80.5609 13.5899 78.9173 11.8324 77.6317Z"
    fill="currentColor" />
  <path d="M37.9835 21.0661C39.269 22.2703 40.3268 23.263 41.2056 24.0767C40.7987 21.831 40.7987 21.8309 37.9835 21.0661Z"
    fill="currentColor" />
  <path
    d="M148.739 33.6125C148.723 33.5475 148.918 33.6776 149.13 33.7264C149.602 33.8241 149.83 33.4335 149.504 32.8965C149.39 32.7012 148.788 32.7826 148.414 32.7338C146.949 32.2293 146.428 31.1878 145.175 31.79C145.306 33.2383 146.103 33.8404 148.739 33.6125Z"
    fill="currentColor" />
  <path d="M120.212 25.6061C120.082 24.4019 119.415 23.8486 117.82 23.6696C118.227 25.3295 118.666 26.3221 120.212 25.6061Z"
    fill="currentColor" />
  <path
    d="M16.7305 57.9575C15.3961 58.7549 14.4685 58.999 14.6963 60.2683C14.7126 60.3985 14.973 60.5938 15.0869 60.5938C16.2423 60.5775 16.763 59.9428 16.7305 57.9575Z"
    fill="currentColor" />
  <path d="M102.458 36.5907C102.783 38.1204 103.32 38.8201 104.508 38.7713C104.687 37.2579 104.02 36.6883 102.458 36.5907Z"
    fill="currentColor" />
  <path d="M90.1883 21.5216C90.5138 23.0513 91.0508 23.751 92.2387 23.7022C92.4177 22.1725 91.7668 21.6029 90.1883 21.5216Z"
    fill="currentColor" />
  <path d="M63.7276 8.97515C62.2305 8.92633 61.5633 9.64235 61.726 11.1395C63.2394 11.2046 63.8903 10.4886 63.7276 8.97515Z"
    fill="currentColor" />
  <path d="M76.4206 30.2279C76.4695 31.725 77.2343 32.441 78.7314 32.3922C78.6826 30.8951 77.9178 30.179 76.4206 30.2279Z"
    fill="currentColor" />
  <path d="M126.461 17.4044C126.51 18.9015 127.275 19.6175 128.772 19.5687C128.723 18.0553 127.958 17.3393 126.461 17.4044Z"
    fill="currentColor" />
  <path
    d="M43.7443 53.8078C44.3627 52.7663 43.191 51.7574 41.7753 51.676C41.7753 52.0991 41.7265 52.8151 41.7916 52.8314C42.5889 53.0267 42.9795 55.1259 43.7443 53.8078Z"
    fill="currentColor" />
  <path
    d="M76.4531 15.9075C76.3392 14.7684 75.672 14.1988 74.1098 14.1012C74.4353 15.6308 74.9723 16.3306 76.1602 16.2818C76.2741 16.2818 76.4694 16.0377 76.4531 15.9075Z"
    fill="currentColor" />
  <path
    d="M40.734 54.0356C40.3109 54.0193 39.5786 53.9054 39.5786 53.9705C39.4485 54.7354 37.3655 54.9795 38.7487 55.842C39.8227 56.5417 40.7666 55.4351 40.734 54.0356Z"
    fill="currentColor" />
  <path d="M34.5666 43.1163C34.6155 44.6134 35.3803 45.3294 36.8774 45.2806C36.8286 43.7835 36.0638 43.0675 34.5666 43.1163Z"
    fill="currentColor" />
  <path d="M39.3673 34.052C38.0329 34.8494 37.1053 35.0935 37.3332 36.3628C38.8628 36.6557 39.3836 36.0211 39.3673 34.052Z"
    fill="currentColor" />
  <path d="M24.184 47.7217C24.3142 48.9259 24.9814 49.4792 26.5762 49.6582C26.1856 47.9821 25.7462 46.9894 24.184 47.7217Z"
    fill="currentColor" />
  <path d="M21.0593 48.5028C21.1081 49.9999 21.873 50.7159 23.3701 50.6671C23.3213 49.1537 22.5564 48.4377 21.0593 48.5028Z"
    fill="currentColor" />
  <path d="M18.0815 52.0015C18.2117 53.2057 18.8789 53.759 20.4736 53.938C20.0668 52.2781 19.6274 51.2854 18.0815 52.0015Z"
    fill="currentColor" />
  <path d="M52.483 16.8513C53.8663 15.1589 51.8972 14.6056 51.1812 13.6455C49.7979 15.3379 51.767 15.8749 52.483 16.8513Z"
    fill="currentColor" />
  <path d="M41.6123 23.6046C40.8312 25.2482 39.2201 25.5248 40.0338 27.0708C41.4821 27.0383 42.0191 26.2734 41.6123 23.6046Z"
    fill="currentColor" />
  <path d="M36.6331 27.0382C36.6819 28.5353 37.4467 29.2513 38.9438 29.2025C38.895 27.7054 38.1302 26.9893 36.6331 27.0382Z"
    fill="currentColor" />
  <path d="M32.6458 17.3558C32.9713 18.8855 33.5083 19.5853 34.6963 19.5364C34.8753 18.0067 34.2081 17.4372 32.6458 17.3558Z"
    fill="currentColor" />
  <path
    d="M175.916 63.9948C175.558 64.0924 175.216 64.2064 174.874 64.304C174.89 64.5969 174.907 64.8247 174.923 65.0688C175.265 64.9549 175.655 64.8736 175.948 64.6783C176.046 64.6132 175.932 64.2389 175.916 63.9948Z"
    fill="currentColor" />
  <path
    d="M143.304 64.548C142.946 64.662 142.604 64.7596 142.262 64.8572C142.279 65.1501 142.295 65.378 142.311 65.6221C142.653 65.5082 143.043 65.4268 143.336 65.2315C143.434 65.1664 143.32 64.7759 143.304 64.548Z"
    fill="currentColor" />
  <path
    d="M106.363 17.3556C106.363 17.2255 106.005 17.0627 105.794 16.9163C105.68 17.2743 105.566 17.616 105.452 17.9578C105.696 18.1368 105.891 18.2832 106.087 18.4297C106.184 18.0717 106.347 17.7137 106.363 17.3556Z"
    fill="currentColor" />
  <path
    d="M107.08 40.1709C106.722 40.0733 106.364 39.9594 105.99 39.8618C106.006 40.1059 105.941 40.4801 106.055 40.5452C106.38 40.7405 106.771 40.8056 107.129 40.9358C107.113 40.6917 107.096 40.4639 107.08 40.1709Z"
    fill="currentColor" />
  <path
    d="M46.4617 176.915C46.1037 177.012 45.762 177.126 45.4202 177.224C45.4365 177.517 45.4528 177.745 45.4853 177.989C45.8271 177.875 46.2176 177.793 46.5105 177.598C46.5919 177.533 46.478 177.143 46.4617 176.915Z"
    fill="currentColor" />
  <path
    d="M34.2246 148.746C33.8666 148.648 33.4923 148.534 33.1343 148.437C33.1506 148.681 33.0855 149.055 33.1994 149.12C33.5249 149.315 33.9154 149.38 34.2734 149.511C34.2572 149.283 34.2409 149.039 34.2246 148.746Z"
    fill="currentColor" />
  <path
    d="M101.856 17.8928C101.612 17.8928 101.238 17.7951 101.172 17.909C100.993 18.2182 100.961 18.6088 100.863 18.9668C101.091 18.9668 101.335 18.9668 101.628 18.9668C101.693 18.6088 101.775 18.2508 101.856 17.8928Z"
    fill="currentColor" />
  <path
    d="M88.8049 39.1945C88.4794 38.9992 88.0888 38.9341 87.7308 38.8039C87.7471 39.048 87.7634 39.2758 87.7797 39.5687C88.1377 39.6664 88.512 39.7803 88.87 39.8779C88.87 39.6338 88.9188 39.2595 88.8049 39.1945Z"
    fill="currentColor" />
  <path
    d="M53.9155 74.2145C53.5738 74.3284 53.1832 74.4098 52.8903 74.6051C52.7927 74.6702 52.9066 75.0607 52.9229 75.2886C53.2809 75.1909 53.6226 75.077 53.9644 74.9794C53.9481 74.6865 53.9318 74.4424 53.9155 74.2145Z"
    fill="currentColor" />
  <path
    d="M80.4078 40.9519C80.0498 41.0495 79.7081 41.1634 79.3663 41.261C79.3826 41.554 79.3989 41.7818 79.4152 42.0259C79.7569 41.912 80.1475 41.8306 80.4404 41.6353C80.538 41.5702 80.4241 41.196 80.4078 40.9519Z"
    fill="currentColor" />
  <path
    d="M81.0913 35.5981C80.8472 35.5981 80.4729 35.5167 80.4078 35.6144C80.2288 35.9235 80.1963 36.3141 80.0986 36.6721C80.3427 36.6721 80.5706 36.6721 80.8635 36.6721C80.9286 36.3141 81.0099 35.9561 81.0913 35.5981Z"
    fill="currentColor" />
  <path
    d="M44.9003 73.124C45.0793 72.8148 45.1118 72.4242 45.2095 72.0662C44.9654 72.0662 44.5911 71.9849 44.526 72.0825C44.347 72.3917 44.3144 72.7822 44.2168 73.1403C44.4609 73.1403 44.8352 73.2379 44.9003 73.124Z"
    fill="currentColor" />
  <path
    d="M83.6299 10.6511C83.2882 10.765 82.8976 10.8463 82.6047 11.0416C82.507 11.1067 82.621 11.4973 82.6372 11.7251C82.9952 11.6275 83.337 11.5135 83.6787 11.4159C83.6624 11.123 83.6462 10.8789 83.6299 10.6511Z"
    fill="currentColor" />
  <path
    d="M16.2266 131.952C16.0964 131.594 15.9662 131.236 15.836 130.878C15.5594 130.878 15.3153 130.878 15.0712 130.878C15.2176 131.236 15.3153 131.626 15.5268 131.936C15.6245 132.049 15.9987 131.952 16.2266 131.952Z"
    fill="currentColor" />
  <path
    d="M36.8766 62.2537C36.8929 61.8794 37.0231 61.4563 36.8929 61.1308C36.7465 60.8054 36.5675 60.6426 36.4047 60.6426C36.5512 60.2683 36.779 59.9103 36.8278 59.5198C36.8929 59.0641 36.4861 58.8038 35.9653 59.0804C35.7863 59.178 35.9002 59.7964 35.884 60.1707C36.0467 60.3334 36.2257 60.4799 36.3885 60.6426C36.2257 60.6426 36.063 60.8054 35.9816 61.1308C35.9003 61.4563 36.0793 61.8794 36.2094 62.2374C36.2257 62.3188 36.6163 62.2537 36.8766 62.2537Z"
    fill="currentColor" />
  <path
    d="M45.4855 63.4902C45.5018 63.116 45.632 62.6929 45.5018 62.3674C45.3716 62.0419 45.1926 61.8792 45.0299 61.8792C45.1763 61.5049 45.4042 61.1469 45.453 60.7563C45.5181 60.3007 45.1113 60.0403 44.5905 60.317C44.4115 60.4146 44.5254 61.033 44.5091 61.4073C44.6719 61.57 44.8509 61.7165 45.0136 61.8792C44.8509 61.8792 44.6881 62.0419 44.6068 62.3674C44.5254 62.6929 44.6881 63.116 44.8346 63.474C44.8346 63.5553 45.2414 63.4902 45.4855 63.4902Z"
    fill="currentColor" />
  <path
    d="M82.963 17.5999C82.8491 17.4046 82.247 17.486 81.8727 17.4371C81.7263 17.5999 81.5798 17.7626 81.4334 17.9091C81.8239 18.0881 82.1982 18.3322 82.605 18.4298C83.0607 18.5275 83.2885 18.1369 82.963 17.5999Z"
    fill="currentColor" />
  <path
    d="M37.04 62.4326C36.7959 62.4326 36.4216 62.3349 36.3566 62.4488C36.1775 62.758 36.145 63.1486 36.0474 63.5066C36.2915 63.5066 36.5193 63.5066 36.8122 63.5066C36.8773 63.1486 36.9587 62.7906 37.04 62.4326Z"
    fill="currentColor" />
  <path
    d="M38.8784 58.4456C38.5204 58.348 38.1624 58.2341 37.7881 58.1364C37.8044 58.3805 37.7393 58.7548 37.8532 58.8199C38.1787 59.0152 38.5692 59.0803 38.9272 59.2104C38.9272 58.9664 38.911 58.7385 38.8784 58.4456Z"
    fill="currentColor" />
  <path d="M71.8805 18.983C71.1644 19.699 71.2133 20.4151 72.0269 21.1311C72.7592 20.4151 72.6941 19.699 71.8805 18.983Z"
    fill="currentColor" />
  <path d="M71.7346 16.8512C71.0186 17.5672 71.0674 18.2832 71.881 18.9993C72.5971 18.267 72.5483 17.5509 71.7346 16.8512Z"
    fill="currentColor" />
  <path
    d="M72.125 15.6308C71.5717 14.8497 71.0184 15.2077 70.579 15.7773C70.9533 16.1353 71.3439 16.4933 71.7181 16.8513C71.8809 16.4282 72.2714 15.8424 72.125 15.6308Z"
    fill="currentColor" />
  <path
    d="M63.2241 25.3623C63.2892 24.9067 62.8824 24.6463 62.3616 24.9392C62.1826 25.0369 62.2965 25.6552 62.2803 26.0295C62.4593 26.1923 62.622 26.355 62.7847 26.5015C62.9475 26.1272 63.1753 25.7529 63.2241 25.3623Z"
    fill="currentColor" />
  <path
    d="M39.481 51.7086C39.3508 51.3506 39.2206 50.9763 39.0904 50.6346C38.7975 50.6346 38.5696 50.6346 38.3255 50.6346C38.472 50.9926 38.5697 51.3831 38.7812 51.6923C38.8626 51.8063 39.2369 51.7086 39.481 51.7086Z"
    fill="currentColor" />
  <path
    d="M70.5791 15.7772C70.1885 15.4192 69.8143 15.0612 69.44 14.7032C69.2935 15.11 68.8867 15.6958 69.0331 15.9074C69.5864 16.7048 70.1397 16.3305 70.5791 15.7772Z"
    fill="currentColor" />
  <path
    d="M68.0245 17.3881C67.6665 17.4858 67.3248 17.5997 66.983 17.6973C66.9993 17.9902 67.0156 18.2181 67.0319 18.4622C67.3736 18.3482 67.7642 18.2669 68.0571 18.0716C68.1547 18.0065 68.0408 17.6159 68.0245 17.3881Z"
    fill="currentColor" />
  <path
    d="M47.0317 37.7624C46.69 37.8763 46.2994 37.9577 46.0065 38.153C45.8926 38.218 46.0228 38.6086 46.0391 38.8364C46.3971 38.7388 46.7551 38.6249 47.0806 38.5272C47.0643 38.2343 47.048 38.0065 47.0317 37.7624Z"
    fill="currentColor" />
  <path
    d="M29.0825 56.0046C28.9361 55.6466 28.8384 55.2561 28.6269 54.9469C28.5455 54.833 28.1712 54.9306 27.9434 54.9306C28.0736 55.2886 28.2038 55.6466 28.3339 56.0046C28.6106 56.0046 28.8547 56.0046 29.0825 56.0046Z"
    fill="currentColor" />
  <path
    d="M25.7299 59.2105C25.9089 58.9013 25.9414 58.5107 26.0391 58.1527C25.8112 58.1527 25.5671 58.1527 25.2742 58.1527C25.1929 58.4945 25.1115 58.8688 25.0464 59.2268C25.2742 59.2268 25.6648 59.3081 25.7299 59.2105Z"
    fill="currentColor" />
  <path
    d="M41.6123 36.7045C41.3682 36.7045 40.9939 36.6069 40.9288 36.7208C40.7498 37.03 40.7173 37.4206 40.6196 37.7786C40.8637 37.7786 41.0916 37.7786 41.3845 37.7786C41.4496 37.4206 41.5309 37.0625 41.6123 36.7045Z"
    fill="currentColor" />
  <path
    d="M31.3771 43.1325C31.0191 43.2301 30.6773 43.3441 30.3356 43.4417C30.3519 43.7346 30.3681 43.9624 30.3844 44.2065C30.7261 44.0926 31.1167 44.0113 31.4096 43.816C31.5073 43.7509 31.3933 43.3766 31.3771 43.1325Z"
    fill="currentColor" />
  <path
    d="M23.9723 44.597C23.6469 44.4018 23.2563 44.3367 22.8983 44.2065C22.9146 44.4506 22.9309 44.6784 22.9471 44.9713C23.3051 45.069 23.6632 45.1829 24.0374 45.2805C24.0212 45.0527 24.0863 44.6621 23.9723 44.597Z"
    fill="currentColor" />
  <path
    d="M44.672 19.9269C44.3466 19.7316 43.956 19.6665 43.598 19.5363C43.6143 19.7804 43.6306 20.0082 43.6468 20.3012C44.0049 20.3988 44.3629 20.5127 44.7371 20.6104C44.7209 20.3825 44.786 19.992 44.672 19.9269Z"
    fill="currentColor" />
  <path
    d="M47.5527 15.2566C47.4225 14.8985 47.2924 14.5405 47.1622 14.1825C46.8692 14.1825 46.6414 14.1825 46.3973 14.1825C46.5438 14.5405 46.6414 14.9311 46.853 15.2403C46.9506 15.3379 47.3249 15.2566 47.5527 15.2566Z"
    fill="currentColor" />
  <path
    d="M38.244 24.8903C38.423 24.5811 38.4556 24.1906 38.5532 23.8326C38.3091 23.8326 37.9348 23.7512 37.8697 23.8489C37.6907 24.158 37.6582 24.5486 37.5606 24.9066C37.7884 24.9066 38.1789 25.0043 38.244 24.8903Z"
    fill="currentColor" />
  <path
    d="M32.4346 28.1286C32.2067 28.1286 31.8162 28.0472 31.7511 28.1449C31.5721 28.4541 31.5395 28.8446 31.4419 29.2026C31.686 29.2026 31.9138 29.2026 32.2067 29.2026C32.2881 28.8446 32.3695 28.4866 32.4346 28.1286Z"
    fill="currentColor" />
  <path
    d="M37.7887 13.4989C37.4633 13.3036 37.0727 13.2385 36.7147 13.1083C36.731 13.3524 36.7473 13.5803 36.7635 13.8732C37.1215 13.9708 37.4796 14.0847 37.8538 14.1824C37.8376 13.9545 37.9027 13.564 37.7887 13.4989Z"
    fill="currentColor" />
  <path
    d="M26.7388 23.0839C26.3808 22.9863 26.0228 22.8724 25.6485 22.7747C25.6647 23.0188 25.5996 23.3931 25.7136 23.4582C26.039 23.6535 26.4296 23.7186 26.7876 23.8325C26.7713 23.6047 26.7551 23.3606 26.7388 23.0839Z"
    fill="currentColor" />
  <path
    d="M23.4193 27.0383C23.5983 26.7291 23.6309 26.3385 23.7285 25.9805C23.4844 25.9805 23.2566 25.9805 22.9637 25.9805C22.8823 26.3223 22.8172 26.6965 22.7358 27.0546C22.9799 27.0708 23.3705 27.1522 23.4193 27.0383Z"
    fill="currentColor" />
</svg>