<svg width="152" height="166" viewBox="0 0 152 166" fill="none" xmlns="http://www.w3.org/2000/svg">
  <path
    d="M69.6468 131.094C69.4778 131.118 69.3166 131.157 69.1475 131.181C69.1296 131.118 69.0978 131.063 69.0445 131.002C64.9548 125.6 61.3104 119.922 58.1034 113.955C57.6392 113.087 56.3319 113.677 56.5367 114.603C58.2603 122.25 58.3166 130.055 56.6809 137.719C56.5036 138.554 57.4839 139.142 58.1224 138.535C61.5209 135.383 65.5268 133.473 70.0868 132.744C71.164 132.58 70.7239 130.93 69.6468 131.094ZM60.9655 126.365C60.9517 126.373 60.9379 126.381 60.9321 126.402C60.93 126.367 60.9279 126.332 60.9258 126.296C60.9554 126.316 60.9633 126.33 60.9655 126.365ZM60.8541 131.849C60.8758 131.855 60.8895 131.847 60.9249 131.845C60.9191 131.867 60.9133 131.888 60.9154 131.924C60.8448 132.404 61.1217 132.757 61.4646 132.907C61.284 132.974 61.0954 133.028 60.901 133.104C60.8755 132.679 60.8579 132.268 60.8541 131.849ZM62.4936 132.532C62.5189 132.481 62.5364 132.416 62.5401 132.359C63.0286 132.095 63.523 131.81 64.0116 131.546C64.2081 131.506 64.3729 131.411 64.5139 131.274C64.5551 131.251 64.6101 131.219 64.6513 131.195C65.4951 131.642 66.3812 130.544 65.6778 129.833C65.2313 129.377 64.8043 128.891 64.4127 128.403C64.4247 128.012 64.3363 127.605 64.1887 127.159C65.0836 128.455 65.998 129.722 66.934 130.994C65.4591 131.516 63.9763 132.024 62.4936 132.532ZM59.584 120.04C59.4388 120.105 59.3093 120.198 59.2174 120.325C59.1803 119.943 59.1295 119.57 59.0708 119.182C59.251 119.463 59.4175 119.751 59.584 120.04ZM59.7119 135.072C59.3981 135.29 59.0924 135.521 58.7866 135.753C58.9379 134.842 59.0618 133.946 59.1777 133.037C59.1953 133.448 59.1991 133.867 59.2167 134.278C59.2221 134.604 59.4181 134.912 59.7119 135.072Z"
    fill="currentColor" />
  <path
    d="M96.406 116.963C94.7388 114.044 93.0796 111.138 91.4125 108.219C91.2143 107.875 90.9083 107.631 90.5596 107.503C90.0168 106.626 89.4681 105.771 88.8487 104.92C88.0432 103.81 86.0642 103.744 85.7192 105.335C84.4484 111.031 83.1913 116.719 81.9205 122.415C81.6293 123.718 82.7158 124.776 84.0147 124.52C88.8098 123.564 93.3858 122.039 97.8477 120.031C99.7418 119.157 98.2723 116.453 96.406 116.963ZM90.1495 117.005C90.3221 116.447 90.4651 115.87 90.6081 115.293C90.9026 116.057 91.1833 116.829 91.4366 117.617C90.9918 117.544 90.5738 117.327 90.1495 117.005ZM86.7308 116.506L86.725 116.528L86.7308 116.506ZM85.909 120.57C85.8815 120.586 85.8598 120.58 85.8324 120.596C85.844 120.552 85.8556 120.509 85.8534 120.474C85.8693 120.501 85.8852 120.529 85.909 120.57Z"
    fill="currentColor" />
  <path
    d="M90.8076 149.034C88.5394 144.979 85.9242 141.179 82.9932 137.561C82.1724 136.551 80.4049 137.169 80.1269 138.337C79.3878 141.528 78.6565 144.734 77.9174 147.925C77.46 149.892 75.8213 153.365 76.8273 155.33C77.6488 156.943 79.3118 156.715 80.775 156.237C84.1964 155.122 87.5574 153.712 90.927 152.444C92.7277 151.789 92.3011 149.179 90.8076 149.034ZM85.0785 149.577C85.33 149.981 85.6149 150.348 85.9193 150.685C85.5443 150.828 85.183 150.963 84.8079 151.107C84.9198 150.603 85.0099 150.093 85.0785 149.577Z"
    fill="currentColor" />
  <path
    d="M65.6519 104.671C69.2939 104.509 72.8598 104.025 76.3964 103.173C78.3789 102.706 77.7879 99.8432 76.0096 99.8078C75.9874 99.6742 75.9435 99.5347 75.8642 99.3974C74.3069 96.4146 73.5167 93.4284 72.9435 90.1522C72.4735 87.5304 71.8204 85.289 70.0901 83.2118C69.3011 82.2574 67.4427 82.781 67.2238 83.9877C66.1518 90.1548 65.0877 96.3357 64.0019 102.511C63.8216 103.53 64.468 104.714 65.6519 104.671ZM72.0475 100.081C72.1485 100.224 72.2415 100.354 72.3562 100.489C72.1105 100.539 71.857 100.576 71.6034 100.612C71.7798 100.474 71.9324 100.294 72.0475 100.081Z"
    fill="currentColor" />
  <path
    d="M91.8342 77.0114C91.6652 77.0357 91.5041 77.0738 91.335 77.0981C91.3171 77.0353 91.2853 76.9803 91.232 76.9196C87.1423 71.517 83.4979 65.8391 80.2908 59.872C79.8267 59.0047 78.5193 59.5947 78.7241 60.5202C80.4477 68.1677 80.5042 75.9721 78.8684 83.6366C78.6912 84.4714 79.6713 85.0591 80.3098 84.4524C83.7083 81.3 87.7143 79.39 92.2743 78.6616C93.3514 78.4975 92.9172 76.8256 91.8342 77.0114ZM83.1666 72.2743C83.1529 72.2822 83.1391 72.2902 83.1333 72.3118C83.1312 72.2764 83.1291 72.241 83.127 72.2056C83.1349 72.2193 83.1508 72.2468 83.1666 72.2743ZM83.0336 77.7527C83.0552 77.7585 83.069 77.7506 83.1044 77.7485C83.0986 77.7701 83.0928 77.7918 83.0949 77.8272C83.0243 78.3075 83.3012 78.6603 83.6441 78.8102C83.4635 78.8779 83.2749 78.9318 83.0805 79.0074C83.055 78.5827 83.0511 78.1637 83.0336 77.7527ZM84.6948 78.4417C84.7201 78.3904 84.7375 78.3254 84.7412 78.2683C85.2298 78.0046 85.7242 77.7191 86.2128 77.4554C86.3956 77.4231 86.5741 77.32 86.7151 77.1836C86.7563 77.1599 86.8113 77.1281 86.8525 77.1043C87.6963 77.551 88.5824 76.4535 87.879 75.7426C87.4325 75.2863 87.0054 74.8004 86.6138 74.3124C86.6259 73.9209 86.5375 73.5141 86.39 73.0683C87.2848 74.3644 88.1991 75.631 89.1352 76.9034C87.6387 77.4195 86.1638 77.9414 84.6948 78.4417ZM81.7773 65.9352C81.632 66.0008 81.5026 66.0938 81.4107 66.2201C81.3736 65.8387 81.3228 65.4652 81.264 65.078C81.4385 65.3801 81.6187 65.6606 81.7773 65.9352ZM81.9052 80.9677C81.5915 81.1855 81.2856 81.417 80.9798 81.6485C81.1311 80.7371 81.255 79.8417 81.371 78.9324C81.3885 79.3434 81.3924 79.7624 81.4099 80.1734C81.4153 80.4999 81.6194 80.8215 81.9052 80.9677Z"
    fill="currentColor" />
  <path
    d="M118.6 62.8582C116.933 59.9389 115.266 57.0196 113.606 54.1139C113.408 53.7706 113.102 53.5261 112.753 53.3978C112.211 52.521 111.662 51.6659 111.043 50.8151C110.237 49.7054 108.258 49.6395 107.913 51.2303C106.642 56.9262 105.385 62.6142 104.114 68.3101C103.823 69.6135 104.91 70.6708 106.209 70.4152C111.004 69.4596 115.58 67.9345 120.042 65.9261C121.944 65.066 120.466 62.3483 118.6 62.8582ZM112.351 62.9136C112.524 62.3562 112.667 61.7792 112.81 61.2023C113.104 61.9661 113.385 62.7379 113.638 63.5255C113.186 63.439 112.762 63.2442 112.351 62.9136ZM108.933 62.4154L108.927 62.4371C108.919 62.4234 108.919 62.4234 108.933 62.4154ZM108.089 66.473C108.062 66.4889 108.04 66.4831 108.012 66.4989C108.024 66.4556 108.036 66.4123 108.047 66.369C108.063 66.3964 108.073 66.4455 108.089 66.473Z"
    fill="currentColor" />
  <path
    d="M112.987 94.9379C110.719 90.8824 108.104 87.0822 105.173 83.4643C104.352 82.455 102.585 83.0726 102.307 84.2402C101.567 87.4319 100.836 90.6373 100.097 93.8289C99.6397 95.7959 98.001 99.2689 99.007 101.233C99.8285 102.846 101.491 102.619 102.955 102.14C106.376 101.025 109.737 99.6159 113.107 98.348C114.915 97.7066 114.502 95.0885 112.987 94.9379ZM107.266 95.4945C107.518 95.8985 107.802 96.2651 108.107 96.602C107.732 96.7453 107.371 96.8807 106.996 97.024C107.113 96.4983 107.203 95.9884 107.266 95.4945Z"
    fill="currentColor" />
  <path
    d="M87.846 50.5662C91.488 50.4044 95.0539 49.9204 98.5905 49.0687C100.573 48.6016 99.982 45.7384 98.2037 45.7031C98.1815 45.5694 98.1376 45.43 98.0583 45.2926C96.501 42.3099 95.7108 39.3237 95.1376 36.0474C94.6676 33.4256 94.0145 31.1843 92.2842 29.1071C91.4951 28.1527 89.6368 28.6763 89.4179 29.883C88.3459 36.0501 87.2818 42.2309 86.196 48.4059C86.0236 49.4393 86.6484 50.6167 87.846 50.5662ZM94.2495 45.9901C94.3505 46.1333 94.4436 46.2626 94.5583 46.3979C94.3126 46.4481 94.0591 46.4847 93.8055 46.5212C93.974 46.369 94.1344 46.2031 94.2495 45.9901Z"
    fill="currentColor" />
  <path
    d="M34.4666 78.5651C34.2975 78.5894 34.1364 78.6275 33.9674 78.6519C33.9494 78.589 33.9177 78.5341 33.8643 78.4733C29.7746 73.0707 26.1302 67.3928 22.9231 61.4257C22.459 60.5584 21.1517 61.1484 21.3564 62.0739C23.0801 69.7214 23.1365 77.5258 21.5007 85.1903C21.3235 86.025 22.3036 86.6128 22.9421 86.0061C26.3407 82.8537 30.3466 80.9437 34.9066 80.2153C35.9837 80.0512 35.5358 78.3872 34.4666 78.5651ZM25.7852 73.836C25.7715 73.8439 25.7577 73.8518 25.7519 73.8735C25.7498 73.8381 25.7477 73.8027 25.7456 73.7673C25.7672 73.7731 25.7694 73.8085 25.7852 73.836ZM25.666 79.3064C25.6877 79.3122 25.7014 79.3043 25.7368 79.3022C25.7309 79.3238 25.7251 79.3455 25.7272 79.3809C25.6566 79.8612 25.9336 80.2139 26.2765 80.3638C26.0959 80.4315 25.9073 80.4855 25.7129 80.5611C25.6874 80.1364 25.6698 79.7254 25.666 79.3064ZM27.3134 80.0032C27.3388 79.952 27.3561 79.887 27.3598 79.83C27.8484 79.5662 28.3428 79.2808 28.8314 79.017C29.0279 78.9768 29.1927 78.8816 29.3338 78.7453C29.375 78.7215 29.4298 78.6898 29.471 78.666C30.3149 79.1127 31.201 78.0151 30.4976 77.3042C30.051 76.8479 29.624 76.3621 29.2324 75.874C29.2444 75.4826 29.1561 75.0758 29.0086 74.63C29.9034 75.9261 30.8177 77.1927 31.7537 78.465C30.2652 78.9949 28.7962 79.4951 27.3134 80.0032ZM24.3958 67.4969C24.2506 67.5624 24.1212 67.6554 24.0293 67.7817C23.9922 67.4003 23.9414 67.0268 23.8826 66.6396C24.057 66.9417 24.2373 67.2222 24.3958 67.4969ZM24.5238 82.5294C24.21 82.7471 23.9042 82.9787 23.5984 83.2102C23.7497 82.2988 23.8736 81.4033 23.9895 80.4941C24.0071 80.9051 24.0109 81.324 24.0285 81.735C24.0339 82.0615 24.2379 82.3831 24.5238 82.5294Z"
    fill="currentColor" />
  <path
    d="M61.2181 64.42C59.5509 61.5006 57.8917 58.5951 56.2245 55.6757C56.0263 55.3324 55.7203 55.0879 55.3716 54.9596C54.8288 54.0828 54.2664 53.2356 53.6607 52.3768C52.8552 51.2671 50.8763 51.2012 50.5313 52.792C49.2605 58.4879 48.0033 64.1759 46.7325 69.8718C46.4413 71.1752 47.5278 72.2326 48.8268 71.977C53.6218 71.0213 58.1979 69.4962 62.6597 67.4878C64.5619 66.6277 63.0844 63.9101 61.2181 64.42ZM54.9695 64.4753C55.1421 63.9179 55.285 63.341 55.428 62.7641C55.7225 63.5279 56.0033 64.2996 56.2566 65.0872C55.8039 65.0007 55.3801 64.8059 54.9695 64.4753ZM51.5507 63.9772L51.5449 63.9989C51.537 63.9852 51.5507 63.9772 51.5507 63.9772ZM50.7073 68.0347C50.6798 68.0506 50.6582 68.0448 50.6307 68.0607C50.6423 68.0173 50.6539 67.974 50.6518 67.9386C50.6814 67.9582 50.7052 67.9993 50.7073 68.0347Z"
    fill="currentColor" />
  <path
    d="M55.6197 96.4916C53.3515 92.4361 50.7362 88.6359 47.8052 85.018C46.9844 84.0087 45.2169 84.6263 44.9389 85.7939C44.1998 88.9856 43.4686 92.191 42.7295 95.3826C42.2721 97.3496 40.6333 100.823 41.6393 102.787C42.4608 104.4 44.1239 104.172 45.5871 103.694C49.0085 102.579 52.3695 101.17 55.7391 99.9017C57.534 99.2682 57.1212 96.6502 55.6197 96.4916ZM49.8847 97.0561C50.1363 97.4602 50.4212 97.8267 50.7256 98.1637C50.3505 98.3069 49.9892 98.4423 49.6142 98.5856C49.7318 98.0599 49.822 97.5501 49.8847 97.0561Z"
    fill="currentColor" />
  <path
    d="M69.9034 25.4767C67.6352 21.4212 65.0199 17.621 62.0889 14.0031C61.2681 12.9938 59.5006 13.6114 59.2226 14.779C58.4835 17.9707 57.7523 21.1761 57.0132 24.3677C56.5558 26.3347 54.917 29.8078 55.923 31.7722C56.7445 33.3853 58.4076 33.1575 59.8708 32.679C63.2922 31.5642 66.6532 30.1547 70.0228 28.8868C71.8177 28.2534 71.4048 25.6353 69.9034 25.4767ZM64.1684 26.0412C64.42 26.4453 64.7049 26.8118 65.0093 27.1488C64.6342 27.2921 64.2729 27.4274 63.8979 27.5707C64.0155 27.045 64.1057 26.5352 64.1684 26.0412Z"
    fill="currentColor" />
  <path
    d="M30.464 52.1279C34.106 51.9662 37.6717 51.4821 41.2084 50.6305C43.1909 50.1633 42.5999 47.3002 40.8217 47.2648C40.7995 47.1312 40.7556 46.9917 40.6763 46.8544C39.119 43.8716 38.3288 40.8854 37.7556 37.6092C37.2856 34.9874 36.6325 32.746 34.9022 30.6688C34.1131 29.7145 32.2547 30.2381 32.0358 31.4448C30.9638 37.6119 29.8997 43.7927 28.8139 49.9677C28.6415 51.0011 29.288 52.1843 30.464 52.1279ZM36.8675 47.5519C36.9685 47.695 37.0615 47.8245 37.1762 47.9597C36.9305 48.0099 36.6769 48.0465 36.4234 48.083C36.5918 47.9308 36.7524 47.7648 36.8675 47.5519Z"
    fill="currentColor" />
</svg>