<svg width="166" height="355" viewBox="0 0 166 355" fill="none" xmlns="http://www.w3.org/2000/svg">
  <path
    d="M286.93 141.03C270.079 128.497 241.522 127.777 236.077 107.477C232.601 94.5224 241.468 79.0288 233.728 68.057C231.161 64.4043 227.142 62.0687 223.163 60.0455C209.001 52.8622 192.76 48.2997 177.226 51.5858C165.521 54.0571 154.576 61.9329 149.43 72.4294C131.057 77.9832 110.934 77.44 92.6834 83.7407C70.2646 91.4671 51.4577 110.627 46.8408 133.874C42.2376 157.135 53.6168 183.397 75.0036 193.649C96.1732 203.792 123.738 198.415 141.866 213.311C152.621 222.137 157.401 236.124 165.385 247.53C186.079 277.078 230.143 285.918 262.081 269.107C294.005 252.31 311.644 213.433 306.253 177.761C304.121 163.734 298.309 149.504 286.93 141.03Z"
    fill="currentColor" />
  <path
    d="M269.073 163.232C258.183 155.41 244.821 152.694 233.143 146.394C227.372 143.284 222.117 139.088 219.646 132.842C217.351 127.017 218.003 120.743 218.777 114.673C220.039 104.611 221.343 93.9382 212.598 86.7685C203.079 78.9607 188.401 74.3845 176.356 72.9588C163.524 71.4515 150.475 74.1265 140.25 82.3146C137.873 84.2293 135.701 86.3747 133.813 88.7782C131.464 91.752 130.622 94.5764 126.725 95.5677C119.447 97.4416 111.992 98.4871 104.564 99.5327C90.4149 101.515 76.1163 103.593 63.3113 110.369C51.9729 116.357 42.1417 125.292 35.3386 136.196C22.3572 156.972 23.0633 184.048 38.1495 203.588C45.4685 213.053 55.4762 219.095 66.9776 222.123C79.1579 225.342 91.8814 225.708 104.062 228.872C110.661 230.583 117.125 233.217 122.42 237.563C128.803 242.804 133.08 249.987 137.099 257.076C143.481 268.373 149.918 278.721 160.414 286.637C179.289 300.868 204.885 305.498 227.725 299.822C276.46 287.696 304.935 225.057 282.706 179.988C279.515 173.511 275.075 167.876 269.358 163.435C268.041 162.417 266.181 164.25 267.511 165.282C289.401 182.283 290.867 215.986 283.372 240.564C276.297 263.77 259.785 284.682 237.013 294.038C215.015 303.081 188.672 300.909 168.277 288.769C157.142 282.142 149.09 272.814 142.694 261.665C136.339 250.585 130.486 238.839 119.107 232.077C99.119 220.209 73.6177 225.803 53.6159 213.949C31.9167 201.076 23.5657 172.194 31.9847 149.028C36.6694 136.142 45.8216 125.061 57.0242 117.28C68.3898 109.391 81.3577 105.738 94.8688 103.579C101.522 102.52 108.203 101.732 114.857 100.646C118.034 100.13 121.198 99.5463 124.321 98.8402C126.453 98.365 130.16 98.1069 131.885 96.6812C132.713 95.9886 133.284 94.169 133.895 93.2049C134.886 91.6433 136.027 90.1769 137.235 88.7782C139.639 86.0489 142.463 83.6861 145.518 81.7443C151.493 77.915 158.282 75.851 165.33 75.2943C178.732 74.2216 192.216 78.499 204.043 84.5145C210.901 88.0042 216.346 92.5803 217.12 100.633C217.582 105.44 216.713 110.328 216.129 115.094C214.947 124.722 215.192 134.173 222.266 141.627C229.939 149.734 241.616 152.993 251.651 157.053C257.314 159.348 262.813 161.914 267.797 165.486C269.141 166.477 270.431 164.209 269.073 163.232Z"
    fill="#4C4C4C" />
</svg>