<svg width="62" height="189" viewBox="0 0 62 189" fill="none" xmlns="http://www.w3.org/2000/svg">
  <path
    d="M0.570555 46.4233C0.570555 46.4233 78.464 -13.0678 113.249 2.64144C148.034 18.3507 117.145 32.8155 143.851 48.1371C170.577 63.4587 161.641 94.4896 145.177 100.284C128.713 106.078 133.304 123.99 136.527 128.846C139.75 133.681 148.686 153.797 126.734 163.447C104.782 173.117 98.2332 158.163 88.6648 169.078C79.0965 180.013 88.0323 188.765 71.3438 188.765C54.6553 188.765 -6.52923 157.204 0.570555 46.4233Z"
    fill="currentColor" />
  <path
    d="M16.7702 79.9226C15.6073 79.0861 13.4855 80.045 13.8324 82.0444C13.9548 82.7584 14.1384 83.5133 14.4036 84.2681C14.2608 85.9411 14.8729 87.5732 15.9746 88.5525C16.6886 89.1849 17.5047 89.2665 18.28 88.9605C19.1164 89.1237 19.9121 88.5525 20.3405 87.7772C22.6867 86.3899 23.4823 82.4932 21.6054 80.5142C20.7485 79.6166 19.6265 79.3309 18.5248 79.5146C18.0147 79.3309 17.2802 79.4942 16.7702 79.9226Z"
    fill="white" />
  <path
    d="M29.6228 95.9582C28.6232 97.5903 29.1128 99.5081 29.6432 101.079C30.1532 102.589 31.0509 103.976 32.5198 104.404C33.4991 104.69 34.6824 104.466 35.6005 103.792C35.7841 103.813 35.9881 103.854 36.1717 103.874C37.8651 104.037 38.6403 101.752 37.8651 100.447C37.0694 99.0796 36.9878 97.2843 36.0698 95.9786C35.3353 94.9177 34.1519 94.2444 32.887 94.2036C31.663 94.1424 30.3777 94.7341 29.6228 95.9582Z"
    fill="white" />
  <path
    d="M23.1356 56.0732C22.4419 55.7059 21.4423 56.2364 20.9934 56.93C20.9118 57.0728 20.8098 57.2156 20.7282 57.3585C19.4837 57.8889 18.382 59.0518 18.0352 60.5411C17.6271 62.3568 18.4024 63.7646 19.6061 64.4786C19.6469 64.6826 19.7081 64.8867 19.7897 65.0907C19.4225 65.9067 19.4633 66.9064 20.2386 67.5185C22.4215 69.2322 25.3186 68.967 27.6444 67.09C28.1952 66.6412 28.4196 65.7843 28.3584 65.1111C28.1952 63.1729 27.8688 61.1736 26.5427 59.8883C26.2366 59.6026 25.9102 59.3782 25.5226 59.1946C25.2166 57.7665 24.3597 56.726 23.1356 56.0732Z"
    fill="white" />
  <path
    d="M31.3362 73.9046C30.7242 74.6186 30.459 75.6795 31.0914 76.5772C31.7443 77.5361 32.3971 78.7806 33.1724 79.7598C33.968 80.9431 35.1106 82.0856 36.5795 81.2492C36.5999 81.2492 36.5999 81.2287 36.6203 81.2287C37.3955 80.9431 38.0892 80.3107 38.4156 79.311C38.9256 77.7605 38.4156 76.1284 37.6811 74.9451C36.9059 73.7006 35.9674 71.844 34.5597 71.4564C33.0296 71.0279 31.7035 72.3132 31.3362 73.9046ZM34.9677 74.741C34.9473 74.7002 34.9269 74.6594 34.9065 74.6186C34.9473 74.7002 34.9473 74.6186 34.8861 74.3738C35.0697 74.4554 35.1105 74.5778 34.9677 74.741Z"
    fill="white" />
  <path
    d="M23.421 100.467C21.8501 98.8552 19.2795 99.2021 17.6881 100.732C17.1577 100.997 16.7292 101.528 16.6272 102.324C16.3824 102.956 16.26 103.67 16.3212 104.445C16.3824 105.139 16.5864 105.812 16.9129 106.383C17.4841 108.485 18.7694 110.137 21.136 109.444C24.6247 108.403 25.808 102.895 23.421 100.467Z"
    fill="white" />
  <path
    d="M37.6617 118.053C37.4984 118.441 37.376 118.869 37.3352 119.277C37.1516 119.645 37.0904 120.073 37.1516 120.563C37.274 121.358 37.6004 122.032 38.0696 122.542C38.6001 123.256 39.355 123.684 40.2731 123.807C40.6199 123.847 40.9871 123.745 41.2931 123.521C41.5992 123.46 41.9052 123.358 42.1908 123.215C44.4962 122.072 45.047 118.89 43.5781 117.013C41.9868 114.993 38.8653 115.279 37.6617 118.053ZM40.6811 119.461L40.6811 119.481C40.6607 119.481 40.6403 119.461 40.6403 119.461C40.5995 119.441 40.5994 119.441 40.5994 119.42C40.6198 119.42 40.6199 119.42 40.6403 119.441C40.6607 119.461 40.6811 119.461 40.6811 119.461ZM40.7423 119.502L40.7423 119.481C40.7831 119.502 40.8035 119.502 40.7423 119.502ZM40.9871 119.747C40.9871 119.726 40.9667 119.706 40.9463 119.706C40.9667 119.685 40.9871 119.706 40.9871 119.747ZM40.9667 119.481C40.9667 119.481 40.9667 119.502 40.9667 119.481C40.9667 119.441 40.9667 119.4 40.9871 119.359C40.9667 119.42 40.9667 119.461 40.9667 119.481Z"
    fill="white" />
  <path
    d="M50.1061 92.2449C49.596 92.2449 49.1064 92.4081 48.678 92.6733C47.4131 92.3061 45.6586 93.8362 46.2706 95.6316C46.4542 96.162 46.699 96.6516 47.005 97.0801C47.1275 97.5901 47.3315 98.0797 47.6171 98.5082C49.188 100.834 52.4931 99.8547 53.3703 96.9168C53.8192 95.3663 53.5336 93.6526 52.4115 92.7141C51.9422 92.3265 51.3914 92.2245 50.861 92.3469C50.5958 92.2653 50.3713 92.2449 50.1061 92.2449Z"
    fill="white" />
  <path
    d="M53.146 114.32C53.8192 115.442 54.5129 116.584 55.1862 117.707C55.7166 118.584 57.0019 118.543 57.7567 117.849C58.43 117.217 58.5932 116.319 58.3688 115.544C58.3892 115.544 58.43 115.544 58.4504 115.544C59.8173 115.36 60.4905 113.177 59.6745 112.157C58.2872 110.423 55.941 109.934 53.9008 111.137C52.7584 111.81 52.5135 113.279 53.146 114.32Z"
    fill="white" />
  <path
    d="M30.4592 119.053C30.4184 117.646 29.1943 116.687 27.9702 116.707C27.6642 116.707 27.3785 116.768 27.0929 116.87C26.6236 116.666 26.0524 116.687 25.6036 116.972C24.6447 117.564 24.2978 118.686 24.6039 119.747C24.8895 120.747 25.7056 121.502 26.6032 121.767C26.6644 121.787 26.7461 121.808 26.8073 121.808C27.1133 121.93 27.3989 122.073 27.7049 122.195C28.5618 122.583 29.7859 121.869 30.1123 120.849C30.1531 120.686 30.1939 120.543 30.2143 120.4C30.4183 119.992 30.4796 119.482 30.4592 119.053Z"
    fill="white" />
</svg>