<svg width="137" height="249" viewBox="0 0 137 249" fill="none" xmlns="http://www.w3.org/2000/svg">
  <path
    d="M121.511 189.387C118.389 168.142 98.2635 146.976 109.004 128.362C115.857 116.482 133.469 111.691 135.806 98.1628C136.591 93.6664 135.374 89.0718 133.96 84.7325C128.914 69.2993 120.471 54.2589 106.864 45.4034C96.6141 38.7275 83.007 36.5087 71.6973 40.3768C54.3988 31.1091 40.2419 16.1668 22.4918 7.52738C0.696869 -3.09519 -26.753 -2.83993 -46.8986 10.6297C-67.0442 24.119 -77.8041 51.3332 -69.7538 74.2081C-61.7819 96.8473 -37.9646 112.889 -35.6281 136.765C-34.234 150.922 -40.8903 164.49 -43.3643 178.51C-49.7653 214.834 -24.2986 253.084 10.9464 264.02C46.1717 274.957 87.0322 259.602 108.925 229.914C117.525 218.231 123.612 203.741 121.511 189.387Z"
    fill="#6FABF6" />
  <path
    d="M92.5497 192.529C90.3309 179 82.6339 167.376 78.7461 154.378C76.8219 147.957 76.0562 141.124 78.7854 134.821C81.338 128.95 86.3449 124.886 91.293 121.057C99.4808 114.695 108.14 107.921 107.001 96.4151C105.764 83.8879 98.4597 69.9666 90.7824 60.2276C82.5946 49.8603 71.2259 42.3598 57.9134 40.8871C54.811 40.5533 51.6891 40.5337 48.5867 40.9067C44.7382 41.3584 42.0875 42.7917 38.5532 40.6908C31.9362 36.7834 25.7904 32.1495 19.6643 27.5353C8.00108 18.7388 -3.83885 9.903 -17.9957 5.54401C-30.5229 1.67591 -44.0908 1.02793 -56.8929 3.99283C-81.2992 9.62809 -100.365 29.7148 -103.585 54.7495C-105.136 66.8839 -102.269 78.4883 -96.1433 88.993C-89.6638 100.126 -80.7298 109.59 -74.2109 120.684C-70.6766 126.692 -67.9081 133.27 -67.2209 140.241C-66.3962 148.644 -68.4971 156.93 -70.7159 164.961C-74.2698 177.743 -77.0973 189.878 -75.232 203.191C-71.8744 227.126 -56.7161 248.979 -36.0993 261.389C7.90285 287.857 73.7785 263.156 90.2916 214.5C92.6674 207.51 93.5313 200.226 92.6085 192.882C92.3925 191.194 89.7222 191.174 89.9382 192.882C93.4725 221 70.1656 246.427 46.9766 258.777C25.0835 270.441 -1.97361 273.622 -25.2019 263.922C-47.6448 254.556 -65.1199 233.939 -71.089 210.416C-74.3484 197.575 -73.4255 185.008 -69.9894 172.324C-66.5729 159.719 -62.3121 146.995 -65.6501 133.879C-71.521 110.847 -94.0031 96.4543 -99.8936 73.4224C-106.275 48.427 -91.4309 21.5073 -68.5953 10.8455C-55.8914 4.91569 -41.2634 3.52159 -27.5385 5.99561C-13.6172 8.5089 -1.60046 15.2437 9.72897 23.4512C15.3053 27.496 20.705 31.7568 26.301 35.782C28.9713 37.7062 31.6809 39.5716 34.4494 41.3191C36.3344 42.5168 39.2012 45.0105 41.4788 45.2265C42.5784 45.3246 44.3063 44.4214 45.4451 44.1662C47.2908 43.7538 49.1758 43.5182 51.0607 43.3808C54.7718 43.1452 58.5221 43.4789 62.1349 44.284C69.2232 45.8351 75.6242 49.2516 81.122 53.9444C91.5875 62.8587 98.2438 75.7001 102.446 88.6003C104.88 96.0813 105.509 103.327 100.247 109.708C97.1049 113.517 92.9423 116.423 89.0742 119.447C81.2594 125.553 74.6031 132.563 74.3282 143.068C74.0141 154.476 80.101 165.275 84.4207 175.466C86.8555 181.219 88.9761 187.051 89.9971 193.236C90.2524 194.924 92.8245 194.217 92.5497 192.529Z"
    fill="#4C4C4C" />
</svg>