<svg width="136" height="194" viewBox="0 0 136 194" fill="none" xmlns="http://www.w3.org/2000/svg">
  <path
    d="M206.074 114.659C210.003 107.483 215.015 101.153 219.98 94.7062C224.662 88.6122 229.391 82.024 231.18 74.4241C231.98 71.0359 232.427 67.083 231.415 63.7183C230.944 62.1419 230.05 60.7066 228.639 59.8125C227.015 58.8007 225.039 58.6125 223.18 58.4948C205.792 57.5066 190.309 67.2477 173.486 69.8359C165.886 71.0124 157.627 70.8947 150.592 67.3889C144.475 64.3536 140.169 59.083 137.345 52.9655C131.675 40.7067 131.204 26.7069 125.369 14.4952C122.404 8.30704 117.298 2.14239 110.381 0.448283C104.451 -1.01053 98.6397 1.20125 94.4751 5.48356C90.0987 9.97764 87.3928 15.9776 85.4163 21.8599C84.2634 25.3187 83.4164 28.8716 82.5458 32.401C81.3929 37.1303 80.2164 41.8597 79.0635 46.5655C77.9105 51.2008 76.7811 55.8596 75.6282 60.4948C74.64 64.5418 73.8165 68.7065 72.1694 72.5653C70.6871 76.0712 68.2871 79.0594 64.8283 80.7299C61.6048 82.2829 57.9342 82.6122 54.4049 82.3064C39.4638 81.0358 26.1463 66.4006 10.6406 72.3535C10.17 72.5417 5.88767 74.4241 5.08768 75.6005C2.26418 78.0005 0.523017 85.9063 0.828896 86.0475C-1.00638 94.7298 0.40537 104.259 3.11123 112.612C8.14647 128.235 18.3581 141.929 21.064 158.353C24.0287 176.376 15.2052 193.058 11.0876 210.117C8.38177 221.364 9.15823 238.54 23.3934 241.081C27.511 241.811 31.7227 241.223 35.8168 240.54C40.0285 239.834 44.1932 238.823 48.2873 237.575C56.3813 235.058 64.0989 231.505 71.2753 227.011C83.9811 219.058 95.7221 208.023 110.64 204.376C117.44 202.705 124.451 203.011 131.157 205.011C137.463 206.893 143.298 210.093 148.828 213.623C160.404 220.987 171.016 230.07 183.674 235.599C190.215 238.47 198.051 240.917 205.203 238.987C212.45 237.034 216.592 230.281 217.956 223.27C220.733 208.87 214.098 195.199 207.98 182.611C204.709 175.858 201.368 169.059 199.227 161.835C196.968 154.212 196.404 146.329 197.604 138.471C198.898 130.141 202.003 122.071 206.074 114.659Z"
    fill="currentColor" />
  <path
    d="M134.804 46.4244C134.546 45.6008 134.287 44.7773 134.051 43.9538C123.369 44.7773 112.546 44.095 101.958 42.3773C94.993 41.2479 88.0519 39.742 81.2049 38.0244C81.0167 38.8244 80.8049 39.6009 80.6167 40.4009C85.9814 41.742 91.3695 42.9655 96.8048 43.9773C109.299 46.3302 122.122 47.4361 134.804 46.4244Z"
    fill="white" />
  <path
    d="M159.346 78.7063C180.122 78.0005 200.663 73.3182 220.098 66.0241C223.604 64.7065 227.11 63.2947 230.569 61.8124C230.075 61.0359 229.463 60.3301 228.639 59.836C228.427 59.6948 228.216 59.6007 228.004 59.483C227.345 59.7654 226.663 60.0712 226.004 60.33C206.875 68.3064 186.569 73.6711 165.887 75.2711C155.675 76.0711 145.416 75.9534 135.252 74.8005C123.864 73.5299 112.593 71.3417 101.44 68.7064C92.6875 66.6359 84.0288 64.3065 75.3465 61.9771C75.1583 62.8006 74.9465 63.6477 74.7583 64.4712C80.97 66.1888 87.1817 67.93 93.4169 69.53C114.923 75.0593 136.993 79.4828 159.346 78.7063Z"
    fill="white" />
  <path
    d="M79.6521 102.824C105.652 104.636 131.84 103.436 157.628 99.8828C180.992 96.6593 204.239 91.6476 226.851 84.8241C227.557 83.6006 228.239 82.3536 228.827 81.083C209.533 87.0359 189.722 91.5535 169.863 94.8946C144.663 99.1299 119.087 101.153 93.5343 100.471C79.0874 100.095 64.6404 98.824 50.3817 96.5417C38.4289 94.6358 26.5231 91.977 15.1115 87.9065C10.4998 86.2594 6.02921 84.33 1.69983 82.2124C1.41748 83.13 1.18219 84.0006 1.04102 84.683C3.2057 85.7653 5.41744 86.8006 7.65272 87.7653C30.2643 97.4123 55.2523 101.106 79.6521 102.824Z"
    fill="white" />
  <path
    d="M75.5339 134.447C99.6042 134.965 123.886 133.788 147.745 130.588C166.686 128.047 185.439 124.141 203.839 118.988C204.356 117.93 204.874 116.894 205.415 115.859C190.168 120.235 174.686 123.741 159.039 126.306C136.051 130.094 112.804 131.671 89.5337 131.977C63.7693 132.306 37.3695 130.988 12.8992 122.282C10.4756 121.412 8.07567 120.494 5.69922 119.553C6.09922 120.518 6.52274 121.482 6.94627 122.447C17.4638 126.588 28.2637 129.624 39.4401 131.435C51.3929 133.388 63.4634 134.188 75.5339 134.447Z"
    fill="white" />
  <path
    d="M165.629 166.517C176.546 163.388 187.205 159.623 197.746 155.529C197.581 154.541 197.44 153.553 197.322 152.565C189.511 155.6 181.605 158.4 173.605 160.941C147.464 169.2 120.311 174.235 92.8292 174.212C68.5941 174.212 44.0767 170.682 21.5122 161.718C21.6063 162.706 21.6534 163.694 21.6769 164.682C41.1826 172.306 61.9824 176.023 83.0175 176.988C110.97 178.259 138.805 174.188 165.629 166.517Z"
    fill="white" />
  <path d="M65.653 152.235C65.7 152.117 65.7 152.047 65.7706 151.882C65.5118 152.141 65.5353 152.211 65.653 152.235Z" fill="white" />
  <path
    d="M66.9472 150.682C66.5472 150.635 66.2649 150.376 66.3825 149.882C65.8413 150.117 65.3237 150.376 64.7825 150.8C64.6178 151.082 64.406 151.341 64.3119 151.294C64.0061 151.2 63.959 150.941 64.1708 150.823C64.3355 150.729 64.5472 150.682 64.7355 150.635C64.6413 149.67 64.0531 149.788 63.159 150C63.7708 150.917 62.7355 151.153 62.4531 151.812C63.2061 152.212 63.959 152.588 64.7119 152.988C64.7119 152.517 64.9708 152.259 65.5355 152C65.6296 151.717 65.8413 151.623 65.7707 151.859C66.1001 151.6 66.2649 151.741 66.2413 151.764C66.1472 151.929 66.0296 152.141 65.8649 152.212C65.5355 152.564 65.5119 152.8 65.4884 153.012C66.006 153.035 66.5472 153.035 67.0649 153.059C67.206 152.47 66.7119 151.553 67.8884 151.506C67.9825 150.776 67.4884 150.753 66.9472 150.682Z"
    fill="white" />
  <path
    d="M60.7596 141.906C60.5243 141.6 60.2184 141.341 59.9125 141.082C59.1125 141.6 59.8184 142.541 59.3243 143.176C58.8067 143.835 57.7479 144.141 57.8655 145.6C59.7478 145.2 60.689 144.541 61.0419 143.435C61.2302 142.823 61.089 142.376 60.8066 142C61.6772 141.859 62.3125 142.259 62.6184 141.482C62.1243 140.918 61.6302 141.012 60.7596 141.906Z"
    fill="white" />
  <path
    d="M55.1828 155.859C55.1593 156.376 55.1593 156.917 55.1357 157.435C55.771 157.341 55.8887 158 56.2181 158.188C57.4181 157.623 57.6534 156.4 58.1945 155.411C57.0181 154.541 56.1475 155.482 55.1828 155.859Z"
    fill="white" />
  <path d="M56.3587 162.776C57.1587 161.27 55.794 160.259 55.2999 159.011C55.2764 160.329 54.2411 162.07 56.3587 162.776Z" fill="white" />
  <path
    d="M43.3237 154.306C44.0296 154.753 44.1943 155.529 44.1943 155.529C45.3002 154.988 45.9119 154.682 47.0178 154.141C45.4414 154.047 44.4531 153.67 43.3237 154.306Z"
    fill="white" />
  <path
    d="M50.1003 141.529C50.4767 141.506 50.8297 141.6 50.712 142.07C50.6885 142.188 50.312 142.235 50.0767 142.306C50.0767 142.565 50.0532 142.823 50.0532 143.082C52.1238 143.623 51.5356 141.67 53.065 140.682C51.4179 140.988 50.3826 140.07 50.1003 141.529Z"
    fill="white" />
  <path
    d="M78.7587 113.388C78.3116 113.624 78.4528 114.047 78.4528 114.4C78.4528 114.753 78.4999 115.106 78.5704 115.882C80.4998 113.788 80.5234 113.788 78.7587 113.388Z"
    fill="white" />
  <path d="M104.17 175.811C104.947 176.446 105.723 176.447 106.547 175.905C105.982 174.282 105.982 174.282 104.17 175.811Z" fill="white" />
  <path
    d="M72.1478 168.164C71.5125 168.258 70.5242 167.717 70.5478 169.011C70.5478 169.435 70.7831 169.67 71.2066 169.694C72.4772 169.788 72.0066 168.8 72.1478 168.164Z"
    fill="white" />
  <path d="M56.3818 164.941C57.2995 165.505 58.0054 165.529 58.9465 165.011C57.9583 164.423 57.2524 164.47 56.3818 164.941Z" fill="white" />
  <path d="M21.3716 194.305C21.9363 193.388 21.9599 192.682 21.4422 191.741C20.8305 192.729 20.8775 193.435 21.3716 194.305Z"
    fill="white" />
  <path d="M80.4771 159.859C80.7594 160.423 81.0182 160.941 81.3947 161.694C82.03 160.141 81.9123 159.553 80.4771 159.859Z" fill="white" />
  <path
    d="M52.7827 156.564C52.8298 157.011 52.7121 157.647 52.9709 157.906C53.4651 158.376 53.5827 157.458 53.9827 157.411C54.1003 157.388 54.218 157.411 54.3356 157.411C54.3121 156.211 53.3945 156.706 52.7827 156.564Z"
    fill="white" />
  <path d="M110.077 149.717C110.689 148.729 110.642 148.023 110.147 147.153C109.606 148.07 109.583 148.753 110.077 149.717Z" fill="white" />
  <path d="M67.7227 144.423C68.3109 143.906 68.3345 143.388 67.7698 142.823C67.1815 143.365 67.158 143.882 67.7227 144.423Z" fill="white" />
  <path
    d="M49.276 143.106C49.0407 143.129 48.6642 143.223 48.6407 143.341C48.523 143.812 48.876 143.882 49.2525 143.882C49.5113 143.882 49.7701 143.906 50.0289 143.906C50.0289 143.647 50.0525 143.388 50.0525 143.129C49.7936 143.106 49.5113 143.059 49.276 143.106Z"
    fill="white" />
  <path
    d="M50.03 143.906C50.03 144.141 50.0065 144.376 50.0065 144.612C49.3006 144.659 48.7594 144.423 48.4771 145.106C48.9947 145.647 49.5123 145.6 50.43 144.565C50.7594 143.976 50.4064 143.882 50.03 143.906Z"
    fill="white" />
  <path d="M113.7 146.965C114.218 147.553 114.735 147.576 115.3 147.012C114.783 146.423 114.241 146.4 113.7 146.965Z" fill="white" />
  <path
    d="M63.6531 146.776C63.1355 146.917 63.1355 147.623 63.6061 148.164C63.7708 148.023 64.0766 147.812 64.0531 147.765C63.8649 147.435 64.4296 146.706 63.8413 146.729C64.7825 146.494 64.7825 147.247 65.4413 147.482C65.3943 146.847 66.5001 146.941 66.3119 146.117C65.5119 145.953 64.7825 145.6 63.6531 146.776Z"
    fill="white" />
  <path d="M91.9353 150.659C92.5236 150.141 92.5471 149.623 91.9824 149.082C91.3942 149.576 91.3942 150.094 91.9353 150.659Z"
    fill="white" />
  <path
    d="M67.9113 151.506C67.8878 152.023 67.8878 152.565 67.8643 153.082C68.3348 153.176 68.5937 152.894 68.6643 152.518C68.7113 151.976 68.6407 151.482 67.9113 151.506Z"
    fill="white" />
  <path
    d="M55.0883 158.988C55.1119 158.47 55.1119 157.929 55.1354 157.411C54.8766 157.411 54.6177 157.388 54.3589 157.388C54.453 158 53.9119 158.894 55.0883 158.988Z"
    fill="white" />
  <path d="M53.7717 159.835C53.3246 160.282 53.3481 160.729 53.8422 161.388C54.3599 160.682 54.6187 160.188 53.7717 159.835Z"
    fill="white" />
  <path d="M28.2183 165.012C28.6653 165.459 29.1124 165.435 29.7712 164.941C29.0653 164.4 28.5712 164.164 28.2183 165.012Z" fill="white" />
  <path
    d="M72.1938 167.058C72.4055 167.411 71.6761 168.258 72.4996 168.117C73.1349 168 73.1349 167.223 72.6408 166.658C72.4761 166.8 72.1702 167.011 72.1938 167.058Z"
    fill="white" />
  <path d="M54.4065 168.423C54.9948 167.906 55.0183 167.388 54.4536 166.847C53.8654 167.364 53.8654 167.882 54.4065 168.423Z"
    fill="white" />
  <path d="M52.5713 177.035C53.1595 176.517 53.183 176 52.6183 175.458C52.0536 175.952 52.0301 176.494 52.5713 177.035Z" fill="white" />
  <path d="M42.7114 177.905C43.2291 178.494 43.7467 178.517 44.2879 177.952C43.7702 177.364 43.2526 177.364 42.7114 177.905Z"
    fill="white" />
  <path
    d="M69.5593 184.47C69.6064 184.517 69.7711 184.517 69.8181 184.47C70.2417 184.046 70.2417 183.623 69.7005 182.988C69.2064 183.599 69.1123 184.046 69.5593 184.47Z"
    fill="white" />
  <path d="M34.4067 190.282C35.042 190.776 35.4656 190.87 35.9126 190.423C35.4891 189.741 35.042 189.741 34.4067 190.282Z" fill="white" />
  <path d="M55.2537 192.846C55.8419 192.329 55.8655 191.811 55.3008 191.27C54.7125 191.788 54.7125 192.305 55.2537 192.846Z" fill="white" />
  <path d="M62.1475 119.859C62.7357 119.341 62.7593 118.824 62.1946 118.282C61.6063 118.8 61.5828 119.318 62.1475 119.859Z" fill="white" />
  <path d="M85.2531 133.224C84.806 133.671 84.8296 134.118 85.3237 134.777C85.8649 134.071 86.1001 133.577 85.2531 133.224Z" fill="white" />
  <path d="M91.2764 135.482C91.7705 135.718 92.194 135.882 92.8293 135.318C92.1469 134.8 91.6528 134.541 91.2764 135.482Z" fill="white" />
  <path
    d="M101.77 101.647C101.864 101.812 101.935 102 102.029 102.165C102.123 102.071 102.288 101.977 102.288 101.906C102.241 101.718 102.146 101.553 102.052 101.365C101.982 101.459 101.888 101.53 101.77 101.647Z"
    fill="white" />
  <path
    d="M78.7124 110.377C78.7359 110.565 78.8536 110.73 78.9477 110.918C79.0418 110.824 79.1359 110.753 79.23 110.635C79.1359 110.471 79.0653 110.283 78.9712 110.118C78.8771 110.212 78.7124 110.306 78.7124 110.377Z"
    fill="white" />
  <path
    d="M83.8643 134.776C83.6996 134.871 83.5349 134.941 83.3467 135.035C83.4408 135.129 83.5349 135.294 83.6055 135.294C83.7937 135.247 83.9584 135.153 84.1467 135.059C84.0526 134.988 83.9584 134.894 83.8643 134.776Z"
    fill="white" />
  <path
    d="M35.0181 135.694C34.8534 135.788 34.6887 135.859 34.5005 135.953C34.5946 136.047 34.6887 136.212 34.7593 136.212C34.9475 136.188 35.1123 136.071 35.3005 135.976C35.2064 135.882 35.1358 135.812 35.0181 135.694Z"
    fill="white" />
  <path
    d="M61.5594 139.506C61.4653 139.67 61.3477 139.835 61.3006 140.023C61.2771 140.094 61.4418 140.188 61.5359 140.282C61.63 140.118 61.7241 139.953 61.8418 139.788C61.7241 139.694 61.6536 139.6 61.5594 139.506Z"
    fill="white" />
  <path
    d="M66.0063 140.682C66.0534 140.87 66.1475 141.035 66.2416 141.223C66.3358 141.129 66.5005 141.035 66.5005 140.964C66.4769 140.776 66.3593 140.612 66.2652 140.423C66.1711 140.517 66.0063 140.635 66.0063 140.682Z"
    fill="white" />
  <path
    d="M49.4654 141.788C49.3478 142.259 49.7007 142.353 50.0772 142.329C50.0772 142.07 50.1007 141.812 50.1007 141.553C49.8654 141.623 49.4889 141.647 49.4654 141.788Z"
    fill="white" />
  <path
    d="M63.841 142.729C63.7469 142.894 63.6528 143.059 63.5352 143.223C63.6293 143.341 63.7234 143.412 63.8175 143.506C63.9116 143.341 64.0293 143.176 64.0763 142.988C64.0763 142.941 63.9116 142.823 63.841 142.729Z"
    fill="white" />
  <path
    d="M65.8882 144.635C65.9352 144.823 66.0294 144.988 66.1235 145.176C66.2176 145.082 66.3117 145.012 66.4058 144.918C66.3117 144.753 66.2411 144.565 66.147 144.4C66.0529 144.447 65.8882 144.565 65.8882 144.635Z"
    fill="white" />
  <path
    d="M50.2888 147.835C50.1947 148 50.1006 148.164 49.9829 148.329C50.077 148.447 50.1711 148.517 50.2653 148.612C50.3594 148.447 50.477 148.282 50.5241 148.094C50.5476 148.047 50.3829 147.929 50.2888 147.835Z"
    fill="white" />
  <path
    d="M67.6773 148.423C67.5126 148.541 67.3009 148.635 67.2303 148.8C67.1361 148.965 67.1361 149.082 67.2067 149.153C66.6656 149.129 66.4067 149.365 66.4067 149.906C66.9479 149.929 67.2067 149.694 67.2067 149.153C67.2773 149.223 67.395 149.223 67.5597 149.153C67.7244 149.082 67.842 148.87 67.9361 148.706C67.9126 148.635 67.7479 148.517 67.6773 148.423Z"
    fill="white" />
  <path
    d="M68.9005 149.435C68.9475 149.623 69.0416 149.788 69.1357 149.976C69.2299 149.882 69.3946 149.788 69.3946 149.717C69.3475 149.529 69.2534 149.365 69.1593 149.176C69.0652 149.27 68.8769 149.364 68.9005 149.435Z"
    fill="white" />
  <path
    d="M69.6064 151.811C69.6535 152 69.7476 152.164 69.8417 152.353C69.9359 152.258 70.03 152.188 70.1241 152.07C70.03 151.906 69.9594 151.741 69.8653 151.553C69.7712 151.647 69.6064 151.741 69.6064 151.811Z"
    fill="white" />
  <path
    d="M44.4063 152.635C44.4298 152.823 44.5475 152.988 44.6416 153.176C44.7357 153.082 44.9004 152.988 44.9004 152.917C44.8769 152.729 44.7593 152.564 44.6651 152.376C44.571 152.47 44.3828 152.588 44.4063 152.635Z"
    fill="white" />
  <path
    d="M57.7244 153.106C57.6773 153.223 57.9362 153.411 58.0538 153.576C58.1715 153.576 58.2891 153.576 58.4068 153.576C58.3362 153.364 58.3126 153.153 58.195 152.964C58.0538 152.753 57.8185 152.8 57.7244 153.106Z"
    fill="white" />
  <path
    d="M64.7119 152.988C64.7825 153.2 64.8296 153.576 64.9707 153.623C65.4413 153.741 65.5354 153.388 65.5119 153.012C65.2296 153.012 64.9707 152.988 64.7119 152.988Z"
    fill="white" />
  <path
    d="M67.0645 153.059C67.135 153.27 67.1821 153.647 67.3233 153.694C67.7939 153.812 67.888 153.459 67.8644 153.082C67.6056 153.082 67.3233 153.059 67.0645 153.059Z"
    fill="white" />
  <path
    d="M52.547 153.482C52.3823 153.6 52.1705 153.694 52.1 153.859C52.0058 154.023 52.0058 154.141 52.0764 154.212C51.3235 154.306 50.4529 153.882 49.6294 154.941C51.0882 154.023 51.0647 155.859 52.0294 155.788C52.0529 155.27 52.0529 154.753 52.0764 154.212C52.147 154.282 52.2647 154.282 52.4294 154.212C52.5941 154.141 52.7117 153.929 52.8058 153.765C52.8058 153.694 52.6411 153.576 52.547 153.482Z"
    fill="white" />
  <path
    d="M54.5003 155.365C54.4532 155.482 54.712 155.67 54.8297 155.835C54.9473 155.835 55.065 155.835 55.1826 155.835C55.112 155.623 55.0885 155.412 54.9709 155.223C54.8532 155.035 54.5944 155.082 54.5003 155.365Z"
    fill="white" />
  <path
    d="M48.9946 155.953C49.0887 156.117 49.1593 156.282 49.2535 156.47C49.3476 156.376 49.5123 156.282 49.5123 156.211C49.4652 156.023 49.3711 155.859 49.277 155.67C49.1829 155.764 49.0887 155.859 48.9946 155.953Z"
    fill="white" />
  <path d="M52.0299 155.765C51.9828 156.306 52.2416 156.588 52.7828 156.565C52.8299 156.023 52.571 155.765 52.0299 155.765Z" fill="white" />
  <path
    d="M47.7241 168.211C47.6535 168 47.63 167.788 47.5124 167.6C47.3947 167.388 47.1594 167.435 47.0418 167.741C46.9947 167.858 47.2535 168.047 47.3712 168.211C47.4888 168.211 47.6065 168.211 47.7241 168.211C47.8183 168.847 47.2771 169.835 48.5712 169.811C48.9947 169.811 49.23 169.576 49.2771 169.152C49.3476 167.882 48.3594 168.353 47.7241 168.211Z"
    fill="white" />
  <path
    d="M58.665 171.294C58.8297 171.388 58.9944 171.482 59.1591 171.576C59.2768 171.482 59.3474 171.388 59.4415 171.317C59.2768 171.223 59.1121 171.105 58.9239 171.058C58.8533 171.035 58.7356 171.223 58.665 171.294Z"
    fill="white" />
  <path
    d="M72.9467 179.223C72.782 179.129 72.6644 179.129 72.5938 179.199C72.5232 178.988 72.4996 178.776 72.382 178.588C72.2644 178.376 72.0291 178.423 71.9114 178.729C71.8644 178.823 72.1232 179.035 72.2408 179.199C72.3585 179.199 72.4761 179.199 72.5938 179.199C72.5232 179.27 72.5232 179.388 72.5938 179.552C72.6644 179.717 72.8761 179.835 73.0408 179.929C73.0643 179.952 73.2055 179.788 73.2996 179.694C73.182 179.505 73.0879 179.294 72.9467 179.223Z"
    fill="white" />
  <path
    d="M72.6639 182.07C72.6404 182.141 72.8051 182.235 72.8992 182.329C72.9933 182.164 73.0874 181.999 73.2051 181.835C73.1109 181.717 73.0168 181.646 72.9227 181.552C72.8286 181.741 72.711 181.905 72.6639 182.07Z"
    fill="white" />
  <path
    d="M71.3239 182.305C71.2298 182.47 71.1357 182.635 71.0181 182.8C71.1122 182.917 71.2063 182.988 71.3004 183.082C71.3945 182.917 71.5122 182.753 71.5592 182.564C71.5828 182.494 71.4181 182.4 71.3239 182.305Z"
    fill="white" />
  <path
    d="M72.4526 184.305C72.6173 184.4 72.7821 184.494 72.9468 184.611C73.0644 184.517 73.135 184.423 73.2291 184.329C73.0644 184.235 72.8997 184.117 72.7115 184.07C72.6409 184.047 72.5232 184.211 72.4526 184.305Z"
    fill="white" />
  <path
    d="M32.359 186.917C32.406 187.105 32.5001 187.27 32.5942 187.458C32.6884 187.364 32.8531 187.27 32.8531 187.2C32.8295 187.011 32.7119 186.847 32.6178 186.658C32.5237 186.752 32.3354 186.847 32.359 186.917Z"
    fill="white" />
  <path
    d="M22.3121 188.729C22.218 188.894 22.1003 189.058 22.0533 189.247C22.0298 189.317 22.218 189.411 22.2886 189.505C22.3827 189.341 22.4768 189.176 22.5945 189.011C22.4768 188.894 22.4062 188.799 22.3121 188.729Z"
    fill="white" />
  <path
    d="M104.334 27.5303C104.405 27.8362 104.546 27.8597 104.71 27.7421C104.64 27.6244 104.569 27.5538 104.522 27.3656C104.452 27.4832 104.381 27.4362 104.334 27.5303Z"
    fill="white" />
  <path d="M105.37 28.8716C105.488 28.4951 105.441 28.4245 105.347 28.401C105.088 28.4951 105.041 28.7069 105.37 28.8716Z" fill="white" />
  <path
    d="M113.559 6.58938C113.347 6.63644 113.253 6.73057 113.229 6.82469C112.288 6.21293 110.429 6.35412 111.347 4.18943C110.853 4.40119 110.476 4.56583 110.1 4.70701C109.676 4.87171 109.276 4.89525 109.017 4.42467C109.112 4.42467 109.229 4.35411 109.3 4.16588C109.394 3.97765 109.323 3.71883 109.3 3.50707C109.3 3.46001 109.041 3.48349 108.9 3.45996C108.853 3.67172 108.735 3.90701 108.782 4.11878C108.829 4.33054 108.923 4.42469 109.017 4.44822C107.041 6.02467 107.041 6.02466 105.794 4.73056C105.888 4.73056 106.006 4.66 106.1 4.47177C106.194 4.28354 106.123 4.02472 106.1 3.81296C106.1 3.7659 105.841 3.78938 105.7 3.76585C105.653 3.97761 105.535 4.2129 105.582 4.42467C105.629 4.63643 105.723 4.73058 105.817 4.75411C105.159 5.15411 105.629 6.94229 104.053 6.18936C104.217 7.13052 104.288 8.07175 104.594 8.96586C104.759 9.45997 105.229 9.60112 105.723 8.9423C105.676 8.75407 105.817 8.51876 105.912 8.77758C106.006 8.307 106.241 8.30699 106.264 8.33052C106.312 8.54228 106.359 8.82463 106.264 8.98934C106.241 9.43639 106.453 9.64819 106.759 9.76584C107.041 9.67172 107.276 9.78934 106.994 9.88346C107.464 9.97757 107.464 10.2129 107.441 10.2364C107.276 10.2599 107.088 10.2834 106.923 10.2364C106.547 11.554 106.712 11.7658 107.582 11.2717C108.17 10.9423 109.323 12.0011 109.464 10.3541C109.535 9.60113 110.994 10.0717 111.535 8.96586C111.464 8.70703 111.582 8.47168 111.676 8.75403C111.77 8.28345 112.006 8.28351 112.029 8.30704C112.053 8.49527 112.076 8.70704 112.029 8.89527C113.253 9.43644 113.511 9.24814 113.182 8.23638C113.017 7.69521 112.664 7.29523 113.276 6.84817C113.276 6.94229 113.347 7.05994 113.535 7.15406C113.723 7.24818 113.982 7.17759 114.194 7.15406C114.241 7.15406 114.217 6.89528 114.241 6.75411C114.006 6.68352 113.77 6.54233 113.559 6.58938Z"
    fill="white" />
  <path
    d="M116.499 20.7069C116.452 20.9187 116.334 21.154 116.381 21.3657C116.429 21.5775 116.523 21.6716 116.617 21.6951C114.382 22.3304 112.146 21.0128 109.582 21.5304C110.711 22.354 110.64 24.1892 112.311 23.3657C112.57 22.8481 112.805 22.848 112.829 22.8716C112.876 23.0833 112.923 23.3657 112.829 23.5304C112.758 23.6951 112.64 23.7657 112.57 23.7657C112.829 25.201 112.805 26.448 114.499 26.9421C113.911 25.0598 116.193 24.9186 116.452 23.2716C116.593 22.3775 117.111 22.4716 116.64 21.6951C116.734 21.6951 116.852 21.6245 116.946 21.4363C117.04 21.2481 116.97 20.9893 116.946 20.7775C116.876 20.7069 116.64 20.7304 116.499 20.7069Z"
    fill="white" />
  <path
    d="M102.453 35.295C102.43 35.1303 102.406 34.9892 102.359 34.8245C102.288 34.8715 102.265 34.848 102.194 34.8715C102.241 35.2244 102.359 35.3185 102.453 35.295Z"
    fill="white" />
  <path
    d="M107.111 70.1182C108.17 69.7182 108.5 71.1535 109.676 70.9888C110.476 69.4829 111.37 68.2829 111.182 67.2006C109.629 66.8947 108.194 66.6123 106.806 66.33C106.288 67.6946 107.229 68.8476 107.111 70.1182ZM109.111 68.4005C109.017 68.6123 108.947 68.8241 108.806 68.9888C108.758 69.0358 108.547 68.9653 108.406 68.9417C108.5 68.73 108.57 68.5182 108.711 68.3535C108.735 68.3064 108.97 68.4005 109.111 68.4005Z"
    fill="white" />
  <path
    d="M106.524 74.5653C106.829 74.8947 106.994 75.2477 106.5 75.5065C106.359 75.5771 106.053 75.2712 105.818 75.13C105.206 76.0477 104.9 76.9653 105.3 77.4358C107.441 79.2476 108.524 77.2476 109.018 76.6594C109.841 75.6947 109.253 74.1653 107.606 73.7183C107.229 74.0006 106.876 74.2829 106.524 74.5653Z"
    fill="white" />
  <path
    d="M120.006 34.6127C120.029 34.2127 120.029 33.8127 120.053 33.3892C119.723 33.4597 119.276 33.4598 119.206 33.601C118.829 34.5422 119.182 36.3303 119.912 37.2244C119.959 37.295 120.241 37.1068 120.476 36.7303C120.406 36.495 120.523 36.2362 120.617 36.5186C120.712 36.048 120.947 36.048 120.97 36.0715C121.017 36.2833 121.064 36.5656 120.97 36.7303C120.947 37.2715 121.088 37.5068 121.229 37.695C122.759 37.4598 122.759 37.4597 123.347 36.0009C122.688 34.4715 121.112 35.0598 120.006 34.6127Z"
    fill="white" />
  <path
    d="M117.699 89.6473C117.535 89.812 117.511 90.1415 117.417 90.4003C118.358 90.2356 118.923 91.0356 119.699 91.318C120.382 90.8709 121.323 90.6592 121.37 89.4827C120.123 88.3298 118.876 88.4709 117.699 89.6473Z"
    fill="white" />
  <path
    d="M115.583 96.1179C116.453 97.4826 117.041 98.3061 117.535 98.7061C117.441 98.0709 117.441 97.4591 117.206 96.8944C116.618 96.8238 116.03 96.6826 115.583 96.1179Z"
    fill="white" />
  <path
    d="M126.523 69.8124C125.817 68.9654 124.805 69.083 123.864 68.9889C124.076 69.5536 124.1 70.1654 124.194 70.8007C124.923 71.3419 125.464 70.9418 126.523 69.8124Z"
    fill="white" />
  <path
    d="M112.665 72.1182C112.076 72.5887 111.488 73.0593 110.923 73.5064C112.382 74.0711 112.382 74.0711 112.617 75.624C113.206 75.0122 114.147 74.7299 114.429 73.7887C113.959 73.0828 113.77 72.1417 112.665 72.1182Z"
    fill="white" />
  <path
    d="M116.17 41.4596C115.982 41.9772 115.252 42.189 115.417 43.1537C116.546 42.4478 117.676 41.9537 118.311 40.4949C117.252 40.0008 116.24 39.5067 114.923 38.8949C115.111 40.1419 116.264 40.5184 116.17 41.4596Z"
    fill="white" />
  <path d="M103.652 39.9772C102.734 38.8243 101.864 37.7185 100.899 36.542C100.57 39.7184 100.57 39.7184 103.652 39.9772Z" fill="white" />
  <path
    d="M99.3472 110.235C100.641 110.306 101.465 111.929 102.853 111.482C103.206 111.365 103.535 111.035 103.747 110.73C103.841 110.588 103.629 110.235 103.535 109.977C103.512 109.93 99.4413 109.977 99.3472 110.235Z"
    fill="white" />
  <path
    d="M84.7119 44.6361C85.3472 45.9302 85.9119 46.3538 86.6413 45.5774C87.6531 44.495 87.7942 47.0597 88.7354 46.0009C88.7825 45.4597 88.806 44.895 88.8295 44.6361C87.4178 43.5303 86.2884 44.942 84.7119 44.6361Z"
    fill="white" />
  <path
    d="M88.2412 70.6124C88.6412 69.8124 89.0177 68.9889 89.4177 68.1418C88.5 68.3536 87.6059 68.5418 86.7354 68.7536C86.9001 69.6477 87.4177 70.2594 88.2412 70.6124Z"
    fill="white" />
  <path
    d="M105.652 54.8949C105.605 55.4361 105.558 55.9772 105.511 56.5184C106.17 56.589 106.758 56.6596 107.346 56.7302C107.675 54.942 107.675 54.942 105.652 54.8949Z"
    fill="white" />
  <path
    d="M115.958 80.6827C115.441 80.118 115.253 79.5297 114.476 79.7886C114.406 80.6356 114.829 81.0357 116.335 81.0827C116.994 81.8356 117.794 82.118 118.876 81.9062C118.288 80.1886 117.135 80.5886 115.958 80.6827Z"
    fill="white" />
  <path
    d="M30.8297 121.623C30.1944 122.141 30.4061 122.635 30.8297 123.059C31.1591 123.388 31.5355 123.412 31.9591 123.082C32.6179 122.565 32.3591 122.118 31.9826 121.647C31.5826 121.365 31.2532 121.271 30.8297 121.623Z"
    fill="white" />
  <path
    d="M16.2888 98.4709C16.6653 98.6591 17.2535 98.965 18.0299 99.365C17.7241 97.9532 17.2535 97.318 15.9829 96.8239C16.1241 97.6003 16.2417 98.2591 16.2888 98.4709Z"
    fill="white" />
  <path d="M82.8057 65.6477C83.9821 65.13 84.8762 64.4712 85.2998 63.3182C84.3115 63.8594 82.8527 63.93 82.8057 65.6477Z" fill="white" />
  <path
    d="M105.017 102.306C104.382 102.824 104.57 103.318 105.017 103.741C105.346 104.071 105.723 104.094 106.146 103.765C106.805 103.247 106.546 102.8 106.17 102.33C105.793 102.047 105.464 101.953 105.017 102.306Z"
    fill="white" />
  <path
    d="M88.8056 96.1179C88.0762 95.2944 87.6997 94.5415 86.5703 94.2356C86.5703 94.9415 86.5703 95.5768 86.5703 96.212C87.2291 96.2826 87.8409 96.3532 89.1585 96.5179C89.0409 96.4003 88.9703 96.3061 88.8526 96.1885C89.4879 96.7061 90.2173 96.6827 91.0644 96.5415C90.5703 94.7533 89.6997 95.3414 88.8056 96.1179Z"
    fill="white" />
  <path d="M112.899 103.153C114.076 103.13 114.782 102.565 115.088 101.412C113.911 101.436 113.205 102 112.899 103.153Z" fill="white" />
  <path d="M88.9233 58.189C90.8527 57.5537 91.1821 56.9655 89.9822 56.0714C89.6998 56.6596 89.3939 57.2714 88.9233 58.189Z" fill="white" />
  <path
    d="M98.0762 37.742C97.6056 38.3067 98.1703 38.9891 98.9939 39.1302C99.0409 38.8949 99.135 38.4715 99.1115 38.4479C98.688 38.2832 98.688 37.0126 98.0762 37.742Z"
    fill="white" />
  <path
    d="M91.018 46.5184C91.0885 46.5184 91.2297 46.4007 91.2297 46.3301C91.2768 45.6477 90.9474 45.2713 89.7944 45.0596C90.1709 45.9537 90.2415 46.5184 91.018 46.5184Z"
    fill="white" />
  <path d="M95.5822 42.9889C95.4175 42.3772 95.2528 41.883 94.2881 41.7654C94.3351 42.7301 94.4763 43.3419 95.5822 42.9889Z" fill="white" />
  <path d="M121.417 24.801C121.699 23.9304 121.37 23.5539 120.193 23.3422C120.57 24.2127 120.664 24.7774 121.417 24.801Z" fill="white" />
  <path d="M111.394 38.0009C112.311 37.9774 112.758 37.7421 112.805 37.0362C111.935 36.7303 111.558 37.0833 111.394 38.0009Z"
    fill="white" />
  <path
    d="M106.453 44.4243C107.135 44.4714 107.511 44.142 107.676 43.2244C106.758 43.2479 106.311 43.4831 106.264 44.2126C106.241 44.2831 106.358 44.4243 106.453 44.4243Z"
    fill="white" />
  <path d="M94.4769 59.13C94.1945 60.0006 94.5239 60.377 95.7004 60.5888C95.3239 59.7182 95.2298 59.13 94.4769 59.13Z" fill="white" />
  <path d="M113.041 47.5301C112.876 46.9419 112.712 46.4243 111.747 46.3066C111.771 47.2713 111.935 47.8831 113.041 47.5301Z"
    fill="white" />
  <path d="M104.288 56.8006C104.123 56.1889 103.958 55.6948 102.994 55.5771C103.017 56.5418 103.182 57.1536 104.288 56.8006Z"
    fill="white" />
  <path d="M112.688 53.483C112.97 52.6124 112.641 52.2359 111.464 52.0242C111.841 52.8947 111.911 53.4594 112.688 53.483Z" fill="white" />
  <path
    d="M113.982 63.5771C114.241 63.6241 114.641 63.7183 114.664 63.6712C114.829 63.2242 116.076 63.2242 115.37 62.6359C114.805 62.1653 114.123 62.73 113.982 63.5771Z"
    fill="white" />
  <path d="M128.9 55.3417C129.606 55.3888 129.982 55.0594 129.888 54.1653C129.653 54.5888 128.406 54.1888 128.9 55.3417Z" fill="white" />
  <path d="M128.688 68.471C128.923 68.0475 130.17 68.4475 129.676 67.2945C128.97 67.2475 128.594 67.5769 128.688 68.471Z" fill="white" />
  <path d="M126.099 79.2239C125.935 78.6121 125.77 78.118 124.805 78.0004C124.852 78.9415 124.993 79.5533 126.099 79.2239Z" fill="white" />
  <path d="M84.782 35.389C84.8291 34.6832 84.4997 34.3067 83.582 34.095C83.6526 35.1067 83.7938 35.7185 84.782 35.389Z" fill="white" />
  <path d="M116.193 13.7893C117.064 14.0716 117.44 13.7423 117.652 12.5658C116.782 12.9423 116.193 13.0364 116.193 13.7893Z" fill="white" />
  <path d="M85.0421 38.8008C85.1832 37.9067 84.8068 37.4361 83.9127 37.3655C83.7715 38.2831 84.148 38.7537 85.0421 38.8008Z" fill="white" />
  <path
    d="M94.4287 29.6008C94.5699 29.6244 94.7111 29.6243 94.8758 29.6479C94.9464 29.4596 95.0405 29.2479 95.1346 29.0362C94.9934 29.0126 94.7817 28.942 94.7346 29.0126C94.5699 29.1773 94.4993 29.3891 94.4287 29.6008Z"
    fill="white" />
  <path
    d="M100.948 23.9304C100.901 24.1422 100.783 24.3775 100.83 24.5892C100.877 24.801 100.971 24.8951 101.065 24.9187C100.924 25.1304 100.759 25.3186 100.689 25.5539C100.595 25.8128 100.807 26.001 101.159 25.8598C101.277 25.8128 101.277 25.4598 101.324 25.2245C101.254 25.1304 101.159 25.0128 101.089 24.9187C101.183 24.9187 101.301 24.8481 101.395 24.6598C101.489 24.4716 101.418 24.2128 101.395 24.001C101.324 23.9304 101.089 23.9304 100.948 23.9304Z"
    fill="white" />
  <path
    d="M96.9468 29.8833C97.1585 29.8362 97.3938 29.8127 97.6056 29.7657C97.6291 29.601 97.6291 29.4598 97.6527 29.3186C97.4409 29.3657 97.2056 29.3892 96.9938 29.4833C96.9468 29.5069 96.9703 29.7421 96.9468 29.8833Z"
    fill="white" />
  <path
    d="M100.924 28.8716C101.112 28.9657 101.324 29.0363 101.536 29.1304C101.559 28.9892 101.63 28.7775 101.583 28.7305C101.418 28.5893 101.183 28.5187 100.994 28.4246C100.947 28.5657 100.947 28.7069 100.924 28.8716Z"
    fill="white" />
  <path
    d="M99.3706 31.2481C99.5588 31.3422 99.7706 31.4128 99.9824 31.5069C100.006 31.3657 100.076 31.1539 100.029 31.1068C99.8647 30.9657 99.6294 30.8951 99.4412 30.801C99.3941 30.9422 99.3706 31.0834 99.3706 31.2481Z"
    fill="white" />
  <path
    d="M98.0998 37.1066C98.1939 37.5066 98.4527 37.5537 98.641 37.1772C98.7351 36.989 98.6645 36.7302 98.641 36.5184C98.641 36.4714 98.3822 36.4948 98.241 36.4713C98.1939 36.6595 98.0527 36.8949 98.0998 37.1066Z"
    fill="white" />
  <path
    d="M104.829 39.5772C105.017 39.6478 105.229 39.7419 105.44 39.836C105.464 39.6949 105.534 39.4831 105.487 39.436C105.323 39.2948 105.087 39.2242 104.899 39.1301C104.876 39.2713 104.852 39.4125 104.829 39.5772Z"
    fill="white" />
  <path
    d="M92.6888 50.5888C92.9006 50.5418 93.1359 50.5183 93.3476 50.4712C93.3712 50.3065 93.3712 50.1653 93.3947 50.0242C93.1829 50.0712 92.9476 50.0948 92.7359 50.1889C92.6653 50.2124 92.6888 50.4477 92.6888 50.5888Z"
    fill="white" />
  <path
    d="M113.559 36.2596C113.7 36.2831 113.912 36.3538 113.959 36.3067C114.1 36.142 114.171 35.9067 114.265 35.7185C114.124 35.695 113.983 35.6949 113.818 35.6714C113.724 35.8361 113.653 36.0479 113.559 36.2596Z"
    fill="white" />
  <path
    d="M114.006 38.0009C114.171 38.142 114.406 38.2126 114.594 38.3067C114.618 38.1656 114.688 37.9538 114.641 37.9067C114.477 37.7655 114.241 37.6949 114.053 37.6008C114.03 37.742 113.959 37.9538 114.006 38.0009Z"
    fill="white" />
  <path
    d="M109.887 42.2596C109.746 42.4243 109.676 42.6596 109.582 42.8478C109.723 42.8714 109.934 42.9419 109.982 42.8949C110.123 42.7302 110.193 42.4949 110.287 42.3066C110.17 42.2831 109.934 42.2125 109.887 42.2596Z"
    fill="white" />
  <path
    d="M111.323 44.7537C111.487 44.8948 111.723 44.9654 111.911 45.0596C111.934 44.9184 111.934 44.7772 111.958 44.6125C111.77 44.5184 111.558 44.4478 111.346 44.3536C111.346 44.4948 111.252 44.7066 111.323 44.7537Z"
    fill="white" />
  <path
    d="M123.653 28.095C123.559 28.3538 123.77 28.542 124.123 28.4009C124.241 28.3538 124.241 28.0009 124.288 27.7656C124.194 27.6715 124.123 27.5538 124.029 27.4597C123.912 27.6715 123.747 27.8597 123.653 28.095Z"
    fill="white" />
  <path
    d="M110.664 90.6591C110.617 90.8708 110.5 91.1061 110.547 91.3179C110.594 91.5296 110.688 91.6237 110.782 91.6472C110.641 91.859 110.476 92.0472 110.406 92.2825C110.312 92.5413 110.523 92.7296 110.876 92.5884C110.994 92.5413 110.994 92.1884 111.041 91.9531C110.947 91.859 110.876 91.7414 110.782 91.6472C110.876 91.6472 110.994 91.5767 111.088 91.3885C111.182 91.2002 111.112 90.9414 111.088 90.7296C111.041 90.6591 110.806 90.6826 110.664 90.6591Z"
    fill="white" />
  <path
    d="M91.4648 61.3418C91.5119 61.5536 91.5354 61.7888 91.6295 62.0006C91.6531 62.0712 91.8884 62.0477 92.0295 62.0477C91.9825 61.836 91.959 61.6007 91.9119 61.3889C91.7472 61.3889 91.606 61.3653 91.4648 61.3418Z"
    fill="white" />
  <path
    d="M102.665 52.9889C102.806 53.0124 103.017 53.083 103.065 53.0359C103.206 52.8712 103.276 52.6359 103.37 52.4477C103.229 52.4241 103.088 52.4242 102.923 52.4006C102.853 52.5889 102.759 52.7771 102.665 52.9889Z"
    fill="white" />
  <path
    d="M114.193 44.0243C114.217 44.0949 114.452 44.0713 114.593 44.0713C114.546 43.8596 114.522 43.6243 114.475 43.4125C114.311 43.389 114.169 43.389 114.028 43.3655C114.075 43.5772 114.099 43.8125 114.193 44.0243Z"
    fill="white" />
  <path
    d="M93.5822 61.577C93.6057 61.6476 93.841 61.6241 93.9822 61.6241C93.9351 61.4123 93.9116 61.177 93.8645 60.9652C93.6998 60.9417 93.5587 60.9417 93.4175 60.9182C93.4645 61.1535 93.4881 61.3888 93.5822 61.577Z"
    fill="white" />
  <path
    d="M88.2651 66.7535C88.4769 66.7064 88.7122 66.6828 88.924 66.6358C88.9475 66.4711 88.9475 66.3299 88.971 66.1887C88.7592 66.2358 88.524 66.2593 88.3122 66.3534C88.2651 66.4005 88.2887 66.6123 88.2651 66.7535Z"
    fill="white" />
  <path
    d="M91.2527 65.177C91.1115 65.3417 91.0409 65.577 90.9468 65.7652C91.088 65.7887 91.2997 65.8593 91.3468 65.8122C91.488 65.6475 91.5585 65.4122 91.6527 65.224C91.5115 65.2005 91.2997 65.1299 91.2527 65.177Z"
    fill="white" />
  <path
    d="M121.723 83.8591C121.935 83.8121 122.171 83.7886 122.382 83.7415C122.406 83.5768 122.406 83.4356 122.429 83.2944C122.218 83.3415 121.982 83.365 121.771 83.4591C121.7 83.4826 121.723 83.7179 121.723 83.8591Z"
    fill="white" />
  <path
    d="M108.193 54.9418C107.793 55.036 107.746 55.2948 108.123 55.483C108.311 55.5772 108.57 55.5066 108.782 55.483C108.829 55.483 108.805 55.2242 108.829 55.083C108.64 55.036 108.405 54.8948 108.193 54.9418Z"
    fill="white" />
  <path
    d="M103.394 76.6357C102.9 76.871 103.065 77.2474 103.371 77.5768C103.606 77.3886 103.841 77.2004 104.076 77.0121C103.841 76.871 103.535 76.5651 103.394 76.6357Z"
    fill="white" />
  <path
    d="M114.593 51.7654C114.617 51.836 114.852 51.8125 114.993 51.8125C114.946 51.6007 114.923 51.3654 114.876 51.1537C114.711 51.1301 114.57 51.1301 114.429 51.1066C114.476 51.3419 114.499 51.5771 114.593 51.7654Z"
    fill="white" />
  <path
    d="M101.417 63.8124C101.017 63.9066 100.97 64.1653 101.347 64.3536C101.535 64.4477 101.794 64.3771 102.006 64.3536C102.053 64.3536 102.029 64.0948 102.053 63.9536C101.841 63.883 101.606 63.7654 101.417 63.8124Z"
    fill="white" />
  <path
    d="M120.43 49.2243C120.641 49.1773 120.877 49.1538 121.089 49.1067C121.112 48.942 121.112 48.8008 121.136 48.6597C120.924 48.7067 120.689 48.7302 120.477 48.8243C120.406 48.8478 120.453 49.0832 120.43 49.2243Z"
    fill="white" />
  <path
    d="M124.593 48.4008C124.616 48.4713 124.852 48.4479 124.993 48.4479C124.946 48.2361 124.922 48.0008 124.875 47.789C124.711 47.7655 124.569 47.7655 124.428 47.7419C124.499 47.9772 124.499 48.2125 124.593 48.4008Z"
    fill="white" />
  <path
    d="M121.699 51.295C121.558 51.4597 121.487 51.695 121.393 51.8832C121.534 51.9067 121.675 51.9067 121.84 51.9302C121.934 51.742 122.005 51.5303 122.099 51.3185C121.958 51.3185 121.746 51.2479 121.699 51.295Z"
    fill="white" />
  <path
    d="M124.123 50.6832C124.288 50.8243 124.523 50.8949 124.711 50.9891C124.735 50.8479 124.805 50.6361 124.735 50.589C124.57 50.4478 124.335 50.3773 124.146 50.2832C124.146 50.4244 124.052 50.6361 124.123 50.6832Z"
    fill="white" />
  <path
    d="M126.052 50.4948C126.264 50.4477 126.499 50.4242 126.711 50.3771C126.734 50.2124 126.758 50.0712 126.758 49.9301C126.546 49.9771 126.311 50.0007 126.099 50.0948C126.052 50.1183 126.075 50.3536 126.052 50.4948Z"
    fill="white" />
  <path
    d="M105.253 68.6593C105.37 68.6122 105.37 68.2593 105.417 68.024C105.323 67.9298 105.253 67.8123 105.159 67.7181C105.017 67.9299 104.853 68.1181 104.782 68.3534C104.688 68.6122 104.9 68.8005 105.253 68.6593Z"
    fill="white" />
  <path
    d="M91.9123 81.9535C91.7711 82.1182 91.7006 82.3534 91.6064 82.5417C91.7476 82.5652 91.9594 82.6358 92.0064 82.5887C92.1476 82.424 92.2182 82.1887 92.3123 82.0005C92.1711 81.9534 91.9594 81.8829 91.9123 81.9535Z"
    fill="white" />
  <path
    d="M125.629 56.236C125.488 56.4007 125.417 56.636 125.323 56.8243C125.464 56.8478 125.606 56.8478 125.77 56.8713C125.864 56.6831 125.935 56.4713 126.029 56.2595C125.911 56.2595 125.676 56.189 125.629 56.236Z"
    fill="white" />
  <path
    d="M124.523 58.4478C124.688 58.5889 124.923 58.6595 125.111 58.7536C125.135 58.6124 125.135 58.4713 125.158 58.3066C124.97 58.2125 124.758 58.1418 124.547 58.0477C124.547 58.1654 124.476 58.4007 124.523 58.4478Z"
    fill="white" />
  <path
    d="M131.205 58.1418C131.228 58.2124 131.464 58.1889 131.605 58.1889C131.558 57.9771 131.534 57.7418 131.487 57.5301C131.322 57.5065 131.181 57.5066 131.04 57.483C131.087 57.6948 131.087 57.9301 131.205 58.1418Z"
    fill="white" />
</svg>