<svg width="181" height="141" viewBox="0 0 181 141" fill="none" xmlns="http://www.w3.org/2000/svg">
  <path
    d="M152.645 0.971011C146.718 -0.890515 139.614 -0.205822 135.099 4.15915C130.007 9.08043 129.6 16.5693 125.77 22.1967C124.294 24.3578 122.047 27.011 119.437 27.9953C117.832 28.5944 116.655 28.0595 115.414 27.011C113.788 25.5988 112.611 23.7159 111.434 21.9614C110.022 19.8431 108.653 17.7034 107.027 15.7349C104.737 12.9747 101.677 9.72234 97.8473 8.99485C91.1714 7.73244 88.1117 15.9275 86.4641 20.4636C83.9179 27.5246 82.4202 35.1419 78.6757 41.7535C77.9696 43.0159 77.3277 43.9788 76.1936 45.0914C75.4661 45.8189 74.5675 46.418 73.3906 46.7176C73.3478 46.739 73.3265 46.739 73.3051 46.739C73.2837 46.739 73.2409 46.739 73.1981 46.7604C73.0484 46.7818 72.8771 46.8032 72.7273 46.8246C72.5989 46.8246 72.4492 46.846 72.3208 46.846C71.9142 46.8673 72.2566 46.8673 72.0212 46.846C71.1867 46.7818 70.3523 46.5678 69.5606 46.2896C67.8489 45.6691 66.3725 44.6849 65.1743 43.4224C62.2857 40.4055 60.8092 36.2973 59.5682 32.4886C58.1346 28.0809 57.0648 23.5661 55.567 19.1798C54.1976 15.1572 52.4217 11.0704 49.362 7.92501C46.3236 4.80107 42.1298 3.32467 37.6792 3.34607C24.2847 3.38887 14.4207 13.3598 8.75057 23.8657C-10.8918 60.1976 4.12896 100.552 37.8933 123.982C47.7572 130.829 59.0761 136.071 71.1226 138.403C115.093 146.962 164.927 130.016 177.208 83.0923C182.108 64.37 183.114 44.2783 175.047 25.6844C172.694 20.2282 169.698 14.9218 165.74 10.3642C162.273 6.29885 157.951 2.63997 152.645 0.971011Z"
    fill="currentColor" />
  <path
    d="M34.2346 22.9884C27.8583 18.6662 25.2692 30.6271 24.5631 34.5213C23.0012 43.2298 23.5147 52.1523 25.526 60.7539C28.1793 72.2012 34.6411 82.7285 42.3226 91.5012C49.9612 100.231 59.4401 107.549 70.2242 111.935C75.4878 114.075 80.9653 115.273 86.5927 116.001C92.6052 116.792 98.6821 117.113 104.737 116.771C110.557 116.45 116.227 115.444 121.705 113.454C127.14 111.465 132.275 108.769 136.94 105.324C141.326 102.071 145.456 98.3268 148.687 93.8977C151.703 89.7467 153.886 85.0394 155.512 80.2037C158.936 69.9973 159.877 59.0207 159.663 48.3223C159.513 40.2557 159 32.0606 156.004 24.4648C154.934 21.7687 153.372 17.9601 150.334 16.9758C146.483 15.7134 143.872 20.5063 142.546 23.2879C139.978 28.7227 138.887 34.7995 138.758 40.7906C138.651 45.8402 139.25 50.8899 139.571 55.9396C140.171 65.7394 140.577 76.823 135.313 85.5315C132.018 91.0091 123.01 99.1399 116.805 92.9348C113.745 89.8751 112.526 85.2105 111.777 81.0809C111.199 77.8714 111.071 74.6191 110.664 71.3881C110.215 67.8363 109.616 64.3272 108.995 60.8181C107.819 54.3776 106.556 47.9799 105.743 41.4753C105.486 39.4212 105.122 37.2173 103.732 35.6125C102.298 33.965 99.8589 33.4515 97.7834 34.0292C93.6966 35.1846 93.0333 40.1273 92.6909 43.7006C92.049 50.248 93.2686 56.5601 94.4026 63.0006C94.959 66.1031 95.2371 69.2057 95.6223 72.3082C95.9004 74.5977 96.4139 76.8444 96.906 79.1124C97.8047 83.242 99.1099 88.0135 97.8475 92.2073C96.4781 96.7435 91.0005 98.3482 86.7639 98.6906C81.3291 99.1399 75.8943 97.5993 71.1228 95.0745C65.902 92.3143 61.6226 88.4201 57.7498 83.9909C53.7271 79.3906 50.1538 74.4051 47.1369 69.0987C41.1457 58.5928 37.3372 46.7817 36.8022 34.6497C36.6097 30.3061 37.9576 25.342 33.5499 22.6032C32.1377 21.726 30.8539 23.9512 32.2447 24.8285C34.2346 26.0695 34.4271 28.2734 34.3416 30.4131C34.256 32.8523 34.2131 35.1846 34.4271 37.6239C34.9406 43.4652 36.1175 49.2424 37.9576 54.827C41.6807 66.1459 47.9071 76.5448 55.6956 85.5315C62.885 93.8121 72.5137 100.873 83.8754 101.301C86.4644 101.408 89.0748 101.108 91.5568 100.36C93.8249 99.6748 96.2 98.6906 97.9118 97.0002C100.993 93.9405 101.164 89.3615 100.65 85.3175C100.094 80.8456 98.682 76.5234 98.1471 72.0728C97.7833 69.0773 97.5265 66.0817 97.013 63.1075C96.4353 59.7268 95.7292 56.3461 95.3227 52.944C94.9803 49.9271 94.9376 46.9315 95.2157 43.9145C95.3869 42.1814 95.5795 40.3199 96.2856 38.7151C97.0131 37.0889 98.3611 36.1261 100.18 36.447C102.148 36.7894 102.705 38.8435 103.004 40.5338C103.454 42.9945 103.646 45.5193 104.053 48.0013C104.63 51.489 105.272 54.9767 105.936 58.4644C106.577 61.8665 107.198 65.2686 107.711 68.6921C108.225 72.0515 108.439 75.4536 108.867 78.8129C109.744 85.938 112.419 97.1286 121.32 97.7277C125.236 98.0059 128.894 95.7806 131.826 93.4055C135.634 90.2816 138.33 86.2162 139.978 81.6159C143.38 72.1156 142.546 61.567 141.861 51.703C141.497 46.5892 141.069 41.4753 141.626 36.34C141.947 33.3873 142.588 30.4345 143.551 27.6315C144.364 25.235 145.456 22.646 147.103 20.6989C147.488 20.2496 148.109 19.6719 148.494 19.5221C148.986 19.3295 149.2 19.3295 149.585 19.4793C149.756 19.5435 149.799 19.5649 150.077 19.736C150.27 19.8644 150.42 19.9928 150.634 20.2068C151.104 20.6775 151.489 21.2338 151.853 21.8115C153.651 24.7429 154.656 28.1878 155.469 31.5043C156.347 35.1418 156.582 38.5011 156.817 42.3312C157.138 47.5306 157.203 52.7515 156.882 57.9723C156.282 68.2642 154.335 78.8557 149.35 87.9921C144.257 97.3212 135.378 104.511 125.856 109.025C120.742 111.443 115.265 113.155 109.637 113.861C103.796 114.588 97.8475 114.567 91.9848 114.096C86.4216 113.647 80.837 112.855 75.4877 111.208C70.1171 109.539 65.0247 107.035 60.296 103.976C50.8386 97.8561 42.8147 89.4899 36.7166 80.0325C33.614 75.2182 30.8967 70.0615 29.1421 64.6053C27.1308 58.3788 26.4034 51.8742 26.1252 45.3695C26.0182 42.6521 26.2322 39.9989 26.6387 37.3029C27.1095 34.0934 27.7085 30.6913 29.0779 27.7171C29.356 27.118 29.677 26.5189 30.0622 25.9626C30.2333 25.7272 30.7469 25.1923 30.8753 25.1067C30.9822 25.0425 31.0679 24.9783 31.1749 24.9355C31.3888 24.8285 31.0464 24.9783 31.2818 24.8927C31.6242 24.7643 31.4315 24.7857 31.7525 24.8285C31.8167 24.8285 31.6456 24.7857 31.881 24.8499C32.0094 24.8713 32.1163 24.9141 32.2447 24.9569C32.2875 24.9783 32.6726 25.1923 32.8866 25.3206C34.3202 26.1337 35.604 23.9085 34.2346 22.9884Z"
    fill="white" />
</svg>