<svg width="132" height="129" viewBox="0 0 132 129" fill="none" xmlns="http://www.w3.org/2000/svg">
  <path
    d="M67.8779 0.500488C81.533 8.66376 99.8599 6.09521 112.965 15.1074C119.836 19.8391 124.387 27.2048 128.099 34.6681C129.876 38.2456 131.542 42.0316 131.528 46.013C131.513 49.9943 129.394 54.2394 125.63 55.5603C121.601 56.9786 117.263 54.7357 113.712 52.381C110.148 50.0229 106.294 47.3343 102.049 47.7824C97.8031 48.2305 94.3396 53.9818 97.4968 56.8625C98.3908 57.6633 99.5646 58.048 100.719 58.3995C105.164 59.773 109.593 61.156 114.038 62.5295C116.681 63.3499 119.512 64.305 121.078 66.5769C122.972 69.3015 122.392 73.0892 120.896 76.056C119.412 79.0262 117.15 81.5494 115.618 84.4926C113.171 89.2253 111.172 96.0567 105.856 95.8391C100.997 95.6455 97.8024 88.9241 93.0177 89.7609C92.3252 89.884 91.6394 90.1914 91.1996 90.7331C89.8635 92.3677 91.4426 94.8535 93.3169 95.8188C95.1912 96.7841 97.4739 97.1151 98.8943 98.6744C101.022 100.999 100.042 104.918 97.8443 107.149C95.6432 109.394 92.5703 110.493 89.7868 111.978C85.8719 114.073 82.403 117.016 79.7262 120.565C77.7761 123.129 76.0682 126.152 73.133 127.47C68.7599 129.441 63.7898 126.833 59.7129 124.295C55.9351 121.95 52.0798 119.527 49.4106 115.978C46.758 112.418 45.5434 107.42 47.5824 103.476C48.8636 100.999 51.2204 99.2731 52.9309 97.0793C54.6413 94.8854 55.6728 91.6117 53.9808 89.3902C52.7778 87.805 50.5764 87.3274 48.5908 87.511C43.3813 87.9954 38.935 92.7537 38.7977 97.9791C36.1932 98.7967 33.474 96.8473 32.0336 94.5249C30.5931 92.2024 29.9224 89.4688 28.3954 87.2074C25.5366 83.0035 19.8051 80.5135 19.0611 75.487C18.3994 71.0439 22.2466 67.1073 26.3541 65.2892C30.4616 63.4711 35.0801 62.9405 39.0639 60.8507C43.0478 58.7609 46.3798 54.1811 44.8465 49.9534C43.6464 46.629 39.8619 44.8852 36.3339 44.6976C30.5229 44.3895 24.6431 47.585 21.7601 52.6359C20.5239 54.7884 19.8155 57.2226 18.423 59.2771C17.0306 61.3316 14.6415 63.0208 12.2131 62.5525C7.61205 61.6565 7.57708 55.1361 5.17212 51.1239C3.85462 48.9186 1.62925 47.326 0.616639 44.9779C-0.937572 41.4042 0.709651 37.2991 2.64064 33.9155C15.9948 10.5236 44.7343 -2.99256 71.2685 1.6195"
    fill="currentColor" />
  <path
    d="M64.2558 14.179C64.9925 13.5765 64.742 12.05 63.3993 11.9288C62.9201 11.8846 62.4041 11.8726 61.874 11.913C60.825 11.5337 59.6724 11.6458 58.8545 12.1844C58.3259 12.5339 58.1332 13.0436 58.1963 13.5937C57.9477 14.1024 58.1775 14.7113 58.6013 15.1195C59.0882 16.8637 61.452 18.0443 63.0447 17.1801C63.7681 16.7846 64.1443 16.1136 64.2159 15.3751C64.4346 15.0828 64.4561 14.5835 64.2558 14.179Z"
    fill="#FFF8EA" />
  <path
    d="M51.7555 19.6704C50.88 18.7482 49.5651 18.7326 48.4658 18.8029C47.4093 18.8706 46.3647 19.2082 45.8371 20.0771C45.4855 20.6565 45.426 21.4544 45.7002 22.1593C45.6555 22.2736 45.5942 22.3975 45.5496 22.5119C45.1537 23.5705 46.4867 24.4609 47.4579 24.1879C48.4719 23.9123 49.6381 24.1687 50.6339 23.804C51.441 23.5151 52.0765 22.8715 52.3202 22.0668C52.583 21.2953 52.4113 20.3653 51.7555 19.6704Z"
    fill="#FFF8EA" />
  <path
    d="M78.4664 22.3651C78.8213 21.9831 78.6528 21.2504 78.2848 20.8431C78.2072 20.7661 78.1331 20.6761 78.0555 20.5992C77.9291 19.7094 77.3723 18.8024 76.4762 18.3238C75.3811 17.7497 74.3444 18.0051 73.6792 18.6548C73.5413 18.6459 73.3998 18.6501 73.2549 18.6674C72.7943 18.2914 72.1458 18.1457 71.6197 18.538C70.1446 19.6442 69.8166 21.5489 70.6212 23.3642C70.8145 23.7948 71.3258 24.0862 71.7684 24.1627C73.0402 24.3912 74.3794 24.5255 75.4322 23.8955C75.6682 23.7483 75.8683 23.5774 76.0528 23.3602C77.0219 23.4094 77.8369 23.0384 78.4664 22.3651Z"
    fill="#FFF8EA" />
  <path
    d="M65.6129 24.5622C65.2599 24.0466 64.6247 23.694 63.9399 23.9455C63.2123 24.1996 62.3014 24.4045 61.5397 24.7337C60.6435 25.0408 59.7139 25.5775 59.9981 26.664C59.9946 26.6771 60.0077 26.6806 60.0042 26.6937C60.0542 27.2403 60.3408 27.7942 60.9261 28.1756C61.8335 28.7695 62.9686 28.7228 63.8542 28.455C64.7861 28.1715 66.1389 27.8884 66.6297 27.0517C67.1678 26.1435 66.5841 25.075 65.6129 24.5622ZM64.4517 26.7488C64.4814 26.7427 64.5111 26.7366 64.5408 26.7305C64.4814 26.7427 64.5338 26.7567 64.7014 26.7595C64.6305 26.8669 64.545 26.872 64.4517 26.7488Z"
    fill="#FFF8EA" />
  <path
    d="M49.94 14.9182C51.2444 14.1872 51.4638 12.4779 50.7556 11.1936C50.6766 10.8076 50.4098 10.4415 49.9168 10.2392C49.553 9.97335 49.1158 9.77201 48.6078 9.67798C48.1521 9.59798 47.685 9.61314 47.2623 9.72439C45.8155 9.72964 44.5341 10.2703 44.5723 11.9083C44.6401 14.326 47.9584 16.029 49.94 14.9182Z"
    fill="#FFF8EA" />
  <path
    d="M36.1949 21.0289C35.9742 20.8576 35.7203 20.7053 35.4655 20.609C35.2614 20.428 34.997 20.3151 34.6723 20.2701C34.1406 20.2119 33.6524 20.3056 33.2444 20.519C32.695 20.7366 32.2903 21.1474 32.0538 21.7155C31.968 21.931 31.9703 22.1842 32.0617 22.4192C32.0484 22.6261 32.0612 22.8401 32.1038 23.0479C32.4405 24.7238 34.3882 25.6245 35.8453 25.0046C37.4281 24.3342 37.772 22.2654 36.1949 21.0289ZM34.7854 22.7281L34.7723 22.7246C34.7759 22.7115 34.7925 22.7019 34.7925 22.7019C34.8126 22.6792 34.8126 22.6792 34.8257 22.6827C34.8221 22.6958 34.8222 22.6958 34.8056 22.7054C34.7889 22.715 34.7854 22.7281 34.7854 22.7281ZM34.7487 22.7603L34.7618 22.7638C34.7417 22.7865 34.7251 22.7961 34.7487 22.7603ZM34.5495 22.8753C34.5626 22.8789 34.5792 22.8693 34.5827 22.8562C34.5792 22.8693 34.5626 22.8789 34.5495 22.8753ZM34.7101 22.9043C34.7363 22.9114 34.7625 22.9184 34.7852 22.9385C34.7625 22.9184 34.7363 22.9114 34.7101 22.9043Z"
    fill="#FFF8EA" />
  <path
    d="M50.6284 33.4567C50.7161 33.1293 50.6956 32.7871 50.599 32.4665C51.0522 31.7179 50.372 30.3289 49.1146 30.413C48.7426 30.4396 48.3863 30.5125 48.0588 30.6352C47.7104 30.6261 47.3611 30.6728 47.037 30.7824C45.2744 31.3906 45.3345 33.68 47.069 34.7481C47.9868 35.3027 49.1357 35.4141 49.9309 34.8554C50.2603 34.6209 50.4205 34.285 50.4332 33.9235C50.518 33.7639 50.5828 33.6269 50.6284 33.4567Z"
    fill="#FFF8EA" />
  <path
    d="M35.9272 31.6081C35.0913 31.8472 34.2389 32.0959 33.403 32.335C32.7489 32.5245 32.554 33.3563 32.8694 33.96C33.1595 34.5008 33.7075 34.7599 34.2436 34.7492C34.2401 34.7623 34.233 34.7885 34.2295 34.8016C34.1123 35.7104 35.3974 36.5178 36.1924 36.1695C37.5438 35.5774 38.2614 34.156 37.8398 32.6397C37.6173 31.7943 36.7167 31.3846 35.9272 31.6081Z"
    fill="#FFF8EA" />
  <path
    d="M36.8044 16.2392C37.7148 16.455 38.5406 15.8344 38.738 15.0453C38.7906 14.8489 38.8004 14.6551 38.7841 14.4543C38.9957 14.1882 39.0808 13.8181 38.9747 13.481C38.7599 12.7639 38.0995 12.3484 37.3661 12.3624C36.6754 12.3738 36.0507 12.7677 35.7261 13.2981C35.7025 13.3339 35.6754 13.3828 35.6649 13.422C35.5337 13.5974 35.3929 13.7561 35.2618 13.9314C34.8657 14.4147 35.1134 15.323 35.7119 15.7079C35.8096 15.7621 35.8943 15.8129 35.9824 15.8505C36.2092 16.0516 36.5128 16.1751 36.8044 16.2392Z"
    fill="#FFF8EA" />
  <path
    d="M68.7766 111.891C68.5182 112.593 69.2985 113.504 70.2464 113.056C70.5845 112.894 70.9331 112.693 71.2756 112.462C72.1201 112.296 72.8393 111.759 73.1763 111.077C73.3942 110.63 73.3092 110.215 73.0485 109.878C73.0097 109.447 72.6172 109.131 72.1686 109.025C71.1526 108.051 69.1049 108.204 68.3876 109.415C68.056 109.972 68.0788 110.567 68.3201 111.081C68.3119 111.373 68.4905 111.702 68.7766 111.891Z"
    fill="#FFF8EA" />
  <path
    d="M74.9304 103.269C75.8826 103.538 76.7624 103.03 77.4676 102.546C78.1527 102.084 78.7026 101.445 78.7062 100.646C78.7086 100.114 78.4351 99.5634 77.971 99.2005C77.9563 99.0984 77.9547 98.9997 77.94 98.8975C77.7768 98.04 76.5319 97.973 75.9995 98.546C75.4339 99.1381 74.5578 99.4226 74.034 100.068C73.6143 100.587 73.445 101.271 73.6023 101.889C73.7299 102.512 74.2103 103.076 74.9304 103.269Z"
    fill="#FFF8EA" />
  <path
    d="M56.0618 112.105C55.9696 112.501 56.3769 112.919 56.7888 113.057C56.8674 113.079 56.959 113.103 57.0376 113.124C57.4691 113.661 58.2055 114.054 58.9888 114.012C59.9431 113.959 60.5349 113.374 60.7209 112.68C60.8205 112.622 60.907 112.561 60.9935 112.5C61.4526 112.567 61.9418 112.418 62.1405 111.938C62.6922 110.612 62.1403 109.215 60.8893 108.333C60.5805 108.124 60.1431 108.133 59.8024 108.252C58.866 108.605 57.9182 109.052 57.4701 109.886C57.3651 110.069 57.309 110.278 57.2695 110.478C56.6125 110.835 56.218 111.417 56.0618 112.105Z"
    fill="#FFF8EA" />
  <path
    d="M63.7467 105.52C64.1839 105.722 64.7497 105.705 65.1186 105.271C65.5077 104.814 66.0191 104.319 66.4126 103.793C66.8856 103.232 67.2925 102.499 66.6681 101.897C66.655 101.894 66.655 101.894 66.6454 101.877C66.4013 101.531 65.9782 101.277 65.436 101.258C64.5883 101.228 63.8569 101.705 63.3778 102.236C62.862 102.8 62.0771 103.53 62.0875 104.276C62.0805 105.088 62.9076 105.562 63.7467 105.52ZM63.6538 103.615C63.6372 103.625 63.6171 103.647 63.6005 103.657C63.6372 103.625 63.5909 103.64 63.4747 103.708C63.4897 103.599 63.5395 103.571 63.6538 103.615Z"
    fill="#FFF8EA" />
  <path
    d="M78.0232 105.711C77.444 106.72 77.9725 107.942 78.9689 108.518C79.1756 108.742 79.4889 108.882 79.9106 108.826C80.252 108.862 80.6275 108.822 81.0013 108.684C81.342 108.565 81.6347 108.362 81.8821 108.12C82.8519 107.538 83.4781 106.667 82.7957 105.6C81.7936 103.999 78.8938 104.19 78.0232 105.711Z"
    fill="#FFF8EA" />
  <path
    d="M84.746 96.1743C84.9625 96.2043 85.1895 96.1949 85.4069 96.169C85.6068 96.2085 85.8373 96.1861 86.0627 96.0781C86.4436 95.9135 86.7242 95.652 86.9166 95.3527C87.1956 94.9925 87.2982 94.5569 87.2438 94.0792C87.224 93.8915 87.1115 93.7351 86.9624 93.6109C86.8892 93.465 86.7994 93.3287 86.6765 93.2116C85.7888 92.23 84.1288 92.4026 83.3986 93.3997C82.608 94.4648 83.2008 95.9708 84.746 96.1743ZM85.0047 94.4756C85.0178 94.4791 85.0178 94.4791 85.0047 94.4756C85.0178 94.4791 85.0143 94.4922 85.0143 94.4922C85.0108 94.5053 85.0073 94.5184 85.0073 94.5184C85.0108 94.5053 85.0108 94.5053 85.0143 94.4922C85.0143 94.4922 85.0178 94.4791 85.0047 94.4756ZM85.0248 94.4529C85.0117 94.4494 85.0117 94.4494 85.0248 94.4529C85.0187 94.4232 85.0187 94.4232 85.0248 94.4529ZM85.1097 94.2932C85.0931 94.3028 85.0931 94.3028 85.0896 94.3159C85.0931 94.3028 85.0966 94.2897 85.1097 94.2932ZM84.9839 94.3437C84.9673 94.3533 84.9411 94.3463 84.9245 94.3559C84.9542 94.3498 84.9708 94.3402 84.9839 94.3437Z"
    fill="#FFF8EA" />
  <path
    d="M70.1878 93.6345C70.2626 93.879 70.4133 94.1018 70.6043 94.2793C70.6061 94.9533 71.6077 95.6146 72.4029 95.0559C72.6423 94.8955 72.8495 94.6985 73.0173 94.4909C73.2628 94.3602 73.463 94.1893 73.6274 93.9948C74.5699 92.8862 73.6086 91.3938 72.031 91.364C71.2059 91.3534 70.3838 91.7505 70.0897 92.4295C69.9566 92.7165 69.9912 93.0065 70.1219 93.252C70.1392 93.3969 70.1504 93.5122 70.1878 93.6345Z"
    fill="#FFF8EA" />
  <path
    d="M80.71 89.031C81.1785 88.5392 81.634 88.0438 82.1061 87.5388C82.461 87.1568 82.268 86.5158 81.8055 86.2515C81.3955 86.0013 80.9309 86.0593 80.5788 86.2736C80.5692 86.257 80.5727 86.2439 80.5632 86.2273C80.2749 85.5748 79.105 85.5419 78.7176 86.0976C78.0608 87.0302 78.1387 88.2579 79.0222 89.098C79.5141 89.5666 80.2781 89.4907 80.71 89.031Z"
    fill="#FFF8EA" />
  <path
    d="M86.2533 99.6091C85.5624 99.8309 85.2507 100.575 85.4412 101.174C85.4846 101.326 85.5613 101.458 85.6415 101.578C85.6141 101.837 85.6915 102.125 85.8956 102.306C86.3229 102.701 86.9376 102.711 87.4094 102.417C87.8646 102.132 88.1132 101.623 88.1312 101.137C88.1287 101.094 88.1226 101.064 88.1331 101.025C88.1621 100.864 88.1815 100.687 88.2105 100.526C88.2845 100.041 87.7568 99.5489 87.2016 99.5264C87.1195 99.5185 87.0339 99.5236 86.9579 99.5453C86.7188 99.4953 86.4681 99.5404 86.2533 99.6091Z"
    fill="#FFF8EA" />
</svg>