<svg width="278" height="270" viewBox="0 0 278 270" fill="none" xmlns="http://www.w3.org/2000/svg">
  <path
    d="M94.7858 51.2767C119.395 51.6511 141.961 34.034 166.489 35.9713C179.354 36.9959 191.15 43.3436 201.895 50.4718C207.044 53.8897 212.204 57.6735 215.264 63.0186C218.324 68.3637 218.768 75.6906 214.747 80.3715C210.447 85.3878 202.9 85.7385 196.322 85.3304C189.723 84.9277 182.48 84.3069 177.139 88.1912C171.797 92.0754 171.606 102.46 178.064 103.877C179.881 104.258 181.751 103.866 183.57 103.444C190.587 101.845 197.59 100.273 204.608 98.6748C208.783 97.7297 213.315 96.8193 217.171 98.6516C221.816 100.837 223.968 106.36 224.258 111.492C224.568 116.619 223.49 121.749 223.713 126.877C224.096 135.111 226.702 145.809 219.412 149.629C212.752 153.129 203.273 146.595 197.51 151.417C196.677 152.118 195.996 153.06 195.826 154.126C195.3 157.349 199.339 159.458 202.596 159.302C205.854 159.145 209.168 157.823 212.278 158.813C216.926 160.281 218.644 166.29 217.426 170.98C216.213 175.69 212.947 179.539 210.366 183.682C206.741 189.516 204.371 196.142 203.529 202.967C202.9 207.911 202.95 213.282 200.037 217.318C195.703 223.342 187.027 223.692 179.602 223.445C172.727 223.225 165.688 222.962 159.366 220.271C153.059 217.554 147.566 211.797 147.247 204.936C147.047 200.626 148.87 196.491 149.464 192.229C150.059 187.967 148.909 182.783 144.924 181.115C142.086 179.922 138.767 180.985 136.249 182.767C129.644 187.446 127.368 197.26 131.226 204.366C128.369 207.477 123.218 206.968 119.492 204.971C115.765 202.974 112.752 199.83 108.957 197.981C101.876 194.56 92.2708 195.658 87.3861 189.499C83.0627 184.058 85.1721 175.809 89.2688 170.196C93.3655 164.583 99.1426 160.299 102.864 154.418C106.584 148.537 107.506 139.824 102.182 135.346C98.0023 131.82 91.5832 132.411 86.7115 134.889C78.6879 138.971 73.2822 147.8 73.3267 156.797C73.3354 160.637 74.2692 164.446 73.9928 168.276C73.7165 172.105 71.8223 176.216 68.2067 177.467C61.3493 179.826 56.259 171.117 49.9335 167.602C46.4626 165.667 42.2493 165.254 39.0764 162.892C34.2299 159.306 33.2614 152.532 33.2312 146.505C33.0287 104.837 61.0776 64.4985 100.194 50.1532"
    fill="currentColor" />
  <mask id="path-2-inside-1_3_8973" fill="white">
    <path
      d="M94.4757 33.7771C122.664 34.2059 148.512 14.0266 176.608 16.2456C191.344 17.4193 204.855 24.6901 217.163 32.8551C223.06 36.77 228.971 41.1042 232.476 47.2267C235.982 53.3492 236.49 61.7418 231.884 67.1035C226.959 72.8493 218.314 73.251 210.779 72.7836C203.221 72.3223 194.924 71.6112 188.806 76.0604C182.688 80.5096 182.468 92.4042 189.865 94.0276C191.947 94.4645 194.089 94.0148 196.173 93.5311C204.211 91.7005 212.232 89.8993 220.27 88.0687C225.053 86.9862 230.244 85.9434 234.66 88.0422C239.981 90.5453 242.447 96.8717 242.779 102.75C243.134 108.623 241.899 114.499 242.155 120.373C242.593 129.804 245.578 142.058 237.227 146.434C229.599 150.443 218.741 142.958 212.14 148.482C211.186 149.284 210.406 150.364 210.211 151.585C209.609 155.277 214.235 157.693 217.966 157.513C221.698 157.334 225.494 155.819 229.056 156.954C234.38 158.635 236.348 165.518 234.953 170.89C233.564 176.285 229.822 180.694 226.866 185.439C222.714 192.122 219.999 199.712 219.035 207.529C218.315 213.193 218.371 219.344 215.035 223.968C210.071 230.868 200.133 231.268 191.628 230.986C183.752 230.734 175.69 230.433 168.449 227.35C161.224 224.238 154.932 217.644 154.567 209.785C154.338 204.848 156.426 200.112 157.107 195.23C157.788 190.347 156.47 184.41 151.906 182.5C148.655 181.133 144.854 182.35 141.969 184.391C134.404 189.75 131.796 200.992 136.215 209.132C132.943 212.695 127.043 212.112 122.775 209.825C118.507 207.537 115.055 203.936 110.708 201.819C102.597 197.9 91.5949 199.157 85.9997 192.103C81.0476 185.871 83.4638 176.421 88.1563 169.992C92.8488 163.562 99.4662 158.656 103.728 151.919C107.99 145.183 109.046 135.202 102.947 130.073C98.1601 126.035 90.8073 126.712 85.2271 129.55C76.0365 134.225 69.8446 144.339 69.8956 154.644C69.9055 159.043 70.9752 163.406 70.6586 167.792C70.3421 172.179 68.1724 176.888 64.0309 178.321C56.1762 181.022 50.3455 171.047 43.1001 167.021C39.1244 164.804 34.2983 164.332 30.6639 161.625C25.1125 157.518 24.0032 149.759 23.9686 142.856C23.7367 95.1269 55.8649 48.9218 100.67 32.4902" />
  </mask>
  <path
    d="M176.608 16.2456L176.846 13.2551L176.844 13.2549L176.608 16.2456ZM217.163 32.8551L218.822 30.3557L218.821 30.3552L217.163 32.8551ZM231.884 67.1035L229.609 65.1487L229.607 65.151L231.884 67.1035ZM210.779 72.7836L210.965 69.7893L210.962 69.7891L210.779 72.7836ZM189.865 94.0276L189.222 96.9578L189.236 96.9608L189.249 96.9636L189.865 94.0276ZM196.173 93.5311L195.506 90.606L195.494 90.6089L196.173 93.5311ZM220.27 88.0687L219.608 85.1428L219.604 85.1436L220.27 88.0687ZM234.66 88.0422L233.373 90.7519L233.383 90.7568L234.66 88.0422ZM242.779 102.75L239.784 102.92L239.784 102.932L242.779 102.75ZM242.155 120.373L239.158 120.504L239.158 120.512L242.155 120.373ZM237.227 146.434L235.835 143.777L235.832 143.779L237.227 146.434ZM212.14 148.482L210.215 146.181L210.208 146.187L212.14 148.482ZM210.211 151.585L213.172 152.067L213.174 152.058L210.211 151.585ZM229.056 156.954L228.145 159.812L228.152 159.815L229.056 156.954ZM234.953 170.89L232.049 170.135L232.048 170.142L234.953 170.89ZM226.866 185.439L224.32 183.853L224.318 183.856L226.866 185.439ZM219.035 207.529L222.011 207.908L222.012 207.896L219.035 207.529ZM215.035 223.968L212.602 222.212L212.6 222.216L215.035 223.968ZM191.628 230.986L191.727 227.988L191.724 227.987L191.628 230.986ZM168.449 227.35L167.262 230.105L167.274 230.11L168.449 227.35ZM154.567 209.785L151.57 209.924L151.57 209.924L154.567 209.785ZM151.906 182.5L150.743 185.265L150.748 185.267L151.906 182.5ZM141.969 184.391L140.236 181.942L140.235 181.943L141.969 184.391ZM136.215 209.132L138.425 211.162L139.874 209.584L138.852 207.701L136.215 209.132ZM110.708 201.819L112.022 199.122L112.013 199.117L110.708 201.819ZM85.9997 192.103L88.3502 190.239L88.3485 190.236L85.9997 192.103ZM102.947 130.073L101.013 132.366L101.016 132.369L102.947 130.073ZM85.2271 129.55L83.8672 126.876L83.8668 126.876L85.2271 129.55ZM69.8956 154.644L72.8956 154.637L72.8956 154.629L69.8956 154.644ZM64.0309 178.321L65.0066 181.158L65.0118 181.156L64.0309 178.321ZM43.1001 167.021L41.639 169.641L41.6429 169.643L43.1001 167.021ZM30.6639 161.625L32.4556 159.219L32.4482 159.214L30.6639 161.625ZM23.9686 142.856L20.9687 142.87L20.9687 142.871L23.9686 142.856ZM94.4301 36.7767C109.162 37.0009 123.208 31.837 136.565 27.1723C150.137 22.4326 163.045 18.1838 176.372 19.2363L176.844 13.2549C162.075 12.0884 148.011 16.8198 134.587 21.5078C120.949 26.2707 107.977 30.9821 94.5214 30.7774L94.4301 36.7767ZM176.37 19.2361C190.311 20.3465 203.288 27.2507 215.504 35.355L218.821 30.3552C206.422 22.1295 192.377 14.492 176.846 13.2551L176.37 19.2361ZM215.504 35.3546C221.407 39.2734 226.756 43.2726 229.873 48.7173L235.08 45.7361C231.186 38.9359 224.714 34.2667 218.822 30.3557L215.504 35.3546ZM229.873 48.7173C232.985 54.153 233.113 61.069 229.609 65.1487L234.16 69.0583C239.867 62.4146 238.979 52.5453 235.08 45.7361L229.873 48.7173ZM229.607 65.151C227.716 67.3568 225.019 68.6577 221.71 69.3343C218.379 70.0152 214.645 70.0176 210.965 69.7893L210.593 75.7778C214.449 76.017 218.805 76.0522 222.911 75.2127C227.039 74.3688 231.128 72.596 234.162 69.056L229.607 65.151ZM210.962 69.7891C207.265 69.5635 203.05 69.2479 198.999 69.5913C194.906 69.9382 190.702 70.9719 187.041 73.6341L190.57 78.4867C193.028 76.6997 196.031 75.8644 199.506 75.5698C203.022 75.2718 206.734 75.5423 210.596 75.778L210.962 69.7891ZM187.041 73.6341C183.014 76.5626 181.142 81.693 181.269 86.188C181.395 90.6884 183.663 95.7378 189.222 96.9578L190.509 91.0973C188.671 90.694 187.35 88.9843 187.266 86.0193C187.183 83.0489 188.479 80.0073 190.57 78.4867L187.041 73.6341ZM189.249 96.9636C192.07 97.5556 194.836 96.9212 196.851 96.4534L195.494 90.6089C193.342 91.1084 191.824 91.3733 190.482 91.0916L189.249 96.9636ZM196.839 96.4563C200.855 95.5415 204.868 94.6341 208.883 93.726C212.898 92.8182 216.915 91.9097 220.937 90.9938L219.604 85.1436C215.588 86.0583 211.575 86.9658 207.56 87.8738C203.545 88.7817 199.528 89.6902 195.506 90.606L196.839 96.4563ZM220.933 90.9947C225.9 89.8704 230.042 89.1688 233.373 90.7518L235.948 85.3326C230.446 82.718 224.206 84.102 219.608 85.1428L220.933 90.9947ZM233.383 90.7568C237.229 92.566 239.477 97.4857 239.784 102.92L245.774 102.581C245.417 96.2577 242.733 88.5246 235.937 85.3276L233.383 90.7568ZM239.784 102.932C239.947 105.628 239.747 108.364 239.513 111.325C239.284 114.218 239.02 117.348 239.158 120.504L245.152 120.242C245.033 117.524 245.259 114.779 245.495 111.798C245.725 108.884 245.965 105.745 245.773 102.569L239.784 102.932ZM239.158 120.512C239.271 122.942 239.551 125.611 239.754 128.056C239.963 130.577 240.102 132.963 239.991 135.147C239.767 139.567 238.587 142.335 235.835 143.777L238.62 149.092C244.218 146.158 245.722 140.61 245.983 135.451C246.115 132.846 245.947 130.127 245.734 127.56C245.515 124.919 245.258 122.52 245.151 120.234L239.158 120.512ZM235.832 143.779C234.54 144.457 232.996 144.714 231.088 144.669C229.133 144.623 227.09 144.278 224.747 143.924C220.499 143.281 214.706 142.423 210.215 146.181L214.065 150.783C216.175 149.018 219.111 149.14 223.85 149.856C226 150.181 228.514 150.61 230.947 150.668C233.426 150.726 236.1 150.416 238.623 149.09L235.832 143.779ZM210.208 146.187C208.915 147.275 207.594 148.947 207.249 151.111L213.174 152.058C213.218 151.781 213.458 151.294 214.072 150.777L210.208 146.187ZM207.25 151.102C206.695 154.509 208.663 157.057 210.787 158.488C212.892 159.907 215.625 160.629 218.11 160.51L217.822 154.517C216.576 154.577 215.131 154.18 214.14 153.513C213.17 152.859 213.126 152.352 213.172 152.067L207.25 151.102ZM218.11 160.51C220.139 160.412 222.482 159.922 223.989 159.712C225.727 159.47 227.02 159.454 228.145 159.812L229.966 154.095C227.53 153.319 225.144 153.493 223.161 153.77C220.946 154.078 219.525 154.435 217.822 154.517L218.11 160.51ZM228.152 159.815C229.712 160.307 230.965 161.607 231.718 163.598C232.477 165.607 232.595 168.036 232.049 170.135L237.857 171.644C238.706 168.372 238.538 164.674 237.33 161.478C236.116 158.264 233.723 155.282 229.959 154.093L228.152 159.815ZM232.048 170.142C231.464 172.409 230.362 174.56 228.952 176.82C228.247 177.95 227.49 179.068 226.697 180.242C225.914 181.399 225.094 182.611 224.32 183.853L229.413 187.025C230.117 185.895 230.873 184.776 231.666 183.604C232.449 182.447 233.269 181.236 234.042 179.996C235.59 177.516 237.053 174.765 237.858 171.638L232.048 170.142ZM224.318 183.856C219.941 190.9 217.076 198.905 216.057 207.162L222.012 207.896C222.922 200.519 225.487 193.343 229.415 187.023L224.318 183.856ZM216.059 207.151C215.656 210.319 215.547 212.839 215.061 215.623C214.605 218.235 213.893 220.423 212.602 222.212L217.468 225.723C219.513 222.889 220.442 219.69 220.971 216.654C221.471 213.79 221.694 210.403 222.011 207.908L216.059 207.151ZM212.6 222.216C210.697 224.86 207.754 226.408 204.008 227.242C200.231 228.082 195.941 228.127 191.727 227.988L191.528 233.984C195.819 234.127 200.75 234.113 205.311 233.099C209.901 232.078 214.409 229.976 217.47 225.72L212.6 222.216ZM191.724 227.987C183.755 227.732 176.264 227.416 169.624 224.59L167.274 230.11C175.116 233.449 183.75 233.735 191.532 233.984L191.724 227.987ZM169.636 224.595C163.045 221.756 157.857 215.963 157.564 209.646L151.57 209.924C152.007 219.325 159.404 226.72 167.262 230.105L169.636 224.595ZM157.564 209.646C157.47 207.62 157.848 205.543 158.413 203.187C158.949 200.953 159.711 198.277 160.078 195.644L154.136 194.815C153.822 197.064 153.2 199.198 152.578 201.787C151.987 204.253 151.435 207.013 151.57 209.924L157.564 209.646ZM160.078 195.644C160.472 192.82 160.305 189.623 159.306 186.761C158.3 183.88 156.351 181.108 153.064 179.732L150.748 185.267C152.025 185.802 153.017 186.953 153.641 188.739C154.272 190.544 154.423 192.757 154.136 194.815L160.078 195.644ZM153.068 179.734C148.433 177.785 143.499 179.633 140.236 181.942L143.702 186.84C146.208 185.067 148.877 184.481 150.743 185.265L153.068 179.734ZM140.235 181.943C131.429 188.181 128.436 201.089 133.579 210.564L138.852 207.701C135.157 200.895 137.379 191.32 143.703 186.839L140.235 181.943ZM134.006 207.103C133.082 208.109 131.682 208.662 129.851 208.672C128.002 208.683 125.949 208.122 124.192 207.18L121.358 212.469C123.869 213.815 126.9 214.689 129.886 214.672C132.89 214.655 136.076 213.718 138.425 211.162L134.006 207.103ZM124.192 207.18C122.298 206.165 120.562 204.847 118.568 203.355C116.645 201.917 114.485 200.321 112.022 199.122L109.395 204.516C111.279 205.434 113.018 206.697 114.974 208.16C116.86 209.57 118.983 211.196 121.358 212.469L124.192 207.18ZM112.013 199.117C107.564 196.968 102.167 196.18 98.1018 195.217C93.7254 194.181 90.4718 192.913 88.3502 190.239L83.6493 193.967C87.1229 198.347 92.1677 199.978 96.7189 201.056C101.581 202.208 105.74 202.751 109.403 204.52L112.013 199.117ZM88.3485 190.236C86.524 187.94 85.9414 184.926 86.4303 181.551C86.9216 178.16 88.4768 174.641 90.5795 171.76L85.7331 168.223C83.1432 171.771 81.1441 176.192 80.4923 180.691C79.838 185.207 80.5233 190.033 83.651 193.969L88.3485 190.236ZM90.5795 171.76C92.7751 168.752 95.4277 166.09 98.2617 163.155C101.032 160.286 103.951 157.179 106.263 153.523L101.193 150.315C99.2439 153.396 96.7224 156.111 93.9457 158.987C91.2324 161.797 88.23 164.802 85.7331 168.223L90.5795 171.76ZM106.263 153.523C108.667 149.724 110.183 145.004 110.223 140.419C110.263 135.815 108.794 131.071 104.878 127.777L101.016 132.369C103.199 134.205 104.252 137.016 104.223 140.368C104.194 143.739 103.052 147.378 101.193 150.315L106.263 153.523ZM104.882 127.78C98.7696 122.624 89.9573 123.779 83.8672 126.876L86.5871 132.224C91.6574 129.645 97.5506 129.445 101.013 132.366L104.882 127.78ZM83.8668 126.876C73.67 132.064 66.839 143.214 66.8956 154.659L72.8956 154.629C72.8502 145.463 78.4031 136.387 86.5874 132.224L83.8668 126.876ZM66.8956 154.651C66.901 157.044 67.1955 159.43 67.4158 161.535C67.644 163.715 67.8039 165.671 67.6664 167.576L73.6508 168.008C73.8299 165.527 73.6132 163.108 73.3832 160.911C73.1454 158.638 72.9001 156.643 72.8956 154.637L66.8956 154.651ZM67.6664 167.576C67.3866 171.454 65.5241 174.63 63.0499 175.486L65.0118 181.156C70.8207 179.146 73.2975 172.904 73.6508 168.008L67.6664 167.576ZM63.0552 175.484C60.7036 176.293 58.4304 175.41 55.2039 172.845C53.5894 171.562 52.0951 170.16 50.2843 168.595C48.564 167.108 46.65 165.561 44.5573 164.399L41.6429 169.643C43.1728 170.493 44.7047 171.703 46.3609 173.135C47.9266 174.488 49.7394 176.166 51.4701 177.542C54.934 180.296 59.5035 183.05 65.0066 181.158L63.0552 175.484ZM44.5611 164.401C42.2728 163.125 39.7372 162.352 37.7195 161.666C35.5701 160.936 33.8588 160.264 32.4556 159.219L28.8722 164.032C31.1034 165.693 33.6223 166.611 35.7885 167.347C38.0864 168.128 39.9516 168.7 41.639 169.641L44.5611 164.401ZM32.4482 159.214C30.3555 157.665 28.981 155.35 28.1255 152.442C27.2644 149.515 26.9853 146.17 26.9686 142.841L20.9687 142.871C20.9866 146.445 21.2794 150.431 22.3694 154.136C23.4651 157.86 25.4209 161.478 28.8796 164.037L32.4482 159.214ZM26.9686 142.841C26.7428 96.3771 58.0835 51.3036 101.703 35.3067L99.6376 29.6736C53.6463 46.5401 20.7306 93.8766 20.9687 142.87L26.9686 142.841Z"
    fill="black" mask="url(#path-2-inside-1_3_8973)" />
  <path
    d="M100.512 72.4063C101.033 71.0293 99.517 69.178 97.6244 70.0542C96.9481 70.3656 96.2475 70.7487 95.5687 71.2128C93.8699 71.5161 92.4124 72.5578 91.7332 73.9121C91.2953 74.7892 91.4314 75.621 91.9414 76.3093C92.0019 77.1831 92.7807 77.8211 93.6643 78.0402C95.6656 80.0003 99.7458 79.7537 101.211 77.3639C101.874 76.2744 101.859 75.0845 101.384 74.0396C101.451 73.479 101.094 72.7933 100.512 72.4063Z"
    fill="white" />
  <path
    d="M88.0125 89.4321C86.1262 88.8739 84.3526 89.8701 82.9342 90.8146C81.5711 91.7225 80.4326 92.9827 80.398 94.555C80.3749 95.6031 80.9125 96.7182 81.8251 97.4505C81.8537 97.6382 81.8674 97.8516 81.896 98.0393C82.1844 99.7638 84.6591 99.9256 85.7491 98.8086C86.8945 97.6551 88.6551 97.0965 89.7072 95.8378C90.565 94.8264 90.9186 93.4726 90.6226 92.206C90.378 90.9691 89.4285 89.8559 88.0125 89.4321Z"
    fill="white" />
  <path
    d="M125.883 72.3821C126.063 71.5958 125.271 70.7444 124.463 70.4834C124.299 70.4404 124.13 70.3771 123.967 70.3341C123.109 69.2397 121.662 68.4553 120.091 68.5072C118.18 68.5851 116.988 69.7292 116.6 71.1141C116.408 71.2089 116.222 71.3239 116.041 71.4592C115.133 71.3117 114.151 71.6181 113.75 72.5506C112.629 75.1736 113.663 77.9791 116.145 79.7888C116.737 80.2163 117.648 80.2111 118.3 79.9713C120.181 79.2937 122.079 78.4378 123.002 76.7794C123.204 76.3996 123.34 76.0158 123.419 75.5821C124.756 74.8984 125.561 73.771 125.883 72.3821Z"
    fill="white" />
  <path
    d="M110.363 85.2672C109.491 84.8496 108.367 84.8685 107.644 85.7351C106.866 86.6383 105.804 87.6175 105.038 88.6476C104.075 89.7523 103.245 91.1904 104.466 92.4262C104.472 92.4465 104.492 92.441 104.497 92.4613C104.987 93.155 105.799 93.6754 106.879 93.7335C108.554 93.8274 110.038 92.8869 111.018 91.843C112.047 90.7423 113.64 89.3167 113.651 87.8161C113.669 86.1831 112.061 85.2031 110.363 85.2672ZM110.498 89.0949C110.534 89.0638 110.569 89.0327 110.604 89.0016C110.534 89.0638 110.615 89.0421 110.841 88.9162C110.829 89.1148 110.719 89.1879 110.498 89.0949Z"
    fill="white" />
  <path
    d="M81.9068 84.4684C83.089 82.4802 82.0609 80.0204 80.1185 78.8476C79.7141 78.3916 79.0736 78.1074 78.2565 78.2178C77.5635 78.1429 76.8221 78.2114 76.0687 78.4784C75.3964 78.7236 74.7823 79.1053 74.302 79.5813C72.3678 80.7074 71.0691 82.423 72.3873 84.5879C74.3483 87.7745 80.1113 87.4894 81.9068 84.4684Z"
    fill="white" />
  <path
    d="M68.2161 103.29C67.7878 103.231 67.3299 103.223 66.914 103.291C66.5006 103.207 66.059 103.26 65.5892 103.451C64.8318 103.784 64.2503 104.287 63.8688 104.889C63.301 105.605 63.0764 106.469 63.1991 107.413C63.2509 107.768 63.4498 108.105 63.754 108.349C63.8962 108.637 64.0789 108.913 64.2966 109.159C66.0441 111.144 69.3502 110.844 70.8228 108.886C72.4249 106.764 71.2854 103.726 68.2161 103.29ZM67.642 106.656L67.6217 106.662C67.6163 106.641 67.6311 106.616 67.6311 106.616C67.6405 106.57 67.6405 106.57 67.6608 106.564C67.6662 106.585 67.6662 106.585 67.6514 106.61C67.6366 106.636 67.642 106.656 67.642 106.656ZM67.6178 106.728L67.638 106.722C67.6286 106.768 67.6138 106.794 67.6178 106.728ZM67.4398 107.036C67.4601 107.031 67.4749 107.005 67.4695 106.985C67.4749 107.005 67.4601 107.031 67.4398 107.036ZM67.6775 106.951C67.718 106.94 67.7585 106.929 67.8044 106.938C67.7585 106.929 67.718 106.94 67.6775 106.951Z"
    fill="white" />
  <path
    d="M97.168 108.774C97.0324 108.267 96.7401 107.825 96.3628 107.47C96.3909 106.117 94.4052 104.782 92.7856 105.867C92.3079 106.19 91.8869 106.564 91.543 106.981C91.0692 107.239 90.6374 107.571 90.288 107.969C88.3969 110.147 90.2483 113.168 93.3982 113.257C95.0569 113.29 96.6823 112.551 97.3155 111.187C97.5755 110.618 97.5302 110.044 97.2676 109.55C97.2578 109.271 97.2386 109.037 97.168 108.774Z"
    fill="white" />
  <path
    d="M76.0404 117.669C75.1056 118.636 74.1558 119.629 73.221 120.595C72.4912 121.355 72.8736 122.62 73.763 123.185C74.57 123.685 75.5046 123.609 76.2145 123.18C76.2199 123.2 76.2308 123.24 76.2362 123.261C76.7821 124.569 79.1284 124.657 79.924 123.575C81.2765 121.737 81.1385 119.277 79.4008 117.572C78.4488 116.611 76.9254 116.759 76.0404 117.669Z"
    fill="white" />
  <path
    d="M65.3282 96.3993C66.7149 95.9843 67.3412 94.514 66.9953 93.3042C66.9139 93.0004 66.7771 92.7331 66.5999 92.4767C66.6776 91.9566 66.5054 91.3949 66.1025 91.0253C65.26 90.2308 64.0538 90.1849 63.082 90.771C62.1655 91.3204 61.6332 92.3314 61.6087 93.2931C61.6048 93.3593 61.6062 93.4458 61.6225 93.5065C61.5824 93.8429 61.5166 94.1644 61.4765 94.5008C61.3196 95.4546 62.3541 96.4799 63.4536 96.5326C63.6265 96.5297 63.7791 96.5322 63.9263 96.5144C64.3857 96.6084 64.888 96.539 65.3282 96.3993Z"
    fill="white" />
  <path
    d="M182.15 199.819C182.347 200.96 184.097 201.577 185.021 200.244C185.348 199.765 185.66 199.226 185.94 198.652C186.943 197.775 187.491 196.5 187.415 195.326C187.361 194.559 186.926 194.068 186.316 193.819C185.931 193.271 185.161 193.151 184.478 193.356C182.363 192.837 179.738 194.626 179.714 196.803C179.7 197.806 180.191 198.586 180.912 199.087C181.127 199.485 181.621 199.787 182.15 199.819Z"
    fill="white" />
  <path
    d="M183.727 183.506C185.211 183.13 185.997 181.769 186.567 180.574C187.127 179.425 187.37 178.145 186.757 177.072C186.348 176.356 185.556 175.83 184.653 175.703C184.555 175.578 184.476 175.447 184.377 175.321C183.496 174.299 181.776 175.172 181.506 176.351C181.206 177.582 180.252 178.641 180.05 179.911C179.889 180.931 180.192 181.979 180.88 182.684C181.533 183.421 182.613 183.804 183.727 183.506Z"
    fill="white" />
  <path
    d="M165.28 209.939C165.463 210.542 166.332 210.786 166.991 210.653C167.113 210.621 167.255 210.583 167.376 210.55C168.369 210.935 169.66 210.893 170.677 210.23C171.914 209.421 172.255 208.179 171.967 207.106C172.056 206.952 172.125 206.803 172.193 206.654C172.86 206.389 173.4 205.81 173.295 205.013C173.009 202.811 171.189 201.366 168.83 201.152C168.255 201.11 167.676 201.461 167.312 201.884C166.33 203.081 165.406 204.414 165.451 205.878C165.452 206.203 165.538 206.527 165.64 206.826C165.036 207.812 164.958 208.897 165.28 209.939Z"
    fill="white" />
  <path
    d="M170.485 195.172C171.226 195.104 171.971 194.644 172.13 193.776C172.297 192.863 172.6 191.805 172.72 190.796C172.92 189.679 172.898 188.382 171.596 188.058C171.576 188.064 171.576 188.064 171.55 188.049C170.955 187.774 170.192 187.761 169.451 188.155C168.292 188.77 167.681 189.975 167.45 191.058C167.195 192.211 166.708 193.796 167.299 194.788C167.918 195.882 169.393 195.877 170.485 195.172ZM168.887 192.692C168.872 192.717 168.862 192.763 168.848 192.789C168.872 192.717 168.822 192.774 168.718 192.954C168.654 192.797 168.699 192.72 168.887 192.692Z"
    fill="white" />
  <path
    d="M189.759 184.386C189.764 186.186 191.417 187.415 193.197 187.415C193.647 187.555 194.175 187.5 194.697 187.1C195.182 186.883 195.654 186.54 196.048 186.065C196.412 185.642 196.648 185.145 196.792 184.628C197.641 183.098 197.807 181.448 196.067 180.546C193.486 179.176 189.749 181.675 189.759 184.386Z"
    fill="white" />
  <path
    d="M191.389 166.408C191.702 166.281 191.999 166.093 192.27 165.89C192.569 165.788 192.86 165.58 193.079 165.261C193.462 164.746 193.635 164.178 193.662 163.629C193.757 162.93 193.557 162.267 193.115 161.669C192.943 161.433 192.671 161.311 192.376 161.26C192.165 161.121 191.939 161.008 191.684 160.946C189.735 160.317 187.645 161.833 187.438 163.733C187.202 165.772 189.161 167.331 191.389 166.408ZM190.422 163.932C190.442 163.927 190.442 163.927 190.422 163.932C190.442 163.927 190.447 163.947 190.447 163.947C190.453 163.967 190.458 163.988 190.458 163.988C190.453 163.967 190.453 163.967 190.447 163.947C190.447 163.947 190.442 163.927 190.422 163.932ZM190.431 163.886C190.411 163.892 190.411 163.892 190.431 163.886C190.4 163.851 190.4 163.851 190.431 163.886ZM190.421 163.607C190.406 163.632 190.406 163.632 190.412 163.653C190.406 163.632 190.401 163.612 190.421 163.607ZM190.292 163.772C190.277 163.797 190.236 163.808 190.222 163.834C190.257 163.803 190.272 163.777 190.292 163.772Z"
    fill="white" />
  <path
    d="M169.919 174.267C170.209 174.537 170.583 174.719 170.976 174.809C171.5 175.711 173.353 175.822 173.986 174.458C174.183 174.058 174.308 173.634 174.373 173.226C174.6 172.861 174.736 172.477 174.806 172.089C175.211 169.875 172.769 168.619 170.632 169.8C169.519 170.424 168.725 171.592 168.856 172.729C168.899 173.216 169.17 173.578 169.535 173.806C169.67 173.987 169.774 174.132 169.919 174.267Z"
    fill="white" />
  <path
    d="M180.457 159.961C180.705 158.939 180.932 157.923 181.174 156.881C181.354 156.095 180.599 155.386 179.775 155.389C179.032 155.371 178.455 155.808 178.149 156.368C178.123 156.353 178.118 156.333 178.092 156.318C177.201 155.667 175.608 156.527 175.519 157.572C175.36 159.329 176.415 160.914 178.248 161.356C179.269 161.603 180.234 160.91 180.457 159.961Z"
    fill="white" />
  <path
    d="M196.065 169.845C195.311 170.676 195.469 171.915 196.187 172.569C196.363 172.739 196.568 172.858 196.768 172.956C196.932 173.324 197.258 173.65 197.671 173.734C198.55 173.933 199.381 173.471 199.785 172.712C200.175 171.978 200.114 171.104 199.762 170.439C199.726 170.383 199.695 170.348 199.679 170.288C199.593 170.05 199.482 169.797 199.397 169.56C199.12 168.852 198.033 168.601 197.271 169C197.155 169.053 197.045 169.126 196.96 169.214C196.6 169.332 196.3 169.587 196.065 169.845Z"
    fill="white" />
</svg>