<svg width="185" height="180" viewBox="0 0 185 180" fill="none" xmlns="http://www.w3.org/2000/svg">
  <path
    d="M26.2851 179.887C41.8461 181.235 56.5081 170.341 63.9355 156.578C68.302 148.487 72.0049 138.213 80.9306 135.965C87.6516 134.274 94.4153 138.063 101.286 138.833C107.707 139.54 114.129 137.1 118.988 132.84L118.945 132.926C129.069 128.388 140.456 127.831 151.33 125.712C162.225 123.593 173.612 119.184 179.412 109.723C189.451 93.3275 177.764 72.4796 165.371 57.7961C163.145 55.142 160.726 52.4236 157.451 51.2464C149.596 48.3996 141.912 55.5487 133.799 57.5179C117.682 61.3921 104.882 45.1033 92.6174 33.973C79.1754 21.8153 60.3395 14.281 42.7237 18.4976C28.0403 22.008 15.9039 33.4379 9.69666 47.201C3.48938 60.964 2.80444 76.8033 5.82246 91.6151C8.84049 106.427 15.326 122.245 8.96892 135.944C7.21375 139.711 4.581 143.029 3.03988 146.881C-2.78212 161.394 10.7241 178.538 26.2851 179.887Z"
    fill="currentColor" />
  <path
    d="M26.264 165.696C45.7634 166.895 59.6549 152.682 67.8742 136.564C69.8862 132.605 71.9838 128.324 75.2373 125.22C80.46 120.254 86.71 121.196 93.1314 122.887C103.256 125.563 111.71 125.027 120.08 118.178C119.245 117.536 118.41 116.894 117.575 116.252C117.554 116.273 117.554 116.316 117.532 116.337C116.783 117.857 118.26 119.141 119.716 118.521C135.662 111.757 154.155 114.004 169.438 105.314C182.067 98.1221 187.075 84.7444 183.501 70.8315C181.574 63.3185 177.764 56.3193 173.398 49.9622C169.545 44.3328 164.708 36.4774 158.03 34.0159C151.929 31.747 145.915 34.9577 140.457 37.462C131.659 41.5075 123.954 41.5289 115.627 36.3276C102.314 28.0013 93.4525 14.4309 79.3898 6.98215C66.1618 -0.0384971 50.3012 -2.56424 36.1314 3.15074C22.9891 8.43763 12.715 19.6536 7.38529 32.6675C0.835535 48.6994 1.64891 66.0155 5.65153 82.5397C8.15585 92.878 11.7946 104.073 9.11907 114.732C7.00003 123.208 -0.0848483 129.373 0.000769325 138.512C0.193409 152.639 12.8006 164.112 26.264 165.696C28.2974 165.931 28.276 162.742 26.264 162.507C12.8006 160.923 -0.320277 146.946 4.06763 132.862C6.27228 125.777 11.5377 120.554 12.7364 112.998C13.828 106.17 12.822 99.2566 11.3665 92.557C7.87759 76.4609 3.61812 61.2851 7.06423 44.7181C10.0823 30.1845 18.4086 16.764 31.3154 9.07978C45.0357 0.924693 61.3886 1.86647 75.4942 8.56606C88.7863 14.8804 97.4979 26.3317 108.778 35.3002C117.682 42.385 127.7 46.2378 138.723 41.7215C146.364 38.5965 153.856 33.1598 161.262 39.9235C166.72 44.8894 171.193 51.7816 174.789 58.1601C179.07 65.7587 182.473 74.5773 181.36 83.4387C180.247 92.4285 174.297 99.2352 166.441 103.302C151.437 111.072 133.564 109.188 118.11 115.759C118.838 116.487 119.566 117.215 120.294 117.943C120.315 117.921 120.315 117.878 120.336 117.857C121.171 116.187 119.223 114.775 117.832 115.931C112.395 120.383 106.06 122.352 99.1032 121.089C94.3943 120.233 89.9208 118.307 85.0834 118.178C77.6132 117.985 72.3049 122.63 68.5377 128.666C63.7645 136.329 60.8107 144.484 54.2824 151.012C46.7908 158.525 36.9448 163.149 26.2212 162.507C24.2306 162.378 24.2306 165.567 26.264 165.696Z"
    fill="#4C4C4C" />
</svg>