<svg width="205" height="202" viewBox="0 0 205 202" fill="none" xmlns="http://www.w3.org/2000/svg">
  <path
    d="M199.066 68.2328C188.113 53.2142 176.102 39.0668 163.096 25.8115C163.905 25.1891 164.714 24.5668 165.523 23.9445C181.392 49.0032 194.523 75.6591 204.77 103.518C205.289 104.929 203.131 106.236 202.198 105.012C179.919 76.6756 158.242 47.8622 137.207 18.5926C136.046 16.9746 138.701 15.481 139.883 17.0368C163.407 48.4016 184.068 81.7993 201.659 116.836C202.551 118.62 200.124 120.03 198.983 118.392C171.974 79.1233 142.829 41.4109 111.63 5.37871C112.439 4.7564 113.248 4.13406 114.057 3.51174C140.319 39.7929 165.461 76.883 189.44 114.72C190.54 116.442 187.947 117.811 186.765 116.276C158.553 79.6212 130.341 42.9667 102.129 6.33292C103.021 5.81432 103.913 5.29572 104.805 4.77712C137.933 49.9781 168.676 96.8801 196.908 145.276C197.925 147.018 195.373 148.429 194.232 146.831C162.702 101.9 129.366 58.255 94.3296 15.9789C93.085 14.4646 95.2009 12.2864 96.5078 13.8007C128.246 50.5175 155.918 90.5947 178.986 133.286C179.94 135.07 177.471 136.418 176.31 134.842C142.725 89.0597 106.9 44.9374 68.9806 2.66127C69.7066 1.93523 70.4326 1.20919 71.1587 0.483149C110.863 48.2771 145.692 99.805 180.396 151.271C179.504 151.789 178.612 152.308 177.72 152.826C146.314 106.07 111.091 62.0926 75.8468 18.2192C76.6558 17.5969 77.4648 16.9746 78.2738 16.3522C111.34 60.6405 142.082 106.63 170.335 154.133C171.207 155.585 169.008 157.432 167.908 156C128.744 105.385 87.7538 56.1806 45.0421 8.51103C45.8511 7.88872 46.6601 7.26641 47.4691 6.64409C84.1651 59.6448 121.317 112.334 158.885 164.713C159.901 166.123 157.536 167.97 156.458 166.58C122.189 122.706 87.4426 79.2063 52.2402 36.0797C53.0492 35.4574 53.8582 34.8351 54.6673 34.2127C88.5628 82.5876 121.421 131.668 153.222 181.453C154.155 182.905 151.915 184.689 150.795 183.32C114.099 138.638 77.4026 93.9552 40.7066 49.2729C41.5156 48.6505 42.3246 48.0282 43.1337 47.4059C70.2667 88.3336 96.1344 130.091 120.674 172.637C121.691 174.4 119.181 175.728 117.998 174.193C83.2524 128.618 48.4856 83.0647 13.7395 37.4903C14.6315 36.9717 15.5235 36.4531 16.4155 35.9345C48.5271 86.1348 80.6179 136.335 112.729 186.515C111.838 187.033 110.946 187.552 110.054 188.07C81.8625 143.678 51.1408 100.925 18.0335 60.0804C18.8425 59.4581 19.6515 58.8358 20.4606 58.2135C46.3282 95.1791 69.8933 133.701 91.0106 173.55C91.9441 175.313 89.4548 176.744 88.3346 175.105C60.3718 134.427 31.0815 94.6813 0.504913 55.9316C1.31392 55.3093 2.12294 54.687 2.93195 54.0647C30.791 94.5983 57.3847 136.003 82.6508 178.196C83.688 179.918 81.095 181.37 79.9748 179.752C58.4012 148.47 36.8067 117.188 15.2331 85.9066C16.1251 85.388 17.0171 84.8694 17.9091 84.3508C38.0929 118.869 57.7374 153.698 76.8425 188.838C77.7967 190.58 75.2245 192.074 74.1665 190.394C54.6673 159.299 33.9649 128.992 12.08 99.5353C12.972 99.0167 13.864 98.4982 14.756 97.9796C36.0185 130.672 55.3726 164.547 72.7145 199.48C73.5857 201.243 71.0342 202.778 70.0385 201.035C50.6429 166.932 28.6129 134.385 4.11433 103.726C4.92334 103.103 5.73236 102.481 6.54137 101.859C17.5149 126.565 29.3182 150.897 41.9512 174.815C42.8847 176.578 40.2088 178.134 39.2753 176.371C26.663 152.453 14.8389 128.12 3.86542 103.414C3.22235 101.962 5.08931 100.054 6.29245 101.548C30.957 132.414 53.1737 165.148 72.6937 199.48C71.8017 199.998 70.9098 200.517 70.0178 201.035C52.6759 166.103 33.3218 132.228 12.0592 99.5353C10.9598 97.8343 13.5736 96.4238 14.7352 97.9796C36.6201 127.436 57.3225 157.764 76.8218 188.838C75.9298 189.357 75.0378 189.875 74.1458 190.394C55.0614 155.254 35.4169 120.424 15.2123 85.9066C14.1959 84.1641 16.7681 82.7328 17.8883 84.3508C39.462 115.633 61.0564 146.914 82.6301 178.196C81.7381 178.715 80.8461 179.233 79.9541 179.752C54.6673 137.559 28.0943 96.1541 0.235229 55.6205C-0.739731 54.1892 1.56284 52.3637 2.66226 53.7535C33.4048 92.6898 62.8611 132.643 90.9691 173.55C90.0771 174.068 89.1851 174.587 88.2932 175.105C67.1551 135.256 43.59 96.7349 17.7431 59.7693C16.7474 58.3587 19.0707 56.5332 20.1701 57.9023C53.4434 98.9545 84.3518 141.894 112.688 186.515C113.767 188.195 111.091 189.751 110.012 188.07C77.9005 137.87 45.8096 87.6698 13.698 37.4903C12.5986 35.7685 15.1916 34.3994 16.374 35.9345C51.1201 81.5089 85.8869 127.062 120.633 172.637C119.741 173.155 118.849 173.674 117.957 174.193C93.4169 131.647 67.5492 89.8894 40.4162 48.9617C39.462 47.5303 41.7231 45.7256 42.8432 47.0947C79.5392 91.7771 116.235 136.46 152.931 181.142C152.122 181.764 151.313 182.387 150.504 183.009C118.704 133.244 85.8454 84.1433 51.9498 35.7685C50.9541 34.358 53.2567 32.5325 54.3768 33.9016C89.5793 77.0282 124.325 120.528 158.594 164.402C157.785 165.024 156.976 165.646 156.167 166.269C118.6 113.89 81.4477 61.2006 44.7517 8.19989C43.756 6.76856 46.017 5.02605 47.1787 6.33292C89.8904 54.0024 130.88 103.186 170.045 153.822C169.236 154.444 168.427 155.067 167.618 155.689C139.365 108.186 108.622 62.1963 75.5564 17.908C74.5192 16.5182 76.884 14.672 77.9834 16.0411C113.393 60.1219 148.803 104.286 180.334 151.271C181.454 152.93 178.778 154.465 177.658 152.826C143.099 101.568 108.435 50.2685 68.8976 2.682C67.653 1.16769 69.7481 -0.989681 71.0757 0.503881C109.162 42.9667 145.131 87.2964 178.882 133.306C177.99 133.825 177.098 134.344 176.206 134.862C153.263 92.3994 125.777 52.5296 94.2259 15.9996C94.952 15.2736 95.678 14.5475 96.404 13.8215C131.606 56.2843 165.108 100.158 196.784 145.296C195.892 145.815 195 146.334 194.108 146.852C165.875 98.4567 135.133 51.5547 102.005 6.35368C100.822 4.73566 103.478 3.26284 104.681 4.79789C132.893 41.4524 161.104 78.1069 189.316 114.741C188.424 115.259 187.532 115.778 186.64 116.296C162.66 78.4595 137.518 41.3902 111.257 5.0883C110.24 3.67771 112.543 1.89372 113.684 3.22133C145.049 39.4402 174.36 77.3808 201.513 116.856C200.621 117.375 199.729 117.894 198.837 118.412C181.247 83.3758 160.565 49.9989 137.062 18.6133C137.954 18.0947 138.846 17.5761 139.738 17.0575C160.627 46.1197 182.118 74.7256 204.231 102.854C203.38 103.352 202.509 103.85 201.659 104.348C191.515 76.7378 178.467 50.3515 162.722 25.521C161.789 24.0275 163.925 22.4095 165.149 23.6541C178.342 37.0962 190.498 51.4717 201.596 66.6977C202.903 68.295 200.227 69.8301 199.066 68.2328Z"
    fill="currentColor" />
</svg>