<svg width="167" height="161" viewBox="0 0 167 161" fill="none" xmlns="http://www.w3.org/2000/svg">
  <path
    d="M86.2154 0C103.4 10.2735 126.465 7.04096 142.957 18.3827C151.604 24.3376 157.332 33.6074 162.003 43C164.24 47.5023 166.337 52.267 166.319 57.2775C166.301 62.288 163.633 67.6305 158.896 69.2928C153.826 71.0778 148.366 68.255 143.898 65.2917C139.413 62.324 134.562 58.9404 129.219 59.5043C123.876 60.0682 119.517 67.3063 123.491 70.9316C124.616 71.9394 126.093 72.4236 127.546 72.8659C133.14 74.5945 138.714 76.335 144.308 78.0635C147.634 79.096 151.197 80.298 153.168 83.1572C155.552 86.5861 154.822 91.3529 152.938 95.0866C151.071 98.8247 148.225 102 146.297 105.704C143.217 111.66 140.702 120.258 134.011 119.984C127.896 119.74 123.875 111.281 117.854 112.334C116.982 112.489 116.119 112.876 115.566 113.558C113.884 115.615 115.872 118.743 118.23 119.958C120.589 121.173 123.462 121.59 125.25 123.552C127.927 126.477 126.694 131.409 123.928 134.218C121.158 137.043 117.291 138.426 113.788 140.295C108.861 142.931 104.495 146.635 101.127 151.101C98.6723 154.328 96.5229 158.132 92.829 159.791C87.3254 162.272 81.0706 158.989 75.9397 155.796C71.1854 152.844 66.3335 149.796 62.9743 145.328C59.636 140.849 58.1074 134.559 60.6735 129.595C62.2859 126.477 65.252 124.305 67.4045 121.544C69.5571 118.784 70.8553 114.663 68.7259 111.868C67.2119 109.873 64.4415 109.272 61.9425 109.503C55.3864 110.112 49.7907 116.101 49.618 122.677C46.3401 123.706 42.9181 121.253 41.1053 118.33C39.2925 115.407 38.4483 111.967 36.5266 109.121C32.9289 103.83 25.7157 100.696 24.7794 94.3706C23.9466 88.7789 28.7884 83.8247 33.9577 81.5366C39.127 79.2485 44.9393 78.5808 49.953 75.9508C54.9667 73.3208 59.16 67.5571 57.2303 62.2366C55.7201 58.0527 50.9572 55.8582 46.5172 55.6221C39.2041 55.2343 31.8043 59.2558 28.1762 65.6125C26.6203 68.3213 25.7288 71.3848 23.9764 73.9704C22.2241 76.556 19.2174 78.6819 16.1612 78.0925C10.3708 76.9648 10.3268 68.7589 7.30013 63.7096C5.64206 60.9343 2.84142 58.93 1.56706 55.9749C-0.388919 51.4773 1.68411 46.3111 4.11426 42.0528C20.9205 12.6141 57.0892 -4.396 90.4825 1.40828"
    fill="currentColor" />
  <path
    d="M81.6556 17.2145C82.5828 16.4563 82.2675 14.5352 80.5777 14.3827C79.9746 14.327 79.3252 14.3119 78.6582 14.3628C77.338 13.8854 75.8874 14.0265 74.8581 14.7044C74.1928 15.1442 73.9503 15.7856 74.0297 16.4779C73.7169 17.1182 74.006 17.8844 74.5394 18.3982C75.1521 20.5932 78.127 22.079 80.1314 20.9914C81.0418 20.4937 81.5153 19.6493 81.6054 18.7198C81.8806 18.352 81.9077 17.7235 81.6556 17.2145Z"
    fill="#FFF8EA" />
  <path
    d="M65.924 24.125C64.8222 22.9644 63.1674 22.9448 61.7839 23.0333C60.4542 23.1185 59.1396 23.5433 58.4757 24.6369C58.0331 25.3659 57.9583 26.3702 58.3033 27.2573C58.2471 27.4012 58.17 27.5571 58.1138 27.701C57.6155 29.0332 59.2932 30.1538 60.5154 29.8103C61.7916 29.4635 63.2592 29.7861 64.5124 29.3272C65.5281 28.9636 66.3279 28.1536 66.6346 27.1409C66.9654 26.17 66.7492 24.9995 65.924 24.125Z"
    fill="#FFF8EA" />
  <path
    d="M99.5396 27.5167C99.9863 27.0359 99.7743 26.1138 99.3112 25.6012C99.2135 25.5044 99.1203 25.3911 99.0226 25.2943C98.8635 24.1744 98.1627 23.033 97.035 22.4306C95.6569 21.7081 94.3522 22.0296 93.515 22.8472C93.3414 22.836 93.1634 22.8413 92.981 22.8631C92.4014 22.3899 91.5852 22.2065 90.9231 22.7002C89.0667 24.0923 88.654 26.4894 89.6665 28.774C89.9098 29.316 90.5533 29.6826 91.1102 29.7789C92.7108 30.0665 94.3962 30.2355 95.7212 29.4427C96.0181 29.2573 96.27 29.0423 96.5022 28.769C97.7218 28.8308 98.7475 28.364 99.5396 27.5167Z"
    fill="#FFF8EA" />
  <path
    d="M83.3641 30.2811C82.9198 29.6323 82.1204 29.1885 81.2586 29.505C80.3429 29.8248 79.1966 30.0827 78.2379 30.4969C77.1101 30.8834 75.9401 31.5589 76.2978 32.9262C76.2934 32.9427 76.3099 32.9471 76.3055 32.9636C76.3684 33.6515 76.729 34.3486 77.4658 34.8286C78.6076 35.576 80.0361 35.5173 81.1507 35.1802C82.3236 34.8234 84.026 34.4672 84.6437 33.4142C85.3208 32.2712 84.5863 30.9264 83.3641 30.2811ZM81.9027 33.0329C81.94 33.0253 81.9774 33.0176 82.0148 33.01C81.94 33.0253 82.0059 33.0429 82.2169 33.0465C82.1277 33.1815 82.0201 33.188 81.9027 33.0329Z"
    fill="#FFF8EA" />
  <path
    d="M63.6406 18.1445C65.2822 17.2246 65.5584 15.0735 64.667 13.4571C64.5676 12.9714 64.2319 12.5106 63.6114 12.256C63.1536 11.9214 62.6034 11.668 61.9641 11.5497C61.3906 11.449 60.8027 11.4681 60.2708 11.6081C58.45 11.6147 56.8373 12.2951 56.8854 14.3565C56.9707 17.3992 61.1469 19.5425 63.6406 18.1445Z"
    fill="#FFF8EA" />
  <path
    d="M46.3405 25.8352C46.0627 25.6196 45.7432 25.428 45.4225 25.3067C45.1656 25.079 44.8329 24.9368 44.4242 24.8803C43.7551 24.807 43.1407 24.9249 42.6273 25.1935C41.9358 25.4674 41.4264 25.9843 41.1289 26.6993C41.0209 26.9705 41.0238 27.2892 41.1388 27.5849C41.122 27.8453 41.1382 28.1145 41.1917 28.3761C41.6155 30.4852 44.0667 31.6188 45.9004 30.8387C47.8925 29.995 48.3252 27.3913 46.3405 25.8352ZM44.5666 27.9736L44.5501 27.9692C44.5546 27.9527 44.5755 27.9406 44.5755 27.9406C44.6008 27.9121 44.6008 27.9121 44.6172 27.9165C44.6128 27.933 44.6128 27.933 44.5919 27.9451C44.571 27.9571 44.5666 27.9736 44.5666 27.9736ZM44.5204 28.0142L44.5369 28.0186C44.5116 28.0471 44.4907 28.0592 44.5204 28.0142ZM44.2697 28.1589C44.2862 28.1634 44.3071 28.1513 44.3115 28.1348C44.3071 28.1513 44.2862 28.1634 44.2697 28.1589ZM44.4719 28.1954C44.5048 28.2043 44.5378 28.2131 44.5663 28.2384C44.5378 28.2131 44.5048 28.2043 44.4719 28.1954Z"
    fill="#FFF8EA" />
  <path
    d="M64.5064 41.4752C64.6168 41.0633 64.5909 40.6326 64.4694 40.2292C65.0397 39.2871 64.1837 37.539 62.6013 37.6447C62.1331 37.6782 61.6847 37.77 61.2725 37.9244C60.8341 37.9129 60.3945 37.9717 59.9867 38.1097C57.7684 38.8751 57.844 41.7563 60.0268 43.1005C61.182 43.7985 62.6278 43.9387 63.6286 43.2356C64.0432 42.9405 64.2447 42.5177 64.2607 42.0628C64.3675 41.8619 64.449 41.6894 64.5064 41.4752Z"
    fill="#FFF8EA" />
  <path
    d="M46.0041 39.1489C44.9522 39.4498 43.8794 39.7628 42.8275 40.0637C42.0042 40.3023 41.759 41.3491 42.1559 42.1089C42.521 42.7895 43.2106 43.1155 43.8853 43.1021C43.8809 43.1185 43.8721 43.1515 43.8677 43.168C43.7201 44.3117 45.3375 45.3278 46.3379 44.8895C48.0386 44.1443 48.9418 42.3554 48.4112 40.4473C48.1311 39.3833 46.9978 38.8677 46.0041 39.1489Z"
    fill="#FFF8EA" />
  <path
    d="M47.1077 19.8066C48.2534 20.0783 49.2927 19.2972 49.5411 18.3042C49.6073 18.057 49.6197 17.8131 49.5991 17.5603C49.8655 17.2255 49.9726 16.7598 49.8391 16.3355C49.5687 15.433 48.7376 14.9101 47.8146 14.9277C46.9454 14.942 46.1592 15.4377 45.7507 16.1053C45.721 16.1503 45.6868 16.2118 45.6736 16.2612C45.5085 16.4819 45.3314 16.6817 45.1663 16.9023C44.6678 17.5105 44.9796 18.6536 45.7328 19.138C45.8558 19.2063 45.9623 19.2701 46.0732 19.3175C46.3586 19.5706 46.7408 19.7259 47.1077 19.8066Z"
    fill="#FFF8EA" />
  <path
    d="M87.346 140.185C87.0208 141.069 88.0029 142.215 89.1958 141.652C89.6212 141.448 90.06 141.195 90.491 140.904C91.5538 140.694 92.4589 140.018 92.883 139.161C93.1573 138.599 93.0502 138.075 92.7222 137.652C92.6734 137.109 92.1794 136.712 91.6148 136.578C90.3362 135.353 87.7592 135.545 86.8564 137.069C86.4391 137.77 86.4679 138.519 86.7715 139.166C86.7611 139.534 86.9859 139.947 87.346 140.185Z"
    fill="#FFF8EA" />
  <path
    d="M95.0923 129.334C96.2907 129.672 97.398 129.033 98.2855 128.423C99.1476 127.842 99.8397 127.038 99.8442 126.033C99.8472 125.363 99.503 124.67 98.919 124.213C98.9005 124.085 98.8984 123.961 98.8799 123.832C98.6746 122.753 97.1078 122.669 96.4378 123.39C95.726 124.135 94.6235 124.493 93.9643 125.305C93.4361 125.958 93.223 126.82 93.4209 127.597C93.5815 128.381 94.1861 129.091 95.0923 129.334Z"
    fill="#FFF8EA" />
  <path
    d="M71.3448 140.454C71.2288 140.953 71.7413 141.479 72.2597 141.653C72.3586 141.679 72.4739 141.71 72.5728 141.737C73.1159 142.412 74.0427 142.908 75.0284 142.854C76.2295 142.787 76.9742 142.051 77.2082 141.177C77.3336 141.105 77.4424 141.028 77.5513 140.952C78.1292 141.036 78.7447 140.847 78.9949 140.243C79.6891 138.575 78.9946 136.817 77.4202 135.707C77.0316 135.444 76.4811 135.455 76.0524 135.605C74.8739 136.049 73.681 136.612 73.1172 137.662C72.9851 137.891 72.9144 138.155 72.8647 138.407C72.0378 138.856 71.5414 139.588 71.3448 140.454Z"
    fill="#FFF8EA" />
  <path
    d="M81.0177 132.167C81.5679 132.421 82.28 132.4 82.7443 131.853C83.234 131.278 83.8775 130.655 84.3727 129.993C84.968 129.288 85.4801 128.365 84.6943 127.607C84.6778 127.603 84.6778 127.603 84.6657 127.582C84.3586 127.146 83.826 126.827 83.1437 126.803C82.0768 126.765 81.1564 127.366 80.5535 128.034C79.9043 128.743 78.9165 129.662 78.9297 130.601C78.9207 131.623 79.9617 132.22 81.0177 132.167ZM80.9008 129.77C80.8799 129.782 80.8546 129.81 80.8337 129.822C80.8799 129.782 80.8217 129.801 80.6754 129.886C80.6943 129.75 80.7569 129.713 80.9008 129.77Z"
    fill="#FFF8EA" />
  <path
    d="M98.9835 132.407C98.2546 133.678 98.9197 135.216 100.174 135.94C100.434 136.222 100.828 136.398 101.359 136.328C101.788 136.373 102.261 136.323 102.731 136.149C103.16 135.999 103.529 135.744 103.84 135.439C105.06 134.707 105.848 133.611 104.99 132.268C103.729 130.253 100.079 130.493 98.9835 132.407Z"
    fill="#FFF8EA" />
  <path
    d="M107.445 120.406C107.717 120.443 108.003 120.432 108.277 120.399C108.528 120.449 108.818 120.421 109.102 120.285C109.581 120.078 109.934 119.748 110.176 119.372C110.528 118.918 110.657 118.37 110.588 117.769C110.563 117.533 110.422 117.336 110.234 117.18C110.142 116.996 110.029 116.824 109.874 116.677C108.757 115.442 106.668 115.659 105.749 116.914C104.754 118.254 105.5 120.15 107.445 120.406ZM107.77 118.268C107.787 118.272 107.787 118.272 107.77 118.268C107.787 118.272 107.782 118.289 107.782 118.289C107.778 118.305 107.774 118.322 107.774 118.322C107.778 118.305 107.778 118.305 107.782 118.289C107.782 118.289 107.787 118.272 107.77 118.268ZM107.796 118.239C107.779 118.235 107.779 118.235 107.796 118.239C107.788 118.202 107.788 118.202 107.796 118.239ZM107.902 118.038C107.882 118.05 107.882 118.05 107.877 118.067C107.882 118.05 107.886 118.034 107.902 118.038ZM107.744 118.102C107.723 118.114 107.69 118.105 107.669 118.117C107.707 118.11 107.728 118.097 107.744 118.102Z"
    fill="#FFF8EA" />
  <path
    d="M89.1223 117.209C89.2165 117.516 89.4062 117.797 89.6466 118.02C89.6489 118.868 90.9093 119.701 91.91 118.998C92.2113 118.796 92.4721 118.548 92.6833 118.286C92.9923 118.122 93.2442 117.907 93.4511 117.662C94.6372 116.267 93.4275 114.389 91.442 114.351C90.4037 114.338 89.3691 114.838 88.9989 115.692C88.8314 116.053 88.8749 116.418 89.0394 116.727C89.0612 116.91 89.0753 117.055 89.1223 117.209Z"
    fill="#FFF8EA" />
  <path
    d="M102.365 111.416C102.955 110.797 103.528 110.173 104.122 109.538C104.569 109.057 104.326 108.25 103.744 107.918C103.228 107.603 102.643 107.676 102.2 107.946C102.188 107.925 102.193 107.908 102.181 107.887C101.818 107.066 100.345 107.025 99.8579 107.724C99.0313 108.898 99.1294 110.443 100.241 111.5C100.86 112.09 101.822 111.994 102.365 111.416Z"
    fill="#FFF8EA" />
  <path
    d="M109.341 124.728C108.472 125.008 108.079 125.944 108.319 126.697C108.374 126.889 108.47 127.056 108.571 127.206C108.537 127.533 108.634 127.894 108.891 128.122C109.429 128.619 110.202 128.632 110.796 128.262C111.369 127.903 111.682 127.263 111.705 126.651C111.701 126.597 111.694 126.56 111.707 126.51C111.744 126.308 111.768 126.085 111.804 125.883C111.897 125.272 111.233 124.653 110.535 124.624C110.431 124.614 110.324 124.621 110.228 124.648C109.927 124.585 109.612 124.642 109.341 124.728Z"
    fill="#FFF8EA" />
</svg>