<svg
              width="157"
              height="151"
              viewBox="0 0 157 151"
              fill="none"
              xmlns="http://www.w3.org/2000/svg">
              <path
                d="M74.43 133.771C69.7715 136.322 65.6628 139.575 61.4778 142.798C57.5219 145.838 53.2452 148.908 48.3118 150.068C46.1124 150.588 43.5464 150.878 41.3622 150.221C40.3389 149.916 39.4072 149.335 38.8268 148.419C38.17 147.365 38.0478 146.082 37.9715 144.875C37.33 133.588 43.6533 123.538 45.3334 112.617C46.0971 107.684 46.0207 102.323 43.7449 97.7557C41.7746 93.7845 38.3533 90.9894 34.3821 89.1566C26.4245 85.4756 17.3365 85.1701 9.40945 81.3822C5.39245 79.4577 1.39072 76.1433 0.291003 71.6528C-0.655972 67.8038 0.779786 64.0312 3.55961 61.3277C6.47691 58.4868 10.3717 56.7303 14.1902 55.4473C16.4354 54.6989 18.7418 54.1491 21.0328 53.5839C24.1029 52.8355 27.1729 52.0718 30.2276 51.3234C33.2366 50.575 36.2608 49.8418 39.2697 49.0934C41.8968 48.4519 44.6003 47.9173 47.1052 46.8482C49.381 45.8859 51.3208 44.328 52.4052 42.0828C53.4133 39.9903 53.6271 37.6075 53.4285 35.3165C52.6037 25.6176 43.1034 16.9727 46.9677 6.90724C47.0899 6.60176 48.3118 3.82193 49.0755 3.30262C50.6334 1.46977 55.7654 0.33951 55.857 0.538069C61.4931 -0.653287 67.679 0.263139 73.1012 2.01962C83.2429 5.28821 92.1323 11.917 102.793 13.6735C114.493 15.598 125.322 9.87035 136.396 7.19744C143.697 5.44095 154.846 5.94498 156.496 15.1856C156.97 17.8585 156.588 20.5925 156.145 23.2502C155.686 25.9842 155.03 28.6877 154.22 31.3453C152.586 36.5995 150.28 41.6093 147.362 46.2678C142.2 54.5156 135.036 62.1372 132.669 71.8208C131.584 76.2349 131.783 80.7865 133.081 85.1396C134.303 89.2329 136.38 93.0208 138.671 96.6102C143.452 104.125 149.348 111.013 152.937 119.231C154.801 123.477 156.389 128.563 155.137 133.206C153.869 137.91 149.485 140.599 144.934 141.485C135.586 143.287 126.712 138.98 118.541 135.008C114.157 132.885 109.743 130.717 105.054 129.327C100.105 127.86 94.9885 127.494 89.887 128.273C84.4801 129.113 79.2412 131.129 74.43 133.771Z"
                fill="currentColor" />
              <path
                d="M30.1361 87.5071C29.6015 87.3391 29.067 87.171 28.5324 87.0183C29.067 80.084 28.624 73.0581 27.509 66.1849C26.7759 61.6638 25.7983 57.1581 24.6833 52.7134C25.2027 52.5912 25.7067 52.4537 26.226 52.3315C27.0966 55.814 27.8908 59.3117 28.5476 62.8399C30.075 70.9503 30.7929 79.2745 30.1361 87.5071Z"
                fill="white" />
              <path
                d="M51.0917 103.438C50.6335 116.925 47.594 130.259 42.8592 142.875C42.0038 145.151 41.0874 147.427 40.1251 149.672C39.6211 149.351 39.1629 148.954 38.8421 148.419C38.7505 148.282 38.6894 148.144 38.613 148.007C38.7963 147.579 38.9949 147.136 39.1629 146.709C44.3407 134.291 47.8231 121.11 48.8617 107.684C49.381 101.055 49.3047 94.396 48.5562 87.7977C47.7315 80.4052 46.311 73.089 44.6003 65.8493C43.2562 60.1674 41.7442 54.5467 40.2321 48.9107C40.7666 48.7885 41.3165 48.651 41.8511 48.5288C42.9661 52.5611 44.0963 56.5934 45.1349 60.6409C48.7243 74.6012 51.5957 88.928 51.0917 103.438Z"
                fill="white" />
              <path
                d="M66.7475 51.7055C67.9236 68.583 67.1446 85.5828 64.8383 102.323C62.7458 117.49 59.4925 132.58 55.0631 147.258C54.2688 147.717 53.4593 148.159 52.6345 148.541C56.4988 136.017 59.4314 123.156 61.6002 110.265C64.3495 93.907 65.663 77.3044 65.2201 60.717C64.9757 51.3389 64.151 41.9608 62.6694 32.7049C61.4322 24.9458 59.7063 17.2173 57.0639 9.8095C55.9947 6.81584 54.7423 3.91382 53.3676 1.10345C53.9633 0.920163 54.5285 0.767424 54.9714 0.675781C55.674 2.08097 56.346 3.5167 56.9723 4.96771C63.2345 19.6458 65.6325 35.8666 66.7475 51.7055Z"
                fill="white" />
              <path
                d="M87.2753 49.0323C87.6113 64.6574 86.8476 80.4199 84.7703 95.9075C83.1208 108.203 80.5853 120.376 77.2404 132.32C76.5531 132.656 75.881 132.992 75.209 133.344C78.0499 123.446 80.3257 113.396 81.9906 103.239C84.4496 88.3165 85.473 73.226 85.6715 58.1202C85.8854 41.3954 85.03 24.2582 79.3787 8.37349C78.8136 6.80029 78.2179 5.24236 77.607 3.69971C78.2332 3.95936 78.8594 4.23429 79.4856 4.50922C82.1738 11.3366 84.1441 18.3473 85.3202 25.6023C86.5879 33.3614 87.1073 41.1968 87.2753 49.0323Z"
                fill="white" />
              <path
                d="M108.093 107.516C106.062 114.603 103.618 121.522 100.961 128.365C100.319 128.258 99.6776 128.166 99.0361 128.09C101.006 123.019 102.824 117.887 104.474 112.694C109.835 95.7249 113.103 78.099 113.088 60.2592C113.088 44.5272 110.797 28.6119 104.978 13.9644C105.619 14.0255 106.261 14.056 106.902 14.0713C111.851 26.7332 114.264 40.2353 114.89 53.89C115.715 72.0353 113.073 90.1042 108.093 107.516Z"
                fill="white" />
              <path
                d="M125.689 138.323C125.017 138.033 124.33 137.743 123.673 137.437C127.003 128.93 129.782 120.178 132.104 111.411C133.754 105.164 135.159 98.8404 136.243 92.4712C136.793 93.4793 137.373 94.4721 137.969 95.4496C137.312 99.0542 136.549 102.659 135.693 106.218C133.112 117.062 129.798 127.876 125.689 138.323Z"
                fill="white" />
              <path
                d="M132.715 20.6994C131.493 16.8962 130.072 13.1694 128.469 9.53423C129.049 9.35094 129.645 9.16766 130.225 8.98437C131.142 11.0311 131.997 13.093 132.791 15.1703C137.725 28.153 140.275 41.8994 140.902 55.7527C140.214 56.7455 139.527 57.7383 138.87 58.7464C138.565 45.8553 136.671 32.9795 132.715 20.6994Z"
                fill="white" />
              <path
                d="M98.8221 42.6179C98.7457 42.6485 98.6999 42.6485 98.593 42.6943C98.761 42.5263 98.8068 42.5415 98.8221 42.6179Z"
                fill="white" />
              <path
                d="M97.8141 43.4578C97.7836 43.1982 97.6156 43.0149 97.2948 43.0913C97.4475 42.74 97.6156 42.4039 97.8905 42.0526C98.0738 41.9457 98.2418 41.8083 98.2112 41.7472C98.1502 41.5486 97.9821 41.5181 97.9058 41.6555C97.8447 41.7624 97.8141 41.8999 97.7836 42.0221C97.1574 41.961 97.2337 41.5791 97.3712 40.9987C97.9668 41.3959 98.1196 40.7238 98.5473 40.5405C98.8069 41.0293 99.0513 41.5181 99.311 42.0068C99.0055 42.0068 98.8375 42.1748 98.6694 42.5414C98.4862 42.6025 98.4251 42.74 98.5778 42.6941C98.4098 42.908 98.5014 43.0149 98.5167 42.9996C98.6236 42.9385 98.7611 42.8621 98.8069 42.7552C99.036 42.5414 99.1888 42.5261 99.3263 42.5108C99.3415 42.8469 99.3415 43.1982 99.3568 43.5342C98.9749 43.6258 98.3793 43.3051 98.3487 44.0688C97.8752 44.1299 97.8599 43.8091 97.8141 43.4578Z"
                fill="white" />
              <path
                d="M92.1171 39.4412C91.9186 39.2885 91.7505 39.0899 91.5825 38.8913C91.9185 38.372 92.5295 38.8302 92.9419 38.5095C93.3695 38.1735 93.5681 37.4861 94.5151 37.5625C94.2554 38.7844 93.8278 39.3954 93.1099 39.6245C92.7128 39.7467 92.4226 39.655 92.1782 39.4717C92.0865 40.0369 92.3462 40.4493 91.8421 40.6478C91.4756 40.3271 91.5367 40.0063 92.1171 39.4412Z"
                fill="white" />
              <path
                d="M101.174 35.8211C101.51 35.8058 101.862 35.8058 102.198 35.7905C102.137 36.2029 102.564 36.2793 102.686 36.4931C102.32 37.2721 101.526 37.4248 100.884 37.7761C100.319 37.0124 100.93 36.4473 101.174 35.8211Z"
                fill="white" />
              <path
                d="M105.665 36.5846C104.687 37.1039 104.03 36.2181 103.221 35.8973C104.076 35.882 105.207 35.21 105.665 36.5846Z"
                fill="white" />
              <path
                d="M135.983 49.1398C136.182 49.1398 136.411 49.1245 136.625 49.1245C136.93 49.6133 136.93 50.0715 136.671 50.5755C136.472 50.5755 136.243 50.5908 136.029 50.5908C135.724 50.102 135.709 49.6438 135.983 49.1398Z"
                fill="white" />
              <path
                d="M133.448 20.1195C134.059 20.1043 134.441 20.089 134.899 20.0737C133.723 21.5706 133.723 21.5706 133.494 21.3567C133.463 20.9902 133.448 20.6083 133.448 20.1195Z"
                fill="white" />
              <path
                d="M100.166 28.123C100.456 28.5813 100.96 28.6882 100.96 28.6882C100.609 29.406 100.411 29.8032 100.059 30.521C99.9981 29.4977 99.7537 28.8562 100.166 28.123Z"
                fill="white" />
              <path
                d="M91.8725 32.5218C91.8572 32.7661 91.9183 32.9952 92.2238 32.9189C92.3001 32.9036 92.3307 32.6592 92.3765 32.5065C92.5445 32.5065 92.7126 32.4912 92.8806 32.4912C93.2319 33.8353 91.9641 33.4535 91.3226 34.4463C91.5212 33.3771 90.9255 32.705 91.8725 32.5218Z"
                fill="white" />
              <path
                d="M73.6052 51.1254C73.758 50.8352 74.0329 50.9268 74.262 50.9268C74.4911 50.9268 74.7202 50.9574 75.2242 51.0032C73.8649 52.2556 73.8649 52.2709 73.6052 51.1254Z"
                fill="white" />
              <path
                d="M130.149 13.8268C130.149 13.3991 130.011 12.9409 130.286 12.5438C130.607 12.3911 130.897 12.3758 131.111 12.7118C130.225 13.002 131.34 13.613 130.912 13.9795C130.668 13.9795 130.439 13.9948 130.194 13.9948C130.164 14.453 130.317 14.8043 129.874 14.9876C129.553 14.6821 129.614 14.3614 130.149 13.8268Z"
                fill="white" />
              <path
                d="M141.955 15.9656C142.184 15.6601 142.459 15.6143 142.887 15.7975C142.902 16.2099 142.918 16.6529 142.933 17.2486C142.368 16.882 141.909 16.6223 141.955 15.9656Z"
                fill="white" />
              <path
                d="M114.127 67.6211C114.539 68.1251 114.539 68.6292 114.188 69.1637C113.134 68.7972 113.134 68.7972 114.127 67.6211Z"
                fill="white" />
              <path
                d="M128.957 25.3886C128.957 25.0526 128.988 24.7624 129.461 24.7471C129.782 24.7319 129.935 24.8846 129.965 25.1443C130.011 25.4956 129.95 25.7858 129.477 25.801C129.156 25.801 129.034 25.6483 128.957 25.3886Z"
                fill="white" />
              <path
                d="M109.163 46.8338C109.224 46.4214 108.872 45.7799 109.712 45.7952C109.987 45.7952 110.14 45.9479 110.155 46.2229C110.217 47.0476 109.575 46.7422 109.163 46.8338Z"
                fill="white" />
              <path
                d="M107.07 36.5996C107.437 37.1953 107.452 37.6535 107.116 38.2645C106.734 37.623 106.765 37.1647 107.07 36.5996Z"
                fill="white" />
              <path
                d="M130.836 14.7891C130.989 14.9418 131.264 15.1862 131.401 15.3236C130.821 15.4917 130.821 15.4917 130.836 14.7891Z"
                fill="white" />
              <path
                d="M126.132 13.8728C125.536 14.2394 125.078 14.2546 124.467 13.9186C125.109 13.5215 125.567 13.552 126.132 13.8728Z"
                fill="white" />
              <path
                d="M103.771 52.2407C104.138 52.424 104.474 52.592 104.962 52.8364C103.954 53.2488 103.572 53.1724 103.771 52.2407Z"
                fill="white" />
              <path
                d="M101.633 34.2632C101.923 34.2937 102.335 34.2174 102.503 34.3854C102.809 34.7061 102.213 34.7825 102.182 35.0421C102.167 35.1185 102.182 35.1949 102.182 35.2713C101.403 35.256 101.724 34.6603 101.633 34.2632Z"
                fill="white" />
              <path
                d="M97.1878 71.4552C96.5463 71.8523 96.0881 71.8218 95.5229 71.501C96.1186 71.1497 96.5616 71.1345 97.1878 71.4552Z"
                fill="white" />
              <path
                d="M143.086 18.9589C143.025 18.852 143.025 18.7756 143.07 18.7298C142.902 18.7298 142.734 18.7451 142.566 18.7451C142.612 18.7909 142.612 18.8673 142.566 18.9742C142.521 19.0811 142.383 19.1575 142.276 19.2186C142.261 19.2338 142.169 19.1269 142.108 19.0658C142.185 18.9589 142.246 18.8215 142.353 18.7756C142.459 18.7145 142.536 18.7145 142.582 18.7604C142.78 18.3327 141.894 18.3021 142.185 17.8287C143.193 17.4926 143.055 18.1952 143.086 18.7451C143.132 18.6993 143.208 18.6993 143.315 18.7451C143.422 18.7909 143.498 18.9284 143.559 19.0353C143.574 19.0506 143.468 19.1422 143.406 19.2033C143.269 19.1117 143.132 19.0658 143.086 18.9589Z"
                fill="white" />
              <path
                d="M132.913 12.3452C133.265 12.8034 133.418 13.1242 132.868 13.3533C132.577 13.0631 132.593 12.7729 132.913 12.3452Z"
                fill="white" />
              <path
                d="M93.7513 43.9614C93.4152 44.3433 93.0792 44.3586 92.7126 43.992C93.0639 43.6101 93.4 43.5949 93.7513 43.9614Z"
                fill="white" />
              <path
                d="M92.8959 31.9869C92.9112 31.8342 92.9723 31.5898 93.0486 31.5745C93.3541 31.4981 93.3999 31.7273 93.3999 31.9716C93.3999 32.1396 93.4152 32.3077 93.4152 32.4757C93.2472 32.4757 93.0792 32.4909 92.9112 32.4909C92.8959 32.3229 92.8653 32.1396 92.8959 31.9869Z"
                fill="white" />
              <path
                d="M93.4152 32.4763C93.5679 32.4763 93.7207 32.4611 93.8734 32.4611C93.904 32.0028 93.7512 31.6515 94.1942 31.4683C94.5455 31.8043 94.5149 32.1403 93.8428 32.736C93.461 32.9498 93.3999 32.7207 93.4152 32.4763Z"
                fill="white" />
              <path
                d="M95.4009 73.8071C95.7828 74.1432 95.798 74.4792 95.4314 74.8457C95.0496 74.5097 95.0343 74.1584 95.4009 73.8071Z"
                fill="white" />
              <path
                d="M95.2787 41.3194C95.3703 40.9834 95.8285 40.9834 96.1798 41.2889C96.0882 41.3958 95.9507 41.5944 95.9202 41.5791C95.7064 41.4569 95.2329 41.8235 95.2481 41.4416C95.0954 42.0526 95.5842 42.0526 95.7369 42.4803C95.3245 42.4497 95.3856 43.1676 94.851 43.0454C94.7441 42.5261 94.515 42.0526 95.2787 41.3194Z"
                fill="white" />
              <path
                d="M97.799 59.6787C97.463 60.0606 97.1269 60.0758 96.7756 59.7093C97.0964 59.3274 97.4324 59.3274 97.799 59.6787Z"
                fill="white" />
              <path
                d="M137.022 54.9591C136.61 55.2798 136.335 55.3409 136.06 55.0507C136.335 54.6078 136.61 54.6078 137.022 54.9591Z"
                fill="white" />
              <path
                d="M98.3487 44.0838C98.6847 44.0685 99.036 44.0685 99.372 44.0532C99.4331 44.3587 99.2498 44.5267 99.0054 44.5725C98.6541 44.6031 98.3334 44.5573 98.3487 44.0838Z"
                fill="white" />
              <path
                d="M103.206 35.7597C102.87 35.775 102.519 35.775 102.183 35.7902C102.183 35.6222 102.167 35.4542 102.167 35.2862C102.564 35.3473 103.145 34.996 103.206 35.7597Z"
                fill="white" />
              <path
                d="M103.756 34.905C104.046 34.6148 104.336 34.6301 104.764 34.9508C104.305 35.2869 103.985 35.4549 103.756 34.905Z"
                fill="white" />
              <path
                d="M139.557 12.1924C139.939 12.5284 139.955 12.8644 139.588 13.231C139.206 12.8797 139.191 12.5437 139.557 12.1924Z"
                fill="white" />
              <path
                d="M107.116 18.3174C107.406 18.6076 107.391 18.8978 107.07 19.3255C106.719 18.8672 106.566 18.5465 107.116 18.3174Z"
                fill="white" />
              <path
                d="M108.445 46.8638C108.674 47.0013 109.224 46.5278 109.132 47.0624C109.056 47.4747 108.552 47.4748 108.185 47.154C108.277 47.0471 108.414 46.8485 108.445 46.8638Z"
                fill="white" />
              <path
                d="M109.33 35.3174C108.994 35.6992 108.658 35.7145 108.307 35.3479C108.643 34.9661 108.979 34.9661 109.33 35.3174Z"
                fill="white" />
              <path
                d="M114.921 34.1258C114.585 34.5076 114.249 34.5229 113.897 34.1563C114.218 33.7898 114.57 33.7745 114.921 34.1258Z"
                fill="white" />
              <path
                d="M115.486 27.7256C115.868 28.0616 115.883 28.3976 115.516 28.7489C115.135 28.4129 115.135 28.0769 115.486 27.7256Z"
                fill="white" />
              <path
                d="M119.747 45.1536C119.778 45.1842 119.778 45.2911 119.747 45.3217C119.472 45.5966 119.198 45.5966 118.785 45.2453C119.182 44.9245 119.472 44.8634 119.747 45.1536Z"
                fill="white" />
              <path
                d="M147.5 13.2315C147.164 13.6133 146.828 13.6286 146.477 13.262C146.813 12.8802 147.149 12.8802 147.5 13.2315Z"
                fill="white" />
              <path
                d="M123.52 22.3345C123.841 22.7469 123.902 23.0218 123.612 23.312C123.169 23.0371 123.169 22.7469 123.52 22.3345Z"
                fill="white" />
              <path
                d="M125.185 35.8672C124.849 36.249 124.513 36.2643 124.161 35.8977C124.497 35.5159 124.833 35.5159 125.185 35.8672Z"
                fill="white" />
              <path
                d="M128.331 15.6753C128.774 15.9502 128.774 16.2404 128.423 16.6528C128.102 16.2404 128.056 15.9502 128.331 15.6753Z"
                fill="white" />
              <path
                d="M77.8055 40.3423C77.4695 40.7241 77.1335 40.7394 76.7822 40.3729C77.1182 39.991 77.4542 39.9757 77.8055 40.3423Z"
                fill="white" />
              <path
                d="M86.481 55.341C86.7712 55.0508 87.0614 55.0661 87.489 55.3869C87.0308 55.7382 86.7101 55.8909 86.481 55.341Z"
                fill="white" />
              <path
                d="M87.9473 59.251C88.1 59.5717 88.2069 59.8467 87.8403 60.259C87.5043 59.8161 87.3363 59.4954 87.9473 59.251Z"
                fill="white" />
              <path
                d="M65.9836 66.063C66.0905 66.1241 66.2127 66.1699 66.3196 66.231C66.2585 66.2921 66.1974 66.399 66.1516 66.399C66.0294 66.3685 65.9225 66.3074 65.8003 66.2463C65.8614 66.2005 65.9072 66.1394 65.9836 66.063Z"
                fill="white" />
              <path
                d="M71.6502 51.0952C71.7724 51.1105 71.8793 51.1869 72.0015 51.248C71.9404 51.3091 71.8946 51.3701 71.8182 51.4312C71.7113 51.3701 71.5891 51.3243 71.4822 51.2632C71.5433 51.2021 71.6043 51.0952 71.6502 51.0952Z"
                fill="white" />
              <path
                d="M87.489 54.4395C87.5501 54.3326 87.5959 54.2257 87.657 54.1035C87.7181 54.1646 87.825 54.2257 87.825 54.2715C87.7944 54.3937 87.7334 54.5006 87.6723 54.6228C87.6265 54.5617 87.5654 54.5006 87.489 54.4395Z"
                fill="white" />
              <path
                d="M88.0847 22.7315C88.1458 22.6246 88.1917 22.5177 88.2528 22.3955C88.3138 22.4566 88.4207 22.5177 88.4207 22.5635C88.4055 22.6857 88.3291 22.7926 88.268 22.9148C88.2069 22.8537 88.1611 22.8079 88.0847 22.7315Z"
                fill="white" />
              <path
                d="M90.5591 39.9605C90.666 39.8994 90.7729 39.823 90.8951 39.7925C90.9409 39.7772 91.002 39.8841 91.0631 39.9452C90.9562 40.0063 90.8493 40.0674 90.7424 40.1438C90.6813 40.0674 90.6202 40.0216 90.5591 39.9605Z"
                fill="white" />
              <path
                d="M91.3228 42.8472C91.445 42.8777 91.5519 42.9388 91.6741 42.9999C91.613 43.061 91.5519 43.1679 91.5061 43.1679C91.3839 43.1526 91.277 43.0763 91.1548 43.0152C91.2159 42.9541 91.2922 42.8472 91.3228 42.8472Z"
                fill="white" />
              <path
                d="M92.0407 32.1097C92.3462 32.0333 92.4073 32.2624 92.392 32.5068C92.224 32.5068 92.056 32.5221 91.8879 32.5221C91.9338 32.3693 91.949 32.1249 92.0407 32.1097Z"
                fill="white" />
              <path
                d="M92.6516 41.4417C92.7585 41.3806 92.8655 41.3195 92.9724 41.2432C93.0488 41.3043 93.0946 41.3654 93.1557 41.4264C93.0488 41.4875 92.9418 41.5639 92.8196 41.5945C92.7891 41.5945 92.7127 41.4875 92.6516 41.4417Z"
                fill="white" />
              <path
                d="M93.8888 42.7705C94.011 42.8011 94.1179 42.8621 94.2401 42.9232C94.179 42.9843 94.1332 43.0454 94.0721 43.1065C93.9652 43.0454 93.843 42.9996 93.7361 42.9385C93.7666 42.8774 93.843 42.7705 93.8888 42.7705Z"
                fill="white" />
              <path
                d="M95.9661 32.6444C96.073 32.5833 96.1799 32.5222 96.2868 32.4458C96.3632 32.5069 96.409 32.568 96.4701 32.6291C96.3632 32.6902 96.2562 32.7665 96.1341 32.7971C96.1035 32.8124 96.0272 32.7055 95.9661 32.6444Z"
                fill="white" />
              <path
                d="M96.3479 43.9317C96.4243 43.8248 96.4854 43.6873 96.5923 43.6415C96.6992 43.5804 96.7756 43.5804 96.8214 43.6262C96.8061 43.2749 96.9589 43.1069 97.3102 43.1069C97.3254 43.4582 97.1727 43.6262 96.8214 43.6262C96.8672 43.6721 96.8672 43.7484 96.8214 43.8554C96.7756 43.9623 96.6381 44.0386 96.5312 44.0997C96.4854 44.0845 96.409 43.9775 96.3479 43.9317Z"
                fill="white" />
              <path
                d="M97.0047 44.7259C97.1268 44.7565 97.2338 44.8176 97.356 44.8787C97.2949 44.9397 97.2338 45.0467 97.1879 45.0467C97.0657 45.0161 96.9589 44.955 96.8367 44.8939C96.8978 44.8328 96.9588 44.7106 97.0047 44.7259Z"
                fill="white" />
              <path
                d="M98.5472 45.1841C98.6694 45.2146 98.7763 45.2757 98.8985 45.3368C98.8374 45.3979 98.7915 45.459 98.7152 45.5201C98.6083 45.459 98.5013 45.4132 98.3792 45.3521C98.4402 45.291 98.5014 45.1841 98.5472 45.1841Z"
                fill="white" />
              <path
                d="M99.0819 28.8255C99.204 28.8408 99.3109 28.9172 99.4331 28.9783C99.372 29.0394 99.311 29.1463 99.2651 29.1463C99.1429 29.131 99.036 29.0546 98.9138 28.9935C98.9749 28.9324 99.0513 28.8103 99.0819 28.8255Z"
                fill="white" />
              <path
                d="M99.3874 37.471C99.4638 37.4404 99.586 37.6084 99.6929 37.6848C99.6929 37.7612 99.6929 37.8375 99.6929 37.9139C99.5554 37.8681 99.418 37.8528 99.2958 37.7764C99.1583 37.6848 99.1889 37.532 99.3874 37.471Z"
                fill="white" />
              <path
                d="M99.311 42.0068C99.4485 42.0527 99.6929 42.0832 99.7234 42.1748C99.7998 42.4803 99.5707 42.5414 99.3263 42.5261C99.3263 42.3429 99.311 42.1748 99.311 42.0068Z"
                fill="white" />
              <path
                d="M99.3567 43.5342C99.4942 43.58 99.7385 43.6105 99.7691 43.7022C99.8454 44.0077 99.6164 44.0688 99.372 44.0535C99.372 43.8855 99.3567 43.7022 99.3567 43.5342Z"
                fill="white" />
              <path
                d="M99.6318 34.1103C99.7082 34.0033 99.7693 33.8659 99.8762 33.8201C99.9831 33.759 100.059 33.759 100.105 33.8048C100.166 33.316 99.8915 32.7509 100.579 32.2163C99.9831 33.1633 101.175 33.148 101.129 33.7742C100.793 33.7895 100.457 33.7895 100.105 33.8048C100.151 33.8506 100.151 33.927 100.105 34.0339C100.059 34.1408 99.922 34.2172 99.8151 34.2783C99.7693 34.2783 99.6929 34.1713 99.6318 34.1103Z"
                fill="white" />
              <path
                d="M100.854 35.3782C100.93 35.3476 101.052 35.5156 101.159 35.592C101.159 35.6684 101.159 35.7447 101.159 35.8211C101.022 35.7753 100.884 35.76 100.762 35.6837C100.64 35.6073 100.67 35.4393 100.854 35.3782Z"
                fill="white" />
              <path
                d="M101.236 31.8042C101.342 31.8653 101.449 31.9111 101.572 31.9722C101.51 32.0333 101.449 32.1402 101.404 32.1402C101.281 32.1097 101.174 32.0486 101.052 31.9875C101.113 31.9264 101.174 31.8653 101.236 31.8042Z"
                fill="white" />
              <path
                d="M101.113 33.7745C101.465 33.744 101.648 33.912 101.633 34.2633C101.281 34.2938 101.113 34.1258 101.113 33.7745Z"
                fill="white" />
              <path
                d="M109.193 30.9793C109.056 30.9335 108.918 30.9182 108.796 30.8419C108.659 30.7655 108.689 30.6128 108.888 30.5364C108.964 30.5058 109.086 30.6738 109.193 30.7502C109.193 30.8266 109.193 30.903 109.193 30.9793C109.606 31.0404 110.247 30.6891 110.232 31.5292C110.232 31.8041 110.079 31.9568 109.804 31.9874C108.979 32.0332 109.285 31.3917 109.193 30.9793Z"
                fill="white" />
              <path
                d="M111.194 38.0815C111.255 38.1885 111.316 38.2954 111.377 38.4023C111.316 38.4787 111.255 38.5245 111.209 38.5856C111.148 38.4787 111.072 38.3717 111.041 38.2495C111.026 38.2037 111.148 38.1274 111.194 38.0815Z"
                fill="white" />
              <path
                d="M116.341 47.3525C116.28 47.2456 116.28 47.1692 116.326 47.1234C116.188 47.0775 116.051 47.0623 115.929 46.9859C115.791 46.9095 115.822 46.7568 116.02 46.6804C116.082 46.6499 116.219 46.8179 116.326 46.8943C116.326 46.9706 116.326 47.047 116.326 47.1234C116.372 47.0775 116.448 47.0775 116.555 47.1234C116.662 47.1692 116.738 47.3067 116.799 47.4136C116.815 47.4288 116.708 47.5205 116.647 47.5816C116.525 47.5052 116.387 47.4441 116.341 47.3525Z"
                fill="white" />
              <path
                d="M118.189 47.169C118.235 47.1537 118.296 47.2606 118.357 47.3217C118.25 47.3828 118.144 47.4439 118.037 47.5203C117.96 47.4592 117.914 47.3981 117.853 47.337C117.975 47.2759 118.082 47.1995 118.189 47.169Z"
                fill="white" />
              <path
                d="M118.342 46.2991C118.449 46.238 118.556 46.177 118.663 46.1006C118.739 46.1617 118.785 46.2228 118.846 46.2839C118.739 46.345 118.632 46.4213 118.51 46.4519C118.464 46.4672 118.403 46.3602 118.342 46.2991Z"
                fill="white" />
              <path
                d="M119.64 47.0317C119.701 47.1387 119.763 47.2456 119.839 47.3525C119.778 47.4289 119.717 47.4747 119.656 47.5358C119.595 47.4289 119.518 47.3219 119.488 47.1998C119.472 47.1539 119.579 47.0776 119.64 47.0317Z"
                fill="white" />
              <path
                d="M121.336 21.0052C121.458 21.0358 121.565 21.0969 121.687 21.158C121.626 21.219 121.565 21.326 121.519 21.326C121.397 21.3107 121.29 21.2343 121.168 21.1732C121.229 21.1121 121.29 20.9899 121.336 21.0052Z"
                fill="white" />
              <path
                d="M122.512 14.4833C122.619 14.4222 122.726 14.3458 122.848 14.3153C122.894 14.3 122.955 14.4222 123.016 14.468C122.909 14.5291 122.802 14.5902 122.695 14.6666C122.619 14.5902 122.558 14.5444 122.512 14.4833Z"
                fill="white" />
              <path
                d="M127.735 13.1551C127.858 13.1704 127.964 13.2468 128.087 13.3079C128.026 13.369 127.98 13.43 127.903 13.4911C127.796 13.43 127.69 13.3842 127.567 13.3231C127.628 13.262 127.705 13.1398 127.735 13.1551Z"
                fill="white" />
              <path
                d="M128.117 25.9082C128.239 25.9388 128.346 25.9998 128.469 26.0609C128.407 26.122 128.362 26.1831 128.285 26.2442C128.178 26.1831 128.071 26.1373 127.949 26.0762C128.01 26.0151 128.071 25.9082 128.117 25.9082Z"
                fill="white" />
              <path
                d="M128.178 10.5732C128.239 10.5885 128.301 10.6038 128.346 10.6343C128.27 10.6343 128.178 10.6191 128.102 10.6191C128.133 10.6038 128.163 10.5732 128.178 10.5732Z"
                fill="white" />
              <path
                d="M128.347 10.9098C128.24 10.8487 128.133 10.8029 128.01 10.7418C128.041 10.7113 128.072 10.6655 128.102 10.6196C128.179 10.6196 128.27 10.6196 128.347 10.6349C128.408 10.6655 128.469 10.696 128.515 10.7265C128.469 10.7876 128.408 10.8487 128.347 10.9098Z"
                fill="white" />
              <path
                d="M129.355 15.6595C129.477 15.6748 129.584 15.7512 129.706 15.8123C129.645 15.8733 129.584 15.9803 129.538 15.9803C129.416 15.9497 129.309 15.8886 129.187 15.8275C129.248 15.7664 129.309 15.6442 129.355 15.6595Z"
                fill="white" />
              <path
                d="M129.645 10.604C129.629 10.5582 129.752 10.4971 129.797 10.436C129.858 10.543 129.92 10.6499 129.981 10.7568C129.889 10.7415 129.782 10.7415 129.69 10.7415C129.66 10.6957 129.645 10.6499 129.645 10.604Z"
                fill="white" />
              <path
                d="M129.813 10.9399C129.767 10.8635 129.721 10.8024 129.69 10.7261C129.782 10.7261 129.889 10.7413 129.981 10.7413C129.981 10.7413 129.981 10.7413 129.981 10.7566C129.92 10.833 129.858 10.8941 129.813 10.9399Z"
                fill="white" />
              <path
                d="M130.851 11.4287C130.912 11.5356 130.973 11.6425 131.035 11.7495C130.973 11.8258 130.912 11.8717 130.867 11.9327C130.805 11.8258 130.729 11.7189 130.698 11.5967C130.683 11.5662 130.79 11.4898 130.851 11.4287Z"
                fill="white" />
              <path
                d="M136.075 53.2791C136.197 53.3097 136.304 53.3708 136.426 53.4319C136.365 53.493 136.319 53.5541 136.258 53.6152C136.151 53.5541 136.029 53.5082 135.922 53.4472C135.968 53.3861 136.045 53.2639 136.075 53.2791Z"
                fill="white" />
              <path
                d="M142.872 20.7764C142.933 20.8833 142.994 20.9902 143.055 21.0971C142.994 21.1735 142.933 21.2193 142.887 21.2804C142.826 21.1735 142.75 21.0666 142.719 20.9444C142.704 20.9138 142.811 20.8375 142.872 20.7764Z"
                fill="white" />
              <path
                d="M146.858 23.052C146.889 22.9298 146.95 22.8229 147.011 22.7007C147.072 22.7618 147.133 22.8076 147.194 22.884C147.133 22.9909 147.087 23.1131 147.026 23.22C146.965 23.1589 146.858 23.0978 146.858 23.052Z"
                fill="white" />
              <path
                d="M55.5365 135.391C55.4601 135.421 55.4143 135.421 55.3074 135.467C55.4907 135.284 55.5365 135.314 55.5365 135.391Z"
                fill="white" />
              <path
                d="M49.0143 142.096C48.9838 141.836 48.8157 141.653 48.495 141.729C48.6477 141.378 48.8157 141.042 49.0907 140.691C49.274 140.584 49.442 140.446 49.4114 140.385C49.3503 140.187 49.1823 140.156 49.106 140.294C49.0449 140.401 49.0143 140.538 48.9837 140.66C48.3575 140.599 48.4339 140.217 48.5714 139.637C49.167 140.034 49.3198 139.362 49.7474 139.179C50.0071 139.667 50.2515 140.156 50.5111 140.645C50.2057 140.645 50.0377 140.813 49.8697 141.18C49.6864 141.241 49.6253 141.378 49.778 141.332C49.61 141.546 49.7016 141.653 49.7169 141.638C49.8238 141.577 49.9613 141.5 50.0071 141.393C50.2362 141.18 50.389 141.164 50.5264 141.149C50.5417 141.485 50.5417 141.836 50.5569 142.172C50.1751 142.264 49.5794 141.943 49.5489 142.707C49.0754 142.768 49.0754 142.447 49.0143 142.096Z"
                fill="white" />
              <path
                d="M62.3943 129.343C61.4167 129.862 60.76 128.976 59.9504 128.655C60.8058 128.64 61.936 127.983 62.3943 129.343Z"
                fill="white" />
              <path
                d="M143.803 126.777C144.002 126.777 144.231 126.762 144.445 126.762C144.75 127.25 144.75 127.709 144.491 128.213C144.292 128.213 144.063 128.228 143.849 128.228C143.544 127.739 143.529 127.281 143.803 126.777Z"
                fill="white" />
              <path
                d="M90.1621 112.877C90.7731 112.862 91.1549 112.847 91.6131 112.832C90.437 114.328 90.437 114.328 90.2079 114.115C90.1927 113.763 90.1774 113.381 90.1621 112.877Z"
                fill="white" />
              <path
                d="M56.8958 120.896C57.1861 121.354 57.6901 121.461 57.6901 121.461C57.3388 122.179 57.1403 122.576 56.789 123.294C56.7279 122.271 56.4835 121.614 56.8958 120.896Z"
                fill="white" />
              <path
                d="M55.2156 107.639C55.3683 107.348 55.6432 107.44 55.8723 107.44C56.1014 107.44 56.3306 107.471 56.8346 107.516C55.4752 108.769 55.46 108.784 55.2156 107.639Z"
                fill="white" />
              <path
                d="M86.8781 106.6C86.8781 106.172 86.7407 105.714 87.0156 105.317C87.3363 105.164 87.6266 105.149 87.8404 105.485C86.9545 105.775 88.0695 106.386 87.6418 106.752C87.3974 106.752 87.1683 106.768 86.924 106.768C86.8934 107.226 87.0462 107.577 86.6032 107.761C86.2825 107.44 86.3436 107.119 86.8781 106.6Z"
                fill="white" />
              <path
                d="M98.6849 108.723C98.914 108.418 99.1889 108.372 99.6166 108.555C99.6319 108.968 99.6471 109.411 99.6624 110.006C99.082 109.655 98.6391 109.38 98.6849 108.723Z"
                fill="white" />
              <path
                d="M130.958 119.95C131.371 120.454 131.371 120.958 131.019 121.492C129.965 121.126 129.95 121.126 130.958 119.95Z"
                fill="white" />
              <path
                d="M85.6868 118.162C85.6868 117.826 85.7173 117.536 86.1908 117.521C86.5116 117.505 86.6643 117.658 86.6948 117.918C86.7407 118.269 86.6796 118.559 86.2061 118.574C85.8853 118.574 85.7631 118.422 85.6868 118.162Z"
                fill="white" />
              <path
                d="M116.983 124.455C117.044 124.043 116.692 123.401 117.533 123.416C117.807 123.416 117.96 123.569 117.975 123.844C118.037 124.684 117.395 124.379 116.983 124.455Z"
                fill="white" />
              <path
                d="M63.7994 129.374C64.166 129.969 64.1812 130.427 63.8452 131.038C63.4481 130.397 63.4939 129.939 63.7994 129.374Z"
                fill="white" />
              <path
                d="M87.5655 107.562C87.7182 107.715 87.9931 107.959 88.1306 108.097C87.5502 108.265 87.5502 108.265 87.5655 107.562Z"
                fill="white" />
              <path
                d="M82.8611 106.646C82.2654 107.012 81.8072 107.028 81.1963 106.692C81.8378 106.294 82.2807 106.325 82.8611 106.646Z"
                fill="white" />
              <path
                d="M47.7773 144.28C48.1439 144.464 48.4799 144.632 48.9687 144.876C47.9606 145.288 47.5635 145.212 47.7773 144.28Z"
                fill="white" />
              <path
                d="M58.3621 127.036C58.6523 127.067 59.0647 126.99 59.2327 127.158C59.5382 127.479 58.9424 127.555 58.9119 127.815C58.8966 127.891 58.9119 127.968 58.9119 128.044C58.1329 128.029 58.4537 127.418 58.3621 127.036Z"
                fill="white" />
              <path
                d="M114.02 123.783C113.378 124.18 112.92 124.149 112.355 123.829C112.95 123.477 113.393 123.462 114.02 123.783Z"
                fill="white" />
              <path
                d="M99.7998 111.732C99.7387 111.625 99.7387 111.549 99.7845 111.503C99.6165 111.503 99.4485 111.519 99.2805 111.519C99.3263 111.564 99.3263 111.641 99.2805 111.748C99.2346 111.855 99.0972 111.931 98.9903 111.992C98.975 112.007 98.8834 111.9 98.8223 111.839C98.8986 111.732 98.9597 111.595 99.0667 111.549C99.1736 111.488 99.2499 111.488 99.2957 111.534C99.4943 111.106 98.6084 111.076 98.8986 110.602C99.9067 110.266 99.7693 110.969 99.7998 111.519C99.8456 111.473 99.922 111.473 100.029 111.519C100.136 111.564 100.212 111.702 100.273 111.809C100.289 111.824 100.182 111.916 100.121 111.977C99.9984 111.885 99.8609 111.824 99.7998 111.732Z"
                fill="white" />
              <path
                d="M89.6427 105.118C89.994 105.576 90.1468 105.897 89.5969 106.126C89.3067 105.836 89.322 105.546 89.6427 105.118Z"
                fill="white" />
              <path
                d="M50.4807 136.735C50.1447 137.117 49.8087 137.132 49.4421 136.766C49.7782 136.384 50.1294 136.369 50.4807 136.735Z"
                fill="white" />
              <path
                d="M49.61 124.76C49.6253 124.608 49.6864 124.363 49.7627 124.348C50.0682 124.272 50.114 124.501 50.114 124.745C50.114 124.913 50.1293 125.081 50.1293 125.249C49.9613 125.249 49.7933 125.264 49.6253 125.264C49.6253 125.081 49.5947 124.913 49.61 124.76Z"
                fill="white" />
              <path
                d="M50.1294 125.234C50.2821 125.234 50.4349 125.219 50.5876 125.219C50.6182 124.761 50.4654 124.409 50.9084 124.226C51.2597 124.562 51.2291 124.898 50.5571 125.494C50.1752 125.708 50.1294 125.494 50.1294 125.234Z"
                fill="white" />
              <path
                d="M112.233 126.135C112.615 126.471 112.63 126.807 112.263 127.174C111.881 126.838 111.866 126.502 112.233 126.135Z"
                fill="white" />
              <path
                d="M52.008 134.093C52.0997 133.757 52.5579 133.757 52.9092 134.062C52.8175 134.169 52.68 134.368 52.6495 134.353C52.4357 134.23 51.9622 134.597 51.9775 134.215C51.8248 134.826 52.3135 134.826 52.4662 135.254C52.0538 135.223 52.1149 135.941 51.5804 135.819C51.4734 135.3 51.2291 134.811 52.008 134.093Z"
                fill="white" />
              <path
                d="M114.631 112.022C114.295 112.404 113.958 112.419 113.607 112.053C113.928 111.671 114.264 111.655 114.631 112.022Z"
                fill="white" />
              <path
                d="M144.842 132.596C144.43 132.917 144.155 132.978 143.88 132.688C144.155 132.245 144.43 132.245 144.842 132.596Z"
                fill="white" />
              <path
                d="M55.0781 136.842C55.4141 136.826 55.7654 136.826 56.1014 136.811C56.1625 137.117 55.9792 137.285 55.7349 137.33C55.3836 137.376 55.0476 137.33 55.0781 136.842Z"
                fill="white" />
              <path
                d="M59.9352 128.533C59.2784 128.548 58.6369 128.579 57.9801 128.594C57.9801 128.426 57.9648 128.258 57.9648 128.09C58.7133 128.136 59.8283 127.769 59.9352 128.533Z"
                fill="white" />
              <path
                d="M60.4851 127.663C60.7753 127.373 61.0655 127.388 61.4932 127.709C61.035 128.06 60.7142 128.213 60.4851 127.663Z"
                fill="white" />
              <path
                d="M96.2715 104.95C96.6533 105.286 96.6686 105.622 96.302 105.989C95.9202 105.653 95.9202 105.317 96.2715 104.95Z"
                fill="white" />
              <path
                d="M63.8452 111.09C64.1354 111.381 64.1201 111.671 63.7994 112.098C63.4481 111.64 63.2953 111.319 63.8452 111.09Z"
                fill="white" />
              <path
                d="M54.8795 140.309C55.1087 140.447 55.6585 139.973 55.5668 140.508C55.4905 140.92 54.9864 140.92 54.6199 140.599C54.7115 140.492 54.849 140.294 54.8795 140.309Z"
                fill="white" />
              <path
                d="M66.0599 128.09C65.7239 128.472 65.3879 128.487 65.0366 128.12C65.3574 127.739 65.7086 127.723 66.0599 128.09Z"
                fill="white" />
              <path
                d="M71.6503 126.899C71.3142 127.281 70.9783 127.296 70.627 126.929C70.9477 126.548 71.2837 126.548 71.6503 126.899Z"
                fill="white" />
              <path
                d="M72.2154 120.499C72.5972 120.835 72.6125 121.171 72.2459 121.522C71.864 121.186 71.8488 120.85 72.2154 120.499Z"
                fill="white" />
              <path
                d="M127.567 122.79C127.598 122.82 127.598 122.927 127.567 122.958C127.293 123.233 127.018 123.233 126.605 122.882C127.002 122.561 127.293 122.5 127.567 122.79Z"
                fill="white" />
              <path
                d="M104.229 106.004C103.893 106.386 103.557 106.401 103.206 106.034C103.542 105.653 103.878 105.637 104.229 106.004Z"
                fill="white" />
              <path
                d="M80.234 115.107C80.5548 115.519 80.6159 115.794 80.3257 116.084C79.898 115.81 79.898 115.519 80.234 115.107Z"
                fill="white" />
              <path
                d="M81.9142 128.64C81.5782 129.021 81.2422 129.037 80.8909 128.67C81.2116 128.288 81.5629 128.288 81.9142 128.64Z"
                fill="white" />
              <path
                d="M85.0606 108.448C85.5036 108.723 85.5036 109.013 85.1523 109.425C84.8315 109.013 84.7704 108.723 85.0606 108.448Z"
                fill="white" />
              <path
                d="M59.4159 96.8396C59.0799 97.2215 58.7439 97.2368 58.3926 96.8702C58.7286 96.5036 59.0646 96.4883 59.4159 96.8396Z"
                fill="white" />
              <path
                d="M43.2104 148.114C43.5007 147.823 43.7909 147.839 44.2185 148.159C43.7603 148.495 43.4396 148.663 43.2104 148.114Z"
                fill="white" />
              <path
                d="M104.779 111.579C104.932 111.899 105.039 112.174 104.672 112.587C104.336 112.159 104.168 111.838 104.779 111.579Z"
                fill="white" />
              <path
                d="M47.5788 122.576C47.6857 122.637 47.8079 122.683 47.9148 122.744C47.8537 122.805 47.7926 122.912 47.7468 122.912C47.6246 122.882 47.5177 122.821 47.3955 122.759C47.4719 122.698 47.5177 122.637 47.5788 122.576Z"
                fill="white" />
              <path
                d="M53.2606 107.608C53.3828 107.623 53.4896 107.699 53.6118 107.76C53.5507 107.822 53.5049 107.883 53.4286 107.944C53.3216 107.883 53.1994 107.837 53.0925 107.776C53.1536 107.715 53.2147 107.592 53.2606 107.608Z"
                fill="white" />
              <path
                d="M44.2185 147.213C44.2796 147.106 44.3254 146.999 44.3865 146.877C44.4476 146.938 44.5545 146.999 44.5545 147.045C44.524 147.167 44.4629 147.274 44.4018 147.396C44.3407 147.335 44.2949 147.274 44.2185 147.213Z"
                fill="white" />
              <path
                d="M51.1528 112.006C51.2139 111.9 51.2597 111.793 51.3208 111.67C51.3819 111.732 51.4889 111.793 51.4889 111.838C51.4736 111.961 51.3972 112.068 51.3361 112.19C51.275 112.129 51.2292 112.068 51.1528 112.006Z"
                fill="white" />
              <path
                d="M47.2886 132.733C47.3955 132.672 47.5024 132.596 47.6246 132.565C47.6704 132.55 47.7315 132.657 47.7926 132.718C47.6857 132.779 47.5788 132.84 47.4719 132.917C47.4108 132.84 47.3497 132.795 47.2886 132.733Z"
                fill="white" />
              <path
                d="M48.0523 135.62C48.1745 135.651 48.2814 135.712 48.4036 135.773C48.3425 135.834 48.2814 135.941 48.2356 135.941C48.1134 135.925 48.0065 135.849 47.8843 135.788C47.9454 135.727 48.0065 135.605 48.0523 135.62Z"
                fill="white" />
              <path
                d="M48.7702 124.867C49.0757 124.791 49.1367 125.02 49.1214 125.265C48.9534 125.265 48.7854 125.28 48.6174 125.28C48.648 125.142 48.6785 124.898 48.7702 124.867Z"
                fill="white" />
              <path
                d="M49.3811 134.2C49.488 134.138 49.5949 134.077 49.7018 134.001C49.7782 134.062 49.824 134.123 49.8851 134.184C49.7782 134.245 49.6713 134.322 49.5491 134.352C49.5033 134.368 49.4422 134.261 49.3811 134.2Z"
                fill="white" />
              <path
                d="M50.6029 135.544C50.7251 135.574 50.832 135.635 50.9542 135.697C50.8931 135.758 50.8473 135.819 50.7862 135.88C50.6793 135.819 50.5571 135.773 50.4502 135.712C50.496 135.651 50.5723 135.529 50.6029 135.544Z"
                fill="white" />
              <path
                d="M52.6953 125.417C52.8022 125.356 52.9092 125.295 53.0161 125.218C53.0925 125.279 53.1383 125.34 53.1994 125.402C53.0925 125.463 52.9855 125.539 52.8633 125.57C52.8328 125.585 52.7564 125.478 52.6953 125.417Z"
                fill="white" />
              <path
                d="M53.0771 136.69C53.1535 136.583 53.2146 136.445 53.3215 136.399C53.4285 136.338 53.5049 136.338 53.5507 136.384C53.5354 136.033 53.6881 135.865 54.0394 135.865C54.0547 136.216 53.902 136.384 53.5507 136.384C53.5965 136.43 53.5965 136.506 53.5507 136.613C53.5049 136.72 53.3674 136.796 53.2605 136.858C53.2147 136.858 53.1382 136.751 53.0771 136.69Z"
                fill="white" />
              <path
                d="M53.7342 137.498C53.8564 137.529 53.9633 137.59 54.0855 137.651C54.0244 137.712 53.9633 137.819 53.9175 137.819C53.7953 137.789 53.6884 137.727 53.5662 137.666C53.6273 137.605 53.6884 137.483 53.7342 137.498Z"
                fill="white" />
              <path
                d="M55.2766 137.957C55.3988 137.987 55.5058 138.048 55.6279 138.109C55.5669 138.17 55.521 138.231 55.4447 138.293C55.3378 138.231 55.2308 138.186 55.1086 138.125C55.1697 138.063 55.2308 137.957 55.2766 137.957Z"
                fill="white" />
              <path
                d="M55.8113 121.583C55.9335 121.599 56.0404 121.675 56.1626 121.736C56.1015 121.797 56.0404 121.904 55.9946 121.904C55.8724 121.889 55.7655 121.813 55.6433 121.751C55.7044 121.69 55.7655 121.583 55.8113 121.583Z"
                fill="white" />
              <path
                d="M56.1167 130.229C56.193 130.198 56.3152 130.366 56.4221 130.443C56.4221 130.519 56.4221 130.595 56.4221 130.672C56.2847 130.626 56.1472 130.611 56.025 130.534C55.8876 130.458 55.9181 130.305 56.1167 130.229Z"
                fill="white" />
              <path
                d="M42.7827 140.325C42.9202 140.371 43.1646 140.401 43.1951 140.493C43.2715 140.798 43.0424 140.859 42.798 140.844C42.7827 140.661 42.7827 140.493 42.7827 140.325Z"
                fill="white" />
              <path
                d="M56.0862 136.308C56.2236 136.353 56.4681 136.384 56.4986 136.476C56.575 136.781 56.3459 136.842 56.1015 136.827C56.0862 136.644 56.0862 136.476 56.0862 136.308Z"
                fill="white" />
              <path
                d="M56.3611 126.884C56.4375 126.777 56.4986 126.639 56.6055 126.593C56.7124 126.532 56.7887 126.532 56.8346 126.578C56.8957 126.089 56.6207 125.524 57.3081 124.99C56.7124 125.937 57.9037 125.921 57.8579 126.548C57.5219 126.563 57.1859 126.563 56.8346 126.578C56.8804 126.624 56.8804 126.7 56.8346 126.807C56.7887 126.914 56.6513 126.991 56.5444 127.052C56.4985 127.052 56.4222 126.945 56.3611 126.884Z"
                fill="white" />
              <path
                d="M57.583 128.151C57.6594 128.12 57.7816 128.288 57.8885 128.364C57.8885 128.441 57.8885 128.517 57.8885 128.594C57.7511 128.548 57.6136 128.532 57.4914 128.456C57.3692 128.364 57.3845 128.212 57.583 128.151Z"
                fill="white" />
              <path
                d="M57.965 124.577C58.0719 124.638 58.1789 124.684 58.301 124.745C58.2399 124.806 58.1789 124.913 58.1331 124.913C58.0109 124.883 57.9039 124.822 57.7817 124.76C57.8428 124.699 57.8886 124.638 57.965 124.577Z"
                fill="white" />
              <path
                d="M57.8427 126.547C58.194 126.517 58.3773 126.685 58.362 127.036C58.0107 127.067 57.8274 126.899 57.8427 126.547Z"
                fill="white" />
              <path
                d="M65.9226 123.752C65.7851 123.706 65.6477 123.691 65.5255 123.615C65.3881 123.538 65.4186 123.386 65.6172 123.309C65.6935 123.279 65.8157 123.447 65.9226 123.523C65.9226 123.6 65.9226 123.676 65.9226 123.752C66.335 123.813 66.9765 123.462 66.9613 124.302C66.9613 124.577 66.8085 124.73 66.5336 124.76C65.6935 124.806 66.0142 124.165 65.9226 123.752Z"
                fill="white" />
              <path
                d="M67.9233 130.839C67.9844 130.946 68.0455 131.053 68.1066 131.16C68.0455 131.236 67.9844 131.282 67.9386 131.343C67.8775 131.236 67.8011 131.13 67.7706 131.007C67.7553 130.977 67.8775 130.9 67.9233 130.839Z"
                fill="white" />
              <path
                d="M124.162 124.99C124.1 124.883 124.1 124.806 124.146 124.761C124.009 124.715 123.871 124.699 123.749 124.623C123.612 124.547 123.642 124.394 123.841 124.318C123.902 124.287 124.039 124.455 124.146 124.531C124.146 124.608 124.146 124.684 124.146 124.761C124.192 124.715 124.268 124.715 124.375 124.761C124.482 124.806 124.559 124.944 124.62 125.051C124.635 125.066 124.528 125.158 124.467 125.219C124.345 125.142 124.207 125.081 124.162 124.99Z"
                fill="white" />
              <path
                d="M126.025 124.806C126.071 124.791 126.132 124.898 126.193 124.959C126.086 125.02 125.979 125.081 125.872 125.157C125.796 125.096 125.75 125.035 125.689 124.974C125.796 124.913 125.903 124.837 126.025 124.806Z"
                fill="white" />
              <path
                d="M126.162 123.936C126.269 123.875 126.376 123.814 126.483 123.737C126.56 123.798 126.605 123.859 126.666 123.921C126.559 123.982 126.453 124.058 126.33 124.089C126.285 124.104 126.223 123.982 126.162 123.936Z"
                fill="white" />
              <path
                d="M127.461 124.669C127.522 124.776 127.583 124.883 127.659 124.99C127.598 125.066 127.537 125.112 127.476 125.173C127.415 125.066 127.338 124.959 127.308 124.837C127.293 124.791 127.4 124.715 127.461 124.669Z"
                fill="white" />
              <path
                d="M78.0653 113.779C78.1874 113.809 78.2944 113.87 78.4166 113.931C78.3555 113.992 78.2944 114.099 78.2485 114.099C78.1263 114.069 78.0194 114.008 77.8972 113.947C77.9583 113.886 78.0194 113.763 78.0653 113.779Z"
                fill="white" />
              <path
                d="M79.2261 107.257C79.333 107.196 79.4399 107.119 79.5621 107.089C79.6079 107.073 79.669 107.196 79.7301 107.241C79.6232 107.303 79.5163 107.364 79.4094 107.44C79.3483 107.364 79.2872 107.318 79.2261 107.257Z"
                fill="white" />
              <path
                d="M84.4649 105.912C84.5871 105.943 84.694 106.004 84.8162 106.065C84.7551 106.126 84.7093 106.187 84.6329 106.248C84.526 106.187 84.4191 106.141 84.2969 106.08C84.358 106.019 84.4191 105.912 84.4649 105.912Z"
                fill="white" />
              <path
                d="M84.8467 118.682C84.9689 118.697 85.0759 118.773 85.1981 118.834C85.137 118.895 85.0911 118.957 85.0147 119.018C84.9078 118.957 84.8009 118.911 84.6787 118.85C84.7398 118.789 84.8009 118.682 84.8467 118.682Z"
                fill="white" />
              <path
                d="M84.9079 103.347C84.969 103.362 85.0301 103.377 85.0759 103.408C84.9996 103.408 84.9079 103.392 84.8315 103.392C84.8621 103.362 84.8774 103.347 84.9079 103.347Z"
                fill="white" />
              <path
                d="M85.0758 103.682C84.9689 103.621 84.8619 103.575 84.7397 103.514C84.7703 103.484 84.8008 103.438 84.8314 103.392C84.9078 103.392 84.9994 103.392 85.0758 103.407C85.1369 103.438 85.198 103.468 85.2438 103.499C85.198 103.56 85.1369 103.621 85.0758 103.682Z"
                fill="white" />
              <path
                d="M86.0686 108.433C86.1908 108.448 86.2977 108.525 86.4199 108.586C86.3588 108.647 86.2977 108.754 86.2519 108.754C86.1297 108.723 86.0228 108.662 85.9006 108.601C85.9617 108.54 86.0381 108.418 86.0686 108.433Z"
                fill="white" />
              <path
                d="M86.3587 103.377C86.3435 103.331 86.4657 103.27 86.5115 103.208C86.5726 103.315 86.6337 103.422 86.6948 103.529C86.6031 103.514 86.4962 103.514 86.4046 103.514C86.3893 103.468 86.374 103.422 86.3587 103.377Z"
                fill="white" />
              <path
                d="M86.527 103.713C86.4812 103.637 86.4353 103.576 86.4048 103.5C86.4964 103.5 86.6033 103.515 86.695 103.515C86.695 103.515 86.695 103.515 86.695 103.53C86.6492 103.606 86.5881 103.652 86.527 103.713Z"
                fill="white" />
              <path
                d="M87.5654 104.202C87.6265 104.309 87.6876 104.416 87.7487 104.523C87.6876 104.599 87.6265 104.645 87.5807 104.706C87.5196 104.599 87.4432 104.492 87.4127 104.37C87.3974 104.324 87.5196 104.263 87.5654 104.202Z"
                fill="white" />
              <path
                d="M143.911 130.915C144.033 130.946 144.14 131.007 144.262 131.068C144.201 131.129 144.155 131.19 144.094 131.251C143.987 131.19 143.865 131.144 143.758 131.083C143.788 131.022 143.865 130.9 143.911 130.915Z"
                fill="white" />
              <path
                d="M99.6012 113.549C99.6623 113.656 99.7234 113.763 99.7845 113.87C99.7234 113.946 99.6623 113.992 99.6165 114.053C99.5554 113.946 99.479 113.84 99.4485 113.717C99.4332 113.687 99.5401 113.61 99.6012 113.549Z"
                fill="white" />
              <path
                d="M103.588 115.825C103.618 115.703 103.679 115.596 103.74 115.474C103.801 115.535 103.863 115.581 103.924 115.657C103.863 115.764 103.817 115.887 103.756 115.993C103.695 115.932 103.588 115.871 103.588 115.825Z"
                fill="white" />
              <path
                d="M17.8711 67.7275C18.0696 67.7734 18.0849 67.865 18.0085 67.9719C17.9322 67.9261 17.8864 67.8803 17.7642 67.8497C17.8405 67.8039 17.81 67.7581 17.8711 67.7275Z"
                fill="white" />
              <path
                d="M18.7418 68.3999C18.4974 68.4763 18.4516 68.4457 18.4363 68.3846C18.4974 68.2166 18.6349 68.1861 18.7418 68.3999Z"
                fill="white" />
              <path
                d="M4.27753 73.7155C4.30808 73.5781 4.36919 73.517 4.43028 73.5017C4.03316 72.8907 4.12481 71.6841 2.71962 72.2798C2.85709 71.959 2.96396 71.7147 3.0556 71.4703C3.16252 71.1954 3.1778 70.9357 2.87232 70.7677C2.87232 70.8288 2.82653 70.9052 2.70434 70.951C2.58215 71.0121 2.41414 70.9662 2.27667 70.951C2.24612 70.951 2.26137 70.783 2.24609 70.6913C2.38356 70.6608 2.53629 70.5844 2.67376 70.615C2.81122 70.6455 2.87234 70.7066 2.88761 70.7677C3.91096 69.4847 3.91095 69.4847 3.07089 68.6752C3.07089 68.7363 3.02509 68.8127 2.9029 68.8737C2.78071 68.9348 2.6127 68.889 2.47524 68.8737C2.44469 68.8737 2.45993 68.7057 2.44466 68.6141C2.58212 68.5835 2.73486 68.5072 2.87232 68.5377C3.00979 68.5683 3.07091 68.6294 3.08618 68.6905C3.34583 68.2628 4.50662 68.5683 4.01786 67.5449C4.62881 67.6518 5.2398 67.6977 5.8202 67.8962C6.14095 68.0031 6.23258 68.3086 5.80491 68.6294C5.68272 68.5988 5.52997 68.6905 5.69798 68.7516C5.39251 68.8126 5.3925 68.9654 5.40778 68.9807C5.54524 69.0112 5.72853 69.0418 5.83544 68.9807C6.12564 68.9654 6.26313 69.1029 6.3395 69.3014C6.27841 69.4847 6.35476 69.6374 6.41585 69.4541C6.47695 69.7596 6.62968 69.7596 6.64495 69.7444C6.66023 69.6374 6.6755 69.5152 6.64495 69.4083C7.50028 69.1639 7.63775 69.2709 7.317 69.836C7.10317 70.2178 7.79051 70.9663 6.72135 71.0579C6.23259 71.1037 6.53807 72.0507 5.8202 72.402C5.65219 72.3562 5.49941 72.4325 5.6827 72.4936C5.37722 72.5547 5.37726 72.7075 5.39254 72.7227C5.51473 72.738 5.65219 72.7533 5.77438 72.7227C6.12568 73.517 6.00344 73.685 5.34667 73.4712C4.99537 73.3642 4.73572 73.1351 4.44552 73.5322C4.50662 73.5322 4.58299 73.5781 4.64409 73.7003C4.70518 73.8224 4.65936 73.9905 4.64409 74.1279C4.64409 74.1585 4.4761 74.1432 4.38446 74.1585C4.33864 74.0057 4.24699 73.853 4.27753 73.7155Z"
                fill="white" />
              <path
                d="M13.4419 75.6243C13.5794 75.5937 13.7321 75.5174 13.8696 75.5479C14.007 75.5785 14.0681 75.6396 14.0834 75.7007C14.4958 74.2496 13.6405 72.7986 13.9765 71.1338C14.5111 71.8669 15.7024 71.8211 15.1678 72.9055C14.8318 73.0736 14.8318 73.2263 14.8471 73.2416C14.9845 73.2721 15.1678 73.3027 15.2747 73.2416C15.3816 73.1958 15.4275 73.1194 15.4275 73.0736C16.3592 73.2416 17.1687 73.2263 17.4894 74.326C16.2675 73.9442 16.1759 75.4257 15.1067 75.5937C14.5263 75.6854 14.5874 76.0214 14.0834 75.7159C14.0834 75.777 14.0376 75.8534 13.9154 75.9145C13.7932 75.9756 13.6252 75.9298 13.4877 75.9145C13.4419 75.8687 13.4572 75.7159 13.4419 75.6243Z"
                fill="white" />
              <path
                d="M22.9114 66.5064C22.8045 66.4911 22.7129 66.4758 22.606 66.4453C22.6365 66.3995 22.6212 66.3842 22.6365 66.3384C22.8656 66.3689 22.9267 66.4453 22.9114 66.5064Z"
                fill="white" />
              <path
                d="M45.5167 69.5302C45.2571 70.2175 46.1888 70.4314 46.0818 71.1951C45.1043 71.7144 44.3254 72.2948 43.6228 72.1726C43.4242 71.1645 43.2409 70.2328 43.0576 69.3317C43.9435 68.9956 44.6919 69.6066 45.5167 69.5302ZM44.4017 70.8285C44.5392 70.7674 44.6766 70.7216 44.7836 70.6299C44.8141 70.5994 44.7683 70.4619 44.753 70.3703C44.6156 70.4314 44.4781 70.4772 44.3712 70.5688C44.3406 70.5841 44.4017 70.7368 44.4017 70.8285Z"
                fill="white" />
              <path
                d="M48.4036 69.1487C48.6174 69.3472 48.8466 69.4541 49.0146 69.1334C49.0604 69.0417 48.8618 68.8432 48.7702 68.6904C49.3659 68.2933 49.9615 68.0948 50.267 68.3544C51.4431 69.7443 50.1448 70.4469 49.763 70.7677C49.1368 71.3023 48.144 70.9204 47.8538 69.8512C48.037 69.6069 48.2203 69.3778 48.4036 69.1487Z"
                fill="white" />
              <path
                d="M22.4686 77.9005C22.2089 77.9158 21.9492 77.9158 21.6743 77.931C21.7201 77.7172 21.7202 77.427 21.8118 77.3812C22.4228 77.1368 23.5835 77.3659 24.164 77.8394C24.2098 77.8699 24.0876 78.0532 23.8432 78.206C23.6905 78.1602 23.5225 78.2365 23.7058 78.2976C23.4003 78.3587 23.4003 78.5114 23.4156 78.5267C23.553 78.5573 23.7363 78.5878 23.8432 78.5267C24.1945 78.5114 24.3473 78.6031 24.4694 78.6947C24.3167 79.6875 24.3167 79.6875 23.3697 80.0694C22.3769 79.6417 22.7588 78.6184 22.4686 77.9005Z"
                fill="white" />
              <path
                d="M58.194 76.4035C58.3009 76.2966 58.5147 76.2813 58.6827 76.2202C58.5758 76.8312 59.0951 77.1977 59.2784 77.7018C58.9882 78.1447 58.8508 78.7557 58.0871 78.7862C57.3387 77.9767 57.4303 77.1672 58.194 76.4035Z"
                fill="white" />
              <path
                d="M62.3943 75.0288C63.2802 75.5939 63.8148 75.9758 64.0744 76.2965C63.662 76.2354 63.2649 76.2354 62.8983 76.0827C62.8525 75.7009 62.7609 75.319 62.3943 75.0288Z"
                fill="white" />
              <path
                d="M45.3183 82.1312C44.7684 81.673 44.8448 81.0162 44.7837 80.4053C45.1503 80.5427 45.5474 80.558 45.9598 80.6191C46.3111 81.0926 46.0514 81.4439 45.3183 82.1312Z"
                fill="white" />
              <path
                d="M46.8149 73.1352C47.1204 72.7533 47.4259 72.3715 47.7161 72.0049C48.0827 72.9519 48.0827 72.9519 49.0907 73.1046C48.6936 73.4864 48.5103 74.0974 47.8994 74.2807C47.4412 73.9752 46.8302 73.853 46.8149 73.1352Z"
                fill="white" />
              <path
                d="M26.9134 75.4106C27.2494 75.2884 27.3869 74.8149 28.0131 74.9218C27.5549 75.655 27.2341 76.3881 26.2871 76.8005C25.9664 76.1132 25.6457 75.4564 25.2485 74.6011C26.058 74.7233 26.3024 75.4717 26.9134 75.4106Z"
                fill="white" />
              <path
                d="M25.9509 67.2847C25.2025 66.689 24.4846 66.1239 23.7209 65.4977C25.7829 65.2838 25.7829 65.2838 25.9509 67.2847Z"
                fill="white" />
              <path
                d="M71.5586 64.4902C71.6044 65.3303 72.6583 65.8649 72.3681 66.766C72.2917 66.9951 72.0779 67.209 71.8794 67.3464C71.7877 67.4075 71.5586 67.2701 71.3906 67.209C71.3601 67.1937 71.3906 64.5513 71.5586 64.4902Z"
                fill="white" />
              <path
                d="M28.9753 54.9897C29.8154 55.4021 30.0903 55.7687 29.5863 56.2422C28.8837 56.899 30.5485 56.9906 29.8612 57.6016C29.5099 57.6321 29.1433 57.6474 28.9753 57.6627C28.2574 56.7462 29.1739 56.0131 28.9753 54.9897Z"
                fill="white" />
              <path
                d="M45.8376 57.2807C45.3183 57.5404 44.7837 57.7848 44.2339 58.0444C44.3714 57.4488 44.4935 56.8684 44.631 56.3032C45.2114 56.4101 45.6085 56.7462 45.8376 57.2807Z"
                fill="white" />
              <path
                d="M35.6348 68.5828C35.9861 68.5523 36.3374 68.5218 36.6887 68.4912C36.7345 68.9189 36.7803 69.3007 36.8261 69.6826C35.6653 69.8964 35.6653 69.8964 35.6348 68.5828Z"
                fill="white" />
              <path
                d="M52.3746 75.2732C52.0081 74.9372 51.6262 74.815 51.7942 74.3109C52.3441 74.2651 52.6038 74.54 52.6343 75.5176C53.1231 75.9452 53.3064 76.4645 53.1689 77.1671C52.0539 76.7853 52.3135 76.0369 52.3746 75.2732Z"
                fill="white" />
              <path
                d="M78.951 20.0127C79.2871 19.6003 79.6078 19.7378 79.8828 20.0127C80.0966 20.2265 80.1119 20.4709 79.8981 20.7459C79.562 21.1735 79.2718 21.0055 78.9663 20.7611C78.7831 20.5015 78.7219 20.2876 78.951 20.0127Z"
                fill="white" />
              <path
                d="M63.9217 10.5736C64.0439 10.8179 64.2424 11.1998 64.5021 11.7038C63.5857 11.5053 63.1733 11.1998 62.8525 10.375C63.3566 10.4666 63.7842 10.543 63.9217 10.5736Z"
                fill="white" />
              <path
                d="M42.6147 53.7524C42.2787 54.5161 41.851 55.0965 41.1025 55.3715C41.4538 54.73 41.4997 53.783 42.6147 53.7524Z"
                fill="white" />
              <path
                d="M66.4113 68.1707C66.7473 67.7583 67.068 67.8805 67.343 68.1707C67.5568 68.3845 67.5721 68.6289 67.3582 68.9039C67.0222 69.3315 66.732 69.1635 66.4265 68.9191C66.2433 68.6747 66.1821 68.4609 66.4113 68.1707Z"
                fill="white" />
              <path
                d="M62.3942 57.6473C61.8597 57.1738 61.3709 56.9294 61.1724 56.1963C61.6306 56.1963 62.043 56.1963 62.4554 56.1963C62.5012 56.624 62.547 57.0211 62.6539 57.8764C62.5776 57.8 62.5164 57.7542 62.4401 57.6778C62.7761 58.0902 62.7609 58.5637 62.6692 59.1136C61.5084 58.7928 61.8902 58.2277 62.3942 57.6473Z"
                fill="white" />
              <path
                d="M66.9611 73.2876C66.9458 74.0513 66.5792 74.5095 65.8308 74.7081C65.8461 73.9444 66.2127 73.4862 66.9611 73.2876Z"
                fill="white" />
              <path
                d="M37.7731 57.7236C37.3607 58.9761 36.9788 59.1899 36.3984 58.411C36.7803 58.2277 37.1774 58.0291 37.7731 57.7236Z"
                fill="white" />
              <path
                d="M24.4999 63.6652C24.8665 63.3597 25.3095 63.7263 25.4011 64.2609C25.2484 64.2914 24.9735 64.3525 24.9582 64.3372C24.8513 64.0623 24.0265 64.0623 24.4999 63.6652Z"
                fill="white" />
              <path
                d="M30.1972 59.0833C30.1972 59.1291 30.1208 59.2208 30.075 59.2208C29.6321 59.2513 29.3877 59.0375 29.2502 58.2891C29.8306 58.5334 30.1972 58.5793 30.1972 59.0833Z"
                fill="white" />
              <path
                d="M27.9061 62.0461C27.509 61.9392 27.1882 61.8323 27.1118 61.2061C27.738 61.2366 28.1352 61.3282 27.9061 62.0461Z"
                fill="white" />
              <path
                d="M16.0993 78.8167C15.5342 79 15.2898 78.7862 15.1523 78.0225C15.7175 78.2668 16.084 78.3279 16.0993 78.8167Z"
                fill="white" />
              <path
                d="M24.6681 72.3101C24.6528 72.9057 24.5001 73.1959 24.0418 73.2265C23.8433 72.6614 24.0724 72.417 24.6681 72.3101Z"
                fill="white" />
              <path
                d="M28.8378 69.1027C28.8683 69.5456 28.6545 69.79 28.0588 69.8969C28.0741 69.3012 28.2268 69.011 28.7003 68.9805C28.7461 68.9652 28.8378 69.0416 28.8378 69.1027Z"
                fill="white" />
              <path
                d="M38.3838 61.3288C38.9489 61.1455 39.1933 61.3593 39.3308 62.123C38.7656 61.8786 38.3838 61.8175 38.3838 61.3288Z"
                fill="white" />
              <path
                d="M30.854 73.3796C30.4722 73.2727 30.1362 73.1658 30.0598 72.5396C30.686 72.5548 31.0831 72.6617 30.854 73.3796Z"
                fill="white" />
              <path
                d="M36.8719 67.6975C36.4747 67.5906 36.154 67.4836 36.0776 66.8574C36.7039 66.8727 37.101 66.9796 36.8719 67.6975Z"
                fill="white" />
              <path
                d="M34.7182 73.1502C34.1531 73.3335 33.9087 73.1196 33.7712 72.356C34.3364 72.6003 34.7029 72.6462 34.7182 73.1502Z"
                fill="white" />
              <path
                d="M41.2708 73.9902C41.3013 74.1582 41.3624 74.4179 41.3319 74.4332C41.0417 74.5401 41.0417 75.3496 40.6598 74.8914C40.3543 74.5248 40.7209 74.0819 41.2708 73.9902Z"
                fill="white" />
              <path
                d="M35.9248 83.6741C35.9554 84.1323 35.7415 84.3767 35.1611 84.3156C35.4361 84.1629 35.1764 83.3534 35.9248 83.6741Z"
                fill="white" />
              <path
                d="M44.4474 83.5366C44.1725 83.6893 44.4322 84.4988 43.6837 84.1781C43.6532 83.7199 43.867 83.4755 44.4474 83.5366Z"
                fill="white" />
              <path
                d="M51.4278 81.8562C51.0306 81.7493 50.7099 81.6423 50.6335 81.0161C51.2445 81.0467 51.6416 81.1383 51.4278 81.8562Z"
                fill="white" />
              <path
                d="M22.9726 55.0353C22.5144 55.0659 22.27 54.852 22.1326 54.2563C22.7893 54.3022 23.1864 54.3938 22.9726 55.0353Z"
                fill="white" />
              <path
                d="M8.95145 75.4258C9.13473 75.9909 8.92092 76.2353 8.15723 76.3727C8.40161 75.8076 8.46269 75.4258 8.95145 75.4258Z"
                fill="white" />
              <path
                d="M25.1873 55.204C24.6069 55.2957 24.3014 55.0513 24.2556 54.4709C24.8513 54.3793 25.1568 54.6236 25.1873 55.204Z"
                fill="white" />
              <path
                d="M19.2152 61.2974C19.2304 61.389 19.2304 61.4807 19.2457 61.5876C19.1235 61.6334 18.9861 61.6945 18.8486 61.7556C18.8333 61.6639 18.7875 61.5265 18.8333 61.4959C18.9402 61.389 19.0777 61.3432 19.2152 61.2974Z"
                fill="white" />
              <path
                d="M15.5344 65.5292C15.6719 65.4987 15.8246 65.4223 15.9621 65.4528C16.0996 65.4834 16.1607 65.5445 16.1759 65.6056C16.3134 65.5139 16.4356 65.407 16.5883 65.3612C16.7563 65.3001 16.8785 65.4376 16.7869 65.6667C16.7563 65.743 16.5272 65.743 16.3745 65.7736C16.3134 65.7278 16.237 65.6667 16.1759 65.6209C16.1759 65.6819 16.1301 65.7583 16.0079 65.8194C15.8857 65.8805 15.7177 65.8347 15.5802 65.8194C15.5344 65.7736 15.5344 65.6208 15.5344 65.5292Z"
                fill="white" />
              <path
                d="M19.3985 62.9321C19.368 63.0696 19.3527 63.2223 19.3222 63.3598C19.2153 63.3751 19.1236 63.3751 19.032 63.3903C19.0625 63.2529 19.0778 63.1001 19.1389 62.9627C19.1542 62.9321 19.3069 62.9474 19.3985 62.9321Z"
                fill="white" />
              <path
                d="M18.7419 65.5137C18.803 65.6359 18.8488 65.7733 18.9099 65.9108C18.8182 65.9261 18.6808 65.9719 18.6502 65.9413C18.5586 65.8344 18.5128 65.6817 18.4517 65.5595C18.5433 65.5289 18.6349 65.5289 18.7419 65.5137Z"
                fill="white" />
              <path
                d="M20.2846 64.5054C20.3457 64.6276 20.3915 64.765 20.4526 64.9025C20.3609 64.9178 20.2235 64.9636 20.1929 64.933C20.1013 64.8261 20.0555 64.6734 19.9944 64.5512C20.086 64.5206 20.1777 64.5054 20.2846 64.5054Z"
                fill="white" />
              <path
                d="M24.0875 63.6805C24.3471 63.7416 24.3777 63.9096 24.1333 64.0318C24.0111 64.0929 23.8431 64.047 23.7056 64.0318C23.6751 64.0318 23.6903 63.8638 23.675 63.7721C23.7972 63.7416 23.95 63.6499 24.0875 63.6805Z"
                fill="white" />
              <path
                d="M25.6913 68.0483C25.7372 68.1705 25.7983 68.308 25.8594 68.4455C25.7677 68.4607 25.6302 68.5066 25.5997 68.476C25.508 68.3691 25.4622 68.2163 25.4011 68.0942C25.4928 68.0789 25.5844 68.0636 25.6913 68.0483Z"
                fill="white" />
              <path
                d="M32.8395 60.168C32.8089 60.3054 32.7937 60.4582 32.7631 60.5956C32.6562 60.6109 32.5645 60.6109 32.4729 60.6262C32.5034 60.4887 32.5187 60.336 32.5798 60.1985C32.5951 60.1527 32.7478 60.168 32.8395 60.168Z"
                fill="white" />
              <path
                d="M23.5379 73.7158C23.5531 73.8075 23.599 73.9449 23.5684 73.9755C23.4615 74.0671 23.3088 74.1129 23.1866 74.174C23.1713 74.0824 23.1713 73.9907 23.156 73.8838C23.2629 73.8227 23.4004 73.7769 23.5379 73.7158Z"
                fill="white" />
              <path
                d="M24.6681 74.0059C24.7598 74.1128 24.8056 74.2655 24.8667 74.3877C24.775 74.403 24.6376 74.4488 24.607 74.4183C24.5154 74.3114 24.4695 74.1586 24.4084 74.0364C24.5001 74.0212 24.6376 73.9753 24.6681 74.0059Z"
                fill="white" />
              <path
                d="M27.4326 71.3323C27.5396 71.2407 27.6923 71.1949 27.8145 71.1338C27.8298 71.2254 27.8756 71.3629 27.845 71.3934C27.7381 71.4851 27.5854 71.5309 27.4632 71.592C27.4479 71.5156 27.4021 71.3629 27.4326 71.3323Z"
                fill="white" />
              <path
                d="M29.0517 72.2641C29.1433 72.371 29.1891 72.5238 29.2502 72.646C29.1586 72.6612 29.0669 72.6612 28.96 72.6765C28.8989 72.5543 28.8531 72.4168 28.792 72.2794C28.8836 72.2794 29.0211 72.2183 29.0517 72.2641Z"
                fill="white" />
              <path
                d="M18.2378 80.2679C18.4058 80.2068 18.528 80.3443 18.4364 80.5734C18.4058 80.6498 18.1767 80.6498 18.024 80.6803C17.9629 80.6192 17.8865 80.5734 17.8254 80.5123C17.9629 80.4359 18.0851 80.329 18.2378 80.2679Z"
                fill="white" />
              <path
                d="M58.8508 71.8368C58.9883 71.8063 59.141 71.7299 59.2785 71.7605C59.416 71.791 59.477 71.8521 59.4923 71.9132C59.6298 71.8215 59.7519 71.7146 59.9047 71.6688C60.0727 71.6077 60.1949 71.7452 60.1032 71.9743C60.0727 72.0507 59.8436 72.0507 59.6909 72.0812C59.6298 72.0201 59.5534 71.9743 59.4923 71.9132C59.4923 71.9743 59.4465 72.0506 59.3243 72.1117C59.2021 72.1728 59.0341 72.127 58.8966 72.1117C58.8508 72.0812 58.8661 71.9285 58.8508 71.8368Z"
                fill="white" />
              <path
                d="M39.8196 59.3735C39.957 59.4041 40.1098 59.4194 40.2472 59.4805C40.2931 59.4957 40.2778 59.6485 40.2778 59.7401C40.1404 59.7096 39.9876 59.6943 39.8502 59.6637C39.8502 59.5568 39.8349 59.4652 39.8196 59.3735Z"
                fill="white" />
              <path
                d="M34.3975 66.6436C34.4127 66.7352 34.4585 66.8727 34.428 66.9032C34.3211 66.9949 34.1683 67.0407 34.0462 67.1018C34.0309 67.0101 34.0309 66.9185 34.0156 66.8116C34.1378 66.7657 34.26 66.7046 34.3975 66.6436Z"
                fill="white" />
              <path
                d="M28.5781 74.1274C28.6239 74.1427 28.6086 74.2954 28.6086 74.3871C28.4711 74.3565 28.3184 74.3413 28.1809 74.3107C28.1656 74.2038 28.1657 74.1122 28.1504 74.0205C28.2879 74.0511 28.4406 74.0663 28.5781 74.1274Z"
                fill="white" />
              <path
                d="M39.9723 60.748C40.0182 60.7633 40.0029 60.916 40.0029 61.0077C39.8654 60.9771 39.7127 60.9619 39.5752 60.9313C39.5599 60.8244 39.56 60.7328 39.5447 60.6411C39.6974 60.6717 39.8502 60.6869 39.9723 60.748Z"
                fill="white" />
              <path
                d="M43.3327 57.2964C43.3021 57.4339 43.2868 57.5866 43.2563 57.7241C43.1494 57.7393 43.0577 57.7393 42.9661 57.7546C42.9966 57.6171 43.0119 57.4644 43.073 57.3269C43.1035 57.2964 43.241 57.3117 43.3327 57.2964Z"
                fill="white" />
              <path
                d="M42.3091 59.2357C42.416 59.144 42.5688 59.0982 42.691 59.0371C42.7062 59.1288 42.752 59.2662 42.7215 59.2968C42.6146 59.3884 42.4618 59.4342 42.3396 59.4953C42.3244 59.4037 42.2786 59.2662 42.3091 59.2357Z"
                fill="white" />
              <path
                d="M54.4366 79.0156C54.4061 79.1531 54.3908 79.3058 54.3603 79.4433C54.2534 79.4586 54.1617 79.4586 54.0701 79.4738C54.1006 79.3364 54.1159 79.1836 54.1769 79.0462C54.1922 79.0004 54.345 79.0156 54.4366 79.0156Z"
                fill="white" />
              <path
                d="M35.6651 70.2325C35.7262 69.9729 35.8942 69.9423 36.0164 70.1867C36.0775 70.3089 36.0317 70.4769 36.0164 70.6144C36.0164 70.6449 35.8484 70.6297 35.7567 70.6449C35.7262 70.5227 35.6345 70.37 35.6651 70.2325Z"
                fill="white" />
              <path
                d="M49.7475 67.1174C49.9002 66.7967 50.1446 66.9036 50.3584 67.1022C50.2362 67.2549 50.1141 67.4076 49.9919 67.5604C49.9002 67.4076 49.7017 67.2091 49.7475 67.1174Z"
                fill="white" />
              <path
                d="M33.6032 74.3872C33.649 74.4025 33.6338 74.5552 33.6338 74.6468C33.4963 74.6163 33.3436 74.601 33.2061 74.5705C33.1908 74.4636 33.1908 74.3719 33.1755 74.2803C33.3283 74.3108 33.481 74.3261 33.6032 74.3872Z"
                fill="white" />
              <path
                d="M41.4235 65.8341C41.4846 65.5744 41.6526 65.5439 41.7748 65.7883C41.8359 65.9105 41.7901 66.0785 41.7748 66.2159C41.7748 66.2465 41.6068 66.2312 41.5152 66.2465C41.4693 66.109 41.393 65.9563 41.4235 65.8341Z"
                fill="white" />
              <path
                d="M31.9537 78.1753C31.9232 78.3128 31.9079 78.4655 31.8774 78.603C31.7704 78.6182 31.6788 78.6182 31.5872 78.6335C31.6177 78.496 31.6329 78.3433 31.694 78.2058C31.7093 78.16 31.8621 78.1906 31.9537 78.1753Z"
                fill="white" />
              <path
                d="M31.4191 80.8784C31.4649 80.8937 31.4497 81.0464 31.4497 81.1381C31.3122 81.1075 31.1595 81.0922 31.022 81.0617C31.0068 80.9548 31.0067 80.8631 30.9915 80.7715C31.1442 80.8173 31.2969 80.8173 31.4191 80.8784Z"
                fill="white" />
              <path
                d="M33.2979 78.9998C33.4048 78.9082 33.5575 78.8624 33.6797 78.8013C33.695 78.8929 33.695 78.9845 33.7102 79.0915C33.588 79.1526 33.4506 79.1984 33.3131 79.2595C33.3131 79.1678 33.2673 79.0304 33.2979 78.9998Z"
                fill="white" />
              <path
                d="M32.9005 80.5732C32.9921 80.6801 33.038 80.8328 33.0991 80.955C33.0074 80.9703 32.8699 81.0161 32.8394 80.9703C32.7477 80.8634 32.702 80.7107 32.6409 80.5885C32.7325 80.5885 32.8699 80.5274 32.9005 80.5732Z"
                fill="white" />
              <path
                d="M32.7785 81.8252C32.7479 81.9627 32.7326 82.1154 32.7021 82.2529C32.5952 82.2681 32.5035 82.2834 32.4119 82.2834C32.4424 82.1459 32.4577 81.9932 32.5188 81.8557C32.5341 81.8252 32.6868 81.8405 32.7785 81.8252Z"
                fill="white" />
              <path
                d="M44.5697 68.3239C44.5391 68.4003 44.31 68.4003 44.1573 68.4308C44.0962 68.3697 44.0198 68.3239 43.9587 68.2628C44.0962 68.1712 44.2184 68.0642 44.3711 68.0184C44.5391 67.9573 44.6613 68.0948 44.5697 68.3239Z"
                fill="white" />
              <path
                d="M53.1996 59.6639C53.3065 59.5722 53.4592 59.5264 53.5814 59.4653C53.5967 59.557 53.6425 59.6944 53.6119 59.725C53.505 59.8166 53.3523 59.8624 53.2301 59.9235C53.1995 59.8319 53.1537 59.6944 53.1996 59.6639Z"
                fill="white" />
              <path
                d="M36.5051 81.5511C36.6121 81.4595 36.7648 81.4136 36.887 81.3525C36.9023 81.4442 36.9022 81.5358 36.9175 81.6427C36.7953 81.7038 36.6578 81.7497 36.5204 81.8108C36.5204 81.7344 36.4746 81.5816 36.5051 81.5511Z"
                fill="white" />
              <path
                d="M37.9411 80.8328C38.0327 80.9397 38.0785 81.0924 38.1396 81.2146C38.0479 81.2299 37.9563 81.2299 37.8494 81.2452C37.7883 81.123 37.7425 80.9855 37.6814 80.848C37.7578 80.848 37.9105 80.8022 37.9411 80.8328Z"
                fill="white" />
              <path
                d="M37.7424 85.1704C37.7882 85.1857 37.7729 85.3384 37.7729 85.43C37.6354 85.3995 37.4827 85.3842 37.3452 85.3537C37.33 85.2468 37.33 85.1551 37.3147 85.0635C37.4522 85.094 37.6049 85.094 37.7424 85.1704Z"
                fill="white" />
            </svg>