<svg width="269" height="278" viewBox="0 0 269 278" fill="none" xmlns="http://www.w3.org/2000/svg">
  <path
    d="M42.6324 253.446C50.8008 261.772 60.2258 269.222 71.0421 273.777C80.6241 277.794 91.2834 278.849 101.112 275.079C112.961 270.523 121.309 259.819 127.031 248.913C131.093 241.149 134.302 232.958 138.094 225.059C142.156 216.621 146.599 208.296 152.209 200.756C157.572 193.553 164.192 187.067 172.361 183.163C180.327 179.325 189.415 178.473 198.055 180.021C205.146 181.278 211.946 183.903 219.127 184.554C225.455 185.115 231.783 183.836 237.55 181.255C239.435 180.739 241.298 180.021 243.093 179.056C249.668 175.466 254.672 169.407 258.375 162.989C266.454 148.963 269.707 132.492 268.541 116.447C265.78 78.6126 242.846 44.9744 211.766 24.217C184.052 5.72602 149.606 -3.45213 116.417 1.19305C99.721 3.52685 83.4965 9.63066 69.561 19.1679C55.9172 28.5255 43.7769 40.3965 33.4768 53.3222C14.1331 77.5804 2.1723 107.292 0.287301 138.327C-1.4855 167.275 4.95492 197.143 19.3617 222.366C25.8021 233.609 33.5665 244.201 42.6324 253.446Z"
    fill="currentColor" />
  <path
    d="M105.375 222.209C99.3836 222.501 93.392 222.95 87.4228 223.556C81.3414 224.184 75.2825 225.037 69.2235 225.733C63.4115 226.406 57.5994 226.989 51.7425 227.281C46.0426 227.573 40.41 227.416 34.7101 227.236C30.783 227.124 26.6765 227.258 22.6372 227.842C23.086 228.56 23.5348 229.256 23.9836 229.951C26.8784 229.592 29.7732 229.458 32.5559 229.458C35.2263 229.458 37.8967 229.66 40.5896 229.704C43.462 229.772 46.3567 229.727 49.2291 229.637C54.8841 229.435 60.4942 228.942 66.1268 228.336C72.1184 227.685 78.11 226.855 84.1016 226.159C90.0483 225.463 96.0399 224.97 102.031 224.633C114.015 223.937 125.998 223.803 138.004 223.825C138.228 223.825 138.475 223.825 138.699 223.825C139.058 223.062 139.44 222.322 139.821 221.559C128.332 221.559 116.842 221.648 105.375 222.209Z"
    fill="white" />
  <path
    d="M134.076 189.334C129.364 189.222 124.853 188.369 120.298 187.224C116.012 186.125 111.726 184.823 107.327 184.217C103.333 183.656 99.3611 183.746 95.434 184.689C91.9782 185.497 88.7019 186.91 85.4032 188.234C82.1044 189.558 78.7159 190.748 75.1479 191.062C70.9066 191.443 66.5756 191.353 62.3343 191.443C57.8911 191.533 53.4704 191.578 49.0272 191.6C46.9402 191.6 44.8308 191.69 42.7439 191.398C40.7915 191.129 38.8617 190.613 36.9991 189.962C33.4311 188.728 30.0425 187.022 26.5194 185.631C22.9738 184.24 19.3609 183.342 15.546 183.185C12.2473 183.05 8.94851 183.454 5.76197 184.285C5.31316 184.397 4.88682 184.532 4.46045 184.644C4.63997 185.384 4.8195 186.125 5.02146 186.865C6.14348 186.529 7.26551 186.215 8.38753 185.99C11.6638 185.339 15.0747 185.227 18.3735 185.676C22.0762 186.192 25.5545 187.583 28.943 189.087C32.3539 190.568 35.7873 192.139 39.4227 193.036C43.3497 194.001 47.3441 193.867 51.3385 193.844C55.7593 193.822 60.1576 193.755 64.5784 193.642C68.6401 193.553 72.8365 193.71 76.8533 193.104C83.8099 192.027 89.8464 188.167 96.6907 186.708C105.128 184.891 113.274 187.853 121.375 189.827C125.729 190.882 130.082 191.555 134.548 191.623C139.462 191.712 144.377 191.353 149.291 191.062C153.286 190.837 157.213 190.725 161.162 190.815C162.015 190.052 162.89 189.311 163.788 188.593C163.204 188.548 162.621 188.526 162.037 188.504C152.702 188.055 143.412 189.536 134.076 189.334Z"
    fill="white" />
  <path
    d="M19.766 119.656C24.1194 118.13 28.0914 115.729 32.3102 113.912C37.1573 111.825 42.2289 110.815 47.5024 110.658C58.9246 110.321 70.1448 113.261 81.2304 115.527C86.6385 116.649 92.0916 117.637 97.5895 118.175C100.417 118.445 103.289 118.602 106.139 118.534C108.473 118.489 110.874 118.422 113.096 117.592C117.068 116.088 120.165 112.565 124.72 113.126C129.208 113.665 132.574 117.412 135.85 120.195C139.598 123.381 143.503 125.244 148.462 125.693C153.825 126.186 159.121 124.952 164.372 123.965C167.222 123.426 170.117 122.977 173.034 122.91C176.131 122.843 179.228 123.202 182.325 123.269C188.271 123.426 194.218 123.202 200.142 122.641C211.991 121.564 223.682 119.275 235.374 117.21C246.28 115.28 257.029 112.386 267.8 109.648C267.688 108.885 267.576 108.144 267.464 107.404C259.767 109.379 252.092 111.421 244.417 113.126C232.636 115.729 220.631 117.794 208.67 119.409C203.015 120.172 197.315 120.733 191.615 120.958C188.586 121.07 185.556 121.093 182.549 121.025C179.452 120.958 176.333 120.599 173.236 120.644C162.846 120.778 150.684 127.062 140.9 121.16C137.085 118.871 134.212 115.28 130.442 112.924C126.874 110.68 122.7 110.097 118.818 111.914C117 112.767 115.407 113.979 113.612 114.876C111.39 115.999 109.034 116.178 106.588 116.245C100.911 116.425 95.2556 115.774 89.6904 114.832C78.5824 112.947 67.6539 109.872 56.4112 108.75C51.0928 108.212 45.6847 108.167 40.3887 109.064C35.5865 109.895 31.1882 111.825 26.8347 113.956C22.5935 116.066 18.2849 118.198 13.5275 118.826C9.95945 119.297 6.4139 118.938 2.91319 118.198C2.77855 118.893 2.62148 119.611 2.50928 120.329C8.20915 121.496 13.9539 121.698 19.766 119.656Z"
    fill="white" />
  <path
    d="M61.527 55.7456C66.8678 53.3221 70.952 48.7666 76.9211 47.7119C83.9674 46.4553 91.1035 48.9462 98.1722 48.1159C102.099 47.6671 105.69 46.2084 109.325 44.7947C113.723 43.0668 118.301 41.8774 122.969 41.1818C131.474 39.9251 140.113 40.2393 148.663 39.8353C153.353 39.6109 157.998 39.1397 162.621 38.3318C167.625 37.4791 172.719 37.0303 177.791 36.8059C187.979 36.3795 198.189 36.8956 208.377 37.0527C214.863 37.1425 221.393 37.2547 227.878 36.761C227.07 36.0205 226.262 35.3024 225.432 34.5843C222.605 34.7638 219.777 34.8311 216.927 34.8311C206.784 34.8311 196.663 34.3823 186.543 34.3599C181.426 34.3599 176.287 34.4945 171.193 34.9433C166.279 35.3697 161.432 36.3795 156.54 36.9181C147.698 37.9279 138.812 37.5464 129.948 38.1299C125.662 38.4216 121.376 38.9602 117.179 39.9476C112.512 41.0471 108.226 42.9994 103.67 44.503C100.551 45.5352 97.3869 46.0738 94.0881 45.9616C90.6099 45.827 87.1765 45.3557 83.6982 45.1762C79.9282 44.9966 76.1357 45.1537 72.6126 46.5899C69.9646 47.6671 67.6757 49.3276 65.3194 50.9434C62.6266 52.7835 59.7767 54.3094 56.5677 55.0724C52.7304 55.9925 48.7359 55.611 44.9435 54.7134C41.5101 53.9279 38.1889 52.7611 34.8453 51.639C34.3965 52.1776 33.9701 52.7386 33.5213 53.2772C33.454 53.3445 33.4091 53.4343 33.3418 53.5016C35.4063 54.1748 37.4484 54.8929 39.4905 55.5437C46.7836 57.855 54.3236 59.0219 61.527 55.7456Z"
    fill="white" />
  <path
    d="M14.8062 152.666C18.9353 151.118 22.8848 150.804 27.2158 151.589C33.0727 152.666 38.7951 154.506 44.495 156.234C50.3519 158.007 56.3211 159.668 62.4698 160.004C68.5512 160.341 74.4081 159.151 80.0631 156.952C85.3366 154.91 90.3633 152.307 95.8163 150.736C101.628 149.076 107.53 149.076 113.365 150.534C124.226 153.272 133.83 159.937 145.051 161.418C151.514 162.271 157.887 161.104 164.282 160.296C167.446 159.892 170.633 159.6 173.842 159.735C177.028 159.87 179.542 160.722 182.436 162.001C184.748 163.034 187.216 164.111 189.797 164.044C192.086 163.999 194.375 163.079 196.327 161.889C200.591 159.286 203.643 155.247 208.714 154.035C220.316 151.23 232.636 158.635 243.878 153.115C245.763 152.172 247.424 150.871 249.197 149.749C251.665 148.178 254.336 147.168 257.253 146.944C259.946 146.742 262.639 146.966 265.332 146.966C265.556 146.203 265.78 145.44 265.982 144.677C265.489 144.7 264.995 144.7 264.479 144.7C261.382 144.655 258.263 144.408 255.188 144.924C252.63 145.373 250.207 146.428 248.007 147.819C246.302 148.919 244.709 150.198 242.869 151.095C240.221 152.419 237.236 152.891 234.296 152.935C228.148 153.07 222.156 151.477 216.03 151.208C210.465 150.961 205.326 152.038 200.883 155.516C197.18 158.411 193.163 162.697 187.957 161.597C185.264 161.014 182.84 159.6 180.282 158.613C177.634 157.603 174.829 157.424 172.002 157.446C165.449 157.491 159.031 159.039 152.501 159.398C146.397 159.735 140.652 158.478 134.952 156.369C129.679 154.394 124.607 151.903 119.311 149.996C114.128 148.133 108.652 146.877 103.109 147.168C97.3422 147.482 91.9117 149.502 86.6606 151.746C81.4095 153.99 76.1584 156.436 70.481 157.334C64.1528 158.344 57.7797 157.468 51.631 155.875C45.5497 154.304 39.6254 152.217 33.5215 150.669C29.1232 149.547 24.5005 148.358 19.9451 148.964C15.2102 149.592 10.4752 151.746 6.32373 154.013C4.23676 155.157 2.35175 156.504 0.421875 157.76C0.489196 158.658 0.55651 159.578 0.623831 160.475C2.66591 159.219 4.5285 157.67 6.61546 156.459C9.12879 154.955 11.9787 153.721 14.8062 152.666Z"
    fill="white" />
  <path
    d="M42.7223 83.0784C46.8289 82.7867 50.7336 83.1906 54.7055 84.3351C59.3956 85.7039 63.8613 87.8134 68.6411 88.8007C72.7926 89.6535 77.4826 89.6983 81.1853 87.4094C84.8656 85.1654 87.6481 81.5076 92.0913 80.6997C97.4995 79.7348 103.065 81.9564 108.495 81.9788C114.285 82.0013 120.03 81.1934 125.752 80.3407C131.25 79.5328 136.838 78.5679 142.425 78.7923C148.013 79.0167 153.511 80.2285 159.076 80.61C164.641 80.9914 170.005 80.0714 175.435 78.9045C181 77.7151 186.521 76.2565 192.064 74.9325C203.284 72.2172 214.886 69.9059 226.465 71.4318C236.765 72.8007 247.177 74.9325 257.59 76.1667C257.186 75.3589 256.782 74.5286 256.378 73.7207C248.12 72.7109 239.929 71.185 231.716 69.9283C226.51 69.1204 221.348 68.537 216.075 68.739C210.487 68.9409 204.944 69.8161 199.491 70.9381C193.814 72.105 188.181 73.5861 182.549 74.9549C177.028 76.3014 171.373 77.8049 165.718 78.3435C160.019 78.882 154.386 77.8498 148.754 77.1541C143.233 76.4585 137.915 76.4809 132.394 77.1766C126.717 77.8947 121.107 78.9269 115.407 79.443C112.535 79.6899 109.64 79.8694 106.767 79.7348C103.895 79.6001 101.068 78.9269 98.2176 78.5679C95.7267 78.2537 93.1685 78.1415 90.7001 78.7474C88.658 79.2635 86.7954 80.3407 85.1348 81.5973C83.4518 82.854 81.9034 84.3126 80.1306 85.4347C78.2007 86.6465 76.024 87.0728 73.7575 87.0952C68.888 87.185 64.2652 85.2776 59.7546 83.6619C55.5358 82.1583 51.2497 80.8792 46.7392 80.7446C38.6158 80.4977 30.3128 82.6296 22.6382 85.1429C19.0926 86.2874 15.5694 87.5889 12.0911 89.07C11.6648 90.0798 11.2384 91.0672 10.8345 92.077C13.1234 91.0672 15.4572 90.1247 17.791 89.2495C25.7574 86.1976 34.195 83.6843 42.7223 83.0784Z"
    fill="white" />
  <path
    d="M74.9016 23.4093C78.8287 22.3321 82.666 20.8959 86.5482 19.6617C91.3056 18.1358 96.1303 16.9689 101.09 16.363C111.233 15.1287 121.466 15.7795 131.631 15.0165C136.725 14.6351 141.819 13.8721 146.734 12.4359C148.304 11.9646 149.898 11.5607 151.491 11.1792C159.614 9.29423 167.872 7.97023 176.131 6.89309C174.425 6.33208 172.72 5.81596 171.014 5.32227C165.516 6.13012 160.018 7.07262 154.588 8.19464C149.898 9.15958 145.342 10.6631 140.652 11.5832C130.599 13.5355 120.299 13.0193 110.133 13.4233C104.949 13.6252 99.7433 14.0965 94.6493 15.1287C90.0714 16.0712 85.6282 17.5523 81.2074 19.0334C75.9563 20.8062 70.4808 22.6912 65.0054 22.4219C64.1302 23.0727 63.2551 23.7459 62.3799 24.4191C62.9633 24.5313 63.5468 24.621 64.1527 24.6659C67.7881 25.0025 71.4234 24.3518 74.9016 23.4093Z"
    fill="white" />
  <path
    d="M106.879 250.551C100.73 249.99 94.5589 249.25 88.3654 249.631C85.4032 249.811 82.4635 250.26 79.5911 251.045C76.8534 251.808 74.2279 252.818 71.535 253.67C68.8646 254.523 66.1493 255.241 63.3443 255.398C60.4719 255.555 57.6668 255.084 54.9066 254.299C49.7004 252.795 44.7187 250.439 39.2881 249.901C40.1408 250.821 40.9935 251.741 41.8687 252.661C45.4368 253.424 48.8702 254.748 52.3933 255.892C54.974 256.722 57.5995 257.418 60.3148 257.642C63.075 257.867 65.8801 257.53 68.5729 256.879C73.9811 255.578 79.0301 253.087 84.5729 252.279C90.6318 251.404 96.7357 251.853 102.795 252.414C108.786 252.975 114.778 253.648 120.814 253.222C122.183 253.132 123.53 252.975 124.876 252.75C125.37 251.92 125.841 251.09 126.29 250.237C125.706 250.349 125.1 250.439 124.517 250.529C118.682 251.449 112.736 251.09 106.879 250.551Z"
    fill="white" />
</svg>